<?xml version="1.0" encoding="UTF-8"?>
<svg id="Layer_2" data-name="Layer 2" xmlns="http://www.w3.org/2000/svg" viewBox="0 0 265.8 78.06">
  <defs>
    <style>
      .cls-1 {
        fill: #000;
        stroke-width: 0px;
      }
    </style>
  </defs>
  <g id="Layer_3" data-name="Layer 3">
    <g id="branding">
      <path class="cls-1" d="M.77,56.23c-.26.26-.45.39-.58.4-.13.01-.19-.04-.19-.16s.03-.26.09-.42c.06-.16.14-.3.25-.4s.22-.15.33-.12c.12.05.2.06.25.04.05-.02.08-.07.11-.14.05-.07.12-.16.23-.28.11-.12.28-.23.51-.35l1.65-1.58c-.05-.07-.08-.13-.11-.18h.04s.1,0,.16-.02c.06-.01.12-.05.18-.12s.11-.19.16-.37.08-.44.11-.79l3.83-11.07,1.79-4.25,4.39-8.82c.02-.3.12-.59.28-.84.16-.26.35-.5.56-.74.26-.28.49-.58.69-.9s.32-.71.37-1.18l1.58-3.48.46-.63s.03-.08.09-.18c.06-.09.13-.21.23-.35.19-.23.37-.49.54-.77s.25-.52.23-.7l3.27-5.8c-.07-.05-.42.03-1.05.23-.63.2-1.38.46-2.25.79-.87.33-1.68.66-2.44,1-.76.34-1.29.63-1.6.86l-4.5,2.81c-.05.16-.16.25-.33.26-.18.01-.34-.01-.49-.07-.15-.06-.24-.13-.26-.23-.02-.07-.04-.1-.05-.09-.01.01-.03.04-.05.09-.02.07-.06.14-.12.19-.06.06-.13.08-.21.05-.08-.02-.19-.13-.33-.32-.05-.09-.13-.18-.25-.25-.14-.09-.28-.23-.42-.4s-.19-.44-.14-.79c0-.09-.06-.23-.19-.42-.13-.19-.28-.37-.44-.56-.12-.16-.22-.32-.32-.46s-.15-.25-.18-.33c-.02-.08.01-.12.11-.12.21.02.35.03.42.02.07-.01.1-.04.09-.07s-.04-.08-.09-.12c-.07-.07-.12-.15-.16-.25-.04-.09-.02-.19.05-.3s.25-.22.53-.33c.49-.23,1.09-.62,1.79-1.16.8-.59,1.89-1.28,3.27-2.07,1.38-.8,3.26-1.62,5.62-2.46,1.24-.42,2.98-.9,5.2-1.44,2.23-.54,3.97-.82,5.24-.84.47,0,1.15-.08,2.04-.25.82-.12,1.61-.21,2.36-.28s1.25-.01,1.51.18l.21.21s.09.08.14.11v-.04s0-.06.02-.11c.01-.05.05-.09.11-.14.06-.05.15-.09.28-.12s.31-.05.54-.05c.98.02,2.28.13,3.88.32,1.61.19,3.15.43,4.62.72,1.48.29,2.53.59,3.16.9l.81.42s.08.1.25.16c.16.06.38.12.63.19.26.09.51.18.76.26.25.08.45.17.6.26.15.09.19.19.12.28l.88.63s-.06.08-.05.09c.01.01.05.03.12.05.07.02.15.06.23.12.08.06.13.15.16.26.02.21.1.35.23.42s.25.12.37.14c.07,0,.12.01.16.04.04.02.04.06.02.11-.07.09-.07.19,0,.28.07.09.18.2.32.32.23.16.46.4.69.72s.31.76.26,1.32c-.02.16-.04.3-.04.4v.25c0,.06,0,.1.02.12.01.02.04.05.09.07-.02.02-.04.06-.04.11-.02,0-.04.01-.04.04l-.42,1.3s-.07.06-.07.04.01-.07.04-.14c.02-.05.04-.1.05-.16.01-.06,0-.1-.02-.12-.02-.02-.07-.02-.14,0-.12.02-.17.08-.16.18.01.09.04.19.09.28.05.07.08.14.11.19.02.06,0,.1-.07.12,0,.02-.02.02-.05,0-.04-.02-.06-.06-.09-.11-.02-.05-.05-.08-.09-.11-.04-.02-.06-.01-.09.04-.02.05-.05.14-.07.28,0,.12-.01.19-.04.23s-.05.06-.09.07c-.04.01-.06.02-.09.02-.05,0-.08.01-.11.04-.02.02-.04.06-.05.11-.01.05-.02.14-.02.28.02.3-.03.53-.16.69-.13.15-.28.28-.44.37-.12.05-.21.11-.28.18s-.11.14-.11.21c-.02.14-.08.25-.16.32s-.19.14-.33.21c-.12.07-.23.15-.33.25-.11.09-.17.21-.19.35,0,.02-.03.05-.09.09s-.12.08-.19.12c-.21.09-.42.22-.63.37-.21.15-.33.31-.35.47-.02.21-.12.35-.28.4-.16.06-.34.1-.53.12-.14,0-.26.02-.37.05s-.16.09-.16.16c0,.05-.04.12-.12.23s-.18.21-.28.32-.21.18-.32.23c-.11.05-.19.04-.26-.04-.05-.07-.11-.08-.18-.04-.07.05-.15.14-.25.28-.14.16-.34.36-.6.6-.26.23-.61.46-1.05.67l-1.44.63c-.21-.02-.35.02-.42.14-.07.12-.12.23-.14.35-.02.07-.05.13-.07.18-.02.05-.07.06-.14.04-.16-.07-.29-.05-.39.05s-.18.26-.25.46c-.07.2-.13.4-.18.62-.05.16-.09.3-.12.42-.04.12-.08.18-.12.18-.09,0-.16.01-.19.04-.04.02-.05.06-.05.11-.02.02-.05.04-.07.05-.02.01-.05,0-.09-.02-.04-.02-.08-.07-.12-.14-.12-.14-.22-.19-.3-.14-.08.05-.16.14-.23.28-.02.07-.06.15-.12.23-.06.08-.12.14-.19.16-.05,0-.09.04-.14.12-.05.08-.11.17-.18.26-.09.14-.19.27-.28.39-.09.12-.17.19-.23.21-.06.02-.09-.05-.09-.21.02-.12-.04-.18-.18-.19-.14-.01-.3,0-.49.04s-.34.09-.46.18c-.12.08-.16.16-.12.23s.21.12.51.14c-.28.19-.52.3-.7.33s-.34.05-.46.05-.21.01-.26.04c-.06.02-.1.11-.12.25-.02.28-.13.48-.32.6-.19.12-.38.21-.56.28-.14.05-.22.09-.25.14-.02.05.05.11.21.18l5.27,1.23c.28.16.57.27.88.32.21.02.41.07.6.14s.38.2.56.39l1.72.77s.12.02.23.05.23.09.37.18c.14.08.26.18.37.3.11.12.15.26.12.42v.16s0,0,0-.05l.09-.18c.04-.07.08-.12.14-.14.06-.02.13.01.23.11.07.07.11.14.12.21s0,.13-.04.18c-.04.05-.08.08-.12.11-.02.02-.04.04-.04.05s.01.02.04.02.08-.01.18-.04c.05,0,.09-.02.14-.07.05-.05.09-.08.14-.09.05-.01.11.01.19.07.08.06.17.18.26.35s.21.45.35.83c.07.19.15.32.23.4.08.08.15.13.21.14.06.01.11,0,.16-.04s.08-.08.11-.12h.05s.01.01,0,.04c-.01.02-.03.08-.05.18-.05.14-.05.26-.02.35.04.09.09.16.16.21.07.05.12.07.16.07s.05-.02.05-.07c-.02-.05-.02-.11,0-.18s.05-.13.09-.19c.04-.06.07-.09.11-.11.04-.01.05.02.05.09s-.02.19-.07.35c0,.09.04.17.11.23.07.06.14.11.21.16.07.02.11.04.12.05.01.01-.03.02-.12.02s-.27-.01-.53-.04l.18.18c.19.21.29.34.3.39.01.05-.08.06-.26.04h-.18c.3.16.52.25.63.25-.05.02-.1.08-.16.18-.06.09-.09.23-.09.42-.02.16-.06.27-.11.32-.05.05-.09.08-.14.11l-.09.09s-.07.09-.11.18c-.04.08-.05.19-.05.33l-1.58,2.6s-.09.05-.12.07c-.04.02-.05.05-.05.07v.11s.02.11,0,.19c-.02.08-.09.19-.19.33s-.29.33-.54.58-.63.54-1.12.9l-2.88,1.72s-.09.03-.12.09c-.04.06-.08.12-.12.19-.07.14-.17.29-.3.44-.13.15-.32.22-.58.19-.23,0-.42.05-.54.16s-.24.23-.33.37c-.12.19-.27.35-.46.49s-.48.21-.88.21c-.28.02-.5.11-.65.26-.15.15-.26.3-.33.44-.05.07-.09.12-.12.16s-.06.03-.09-.02c-.02-.05-.05-.15-.07-.32-.02-.16-.06-.25-.12-.25s-.14.04-.25.11-.21.16-.3.28c-.12.09-.23.18-.33.26-.11.08-.19.11-.26.09-.07-.02-.15,0-.23.07s-.18.15-.3.25c-.19.19-.39.35-.62.49s-.47.19-.76.14c-.12-.02-.19-.04-.23-.04s-.06.02-.07.05,0,.08.02.12c0,.02,0,.05-.02.07-.01.02-.04.04-.09.04l-.56.21s.03-.07.02-.07-.03.01-.05.04l-.11.11s-.11.08-.18.11c-.07.02-.16.02-.28,0-.14-.05-.24-.04-.3.04s-.1.15-.12.25c-.02.07-.05.14-.09.19-.04.06-.08.08-.12.05-.02,0-.03-.03-.02-.09.01-.06.04-.12.09-.19.02-.09.05-.18.07-.25s.02-.12-.02-.14c-.04-.02-.13,0-.3.07-.05.02-.16.04-.35.05-.19.01-.39.05-.62.11-.22.06-.42.14-.6.25s-.28.24-.3.4l-1.34.63c0-.14-.06-.21-.18-.21s-.25.04-.4.11-.3.15-.44.25c-.14.09-.22.16-.25.21-.05.12-.12.17-.21.16-.09-.01-.19-.03-.28-.05-.09-.02-.17-.04-.23-.05-.06-.01-.1.03-.12.12,0,.16-.09.27-.26.32-.18.05-.39.08-.65.11-.28.02-.58.07-.9.14s-.62.2-.9.39c-.16.12-.34.21-.53.26-.19.06-.36.1-.51.12-.15.02-.25.02-.3-.02s.02-.11.19-.21.49-.23.93-.37c.68-.26,1.18-.47,1.51-.65s.54-.33.63-.46c.09-.13.12-.23.07-.3s-.12-.1-.21-.09c-.09.01-.16.05-.21.12-.05.12-.12.16-.23.14-.11-.02-.21-.07-.3-.14l-.25-.12c-.07-.04-.13-.04-.18-.02-.09.05-.17.06-.23.05-.06-.01-.11-.02-.16-.02-.05-.02-.1-.04-.16-.04s-.14.02-.25.05-.24.11-.4.23l-5.03,1.76c-.09-.07-.06-.16.11-.28.16-.12.39-.24.69-.37.29-.13.56-.24.81-.33.25-.09.38-.14.4-.14.49-.05.88-.15,1.18-.3.29-.15.46-.3.49-.44s-.1-.2-.4-.18c-.3.02-.83.19-1.58.49l-1.27.25c.07.16.05.26-.05.3s-.26.06-.47.09c-.19.02-.38.06-.58.11-.2.05-.38.14-.54.28-.52.38-1.03.59-1.55.63-.52.05-.97.22-1.37.53l-.56.56-1.58.7c-.12-.19-.26-.25-.42-.18s-.32.18-.46.32c-.14.12-.25.19-.33.21-.08.02-.11-.08-.09-.32,0-.16-.04-.27-.11-.32-.07-.05-.15-.05-.25,0-.09.05-.18.11-.25.18s-.11.14-.11.21c.05.16.04.23-.02.21-.06-.02-.15-.07-.26-.14-.12-.09-.25-.18-.39-.25s-.26-.06-.35.04c-.07.07-.14.12-.21.14-.07.02-.14.04-.21.04-.09.02-.18.05-.26.07-.08.02-.16.08-.23.18-.07.09-.13.14-.18.14s-.09-.02-.14-.05-.08-.06-.11-.09c0-.02,0-.04-.02-.04s-.02.01-.02.04.01.07.04.14c0,.05-.05.12-.14.21-.09.09-.22.16-.39.21-.16.05-.36.02-.6-.07-.28-.12-.63-.1-1.05.05-.42.15-.77.3-1.05.44-.14.07-.22.11-.25.11-.16,0-.33.04-.49.11s-.32.15-.46.25c-.16.12-.3.19-.42.23s-.2-.04-.25-.23c-.02-.07-.05-.1-.09-.09-.04.01-.08.03-.12.05-.07.07-.15.12-.25.14-.09.02-.2-.01-.32-.11-.05-.05-.08-.11-.09-.18s-.02-.14-.02-.21c.02-.12.02-.22,0-.3-.02-.08-.11-.14-.25-.16-.14,0-.26-.05-.35-.14-.09-.07-.2-.11-.32-.11s-.29.09-.53.28ZM1.27,56.62c0-.09.03-.15.09-.18.06-.02.11-.02.14,0,.04.02.05.06.04.11-.01.05-.06.09-.16.14-.07.05-.11.02-.11-.07ZM7.79,49.22c-.2.46-.39.86-.58,1.21-.16.3-.29.56-.37.77s-.1.36-.05.46c.07.12.13.18.19.19.06.01.13-.02.23-.09.07-.05.3-.14.69-.28s.81-.26,1.28-.37.88-.13,1.23-.09c.3.07.64.06,1.02-.04.38-.09.71-.22,1.02-.37.3-.15.51-.28.62-.39s.04-.15-.19-.12c-.26.05-.32.04-.18-.02.14-.06.41-.15.81-.26.68-.21,1.42-.46,2.23-.74s1.34-.55,1.6-.81l1.02-.42s.16-.13.49-.26c.33-.13.75-.29,1.27-.47.82-.28,1.66-.6,2.51-.95s1.47-.7,1.85-1.05l5.06-2.67,4.15-2.64,5.55-3.66c.02-.14-.19-.31-.65-.51-.46-.2-.98-.37-1.56-.51s-1.11-.23-1.56-.26-.7.02-.72.16l-8.82.46-2.36-.04c-.12.07-.36.09-.72.05s-.78-.09-1.25-.16c-.56-.09-1.08-.16-1.56-.19s-.8,0-.97.09l.39-.88c-.02-.09-.02-.15,0-.18.02-.02.05-.04.09-.04h.12s.09.03.12.02c.04-.01.06-.04.07-.07s0-.1-.02-.19c-.05-.07-.17-.15-.37-.25-.2-.09-.43-.16-.7-.19s-.53,0-.79.11-.45.32-.56.65c-.07.16-.13.27-.19.32-.06.05-.12.08-.19.11-.09,0-.19.03-.3.09-.11.06-.23.19-.39.4s-.35.55-.58,1.02l-3.34,5.45c-.3.35-.59.77-.86,1.27s-.51.97-.72,1.44c-.16.3-.3.56-.4.76-.11.2-.18.3-.23.3-.02,0-.07.08-.14.25-.07.16-.15.35-.25.56-.09.26-.18.49-.26.7s-.15.32-.19.32-.05-.18,0-.53.04-.54-.02-.58-.15.02-.28.18c-.13.15-.26.35-.39.58-.13.23-.3.55-.51.95-.05.49-.17.97-.37,1.42ZM7.1,55.71c.19,0,.25-.02.18-.07l-.18.07ZM8.82,48.29l-.14.56s-.02-.05,0-.16.07-.24.14-.4ZM10.16,44c-.09,0-.2.11-.32.32s-.22.45-.3.7c-.08.26-.1.45-.05.58.05.13.18.1.39-.09l.28-1.51ZM9.6,55.71l.11.14s-.08-.02-.11-.05-.02-.06,0-.09ZM13.08,54.69c.21-.09.29-.19.25-.28-.05-.09-.15-.16-.32-.19s-.31-.04-.44,0-.18.14-.16.3c.07.28.29.34.67.18ZM14.91,54.93c-.12.09-.19.16-.23.19s-.05.06-.04.07c.01.01.05.02.12.02.12-.02.28.01.49.11l-.67.07c-.09-.23-.12-.42-.07-.54s.12-.22.23-.28c.11-.06.21-.08.3-.07.09.01.13.05.12.12s-.1.18-.26.32ZM16,54.23c-.05.07-.11.12-.19.16s-.15.04-.19,0-.06-.09-.04-.16h.42ZM16.95,53.03s.06-.01.11-.04c.05-.02.08-.05.11-.07l-.21.11ZM18.28,54.54c.28-.12.49-.16.62-.14.13.02.18.06.16.12-.02.06-.13.1-.32.12l-1.27.25c-.07-.09-.09-.15-.07-.18s.08-.04.18-.04c.16,0,.4-.05.7-.14ZM17.4,53.77l.04.14s-.04-.02-.04-.05v-.09ZM19.12,47.9c.09-.07.14-.12.14-.14s-.05-.06-.14-.11c-.14-.02-.23-.02-.28.02s-.06.08-.05.14c.01.06.05.11.11.14s.13.02.23-.05ZM19.79,54.33c-.14.05-.16.01-.07-.11v.04l.07.07ZM20.21,34.51l-.18.11s.05-.01.09-.04c.04-.02.06-.05.09-.07ZM20.43,53.98l.04.11c-.14-.05-.15-.08-.04-.11ZM20.53,53.53l.25.11s-.09,0-.14-.02c-.05-.01-.08-.04-.11-.09ZM21.76,53.53l.18.18s-.09-.05-.12-.07c-.04-.02-.05-.06-.05-.11ZM22.29,53.38c0-.12.02-.19.05-.21.04-.02.07-.01.11.04.04.05.06.1.07.16.01.06.01.11,0,.16-.01.05-.05.07-.12.07-.05,0-.08-.02-.09-.07-.01-.05-.02-.09-.02-.14ZM23.24,51.38c.19-.14.29-.25.3-.33.01-.08-.04-.13-.14-.14-.11-.01-.22,0-.35.05-.13.05-.23.11-.32.19-.08.08-.1.17-.05.26.05.12.11.17.19.16.08-.01.21-.08.37-.19ZM23.52,52.47l.04.14s-.04-.09-.04-.14ZM24.96,22.38c0,.09-.05.21-.14.33-.09.13-.2.28-.32.44-.14.19-.27.38-.39.56-.12.19-.18.34-.18.46s.1.17.3.16c.2-.01.54-.12,1.04-.33l3.27-1.86c.02-.12.25-.35.69-.69.43-.34.94-.7,1.51-1.09s1.08-.72,1.53-1,.7-.43.77-.46l8.4-6.05c.42-.26.83-.57,1.23-.93.4-.36.72-.69.97-.98.25-.29.35-.49.3-.58-.14-.14-.65-.28-1.53-.42s-1.88-.26-3.01-.37-2.14-.18-3.06-.21-1.48,0-1.69.12c-.35.16-.86.26-1.51.28-.54.02-1.04.09-1.51.21-.47.12-.73.38-.77.77-.02.23-.18.66-.47,1.28-.29.62-.63,1.3-1,2.04s-.71,1.4-1.02,1.99c-.21.38-.38.67-.49.9-.12.22-.18.35-.18.37-.09.42-.39,1.07-.9,1.95s-.97,1.66-1.39,2.34c-.3.49-.46.75-.46.77ZM24.64,51.1s.09-.01.12-.04c.04-.02.05-.06.05-.11.02-.07.01-.11-.04-.12-.05-.01-.1-.01-.16,0-.06.01-.11.04-.14.07s-.05.07-.04.11.08.06.19.09ZM24.93,51.63c.05-.09.1-.15.16-.18.06-.02.11-.02.16.02s.06.08.04.12c-.02.05-.09.09-.21.14-.14.05-.19.01-.14-.11ZM25.73,23.36l.07.07c-.16-.02-.19-.05-.07-.07ZM26.44,50.85c.05-.07.05-.13.02-.19-.04-.06-.09-.11-.16-.16-.07-.05-.15-.06-.23-.04-.08.02-.13.11-.16.25-.02.09,0,.16.07.21.07.05.15.06.25.05.09-.01.16-.05.21-.12ZM42.71,25.08s-.05-.12,0-.21c.05-.09.11-.18.19-.25s.16-.12.25-.16.12-.02.12.04-.06.17-.18.33c-.07.12-.14.19-.21.23s-.13.04-.18.02ZM46.3,33.13s.03-.02.02-.07c-.01-.05-.04-.11-.09-.18l.07.25ZM46.76,22.59c-.3.14-.33.12-.07-.07l.07.07ZM49.01,36.54l-.18.07c.07,0,.12,0,.16-.02.04-.01.04-.03.02-.05ZM49.89,37s-.05-.02-.07-.05-.04-.06-.04-.09l.11.14ZM49.82,37.21h.11s.04,0,.05.02c.01.01,0,.02-.02.02s-.07-.01-.14-.04Z"/>
      <path class="cls-1" d="M83.36,32.4c-.19.28-.42.53-.7.76-.28.22-.54.4-.77.54-.16.12-.29.21-.39.28s-.12.13-.07.18c.12.09.16.16.12.19s-.11.05-.21.05h-.56c-.06,0-.08.01-.05.04.12.14.13.42.04.83-.09.41-.25.86-.46,1.35s-.44.9-.69,1.21-.46.45-.65.4c-.12-.05-.23-.06-.33-.04-.11.02-.21.06-.3.11-.14.07-.28.09-.42.07-.14-.02-.32-.16-.53-.42-.84-1.17-1.45-2.35-1.83-3.53-.38-1.18-.6-2.06-.67-2.62-.05-.19-.07-.3-.07-.35-.07-.12-.23-.05-.49.19s-.54.57-.84.97c-.3.4-.59.76-.84,1.09-.23.33-.4.54-.49.63l-6.4,8.47c0,.07-.02.12-.05.16s-.09.08-.16.12c-.09.05-.21.14-.33.28s-.28.39-.44.74c-.23.45-.61.95-1.12,1.51-.73.75-1.3,1.58-1.72,2.5l-2.18,3.59c0,.09-.02.14-.05.14h-.16s-.09-.04-.14-.04-.09.02-.14.07c-.05.05-.08.14-.11.28-.05.16-.11.27-.18.32-.07.05-.14.08-.21.11-.02,0-.05,0-.07.02-.02.01-.04.04-.04.09.05.54-.16,1.01-.62,1.42-.46.41-.93.76-1.42,1.04-.38.23-.63.43-.77.6l-2.11.28c-.45-.12-.79-.21-1.04-.28s-.43-.13-.54-.18c-.12-.05-.2-.09-.25-.12s-.07-.06-.07-.09c-.02-.05-.06-.1-.12-.16-.06-.06-.18-.13-.35-.21-.18-.08-.44-.19-.79-.33-1.43-.59-2.31-1.29-2.64-2.11-.33-.82-.36-1.63-.11-2.43.26-.8.54-1.45.84-1.97.14-.26.23-.44.28-.56.19-.82.49-1.65.9-2.5s.84-1.69,1.28-2.53c.56-.98,1.04-1.92,1.44-2.81l8.09-15.22c.7-1.2,1.46-1.75,2.27-1.65.81.09,1.51.55,2.09,1.37.59.82.88,1.68.88,2.57,0,.4-.06.76-.19,1.09-.13.33-.28.65-.44.95-.26.49-.46,1.07-.6,1.72l-1.79,5.13-1.93,5.34c-.49.84-.36.88.4.11s2-2.2,3.71-4.29c2.37-2.86,4.12-4.97,5.27-6.33,1.15-1.36,2.19-2.58,3.13-3.66.73-.8,1.29-1.43,1.71-1.9.41-.47.71-.82.9-1.05.19-.23.31-.43.37-.58.06-.15.1-.32.12-.51.05-.23.1-.4.16-.51s.11-.17.16-.19c.05-.02.09-.04.14-.04s.09,0,.12-.02c.04-.01.06-.05.07-.12s.02-.18.02-.32c0-.19.05-.32.14-.39s.21-.13.35-.18c.12-.02.22-.07.32-.14s.14-.19.14-.35c0-.12.16-.23.47-.35.32-.12.72-.15,1.21-.11.49.05,1.02.23,1.58.56l.98.21c.35.23.68.4.98.49.35.12.68.29.98.53.3.23.63.67.98,1.3.07.14.13.26.18.35.12.21.2.38.25.49.05.12.07.25.07.39s-.01.35-.04.63c0,.28-.01.68-.04,1.2-.07,1.81-.3,3.09-.69,3.87s-.78,1.32-1.18,1.65c-.21.19-.4.39-.56.6Z"/>
      <path class="cls-1" d="M81.32,39.39c2.02-3.07,4.31-6.21,6.87-9.4s5.24-5.83,8.03-7.89c.47.42.84.73,1.11.93.27.2.48.33.63.39.15.06.3.09.44.09.14.02.29.05.44.09s.36.12.62.26c.19.09.36.18.53.25.59.26,1.07.56,1.46.9.39.34.81.97,1.28,1.88.07.12.13.23.18.35.14.3.28.52.42.63.14.12.36.09.67-.09s.75-.57,1.34-1.18l1.55-1.41c.12-.23.4-.64.84-1.23.38-.47.73-.95,1.07-1.44s.54-.89.62-1.2c.07-.4.22-.59.46-.56.23.02.5.12.81.28.26.14.49.24.7.3.21.06.38,0,.49-.19.07-.09.3-.11.69-.04s.83.21,1.32.42.94.47,1.34.79.63.69.7,1.11c.14,1.08.12,1.88-.07,2.41s-.36.88-.53,1.07c-.09.12-.14.21-.14.28,0,.23-.14.6-.42,1.09s-.55.94-.81,1.34c-.23.38-.36.6-.39.67l-3.06,5.94c0,.23-.06.46-.19.69-.13.22-.28.45-.44.69-.47.56-.79,1.27-.95,2.11l-2.5,6.64c-.21.26-.34.57-.39.93-.05.36-.06.67-.04.93,0,.14,0,.23-.02.28-.01.05-.04.01-.09-.11-.16-.33-.29-.43-.39-.32-.09.12-.17.35-.23.7s-.09.73-.11,1.12c-.01.4-.02.73-.02.98l-1.27.04c-.16.16-.43.19-.79.09s-.75-.29-1.16-.56c-.41-.27-.76-.54-1.05-.83s-.44-.48-.44-.6c0-.28-.06-.54-.18-.77-.12-.23-.25-.44-.39-.63-.16-.21-.3-.42-.4-.63s-.16-.44-.16-.7c0-.02-.01-.07-.04-.14-.07-.12-.14-.49-.21-1.12s-.06-1.7.04-3.2l.11-1.3-.81.21s.06-.09.12-.19.11-.22.14-.33c.04-.12.04-.2.02-.25-.02-.05-.1-.04-.23.04s-.33.23-.62.49c-.26.23-.45.39-.58.47-.13.08-.22.14-.26.16-.05,0-.08,0-.09.02-.01.01-.02.03-.02.05v.14s-.04.14-.04.28c-.02.05-.2.21-.53.49-.26.23-.55.51-.88.83s-.62.62-.86.91c-.25.29-.37.51-.37.65,0,.07-.02.11-.07.12-.05.01-.09.02-.14.02-.07,0-.13,0-.19.02-.06.01-.11.05-.16.11-.05.06-.07.16-.07.3,0,.23-.09.4-.26.49-.18.09-.35.16-.51.21-.09.05-.18.08-.25.11-.07.02-.08.07-.04.14.07.16.05.33-.05.49-.11.16-.26.32-.46.46s-.39.27-.58.39c-.12.07-.21.13-.28.18-.07.05-.11.08-.11.11,0,.12-.25.43-.76.95-.5.52-1.1,1.07-1.79,1.65-.69.59-1.34,1.1-1.95,1.55-.61.45-1.02.67-1.23.67-.09,0-.16.02-.19.05s-.05.06-.05.09-.01.05-.04.07c-.02.02-.05.04-.07.04h-.14l-.91.42s-.08.05-.18,0c-.09-.05-.2-.11-.32-.18-.12-.05-.22-.09-.32-.14-.09-.05-.16-.05-.19-.02s-.02.14.05.3c.05.09.04.15-.02.16-.06.01-.18-.03-.37-.12-.07-.02-.13-.04-.18-.04h-.14s-.1,0-.16-.02c-.06-.01-.13-.05-.21-.11-.08-.06-.19-.16-.33-.3-.28-.26-.67-.49-1.18-.7s-.98-.4-1.42-.56c-.26-.09-.47-.18-.63-.25s-.25-.12-.25-.14c0-.07-.11-.21-.32-.42-.16-.19-.34-.4-.53-.65s-.28-.49-.28-.72c0-.66.29-1.68.88-3.08.59-1.39,1.22-2.74,1.92-4.03.69-1.29,1.21-2.19,1.56-2.71ZM100.27,29.9c-.12-.12-.25-.27-.39-.46-.23-.33-.5-.58-.81-.76s-.69-.09-1.16.26c-.14.09-.29.18-.46.25-.19.09-.47.27-.84.53-.38.26-.91.73-1.62,1.41-.21.19-.43.39-.67.6-.45.4-.88.81-1.3,1.25-.42.43-.73.84-.91,1.21-.07.19-.13.32-.19.4-.06.08-.11.13-.16.14-.05.01-.08.02-.11.02-.02-.02-.05-.03-.09-.02-.04.01-.07.04-.11.09-.04.05-.08.12-.12.21l-4.15,6.12c-.3.49-.64.9-1.02,1.23-.23.21-.45.43-.63.67-.19.23-.34.53-.46.88v1.12l1.58-1.2c.16,0,.38-.15.63-.46.19-.21.42-.42.7-.62.28-.2.6-.32.95-.37.35-.05.8-.28,1.35-.7s1.09-.89,1.62-1.41c.53-.52.92-.93,1.18-1.23l.25-.25,5.45-5.1s.08-.08.25-.18c.33-.19.71-.48,1.14-.88.43-.4.66-.89.69-1.48,0-.05.01-.08.04-.11.02-.02.05-.05.07-.07.05-.02.08-.06.11-.11.02-.05.02-.11,0-.18s-.1-.17-.23-.3c-.13-.13-.32-.31-.58-.54ZM97.63,41.64c-.28.16-.29.12-.04-.14l.04.14Z"/>
      <path class="cls-1" d="M147.27,19.92c.35-.07.9.04,1.63.33.74.29,1.42.67,2.04,1.14.62.47.94.93.97,1.37v.18c.05.26.09.62.12,1.07s.01.92-.07,1.39c-.08.47-.26.82-.54,1.05-.05.07-.13.34-.25.81-.14.56-.32,1.18-.53,1.85s-.45,1.19-.7,1.56c-.26.4-.43.84-.53,1.34-.05.26-.11.48-.18.67-.07.19-.19.3-.35.35-.16.05-.25.12-.26.23s0,.21.05.3c.02.07.04.12.04.16s-.04.05-.11.05c-.14,0-.27.13-.39.39-.12.26-.23.57-.35.95-.23.8-.57,1.54-1.02,2.21l-1.09,2.07s-.1.11-.16.19c-.06.08-.11.16-.14.25-.04.08-.06.15-.07.19-.01.05,0,.06.02.04.12-.05.05.27-.21.95-.26.68-.59,1.51-.98,2.5-.4.94-.76,1.81-1.07,2.62s-.47,1.32-.47,1.53c0,.26-.06.44-.19.54s-.28.18-.44.23c-.16.05-.3.12-.42.23s-.19.28-.21.51c0,.12-.05.19-.14.23s-.2.05-.32.05c-.09,0-.16.02-.21.05s-.04.1.04.19c.07.07.11.12.12.14.01.02.01.04,0,.04h-.05s-.11-.08-.18-.11c-.07-.02-.13-.01-.19.04-.06.05-.09.15-.09.32l-.25.07c-.12-.07-.19-.09-.21-.05s-.02.1.02.19c.04.09.08.19.12.28.05.09.09.19.12.28.04.09.06.16.07.21.01.05,0,.07-.05.07-.14,0-.23.15-.26.46-.04.3-.05.67-.04,1.09s.03.81.05,1.16c.02.26.04.55.04.88-.14.05-.25.09-.33.12s-.15.09-.21.16-.1.15-.12.25c-.02.09,0,.19.07.28.07.12.11.19.11.23s-.01.06-.04.07c-.02.01-.07,0-.14-.02-.09-.02-.2-.03-.32-.02-.12.01-.2.09-.25.23-.09.21-.33.21-.7,0s-.79-.52-1.25-.93-.86-.81-1.21-1.21c-.35-.4-.55-.69-.6-.88-.05-.19-.15-.44-.32-.77-.14-.3-.27-.63-.39-.97-.12-.34-.18-.67-.18-1,.02-.09.04-.22.04-.39.02-.91.18-2.56.46-4.94.28-2.38.86-5.31,1.72-8.81.09-.33.13-.56.12-.7s-.04-.22-.09-.25c-.05-.02-.09,0-.14.05-.05.06-.07.12-.07.19,0,.16-.04.38-.12.65-.08.27-.18.56-.3.86-.12.3-.23.58-.33.83s-.19.41-.25.49c-.06.08-.06.04-.02-.12.05-.16.15-.49.32-.98.35-1.01.54-1.73.58-2.18.04-.44-.04-.69-.21-.74-.18-.05-.39.02-.63.19s-.48.39-.7.63-.36.44-.4.58l-2.14,1.69c-.07,0-.13.06-.19.18-.06.12-.12.28-.19.49-.09.28-.21.57-.35.86-.14.29-.33.5-.56.62l-2.25,3.09-2.53,3.52-3.97,5.34-.77,1.05s-.1.04-.16.12c-.06.08-.11.17-.16.26-.07.12-.13.22-.19.32-.06.09-.12.15-.18.18-.06.02-.11-.01-.16-.11-.02-.02-.08-.01-.16.04-.08.05-.17.12-.26.21-.14.14-.29.26-.46.35-.16.09-.29.11-.39.04l-3.02-.53c-.07-.09-.15-.15-.23-.16-.08-.01-.17,0-.26.02-.12.02-.26.03-.42.02-.16-.01-.38-.09-.63-.23-.09-.02-.26-.07-.49-.14-.38-.12-.81-.28-1.32-.47-.5-.2-.91-.46-1.21-.77s-.36-.7-.18-1.14l1.09-4.85c.63-2.11,1.45-4.69,2.46-7.75s2.15-6.02,3.43-8.89c1.28-2.87,2.62-5.09,4.03-6.66.61-.61,1.09-.91,1.44-.91s.73.15,1.12.46c.35.23.8.47,1.34.7.38.16.64.68.79,1.55.15.87.04,1.79-.33,2.78-.09.23-.25.81-.47,1.72s-.47,1.99-.76,3.23c-.28,1.2-.56,2.37-.84,3.52-.28,1.15-.53,2.11-.74,2.88s-.36,1.16-.46,1.16l-.7,1.9s-.06.14-.12.28-.11.29-.14.46c-.04.16-.05.3-.04.4s.07.14.18.09c.11-.05.29-.21.54-.49l2.46-2.88c.96-1.15,2.46-2.82,4.48-5.01,2.03-2.19,4-4.27,5.92-6.22,1.92-1.96,3.22-3.16,3.9-3.6l1.44-1.02,2.14-2.36,1.37-.81c.16-.16.32-.25.47-.26.15-.01.32,0,.51.05.16.05.37.08.62.09.25.01.54-.03.9-.12ZM138.2,53.98v-.14s-.01-.08-.04-.11l.04.25ZM138.27,54.62c.05.07.11.11.18.12.07.01.13.01.19,0,.06-.01.09-.05.09-.12s-.03-.13-.09-.18c-.06-.05-.12-.06-.19-.05-.07.01-.12.04-.16.07s-.04.09-.02.16ZM140.98,49.24c.07-.02.11-.05.11-.07s-.04-.06-.11-.11c-.12-.09-.2-.13-.25-.11-.05.02-.06.06-.05.12.01.06.05.11.11.14s.12.04.19.02Z"/>
      <path class="cls-1" d="M194.68,4.39c-.43.76-.91,1.66-1.44,2.69-.53,1.03-1.03,2-1.49,2.92-.61,1.24-1,2-1.16,2.29-.38.59-.69,1.15-.95,1.69-.21.4-.4.72-.56.97s-.3.37-.42.37c-.12-.02-.19-.02-.21.02s-.03.09-.02.16.04.14.09.21c.02.09.05.18.07.25s0,.12-.07.14l-4.29,9.35-.95,2.53-2.74,7.45c.02.21-.03.42-.16.63s-.26.39-.4.53c-.19.19-.27.33-.25.42.05.38-.01.65-.18.83s-.33.31-.49.4c-.09.05-.16.09-.21.14-.05.05-.07.09-.07.14l-.95,4.11c-.63.89-1.08,1.61-1.35,2.14-.27.54-.43.94-.49,1.21-.06.27-.08.42-.05.44v.04l-.04.21c.07,0,.11,0,.11.02s-.02.04-.07.09c-.12.07-.28.24-.47.51-.2.27-.31.67-.33,1.21l-.91,3.83s-.05.06-.09.05c-.04-.01-.08-.05-.14-.11-.06-.06-.11-.12-.16-.19-.07-.09-.13-.16-.18-.21-.05-.05-.09-.06-.12-.04-.04.02-.04.12-.02.28.02.14-.04.26-.18.37s-.3.2-.49.28c-.19.08-.42.17-.7.26-.09-.02-.16-.01-.19.04-.04.05-.06.1-.07.16-.01.06-.02.12-.02.19.02.05.03.08.02.09-.01.01-.04-.01-.07-.07-.04-.06-.09-.15-.18-.28-.08-.13-.19-.32-.33-.58l-.04-.04-.88-1.44c-.21-.21-.4-.66-.58-1.35-.18-.69-.3-1.45-.37-2.27-.07-.82-.06-1.52.04-2.11.26-1.17.45-2.14.56-2.92.16-1.01.37-2,.62-2.99s.67-2.33,1.28-4.04c.33-.89.54-1.58.65-2.06.11-.48.13-.81.09-1-.05-.19-.15-.28-.3-.28s-.33.04-.54.11c-.09.02-.2.05-.32.07-.28.07-.49.14-.63.21s-.23.14-.28.19c-.05.06-.07.11-.07.16s.01.09.04.14c.02.05.04.08.04.09s-.02.02-.07.04c-.05.01-.12,0-.21-.02-.23-.02-.38.02-.44.12s-.09.24-.09.4-.04.31-.11.44c-.07.13-.23.19-.49.19-.05,0-.09.06-.12.18-.04.12-.06.26-.09.42-.02.14-.05.26-.07.37s-.05.16-.09.18c-.04.01-.1-.06-.19-.23-.07-.14-.12-.21-.16-.21s-.06.05-.09.14c-.02.09-.04.21-.04.35-.02.16-.05.32-.09.47-.04.15-.09.25-.16.3-.09.09-.16.25-.21.46-.02.16-.08.33-.18.49-.09.16-.25.3-.46.42-.05.05-.23.35-.56.91-.28.52-.61,1.1-.98,1.76-.38.66-.74,1.23-1.09,1.72s-.62.75-.81.77c-.28.05-.43.18-.46.39s-.02.41,0,.6c.02.09.04.17.04.23s-.01.09-.04.09l-1.12,1.34c-.16.02-.27.08-.32.18-.05.09-.09.23-.14.42-.05.23-.14.53-.28.88s-.4.79-.77,1.3c-.26.35-.48.67-.67.95-.59.8-1.11,1.45-1.56,1.97-.46.52-1.14,1.15-2.06,1.9-.26.21-.61.42-1.05.62-.45.2-.86.35-1.25.44-.39.09-.58.09-.58,0-.02-.09-.09-.14-.19-.14s-.23.03-.39.09c-.15.06-.31.11-.47.16-.14.07-.27.12-.39.16s-.2.04-.25.02c-.05-.02-.04-.08.04-.18.07-.12.12-.2.14-.25.02-.05.02-.06,0-.05-.02.01-.06.03-.11.05-.12.07-.25.12-.4.16s-.3,0-.44-.09l-.91-.67v-.11s0-.03,0-.02.01.02.04.02c.02.05.08.09.16.12s.19.04.33.02l.04-.25c.14-.02.21-.06.19-.11-.01-.05-.07-.08-.18-.09-.11-.01-.24.02-.4.09-.14.07-.25.11-.32.11s-.12-.01-.16-.04c-.04-.02-.06-.05-.09-.07l-.04-.04s-.05.09-.07.14c0,.07,0,.13.02.18.01.05.02.08.02.11.02,0,.04,0,.04.02s0,.02-.02.02-.04-.01-.09-.04c-.07-.02-.29-.06-.67-.11-1.2-.16-2.04-.54-2.53-1.14s-.76-1.25-.81-1.95.02-1.32.19-1.85.33-.8.47-.83c.42-.05.55-.67.39-1.86-.07-.66.04-1.27.33-1.85.29-.57.64-1.11,1.04-1.6.52-.63.87-1.27,1.05-1.9l1.62-2.25,4.75-7.03,3.13-4.57c.73-.7,1.22-1.23,1.48-1.58.16-.21.29-.35.39-.42s.2-.07.32,0c.21.12.52.14.91.07.42-.07.97-.06,1.65.04.4.09.69.14.88.12.19-.01.32-.04.39-.09.07-.05.12-.09.14-.14.02-.05.05-.08.07-.09.02-.01.06,0,.11.02.05.02.13.06.25.11.14.07.46.13.95.18.35.02.72.07,1.11.14s.7.18.93.32c.73.52,1.29.8,1.69.86.4.06.69,0,.86-.16.18-.16.3-.35.37-.56.05-.09.09-.17.14-.23.05-.06.11-.08.18-.05l6.43-6.93,3.97-5.2c0-.09.02-.16.07-.21.05-.05.12-.11.21-.18.23-.14.54-.48.91-1.02l5.24-8.09,1.86-2c.21-.09.32-.24.33-.44.01-.2,0-.38-.02-.54-.02-.09-.03-.16-.02-.19s.05,0,.12.09l.04.04s0,.04.02.04h.05s.08-.06.16-.11c.08-.05.21-.09.39-.12s.43-.05.76-.05c.84-.05,1.52,0,2.04.14s.9.33,1.16.58.43.51.53.79.13.55.11.81c-.02.26-.09.56-.21.91-.14,0-.43.38-.86,1.14ZM152.23,54.12c.07-.05.11-.09.11-.14l-.11.14ZM155.81,43.33s.05-.02.09-.05.04-.08.02-.12l-.11.18ZM166.85,31.24c.26-.3.43-.53.51-.67s.11-.25.07-.32-.11-.13-.23-.18c-.19-.09-.4-.27-.63-.53-.19-.26-.47-.48-.84-.67-.38-.19-.69-.27-.95-.25-.16.02-.46.3-.88.84-.42.54-.84,1.11-1.27,1.72-.35.49-.66.9-.91,1.23-.26.33-.42.49-.49.49l-2.85,4.75-2.07,4.01c-.05.12-.1.27-.16.46-.06.19-.09.36-.09.51s.02.23.07.23c.02,0,.11-.07.26-.21s.32-.32.51-.53l1.48-1.65s.21-.21.63-.56c.49-.44,1.03-.95,1.62-1.53.59-.57.96-1.05,1.12-1.42l5.1-5.73ZM173.39,50.36s.08-.09.11-.14l-.11.14ZM174.23,29.58c.07-.16.15-.39.23-.67s.12-.54.11-.79-.12-.4-.33-.47c-.14-.02-.25.07-.32.28s-.12.46-.14.76c-.02.29-.02.56.02.79.04.23.09.38.16.42.07.05.16-.06.28-.32Z"/>
      <path class="cls-1" d="M182.5,41.99c.09,0,.23-.21.42-.62.19-.41.38-.87.58-1.39.2-.52.34-.96.42-1.34.08-.37.05-.54-.09-.49-.14.05-.21,0-.19-.12.01-.13.07-.3.18-.53.11-.22.22-.44.33-.65s.22-.38.32-.51c.09-.13.15-.16.16-.11.01.06-.05.24-.19.54-.09.21-.12.35-.09.42s.09.09.18.07c.08-.02.16-.08.25-.16.08-.08.12-.16.12-.23-.02-.05.09-.28.35-.7s.59-.95.98-1.58c.49-.82,1.01-1.68,1.55-2.57.54-.89.97-1.68,1.3-2.36.33-.68.46-1.1.39-1.27-.12-.21,0-.59.33-1.12.34-.54.77-1.12,1.28-1.76s.98-1.18,1.41-1.65c.45-.49.67-.76.67-.81,0-.09.16-.2.49-.32.33-.12.72-.16,1.18-.14.46.02.9.19,1.32.49h.04s.18.14.4.26c.22.13.44.29.65.49.21.2.32.39.32.58,0,.05.02.09.07.14.07.09.13.23.18.42.05.19.04.46-.02.81s-.22.81-.47,1.37l-.81,1.44-5.31,11.64-1.27,2.64-2.53,4.75-1.02,1.3c0,.12-.02.21-.05.26-.04.06-.08.1-.12.12-.05.02-.09.04-.14.04h-.11s-.04-.03-.04-.02.02.02.07.02c0,.02.02.05.07.07.05.05.06.14.04.26-.02.13-.06.27-.12.42-.06.15-.12.28-.19.37-.07.09-.12.14-.16.12-.04-.01-.02-.12.05-.33.02-.09.02-.15-.02-.18-.04-.02-.09-.02-.18,0-.08.02-.15.06-.21.11-.06.05-.09.09-.09.12s.06.04.18.02c.09.14.18.26.25.35.07.09.13.19.18.3s.06.19.04.26-.09.11-.21.11c-.09,0-.16.03-.19.09-.04.06-.06.12-.07.19s-.01.13,0,.18c.01.05.03.06.05.05.02-.01.06-.06.11-.16.05-.14.1-.21.16-.21s.08.07.05.21c-.02.09-.07.18-.14.26-.07.08-.15.15-.23.19-.08.05-.15.05-.19,0v.04l-2-.28c-.59.09-1.08-.21-1.49-.9-.41-.69-.69-1.53-.83-2.51s-.11-1.85.11-2.6l.77-2.88c.19-.49.33-.88.42-1.16.12-.28.2-.49.25-.62.05-.13.07-.19.07-.18v.12c-.02.09-.04.21-.05.33-.01.13-.01.24,0,.33.01.09.05.13.12.11ZM188.19,29.79c-.12.12-.14.09-.07-.07l.07.07ZM199.41,6.98c0-.16.12-.22.35-.18.23.05.52.15.86.32.34.16.67.34,1,.53.3.14.57.27.79.39.22.12.37.16.44.14.05,0,.22.08.51.25.29.16.6.37.91.62s.57.49.76.74.21.45.07.62c-.05.05-.08.11-.09.18s-.03.14-.05.21c0,.12-.01.23-.04.35-.02.12-.09.25-.21.39-.4.45-.83.74-1.3.88-.3.09-.59.23-.86.4s-.52.46-.76.86c-.26.52-.53.93-.81,1.23-.28.3-.62.41-1.02.32-.61-.16-1.02-.22-1.23-.18-.14,0-.25-.02-.33-.05s-.16-.14-.25-.32-.19-.47-.33-.9c-.07-.19-.15-.41-.25-.67-.21-.59-.35-1.35-.42-2.29-.07-.94-.09-1.79-.05-2.57s.1-1.21.19-1.3c.09-.07.24-.09.44-.05s.42.08.65.12c.28.05.53.08.74.11.21.02.3-.02.28-.14Z"/>
      <path class="cls-1" d="M230.8,19.92c.35-.07.9.04,1.63.33.74.29,1.42.67,2.04,1.14.62.47.94.93.97,1.37v.18c.05.26.09.62.12,1.07s.01.92-.07,1.39c-.08.47-.26.82-.54,1.05-.05.07-.13.34-.25.81-.14.56-.32,1.18-.53,1.85s-.45,1.19-.7,1.56c-.26.4-.43.84-.53,1.34-.05.26-.11.48-.18.67-.07.19-.19.3-.35.35-.16.05-.25.12-.26.23s0,.21.05.3c.02.07.04.12.04.16s-.04.05-.11.05c-.14,0-.27.13-.39.39-.12.26-.23.57-.35.95-.23.8-.57,1.54-1.02,2.21l-1.09,2.07s-.1.11-.16.19c-.06.08-.11.16-.14.25-.04.08-.06.15-.07.19-.01.05,0,.06.02.04.12-.05.05.27-.21.95-.26.68-.59,1.51-.98,2.5-.4.94-.76,1.81-1.07,2.62s-.47,1.32-.47,1.53c0,.26-.06.44-.19.54s-.28.18-.44.23c-.16.05-.3.12-.42.23s-.19.28-.21.51c0,.12-.05.19-.14.23s-.2.05-.32.05c-.09,0-.16.02-.21.05s-.04.1.04.19c.07.07.11.12.12.14.01.02.01.04,0,.04h-.05s-.11-.08-.18-.11c-.07-.02-.13-.01-.19.04-.06.05-.09.15-.09.32l-.25.07c-.12-.07-.19-.09-.21-.05s-.02.1.02.19c.04.09.08.19.12.28.05.09.09.19.12.28.04.09.06.16.07.21.01.05,0,.07-.05.07-.14,0-.23.15-.26.46-.04.3-.05.67-.04,1.09s.03.81.05,1.16c.02.26.04.55.04.88-.14.05-.25.09-.33.12s-.15.09-.21.16-.1.15-.12.25c-.02.09,0,.19.07.28.07.12.11.19.11.23s-.01.06-.04.07c-.02.01-.07,0-.14-.02-.09-.02-.2-.03-.32-.02-.12.01-.2.09-.25.23-.09.21-.33.21-.7,0s-.79-.52-1.25-.93-.86-.81-1.21-1.21c-.35-.4-.55-.69-.6-.88-.05-.19-.15-.44-.32-.77-.14-.3-.27-.63-.39-.97-.12-.34-.18-.67-.18-1,.02-.09.04-.22.04-.39.02-.91.18-2.56.46-4.94.28-2.38.86-5.31,1.72-8.81.09-.33.13-.56.12-.7s-.04-.22-.09-.25c-.05-.02-.09,0-.14.05-.05.06-.07.12-.07.19,0,.16-.04.38-.12.65-.08.27-.18.56-.3.86-.12.3-.23.58-.33.83s-.19.41-.25.49c-.06.08-.06.04-.02-.12.05-.16.15-.49.32-.98.35-1.01.54-1.73.58-2.18.04-.44-.04-.69-.21-.74-.18-.05-.39.02-.63.19s-.48.39-.7.63-.36.44-.4.58l-2.14,1.69c-.07,0-.13.06-.19.18-.06.12-.12.28-.19.49-.09.28-.21.57-.35.86-.14.29-.33.5-.56.62l-2.25,3.09-2.53,3.52-3.97,5.34-.77,1.05s-.1.04-.16.12c-.06.08-.11.17-.16.26-.07.12-.13.22-.19.32-.06.09-.12.15-.18.18-.06.02-.11-.01-.16-.11-.02-.02-.08-.01-.16.04-.08.05-.17.12-.26.21-.14.14-.29.26-.46.35-.16.09-.29.11-.39.04l-3.02-.53c-.07-.09-.15-.15-.23-.16-.08-.01-.17,0-.26.02-.12.02-.26.03-.42.02-.16-.01-.38-.09-.63-.23-.09-.02-.26-.07-.49-.14-.38-.12-.81-.28-1.32-.47-.5-.2-.91-.46-1.21-.77s-.36-.7-.18-1.14l1.09-4.85c.63-2.11,1.45-4.69,2.46-7.75s2.15-6.02,3.43-8.89c1.28-2.87,2.62-5.09,4.03-6.66.61-.61,1.09-.91,1.44-.91s.73.15,1.12.46c.35.23.8.47,1.34.7.38.16.64.68.79,1.55.15.87.04,1.79-.33,2.78-.09.23-.25.81-.47,1.72s-.47,1.99-.76,3.23c-.28,1.2-.56,2.37-.84,3.52-.28,1.15-.53,2.11-.74,2.88s-.36,1.16-.46,1.16l-.7,1.9s-.06.14-.12.28-.11.29-.14.46c-.04.16-.05.3-.04.4s.07.14.18.09c.11-.05.29-.21.54-.49l2.46-2.88c.96-1.15,2.46-2.82,4.48-5.01,2.03-2.19,4-4.27,5.92-6.22,1.92-1.96,3.22-3.16,3.9-3.6l1.44-1.02,2.14-2.36,1.37-.81c.16-.16.32-.25.47-.26.15-.01.32,0,.51.05.16.05.37.08.62.09.25.01.54-.03.9-.12ZM221.73,53.98v-.14s-.01-.08-.04-.11l.04.25ZM221.8,54.62c.05.07.11.11.18.12.07.01.13.01.19,0,.06-.01.09-.05.09-.12s-.03-.13-.09-.18c-.06-.05-.12-.06-.19-.05-.07.01-.12.04-.16.07s-.04.09-.02.16ZM224.51,49.24c.07-.02.11-.05.11-.07s-.04-.06-.11-.11c-.12-.09-.2-.13-.25-.11-.05.02-.06.06-.05.12.01.06.05.11.11.14s.12.04.19.02Z"/>
      <path class="cls-1" d="M258.33,26.49c.07-.21.16-.33.28-.35.12-.02.26,0,.42.07.26.12.6.16,1.02.14.3-.05.68.02,1.12.21.45.19.89.4,1.34.63.4.21.77.4,1.11.56.34.16.64.25.9.25.09,0,.16.04.21.11s.09.15.14.25c.05.12.11.23.19.35.08.12.21.21.37.28.35.16.45.43.3.79-.15.36-.4.78-.76,1.25-.38.52-.67,1.02-.88,1.51-.23.68-.56,1.4-.97,2.16-.41.76-.8,1.46-1.18,2.09-.56.89-.84,1.42-.84,1.58,0,.4-.23.94-.69,1.63-.46.69-.91,1.32-1.35,1.88l-.53.7c-.14.19-.21.3-.21.35,0,.07-.06.21-.18.4-.12.2-.26.43-.42.69-.26.4-.5.8-.72,1.21-.22.41-.33.73-.33.97,0,.07-.02.12-.07.14-.05.02-.11.06-.18.11-.09.02-.19.08-.3.18-.11.09-.18.25-.23.46-.09.35-.32.84-.67,1.46-.35.62-.73,1.23-1.12,1.81-.26.4-.47.75-.65,1.05-.18.3-.26.49-.26.56,0,.05-.06.16-.19.35-.13.19-.3.42-.51.7-.45.61-.9,1.29-1.37,2.04s-.7,1.32-.7,1.72l-2.04,3.41-2.11,3.76c-.14.28-.27.48-.39.6-.12.12-.22.18-.32.19-.09.01-.16.02-.21.02h-.05s-.01.01,0,.04c.01.02.03.07.05.14.05.16.02.29-.07.39-.09.09-.21.18-.35.25-.07.05-.14.09-.21.14-.07.05-.12.12-.14.21-.07.26-.19.51-.37.76s-.38.47-.62.69c-.21.23-.4.46-.58.69-.18.22-.26.46-.26.72,0,.16-.01.29-.04.37-.02.08-.05.13-.07.14-.02.01-.06.02-.11.02s-.1.01-.16.04c-.06.02-.12.09-.19.19s-.14.29-.21.54c-.07.21-.21.49-.4.84s-.42.65-.67.9-.47.31-.69.19c-.05-.02-.07,0-.07.07v.28c.02.09.03.19.02.28-.01.09-.03.16-.05.21-.02.05-.08.05-.18,0-.02-.02-.08,0-.16.05-.08.06-.17.15-.26.26-.21.21-.47.43-.77.67-.3.23-.67.35-1.09.35-.21,0-.45.08-.7.23-.26.15-.5.31-.74.47-.23.16-.43.29-.6.37-.16.08-.25.05-.25-.09,0-.02-.05-.04-.14-.05-.09-.01-.2-.02-.32-.02s-.23.01-.33.04c-.11.02-.16.07-.18.14s.05.15.19.25c.12.09.17.18.16.26-.01.08-.05.14-.12.18s-.15.04-.23,0-.15-.12-.19-.26c-.05-.16-.1-.23-.16-.19s-.12.11-.19.23c-.07.09-.15.18-.23.26-.08.08-.17.12-.26.12l-.77.77-1.69.84-2.99.32-1.16-.25c0-.16-.08-.25-.25-.26-.16-.01-.35,0-.56.02-.16.05-.3.06-.42.05-.12-.01-.15-.08-.11-.19.02-.12-.02-.21-.14-.28s-.27-.13-.46-.18c-.28-.09-.52-.22-.72-.37-.2-.15-.26-.37-.19-.65l-.53-.91c.14,0,.21-.04.19-.11s-.05-.15-.12-.25c-.09-.09-.16-.19-.19-.28-.04-.09,0-.18.12-.25.14-.07.36-.08.65-.04.29.05.59.11.9.18.3.09.57.16.79.19s.33,0,.33-.12c0-.21.09-.38.28-.49.19-.12.39-.21.6-.28.16-.07.29-.14.37-.19.08-.06.1-.12.05-.19,0-.02.04-.06.12-.11.08-.05.19-.09.33-.14.21-.09.43-.2.67-.32.23-.12.35-.28.35-.49l3.62-5.38c.14-.19.26-.32.35-.39s.16-.12.21-.14c.05-.02.08-.05.11-.07.02-.02.04-.08.04-.18l3.09-4.32c.09,0,.18-.09.26-.26s.18-.39.3-.65c.21-.66.59-1.31,1.12-1.97l2.85-3.83,3.76-5.06c.16-.14.25-.26.25-.35s-.05-.16-.14-.21c-.09-.05-.19-.07-.3-.07s-.18.01-.23.04c-.26.14-.42.2-.49.18-.07-.02-.08-.09-.04-.21.05-.12.12-.26.21-.42.12-.19.22-.38.3-.58.08-.2.08-.35-.02-.44-.19-.16-.42-.16-.69,0-.27.16-.51.34-.72.53-.12.12-.22.21-.3.26-.08.06-.13.06-.16.02-.02-.09-.08-.13-.18-.12-.09.01-.19.05-.28.12s-.14.16-.14.28c0,.09-.08.16-.23.19s-.32.05-.51.05c-.14,0-.28.01-.4.04-.13.02-.22.06-.26.11-.02.05-.04.08-.05.11-.01.02-.02.03-.04.02-.01-.01-.02-.03-.02-.05,0-.07-.01-.11-.04-.12-.02-.01-.06-.01-.11,0-.05.01-.11.04-.18.09-.45.23-1.25.22-2.41-.05-1.16-.27-2.29-.73-3.39-1.39-1.1-.66-1.8-1.43-2.11-2.32-.26-.98-.41-1.73-.46-2.25-.05-.52-.02-.9.07-1.16.09-.26.21-.48.35-.67.09-.14.19-.3.28-.47s.16-.42.21-.72c.23-.96.74-2.04,1.53-3.25.79-1.21,1.47-2.17,2.06-2.9.3-.42.47-.66.49-.7.09-.28.57-.94,1.44-1.97.87-1.03,1.9-2.17,3.09-3.43,1.2-1.25,2.31-2.37,3.36-3.36s1.79-1.56,2.23-1.72c.12-.05.22-.08.3-.11.08-.02.15-.05.21-.09s.11-.06.16-.09c.05-.02.09-.04.12-.05.04-.01.06-.02.07-.04l.05-.05s.04.04.05.04.02,0,.04.02c.01.01.04.02.07.04.04.01.08.02.12.04.05.01.1.03.16.05.06.02.13.04.21.05.08.01.17.03.26.05.09.02.21.04.33.05.13.01.27.03.42.05.15.02.32.05.49.07.18.02.37.05.58.07.68.07,1.35.26,2,.56.66.3,1.02.6,1.09.88.05.28.21.5.47.67.27.16.58.32.93.46.4.14.74.32,1.02.53s.39.49.32.84c-.05.19-.05.35,0,.49s.11.27.18.39c.07.12.12.24.14.37.02.13-.04.28-.18.44-.26.3-.41.54-.46.7-.07.16-.15.29-.25.37-.09.08-.32.12-.67.12-.26,0-.52-.09-.79-.26s-.54-.38-.83-.62c-.45-.4-.93-.71-1.44-.93-.52-.22-1.08-.15-1.69.23l-1.69,1.23-2.29,2.5-4.61,6.82s-.05.13-.14.32c-.09.19-.22.42-.39.7-.28.52-.58,1.08-.9,1.69-.32.61-.54,1.14-.69,1.6s-.07.69.21.69c.45,0,1.63-.63,3.55-1.9s3.82-2.54,5.7-3.83c1.71-1.17,2.89-1.97,3.55-2.39.28-.19.67-.66,1.18-1.41.5-.75,1.01-1.59,1.53-2.51.52-.93.95-1.76,1.3-2.51.35-.75.53-1.22.53-1.41,0-.26.02-.44.07-.54s.11-.18.19-.21.18-.05.3-.05c.14.02.29,0,.44-.07s.29-.25.4-.53ZM230.34,76.97s.08-.01.11-.04c.02-.02.04-.06.04-.11l-.14.14ZM234.81,74.9s.08-.02.11-.05.04-.06.04-.09l-.14.14ZM242.65,51.35c.05-.12.1-.19.16-.21.06-.02.11-.02.16.02s.06.08.05.12c-.01.05-.08.09-.19.14-.14.07-.2.05-.18-.07Z"/>
    </g>
  </g>
</svg>