<?xml version="1.0" encoding="UTF-8"?>
<svg id="Layer_2" data-name="Layer 2" xmlns="http://www.w3.org/2000/svg" viewBox="0 0 219.67 75.6">
  <defs>
    <style>
      .cls-1 {
        fill: #f4f4f4;
        stroke-width: 0px;
      }
    </style>
  </defs>
  <g id="Layer_4" data-name="Layer 4">
    <g>
      <path class="cls-1" d="M2.95,10.8h11.95c4.08,0,7.05.95,8.93,2.84,1.87,1.9,2.81,4.81,2.81,8.75v2.02c0,2.59-.42,4.7-1.26,6.34-.84,1.63-2.12,2.81-3.85,3.53v.14c3.94,1.34,5.9,4.85,5.9,10.51v4.32c0,3.89-1.02,6.85-3.06,8.89-2.04,2.04-5.03,3.06-8.96,3.06H2.95V10.8ZM13.97,31.32c1.58,0,2.77-.41,3.56-1.22.79-.82,1.19-2.18,1.19-4.1v-2.81c0-1.82-.32-3.14-.97-3.96-.65-.82-1.67-1.22-3.06-1.22h-3.82v13.32h3.1ZM15.41,54c1.39,0,2.42-.37,3.1-1.12.67-.74,1.01-2.03,1.01-3.85v-4.39c0-2.3-.4-3.9-1.19-4.79-.79-.89-2.1-1.33-3.92-1.33h-3.53v15.48h4.54Z"/>
      <path class="cls-1" d="M32.04,10.8h11.74c4.08,0,7.05.95,8.93,2.84,1.87,1.9,2.81,4.81,2.81,8.75v3.1c0,5.23-1.73,8.54-5.18,9.94v.14c1.92.58,3.28,1.75,4.07,3.53.79,1.78,1.19,4.15,1.19,7.13v8.86c0,1.44.05,2.6.14,3.49.1.89.34,1.76.72,2.63h-8.06c-.29-.82-.48-1.58-.58-2.3-.1-.72-.14-2.02-.14-3.89v-9.22c0-2.3-.37-3.91-1.12-4.82-.75-.91-2.03-1.37-3.85-1.37h-2.74v21.6h-7.92V10.8ZM42.84,32.4c1.58,0,2.77-.41,3.56-1.22.79-.82,1.19-2.18,1.19-4.1v-3.89c0-1.82-.32-3.14-.97-3.96-.65-.82-1.67-1.22-3.06-1.22h-3.6v14.4h2.88Z"/>
      <path class="cls-1" d="M67.18,10.8h10.73l8.21,50.4h-7.92l-1.44-10.01v.14h-9l-1.44,9.86h-7.34l8.21-50.4ZM75.81,44.5l-3.53-24.91h-.14l-3.46,24.91h7.13Z"/>
      <path class="cls-1" d="M89.93,10.8h9.94l7.71,30.17h.14V10.8h7.05v50.4h-8.13l-9.5-36.79h-.14v36.79h-7.06V10.8Z"/>
      <path class="cls-1" d="M120.67,10.8h12.1c3.94,0,6.89,1.06,8.86,3.17,1.97,2.11,2.95,5.21,2.95,9.29v25.49c0,4.08-.98,7.18-2.95,9.29-1.97,2.11-4.92,3.17-8.86,3.17h-12.1V10.8ZM132.62,54c1.3,0,2.29-.38,2.99-1.15.7-.77,1.04-2.02,1.04-3.74v-26.21c0-1.73-.35-2.98-1.04-3.74-.7-.77-1.69-1.15-2.99-1.15h-4.03v36h4.03Z"/>
      <path class="cls-1" d="M149.9,10.8h7.92v50.4h-7.92V10.8Z"/>
      <path class="cls-1" d="M163.72,10.8h9.94l7.71,30.17h.14V10.8h7.05v50.4h-8.13l-9.5-36.79h-.14v36.79h-7.06V10.8Z"/>
      <path class="cls-1" d="M196.91,58.64c-2.02-2.18-3.02-5.32-3.02-9.4v-26.5c0-4.08,1.01-7.21,3.02-9.4,2.02-2.18,4.94-3.28,8.78-3.28s6.77,1.09,8.79,3.28c2.02,2.19,3.02,5.32,3.02,9.4v4.32h-7.49v-4.82c0-3.31-1.37-4.97-4.1-4.97s-4.1,1.66-4.1,4.97v27.58c0,3.26,1.37,4.9,4.1,4.9s4.1-1.63,4.1-4.9v-9.86h-3.96v-7.2h11.45v16.49c0,4.08-1.01,7.21-3.02,9.4-2.02,2.19-4.95,3.28-8.79,3.28s-6.77-1.09-8.78-3.28Z"/>
    </g>
  </g>
</svg>