<?xml version="1.0" encoding="UTF-8"?>
<svg id="Layer_2" data-name="Layer 2" xmlns="http://www.w3.org/2000/svg" viewBox="0 0 481.83 182.22">
  <defs>
    <style>
      .cls-1 {
        fill: #282828;
      }

      .cls-1, .cls-2, .cls-3, .cls-4 {
        stroke-width: 0px;
      }

      .cls-2 {
        fill: #ff0;
      }

      .cls-3 {
        fill: #f0f;
      }

      .cls-4 {
        fill: aqua;
      }
    </style>
  </defs>
  <g id="Layer_1-2" data-name="Layer 1">
    <g>
      <g>
        <circle class="cls-2" cx="71.58" cy="115.98" r="35.56"/>
        <path class="cls-2" d="M148.03,143.29c5.16-1.96,10.06-4.46,14.58-7.46-13.45,11.79-31.01,18.91-50.26,18.91-.75,0-1.52,0-2.28-.02-7.21-.23-14.17-1.43-20.75-3.53-.98-.3-1.93-.61-2.89-.96-.07-.02-.14-.05-.18-.07-.25-.09-.48-.18-.71-.27-.43-.16-.86-.32-1.3-.5-.14-.05-.3-.11-.43-.16-.75-.3-1.5-.61-2.23-.96-.07-.02-.14-.05-.18-.07-1.34-.59-2.64-1.23-3.94-1.89-17.11-8.81-30.44-23.87-37.02-42.18-.32-.89-.61-1.8-.89-2.71-.16-.48-.32-.96-.46-1.43l-.34-1.23c-.05-.16-.09-.34-.14-.52-.2-.73-.41-1.48-.57-2.25-.05-.14-.07-.27-.09-.41-.05-.11-.07-.23-.09-.34-.3-1.34-.57-2.71-.8-4.1-.59-3.41-.93-6.92-1.05-10.47-.02-.75-.02-1.52-.02-2.28s0-1.52.02-2.28c.98-33.47,23.55-61.57,54.29-70.81-7.99,3.69-15.22,8.74-21.39,14.88-13.67,13.54-22.14,32.31-22.14,53.08,0,4.16.34,8.24,1,12.2,8.17,22.53,23.98,46.13,50.17,58.79,7.44,2.48,15.38,3.82,23.64,3.82,4.21,0,8.35-.34,12.38-1.02,4.85-.8,9.56-2.09,14.04-3.78Z"/>
        <path class="cls-2" d="M112.35,58.56c0-12.2,9.87-22.07,22.07-22.07s22.05,9.87,22.05,22.07-9.87,22.07-22.05,22.07-22.07-9.87-22.07-22.07Z"/>
        <path class="cls-2" d="M156.47,58.56c0,12.2-9.87,22.07-22.05,22.07s-22.07-9.87-22.07-22.07,9.87-22.07,22.07-22.07,22.05,9.87,22.05,22.07Z"/>
        <path class="cls-2" d="M82.98,152.44c.8-.48,1.55-.98,2.28-1.52-5.26,18.09-21.96,31.31-41.75,31.31-.75,0-1.5-.02-2.23-.05-.05-.02-.07-.02-.09,0C19,180.99,1.23,163.22.05,141.04c.02-.02.02-.05,0-.09-.02-.73-.05-1.48-.05-2.23s.02-1.5.05-2.23c.02-.05.02-.07,0-.09,1.18-22.18,18.95-39.95,41.14-41.14.02.02.05.02.09,0h.5s-.05,0-.07.05c-1.75,1.48-3.37,3.14-4.78,4.96-4.82,6.03-7.69,13.67-7.69,21.98,0,19.52,15.81,35.36,35.36,35.36,5.37,0,10.44-1.21,14.99-3.32,1.18-.57,2.3-1.16,3.39-1.84Z"/>
        <path class="cls-2" d="M87.01,138.72c0,.75-.02,1.5-.05,2.23-.05-.75-.11-1.5-.2-2.23.09-.73.16-1.48.2-2.23.02.73.05,1.48.05,2.23Z"/>
        <path class="cls-2" d="M87.01,138.72c0,.75-.02,1.5-.05,2.23-.05-.75-.11-1.5-.2-2.23.09-.73.16-1.48.2-2.23.02.73.05,1.48.05,2.23Z"/>
        <path class="cls-2" d="M156.47,58.56c0,12.2-9.87,22.07-22.05,22.07s-22.07-9.87-22.07-22.07,9.87-22.07,22.07-22.07,22.05,9.87,22.05,22.07Z"/>
        <circle class="cls-2" cx="71.58" cy="115.98" r="35.56"/>
        <path class="cls-2" d="M148.03,143.29c5.16-1.96,10.06-4.46,14.58-7.46-13.45,11.79-31.01,18.91-50.26,18.91-.75,0-1.52,0-2.28-.02-7.21-.23-14.17-1.43-20.75-3.53-.98-.3-1.93-.61-2.89-.96-.07-.02-.14-.05-.18-.07-.25-.09-.48-.18-.71-.27-.43-.16-.86-.32-1.3-.5-.14-.05-.3-.11-.43-.16-.75-.3-1.5-.61-2.23-.96-.07-.02-.14-.05-.18-.07-1.34-.59-2.64-1.23-3.94-1.89-17.11-8.81-30.44-23.87-37.02-42.18-.32-.89-.61-1.8-.89-2.71-.16-.48-.32-.96-.46-1.43l-.34-1.23c-.05-.16-.09-.34-.14-.52-.2-.73-.41-1.48-.57-2.25-.05-.14-.07-.27-.09-.41-.05-.11-.07-.23-.09-.34-.3-1.34-.57-2.71-.8-4.1-.59-3.41-.93-6.92-1.05-10.47-.02-.75-.02-1.52-.02-2.28s0-1.52.02-2.28c.98-33.47,23.55-61.57,54.29-70.81-7.99,3.69-15.22,8.74-21.39,14.88-13.67,13.54-22.14,32.31-22.14,53.08,0,4.16.34,8.24,1,12.2,8.17,22.53,23.98,46.13,50.17,58.79,7.44,2.48,15.38,3.82,23.64,3.82,4.21,0,8.35-.34,12.38-1.02,4.85-.8,9.56-2.09,14.04-3.78Z"/>
        <path class="cls-2" d="M112.35,58.56c0-12.2,9.87-22.07,22.07-22.07s22.05,9.87,22.05,22.07-9.87,22.07-22.05,22.07-22.07-9.87-22.07-22.07Z"/>
        <path class="cls-2" d="M156.47,58.56c0,12.2-9.87,22.07-22.05,22.07s-22.07-9.87-22.07-22.07,9.87-22.07,22.07-22.07,22.05,9.87,22.05,22.07Z"/>
        <path class="cls-2" d="M82.98,152.44c.8-.48,1.55-.98,2.28-1.52-5.26,18.09-21.96,31.31-41.75,31.31-.75,0-1.5-.02-2.23-.05-.05-.02-.07-.02-.09,0C19,180.99,1.23,163.22.05,141.04c.02-.02.02-.05,0-.09-.02-.73-.05-1.48-.05-2.23s.02-1.5.05-2.23c.02-.05.02-.07,0-.09,1.18-22.18,18.95-39.95,41.14-41.14.02.02.05.02.09,0h.5s-.05,0-.07.05c-1.75,1.48-3.37,3.14-4.78,4.96-4.82,6.03-7.69,13.67-7.69,21.98,0,19.52,15.81,35.36,35.36,35.36,5.37,0,10.44-1.21,14.99-3.32,1.18-.57,2.3-1.16,3.39-1.84Z"/>
        <path class="cls-2" d="M87.01,138.72c0,.75-.02,1.5-.05,2.23-.05-.75-.11-1.5-.2-2.23.09-.73.16-1.48.2-2.23.02.73.05,1.48.05,2.23Z"/>
        <path class="cls-2" d="M87.01,138.72c0,.75-.02,1.5-.05,2.23-.05-.75-.11-1.5-.2-2.23.09-.73.16-1.48.2-2.23.02.73.05,1.48.05,2.23Z"/>
        <path class="cls-2" d="M156.47,58.56c0,12.2-9.87,22.07-22.05,22.07s-22.07-9.87-22.07-22.07,9.87-22.07,22.07-22.07,22.05,9.87,22.05,22.07Z"/>
        <circle class="cls-2" cx="71.58" cy="115.98" r="35.56"/>
        <path class="cls-2" d="M148.03,143.29c5.16-1.96,10.06-4.46,14.58-7.46-13.45,11.79-31.01,18.91-50.26,18.91-.75,0-1.52,0-2.28-.02-7.21-.23-14.17-1.43-20.75-3.53-.98-.3-1.93-.61-2.89-.96-.07-.02-.14-.05-.18-.07-.25-.09-.48-.18-.71-.27-.43-.16-.86-.32-1.3-.5-.14-.05-.3-.11-.43-.16-.75-.3-1.5-.61-2.23-.96-.07-.02-.14-.05-.18-.07-1.34-.59-2.64-1.23-3.94-1.89-17.11-8.81-30.44-23.87-37.02-42.18-.32-.89-.61-1.8-.89-2.71-.16-.48-.32-.96-.46-1.43l-.34-1.23c-.05-.16-.09-.34-.14-.52-.2-.73-.41-1.48-.57-2.25-.05-.14-.07-.27-.09-.41-.05-.11-.07-.23-.09-.34-.3-1.34-.57-2.71-.8-4.1-.59-3.41-.93-6.92-1.05-10.47-.02-.75-.02-1.52-.02-2.28s0-1.52.02-2.28c.98-33.47,23.55-61.57,54.29-70.81-7.99,3.69-15.22,8.74-21.39,14.88-13.67,13.54-22.14,32.31-22.14,53.08,0,4.16.34,8.24,1,12.2,8.17,22.53,23.98,46.13,50.17,58.79,7.44,2.48,15.38,3.82,23.64,3.82,4.21,0,8.35-.34,12.38-1.02,4.85-.8,9.56-2.09,14.04-3.78Z"/>
        <path class="cls-2" d="M112.35,58.56c0-12.2,9.87-22.07,22.07-22.07s22.05,9.87,22.05,22.07-9.87,22.07-22.05,22.07-22.07-9.87-22.07-22.07Z"/>
        <path class="cls-2" d="M156.47,58.56c0,12.2-9.87,22.07-22.05,22.07s-22.07-9.87-22.07-22.07,9.87-22.07,22.07-22.07,22.05,9.87,22.05,22.07Z"/>
        <path class="cls-2" d="M82.98,152.44c.8-.48,1.55-.98,2.28-1.52-5.26,18.09-21.96,31.31-41.75,31.31-.75,0-1.5-.02-2.23-.05-.05-.02-.07-.02-.09,0C19,180.99,1.23,163.22.05,141.04c.02-.02.02-.05,0-.09-.02-.73-.05-1.48-.05-2.23s.02-1.5.05-2.23c.02-.05.02-.07,0-.09,1.18-22.18,18.95-39.95,41.14-41.14.02.02.05.02.09,0h.5s-.05,0-.07.05c-1.75,1.48-3.37,3.14-4.78,4.96-4.82,6.03-7.69,13.67-7.69,21.98,0,19.52,15.81,35.36,35.36,35.36,5.37,0,10.44-1.21,14.99-3.32,1.18-.57,2.3-1.16,3.39-1.84Z"/>
        <path class="cls-2" d="M87.01,138.72c0,.75-.02,1.5-.05,2.23-.05-.75-.11-1.5-.2-2.23.09-.73.16-1.48.2-2.23.02.73.05,1.48.05,2.23Z"/>
        <path class="cls-2" d="M87.01,138.72c0,.75-.02,1.5-.05,2.23-.05-.75-.11-1.5-.2-2.23.09-.73.16-1.48.2-2.23.02.73.05,1.48.05,2.23Z"/>
        <path class="cls-2" d="M156.47,58.56c0,12.2-9.87,22.07-22.05,22.07s-22.07-9.87-22.07-22.07,9.87-22.07,22.07-22.07,22.05,9.87,22.05,22.07Z"/>
        <circle class="cls-3" cx="76.9" cy="115.98" r="35.56"/>
        <path class="cls-3" d="M153.35,143.29c5.16-1.96,10.06-4.46,14.58-7.46-13.45,11.79-31.01,18.91-50.26,18.91-.75,0-1.52,0-2.28-.02-7.21-.23-14.17-1.43-20.75-3.53-.98-.3-1.93-.61-2.89-.96-.07-.02-.14-.05-.18-.07-.25-.09-.48-.18-.71-.27-.43-.16-.86-.32-1.3-.5-.14-.05-.3-.11-.43-.16-.75-.3-1.5-.61-2.23-.96-.07-.02-.14-.05-.18-.07-1.34-.59-2.64-1.23-3.94-1.89-17.11-8.81-30.44-23.87-37.02-42.18-.32-.89-.61-1.8-.89-2.71-.16-.48-.32-.96-.46-1.43l-.34-1.23c-.05-.16-.09-.34-.14-.52-.2-.73-.41-1.48-.57-2.25-.05-.14-.07-.27-.09-.41-.05-.11-.07-.23-.09-.34-.3-1.34-.57-2.71-.8-4.1-.59-3.41-.93-6.92-1.05-10.47-.02-.75-.02-1.52-.02-2.28s0-1.52.02-2.28c.98-33.47,23.55-61.57,54.29-70.81-7.99,3.69-15.22,8.74-21.39,14.88-13.67,13.54-22.14,32.31-22.14,53.08,0,4.16.34,8.24,1,12.2,8.17,22.53,23.98,46.13,50.17,58.79,7.44,2.48,15.38,3.82,23.64,3.82,4.21,0,8.35-.34,12.38-1.02,4.85-.8,9.56-2.09,14.04-3.78Z"/>
        <path class="cls-3" d="M117.67,58.56c0-12.2,9.87-22.07,22.07-22.07s22.05,9.87,22.05,22.07-9.87,22.07-22.05,22.07-22.07-9.87-22.07-22.07Z"/>
        <path class="cls-3" d="M161.79,58.56c0,12.2-9.87,22.07-22.05,22.07s-22.07-9.87-22.07-22.07,9.87-22.07,22.07-22.07,22.05,9.87,22.05,22.07Z"/>
        <path class="cls-3" d="M88.3,152.44c.8-.48,1.55-.98,2.28-1.52-5.26,18.09-21.96,31.31-41.75,31.31-.75,0-1.5-.02-2.23-.05-.05-.02-.07-.02-.09,0-22.18-1.18-39.95-18.95-41.14-41.14.02-.02.02-.05,0-.09-.02-.73-.05-1.48-.05-2.23s.02-1.5.05-2.23c.02-.05.02-.07,0-.09,1.18-22.18,18.95-39.95,41.14-41.14.02.02.05.02.09,0h.5s-.05,0-.07.05c-1.75,1.48-3.37,3.14-4.78,4.96-4.82,6.03-7.69,13.67-7.69,21.98,0,19.52,15.81,35.36,35.36,35.36,5.37,0,10.44-1.21,14.99-3.32,1.18-.57,2.3-1.16,3.39-1.84Z"/>
        <path class="cls-3" d="M92.33,138.72c0,.75-.02,1.5-.05,2.23-.05-.75-.11-1.5-.2-2.23.09-.73.16-1.48.2-2.23.02.73.05,1.48.05,2.23Z"/>
        <path class="cls-3" d="M92.33,138.72c0,.75-.02,1.5-.05,2.23-.05-.75-.11-1.5-.2-2.23.09-.73.16-1.48.2-2.23.02.73.05,1.48.05,2.23Z"/>
        <path class="cls-3" d="M161.79,58.56c0,12.2-9.87,22.07-22.05,22.07s-22.07-9.87-22.07-22.07,9.87-22.07,22.07-22.07,22.05,9.87,22.05,22.07Z"/>
        <circle class="cls-3" cx="76.9" cy="115.98" r="35.56"/>
        <path class="cls-3" d="M153.35,143.29c5.16-1.96,10.06-4.46,14.58-7.46-13.45,11.79-31.01,18.91-50.26,18.91-.75,0-1.52,0-2.28-.02-7.21-.23-14.17-1.43-20.75-3.53-.98-.3-1.93-.61-2.89-.96-.07-.02-.14-.05-.18-.07-.25-.09-.48-.18-.71-.27-.43-.16-.86-.32-1.3-.5-.14-.05-.3-.11-.43-.16-.75-.3-1.5-.61-2.23-.96-.07-.02-.14-.05-.18-.07-1.34-.59-2.64-1.23-3.94-1.89-17.11-8.81-30.44-23.87-37.02-42.18-.32-.89-.61-1.8-.89-2.71-.16-.48-.32-.96-.46-1.43l-.34-1.23c-.05-.16-.09-.34-.14-.52-.2-.73-.41-1.48-.57-2.25-.05-.14-.07-.27-.09-.41-.05-.11-.07-.23-.09-.34-.3-1.34-.57-2.71-.8-4.1-.59-3.41-.93-6.92-1.05-10.47-.02-.75-.02-1.52-.02-2.28s0-1.52.02-2.28c.98-33.47,23.55-61.57,54.29-70.81-7.99,3.69-15.22,8.74-21.39,14.88-13.67,13.54-22.14,32.31-22.14,53.08,0,4.16.34,8.24,1,12.2,8.17,22.53,23.98,46.13,50.17,58.79,7.44,2.48,15.38,3.82,23.64,3.82,4.21,0,8.35-.34,12.38-1.02,4.85-.8,9.56-2.09,14.04-3.78Z"/>
        <path class="cls-3" d="M117.67,58.56c0-12.2,9.87-22.07,22.07-22.07s22.05,9.87,22.05,22.07-9.87,22.07-22.05,22.07-22.07-9.87-22.07-22.07Z"/>
        <path class="cls-3" d="M161.79,58.56c0,12.2-9.87,22.07-22.05,22.07s-22.07-9.87-22.07-22.07,9.87-22.07,22.07-22.07,22.05,9.87,22.05,22.07Z"/>
        <path class="cls-3" d="M88.3,152.44c.8-.48,1.55-.98,2.28-1.52-5.26,18.09-21.96,31.31-41.75,31.31-.75,0-1.5-.02-2.23-.05-.05-.02-.07-.02-.09,0-22.18-1.18-39.95-18.95-41.14-41.14.02-.02.02-.05,0-.09-.02-.73-.05-1.48-.05-2.23s.02-1.5.05-2.23c.02-.05.02-.07,0-.09,1.18-22.18,18.95-39.95,41.14-41.14.02.02.05.02.09,0h.5s-.05,0-.07.05c-1.75,1.48-3.37,3.14-4.78,4.96-4.82,6.03-7.69,13.67-7.69,21.98,0,19.52,15.81,35.36,35.36,35.36,5.37,0,10.44-1.21,14.99-3.32,1.18-.57,2.3-1.16,3.39-1.84Z"/>
        <path class="cls-3" d="M92.33,138.72c0,.75-.02,1.5-.05,2.23-.05-.75-.11-1.5-.2-2.23.09-.73.16-1.48.2-2.23.02.73.05,1.48.05,2.23Z"/>
        <path class="cls-3" d="M92.33,138.72c0,.75-.02,1.5-.05,2.23-.05-.75-.11-1.5-.2-2.23.09-.73.16-1.48.2-2.23.02.73.05,1.48.05,2.23Z"/>
        <path class="cls-3" d="M161.79,58.56c0,12.2-9.87,22.07-22.05,22.07s-22.07-9.87-22.07-22.07,9.87-22.07,22.07-22.07,22.05,9.87,22.05,22.07Z"/>
        <circle class="cls-3" cx="76.9" cy="115.98" r="35.56"/>
        <path class="cls-3" d="M153.35,143.29c5.16-1.96,10.06-4.46,14.58-7.46-13.45,11.79-31.01,18.91-50.26,18.91-.75,0-1.52,0-2.28-.02-7.21-.23-14.17-1.43-20.75-3.53-.98-.3-1.93-.61-2.89-.96-.07-.02-.14-.05-.18-.07-.25-.09-.48-.18-.71-.27-.43-.16-.86-.32-1.3-.5-.14-.05-.3-.11-.43-.16-.75-.3-1.5-.61-2.23-.96-.07-.02-.14-.05-.18-.07-1.34-.59-2.64-1.23-3.94-1.89-17.11-8.81-30.44-23.87-37.02-42.18-.32-.89-.61-1.8-.89-2.71-.16-.48-.32-.96-.46-1.43l-.34-1.23c-.05-.16-.09-.34-.14-.52-.2-.73-.41-1.48-.57-2.25-.05-.14-.07-.27-.09-.41-.05-.11-.07-.23-.09-.34-.3-1.34-.57-2.71-.8-4.1-.59-3.41-.93-6.92-1.05-10.47-.02-.75-.02-1.52-.02-2.28s0-1.52.02-2.28c.98-33.47,23.55-61.57,54.29-70.81-7.99,3.69-15.22,8.74-21.39,14.88-13.67,13.54-22.14,32.31-22.14,53.08,0,4.16.34,8.24,1,12.2,8.17,22.53,23.98,46.13,50.17,58.79,7.44,2.48,15.38,3.82,23.64,3.82,4.21,0,8.35-.34,12.38-1.02,4.85-.8,9.56-2.09,14.04-3.78Z"/>
        <path class="cls-3" d="M117.67,58.56c0-12.2,9.87-22.07,22.07-22.07s22.05,9.87,22.05,22.07-9.87,22.07-22.05,22.07-22.07-9.87-22.07-22.07Z"/>
        <path class="cls-3" d="M161.79,58.56c0,12.2-9.87,22.07-22.05,22.07s-22.07-9.87-22.07-22.07,9.87-22.07,22.07-22.07,22.05,9.87,22.05,22.07Z"/>
        <path class="cls-3" d="M88.3,152.44c.8-.48,1.55-.98,2.28-1.52-5.26,18.09-21.96,31.31-41.75,31.31-.75,0-1.5-.02-2.23-.05-.05-.02-.07-.02-.09,0-22.18-1.18-39.95-18.95-41.14-41.14.02-.02.02-.05,0-.09-.02-.73-.05-1.48-.05-2.23s.02-1.5.05-2.23c.02-.05.02-.07,0-.09,1.18-22.18,18.95-39.95,41.14-41.14.02.02.05.02.09,0h.5s-.05,0-.07.05c-1.75,1.48-3.37,3.14-4.78,4.96-4.82,6.03-7.69,13.67-7.69,21.98,0,19.52,15.81,35.36,35.36,35.36,5.37,0,10.44-1.21,14.99-3.32,1.18-.57,2.3-1.16,3.39-1.84Z"/>
        <path class="cls-3" d="M92.33,138.72c0,.75-.02,1.5-.05,2.23-.05-.75-.11-1.5-.2-2.23.09-.73.16-1.48.2-2.23.02.73.05,1.48.05,2.23Z"/>
        <path class="cls-3" d="M92.33,138.72c0,.75-.02,1.5-.05,2.23-.05-.75-.11-1.5-.2-2.23.09-.73.16-1.48.2-2.23.02.73.05,1.48.05,2.23Z"/>
        <path class="cls-3" d="M161.79,58.56c0,12.2-9.87,22.07-22.05,22.07s-22.07-9.87-22.07-22.07,9.87-22.07,22.07-22.07,22.05,9.87,22.05,22.07Z"/>
        <circle class="cls-4" cx="71.58" cy="110.66" r="35.56"/>
        <path class="cls-4" d="M148.03,137.97c5.16-1.96,10.06-4.46,14.58-7.46-13.45,11.79-31.01,18.91-50.26,18.91-.75,0-1.52,0-2.28-.02-7.21-.23-14.17-1.43-20.75-3.53-.98-.3-1.93-.61-2.89-.96-.07-.02-.14-.05-.18-.07-.25-.09-.48-.18-.71-.27-.43-.16-.86-.32-1.3-.5-.14-.05-.3-.11-.43-.16-.75-.3-1.5-.61-2.23-.96-.07-.02-.14-.05-.18-.07-1.34-.59-2.64-1.23-3.94-1.89-17.11-8.81-30.44-23.87-37.02-42.18-.32-.89-.61-1.8-.89-2.71-.16-.48-.32-.96-.46-1.43l-.34-1.23c-.05-.16-.09-.34-.14-.52-.2-.73-.41-1.48-.57-2.25-.05-.14-.07-.27-.09-.41-.05-.11-.07-.23-.09-.34-.3-1.34-.57-2.71-.8-4.1-.59-3.41-.93-6.92-1.05-10.47-.02-.75-.02-1.52-.02-2.28s0-1.52.02-2.28C37.02,37.34,59.59,9.24,90.33,0c-7.99,3.69-15.22,8.74-21.39,14.88-13.67,13.54-22.14,32.31-22.14,53.08,0,4.16.34,8.24,1,12.2,8.17,22.53,23.98,46.13,50.17,58.79,7.44,2.48,15.38,3.82,23.64,3.82,4.21,0,8.35-.34,12.38-1.02,4.85-.8,9.56-2.09,14.04-3.78Z"/>
        <path class="cls-4" d="M112.35,53.24c0-12.2,9.87-22.07,22.07-22.07s22.05,9.87,22.05,22.07-9.87,22.07-22.05,22.07-22.07-9.87-22.07-22.07Z"/>
        <path class="cls-4" d="M156.47,53.24c0,12.2-9.87,22.07-22.05,22.07s-22.07-9.87-22.07-22.07,9.87-22.07,22.07-22.07,22.05,9.87,22.05,22.07Z"/>
        <path class="cls-4" d="M82.98,147.12c.8-.48,1.55-.98,2.28-1.52-5.26,18.09-21.96,31.31-41.75,31.31-.75,0-1.5-.02-2.23-.05-.05-.02-.07-.02-.09,0C19,175.67,1.23,157.9.05,135.72c.02-.02.02-.05,0-.09-.02-.73-.05-1.48-.05-2.23s.02-1.5.05-2.23c.02-.05.02-.07,0-.09,1.18-22.18,18.95-39.95,41.14-41.14.02.02.05.02.09,0h.5s-.05,0-.07.05c-1.75,1.48-3.37,3.14-4.78,4.96-4.82,6.03-7.69,13.67-7.69,21.98,0,19.52,15.81,35.36,35.36,35.36,5.37,0,10.44-1.21,14.99-3.32,1.18-.57,2.3-1.16,3.39-1.84Z"/>
        <path class="cls-4" d="M87.01,133.4c0,.75-.02,1.5-.05,2.23-.05-.75-.11-1.5-.2-2.23.09-.73.16-1.48.2-2.23.02.73.05,1.48.05,2.23Z"/>
        <path class="cls-4" d="M87.01,133.4c0,.75-.02,1.5-.05,2.23-.05-.75-.11-1.5-.2-2.23.09-.73.16-1.48.2-2.23.02.73.05,1.48.05,2.23Z"/>
        <path class="cls-4" d="M156.47,53.24c0,12.2-9.87,22.07-22.05,22.07s-22.07-9.87-22.07-22.07,9.87-22.07,22.07-22.07,22.05,9.87,22.05,22.07Z"/>
        <circle class="cls-4" cx="71.58" cy="110.66" r="35.56"/>
        <path class="cls-4" d="M148.03,137.97c5.16-1.96,10.06-4.46,14.58-7.46-13.45,11.79-31.01,18.91-50.26,18.91-.75,0-1.52,0-2.28-.02-7.21-.23-14.17-1.43-20.75-3.53-.98-.3-1.93-.61-2.89-.96-.07-.02-.14-.05-.18-.07-.25-.09-.48-.18-.71-.27-.43-.16-.86-.32-1.3-.5-.14-.05-.3-.11-.43-.16-.75-.3-1.5-.61-2.23-.96-.07-.02-.14-.05-.18-.07-1.34-.59-2.64-1.23-3.94-1.89-17.11-8.81-30.44-23.87-37.02-42.18-.32-.89-.61-1.8-.89-2.71-.16-.48-.32-.96-.46-1.43l-.34-1.23c-.05-.16-.09-.34-.14-.52-.2-.73-.41-1.48-.57-2.25-.05-.14-.07-.27-.09-.41-.05-.11-.07-.23-.09-.34-.3-1.34-.57-2.71-.8-4.1-.59-3.41-.93-6.92-1.05-10.47-.02-.75-.02-1.52-.02-2.28s0-1.52.02-2.28C37.02,37.34,59.59,9.24,90.33,0c-7.99,3.69-15.22,8.74-21.39,14.88-13.67,13.54-22.14,32.31-22.14,53.08,0,4.16.34,8.24,1,12.2,8.17,22.53,23.98,46.13,50.17,58.79,7.44,2.48,15.38,3.82,23.64,3.82,4.21,0,8.35-.34,12.38-1.02,4.85-.8,9.56-2.09,14.04-3.78Z"/>
        <path class="cls-4" d="M112.35,53.24c0-12.2,9.87-22.07,22.07-22.07s22.05,9.87,22.05,22.07-9.87,22.07-22.05,22.07-22.07-9.87-22.07-22.07Z"/>
        <path class="cls-4" d="M156.47,53.24c0,12.2-9.87,22.07-22.05,22.07s-22.07-9.87-22.07-22.07,9.87-22.07,22.07-22.07,22.05,9.87,22.05,22.07Z"/>
        <path class="cls-4" d="M82.98,147.12c.8-.48,1.55-.98,2.28-1.52-5.26,18.09-21.96,31.31-41.75,31.31-.75,0-1.5-.02-2.23-.05-.05-.02-.07-.02-.09,0C19,175.67,1.23,157.9.05,135.72c.02-.02.02-.05,0-.09-.02-.73-.05-1.48-.05-2.23s.02-1.5.05-2.23c.02-.05.02-.07,0-.09,1.18-22.18,18.95-39.95,41.14-41.14.02.02.05.02.09,0h.5s-.05,0-.07.05c-1.75,1.48-3.37,3.14-4.78,4.96-4.82,6.03-7.69,13.67-7.69,21.98,0,19.52,15.81,35.36,35.36,35.36,5.37,0,10.44-1.21,14.99-3.32,1.18-.57,2.3-1.16,3.39-1.84Z"/>
        <path class="cls-4" d="M87.01,133.4c0,.75-.02,1.5-.05,2.23-.05-.75-.11-1.5-.2-2.23.09-.73.16-1.48.2-2.23.02.73.05,1.48.05,2.23Z"/>
        <path class="cls-4" d="M87.01,133.4c0,.75-.02,1.5-.05,2.23-.05-.75-.11-1.5-.2-2.23.09-.73.16-1.48.2-2.23.02.73.05,1.48.05,2.23Z"/>
        <path class="cls-4" d="M156.47,53.24c0,12.2-9.87,22.07-22.05,22.07s-22.07-9.87-22.07-22.07,9.87-22.07,22.07-22.07,22.05,9.87,22.05,22.07Z"/>
        <circle class="cls-4" cx="71.58" cy="110.66" r="35.56"/>
        <path class="cls-4" d="M148.03,137.97c5.16-1.96,10.06-4.46,14.58-7.46-13.45,11.79-31.01,18.91-50.26,18.91-.75,0-1.52,0-2.28-.02-7.21-.23-14.17-1.43-20.75-3.53-.98-.3-1.93-.61-2.89-.96-.07-.02-.14-.05-.18-.07-.25-.09-.48-.18-.71-.27-.43-.16-.86-.32-1.3-.5-.14-.05-.3-.11-.43-.16-.75-.3-1.5-.61-2.23-.96-.07-.02-.14-.05-.18-.07-1.34-.59-2.64-1.23-3.94-1.89-17.11-8.81-30.44-23.87-37.02-42.18-.32-.89-.61-1.8-.89-2.71-.16-.48-.32-.96-.46-1.43l-.34-1.23c-.05-.16-.09-.34-.14-.52-.2-.73-.41-1.48-.57-2.25-.05-.14-.07-.27-.09-.41-.05-.11-.07-.23-.09-.34-.3-1.34-.57-2.71-.8-4.1-.59-3.41-.93-6.92-1.05-10.47-.02-.75-.02-1.52-.02-2.28s0-1.52.02-2.28C37.02,37.34,59.59,9.24,90.33,0c-7.99,3.69-15.22,8.74-21.39,14.88-13.67,13.54-22.14,32.31-22.14,53.08,0,4.16.34,8.24,1,12.2,8.17,22.53,23.98,46.13,50.17,58.79,7.44,2.48,15.38,3.82,23.64,3.82,4.21,0,8.35-.34,12.38-1.02,4.85-.8,9.56-2.09,14.04-3.78Z"/>
        <path class="cls-4" d="M112.35,53.24c0-12.2,9.87-22.07,22.07-22.07s22.05,9.87,22.05,22.07-9.87,22.07-22.05,22.07-22.07-9.87-22.07-22.07Z"/>
        <path class="cls-4" d="M156.47,53.24c0,12.2-9.87,22.07-22.05,22.07s-22.07-9.87-22.07-22.07,9.87-22.07,22.07-22.07,22.05,9.87,22.05,22.07Z"/>
        <path class="cls-4" d="M82.98,147.12c.8-.48,1.55-.98,2.28-1.52-5.26,18.09-21.96,31.31-41.75,31.31-.75,0-1.5-.02-2.23-.05-.05-.02-.07-.02-.09,0C19,175.67,1.23,157.9.05,135.72c.02-.02.02-.05,0-.09-.02-.73-.05-1.48-.05-2.23s.02-1.5.05-2.23c.02-.05.02-.07,0-.09,1.18-22.18,18.95-39.95,41.14-41.14.02.02.05.02.09,0h.5s-.05,0-.07.05c-1.75,1.48-3.37,3.14-4.78,4.96-4.82,6.03-7.69,13.67-7.69,21.98,0,19.52,15.81,35.36,35.36,35.36,5.37,0,10.44-1.21,14.99-3.32,1.18-.57,2.3-1.16,3.39-1.84Z"/>
        <path class="cls-4" d="M87.01,133.4c0,.75-.02,1.5-.05,2.23-.05-.75-.11-1.5-.2-2.23.09-.73.16-1.48.2-2.23.02.73.05,1.48.05,2.23Z"/>
        <path class="cls-4" d="M87.01,133.4c0,.75-.02,1.5-.05,2.23-.05-.75-.11-1.5-.2-2.23.09-.73.16-1.48.2-2.23.02.73.05,1.48.05,2.23Z"/>
        <path class="cls-4" d="M156.47,53.24c0,12.2-9.87,22.07-22.05,22.07s-22.07-9.87-22.07-22.07,9.87-22.07,22.07-22.07,22.05,9.87,22.05,22.07Z"/>
        <path class="cls-1" d="M15.52,166.71c7.01,5.9,15.91,9.63,25.67,10.15.02-.02.05-.02.09,0,.73.02,1.48.05,2.23.05,15.79,0,29.6-8.41,37.21-20.99-3.4,1.09-7.02,1.69-10.8,1.69-.9,0-1.79-.04-2.67-.11-.88.07-1.76.11-2.65.11-19.54,0-35.36-15.84-35.36-35.36,0-.88.05-1.76.11-2.62-.07-.89-.11-1.79-.11-2.7,0-7.21,2.17-13.92,5.89-19.51-16.61,5.52-28.79,20.75-29.76,38.98.02.02.02.05,0,.09-.02.73-.05,1.48-.05,2.23s.02,1.5.05,2.23c.02.05.02.07,0,.09.52,9.75,4.25,18.65,10.15,25.67Z"/>
        <path class="cls-1" d="M112.35,149.42c4.87,0,9.62-.46,14.23-1.33-.77,0-1.55-.02-2.32-.05-.88.03-1.77.05-2.66.05-8.26,0-16.2-1.34-23.64-3.82-1.01-.49-1.98-1.03-2.97-1.55,1.27-1.11,2.46-2.31,3.55-3.59-.19-.06-.39-.12-.59-.18-1.01-.49-1.98-1.03-2.97-1.55,6.81-5.97,11.32-14.5,12.03-24.08-1.3-17.52-15.28-31.49-32.79-32.79-7.55.56-14.44,3.46-19.95,8-.39-.99-.78-1.98-1.14-2.97-1.47.89-2.87,1.88-4.18,2.97-.4-1.02-.8-2.03-1.17-3.05-.66-3.96-1-8.03-1-12.2,0-.8.04-1.58.06-2.38-.04-.98-.06-1.96-.06-2.95,0-10.99,2.39-21.41,6.65-30.8-7.28,11.3-11.67,24.64-12.08,38.97-.02.75-.02,1.52-.02,2.28s0,1.52.02,2.28c.11,3.55.46,7.05,1.05,10.47.23,1.39.5,2.75.8,4.1.02.11.05.22.09.32-1.44.18-2.86.44-4.26.76-.38.87-.73,1.75-1.04,2.65.21-.24.43-.47.65-.71.04.18.09.35.13.51l.34,1.23c.08.29.18.58.28.87-1.51,3.22-2.55,6.7-3.04,10.36,1.32-4.01,3.32-7.72,5.91-10.95.54-.7,1.12-1.36,1.71-2.01.04.18.09.35.13.51l.34,1.23c.08.29.18.58.28.87-2.16,4.59-3.37,9.71-3.37,15.12,0,8.46,2.96,16.23,7.9,22.34,6.11,4.94,13.88,7.9,22.34,7.9,4.37,0,8.56-.79,12.43-2.24.08.03.16.06.24.09.43.18.86.34,1.3.5.23.09.46.18.71.27.05.02.11.05.18.07.96.34,1.91.66,2.89.96,6.58,2.09,13.54,3.3,20.75,3.53.75.02,1.52.02,2.28.02Z"/>
        <path class="cls-1" d="M74.24,151.43c3.4-.25,6.67-.97,9.74-2.12.48-1.22.91-2.46,1.28-3.72-.73.55-1.48,1.05-2.28,1.52-1.09.68-2.21,1.27-3.39,1.84-2.14,1-4.4,1.78-6.75,2.34.46.05.93.09,1.4.13Z"/>
        <path class="cls-1" d="M117.67,58.56c0,4.74,1.5,9.11,4.04,12.71,3.59,2.54,7.97,4.04,12.71,4.04,11.27,0,20.56-8.47,21.87-19.41-1.21-10.06-9.17-18.02-19.21-19.23-10.94,1.32-19.41,10.6-19.41,21.89Z"/>
      </g>
      <g>
        <g>
          <path class="cls-1" d="M207.05,73.36c-2.12-1.95-3.17-4.7-3.17-8.25v-24.44c0-3.55,1.06-6.3,3.17-8.25,2.11-1.95,5.19-2.92,9.21-2.92s7.1.97,9.21,2.92c2.11,1.95,3.17,4.7,3.17,8.25v4.81h-7.95v-5.26c0-2.82-1.4-4.22-4.21-4.22s-4.21,1.41-4.21,4.22v25.41c0,2.77,1.4,4.16,4.21,4.16s4.21-1.39,4.21-4.16v-6.95h7.95v6.43c0,3.55-1.06,6.3-3.17,8.25-2.12,1.95-5.19,2.92-9.21,2.92s-7.1-.98-9.21-2.92Z"/>
          <path class="cls-1" d="M237.52,30.14h12.46c4.33,0,7.49.86,9.48,2.57,1.99,1.71,2.98,4.34,2.98,7.9v2.79c0,4.72-1.84,7.71-5.51,8.97v.13c2.04.52,3.48,1.58,4.32,3.18.84,1.6,1.26,3.75,1.26,6.43v7.99c0,1.3.05,2.35.15,3.15.1.8.36,1.59.76,2.37h-8.56c-.31-.74-.51-1.43-.61-2.08-.1-.65-.15-1.82-.15-3.51v-8.32c0-2.08-.4-3.53-1.19-4.35-.79-.82-2.15-1.23-4.09-1.23h-2.91v19.5h-8.41V30.14ZM248.99,49.64c1.68,0,2.94-.37,3.79-1.1.84-.74,1.26-1.97,1.26-3.7v-3.51c0-1.65-.34-2.84-1.03-3.57-.69-.74-1.77-1.1-3.25-1.1h-3.82v13h3.06Z"/>
          <path class="cls-1" d="M274.84,73.3c-2.19-1.99-3.29-4.81-3.29-8.45v-23.92c0-3.64,1.1-6.46,3.29-8.45,2.19-1.99,5.35-2.99,9.48-2.99s7.29,1,9.48,2.99c2.19,1.99,3.29,4.81,3.29,8.45v23.92c0,3.64-1.1,6.46-3.29,8.45-2.19,1.99-5.35,2.99-9.48,2.99s-7.29-1-9.48-2.99ZM288.68,65.3v-24.83c0-2.99-1.45-4.48-4.36-4.48s-4.36,1.5-4.36,4.48v24.83c0,2.99,1.45,4.48,4.36,4.48s4.36-1.49,4.36-4.48Z"/>
          <path class="cls-1" d="M306.57,30.14h12.01l5.35,32.56h.15l5.35-32.56h12.01v45.5h-7.95v-34.45h-.15l-6.12,34.45h-7.04l-6.12-34.45h-.15v34.45h-7.34V30.14Z"/>
          <path class="cls-1" d="M358.03,30.14h11.39l8.72,45.5h-8.41l-1.53-9.03v.13h-9.56l-1.53,8.9h-7.8l8.72-45.5ZM367.21,60.56l-3.75-22.49h-.15l-3.67,22.49h7.57Z"/>
          <path class="cls-1" d="M389.08,36.64h-8.79v-6.5h26v6.5h-8.79v39h-8.41v-39Z"/>
          <path class="cls-1" d="M414.16,30.14h8.41v45.5h-8.41V30.14Z"/>
          <path class="cls-1" d="M435.3,73.36c-2.12-1.95-3.17-4.7-3.17-8.25v-24.44c0-3.55,1.06-6.3,3.17-8.25,2.11-1.95,5.19-2.92,9.21-2.92s7.1.97,9.21,2.92c2.11,1.95,3.17,4.7,3.17,8.25v4.81h-7.95v-5.26c0-2.82-1.4-4.22-4.21-4.22s-4.21,1.41-4.21,4.22v25.41c0,2.77,1.4,4.16,4.21,4.16s4.21-1.39,4.21-4.16v-6.95h7.95v6.43c0,3.55-1.06,6.3-3.17,8.25-2.12,1.95-5.19,2.92-9.21,2.92s-7.1-.98-9.21-2.92Z"/>
          <path class="cls-1" d="M184.04,127.52c-2.12-1.95-3.17-4.7-3.17-8.25v-24.44c0-3.55,1.06-6.3,3.17-8.25,2.11-1.95,5.19-2.92,9.21-2.92s7.1.97,9.21,2.92c2.11,1.95,3.17,4.7,3.17,8.25v4.81h-7.95v-5.26c0-2.82-1.4-4.22-4.21-4.22s-4.21,1.41-4.21,4.22v25.41c0,2.77,1.4,4.16,4.21,4.16s4.21-1.39,4.21-4.16v-6.95h7.95v6.43c0,3.55-1.06,6.3-3.17,8.25-2.12,1.95-5.19,2.92-9.21,2.92s-7.1-.98-9.21-2.92Z"/>
          <path class="cls-1" d="M217.34,127.46c-2.19-1.99-3.29-4.81-3.29-8.45v-23.92c0-3.64,1.1-6.46,3.29-8.45,2.19-1.99,5.35-2.99,9.48-2.99s7.29,1,9.48,2.99c2.19,1.99,3.29,4.81,3.29,8.45v23.92c0,3.64-1.1,6.46-3.29,8.45-2.19,1.99-5.35,2.99-9.48,2.99s-7.29-1-9.48-2.99ZM231.18,119.46v-24.83c0-2.99-1.45-4.48-4.36-4.48s-4.36,1.5-4.36,4.48v24.83c0,2.99,1.45,4.48,4.36,4.48s4.36-1.49,4.36-4.48Z"/>
          <path class="cls-1" d="M249.07,84.3h8.41v39h13.84v6.5h-22.25v-45.5Z"/>
          <path class="cls-1" d="M279.2,84.3h8.41v39h13.84v6.5h-22.25v-45.5Z"/>
          <path class="cls-1" d="M309.32,84.3h22.94v6.5h-14.53v12.02h11.55v6.5h-11.55v13.97h14.53v6.5h-22.94v-45.5Z"/>
          <path class="cls-1" d="M343.54,127.52c-2.12-1.95-3.17-4.7-3.17-8.25v-24.44c0-3.55,1.06-6.3,3.17-8.25,2.11-1.95,5.19-2.92,9.21-2.92s7.1.97,9.21,2.92c2.11,1.95,3.17,4.7,3.17,8.25v4.81h-7.95v-5.26c0-2.82-1.4-4.22-4.21-4.22s-4.21,1.41-4.21,4.22v25.41c0,2.77,1.4,4.16,4.21,4.16s4.21-1.39,4.21-4.16v-6.95h7.95v6.43c0,3.55-1.06,6.3-3.17,8.25-2.12,1.95-5.19,2.92-9.21,2.92s-7.1-.98-9.21-2.92Z"/>
          <path class="cls-1" d="M380.59,90.8h-8.79v-6.5h26v6.5h-8.79v39h-8.41v-39Z"/>
          <path class="cls-1" d="M405.67,84.3h8.41v45.5h-8.41v-45.5Z"/>
          <path class="cls-1" d="M421.96,84.3h8.49l5.51,35.29h.15l5.51-35.29h7.72l-8.11,45.5h-11.16l-8.11-45.5Z"/>
          <path class="cls-1" d="M457.21,84.3h22.94v6.5h-14.53v12.02h11.55v6.5h-11.55v13.97h14.53v6.5h-22.94v-45.5Z"/>
        </g>
        <g>
          <path class="cls-1" d="M201.97,148.35h10.09v8.2h-.68v-4.35h-.07c-.66,1.49-1.83,2.65-3.53,3.49s-3.75,1.25-6.15,1.25c-1.86,0-3.5-.24-4.93-.72-1.43-.48-2.62-1.14-3.57-1.96-.95-.83-1.67-1.8-2.16-2.91-.49-1.11-.73-2.3-.73-3.56s.26-2.48.78-3.6c.52-1.12,1.27-2.09,2.24-2.92.97-.83,2.16-1.48,3.57-1.95,1.4-.47,3-.71,4.79-.71,1.36,0,2.61.14,3.76.42,1.14.28,2.15.68,3.02,1.19s1.59,1.13,2.14,1.85.93,1.53,1.14,2.43h-.68c-.2-.82-.57-1.56-1.1-2.22-.53-.66-1.2-1.23-2.01-1.71-.8-.47-1.73-.84-2.79-1.09s-2.21-.38-3.48-.38c-1.7,0-3.21.23-4.54.69-1.33.46-2.45,1.08-3.36,1.87-.92.79-1.61,1.71-2.09,2.76s-.71,2.18-.71,3.38.23,2.32.68,3.38c.45,1.06,1.13,1.98,2.04,2.76.91.79,2.03,1.41,3.38,1.87,1.35.46,2.92.69,4.71.69,1.34,0,2.59-.17,3.77-.5,1.18-.33,2.2-.8,3.08-1.4.87-.6,1.56-1.31,2.06-2.14.5-.83.75-1.72.75-2.69v-.91h-9.41v-.49Z"/>
          <path class="cls-1" d="M218.93,156.55v-17.53h9.92c2.54,0,4.4.36,5.57,1.09,1.18.73,1.79,1.86,1.83,3.4.05,1.18-.39,2.16-1.29,2.93-.91.78-2.21,1.31-3.91,1.58v.05c1.02.1,1.85.27,2.48.53s1.12.59,1.46.99c.34.41.57.89.68,1.45.11.56.17,1.19.17,1.89,0,.25.01.55.03.92.02.37.06.73.1,1.09.04.36.1.69.17.98.07.29.16.5.27.61h-.75c-.11-.18-.2-.42-.27-.72-.07-.3-.12-.63-.15-.97-.03-.34-.06-.69-.07-1.04-.01-.35-.02-.67-.02-.95,0-.72-.07-1.36-.22-1.93-.15-.56-.45-1.04-.9-1.42-.45-.38-1.1-.68-1.94-.88-.84-.2-1.96-.31-3.36-.31h-9.14v8.23h-.68ZM228.69,147.83c.91,0,1.77-.08,2.6-.25.83-.16,1.56-.43,2.19-.79.63-.36,1.14-.81,1.53-1.36.39-.55.58-1.21.58-1.98-.02-1.24-.54-2.21-1.56-2.91-1.02-.7-2.69-1.04-5-1.04h-9.41v8.32h9.07Z"/>
          <path class="cls-1" d="M241.63,156.55h-.75l9.82-17.53h.88l9.58,17.53h-.75l-3.19-5.77h-12.37l-3.23,5.77ZM251.18,139.51h-.07l-5.98,10.78h11.83l-5.78-10.78Z"/>
          <path class="cls-1" d="M266.04,156.55v-17.53h9.82c2.33,0,4.15.4,5.44,1.2,1.29.8,1.94,2,1.94,3.58,0,.77-.19,1.45-.58,2.05-.39.6-.92,1.1-1.6,1.5-.68.4-1.49.7-2.43.91-.94.2-1.98.31-3.11.31h-8.8v7.98h-.68ZM275.86,148.08c.95,0,1.84-.09,2.65-.28.82-.19,1.52-.47,2.12-.83.6-.37,1.07-.81,1.41-1.34.34-.52.51-1.13.51-1.82,0-1.39-.55-2.46-1.65-3.19-1.1-.74-2.78-1.1-5.05-1.1h-9.14v8.57h9.14Z"/>
          <path class="cls-1" d="M289.62,156.55h-.68v-17.53h.68v8.15h16.99v-8.15h.68v17.53h-.68v-8.89h-16.99v8.89Z"/>
          <path class="cls-1" d="M315.04,139.02v17.53h-.68v-17.53h.68Z"/>
          <path class="cls-1" d="M341.62,152.61c-.57.89-1.3,1.66-2.19,2.3-.9.64-1.95,1.14-3.18,1.5s-2.61.54-4.15.54-3.09-.23-4.44-.68c-1.35-.45-2.5-1.07-3.47-1.87-.96-.79-1.72-1.74-2.26-2.85-.54-1.1-.82-2.31-.82-3.62,0-1.06.21-2.15.63-3.25.42-1.1,1.08-2.11,1.99-3.01.91-.9,2.08-1.64,3.53-2.21,1.45-.57,3.21-.86,5.27-.86,1.61,0,3.01.19,4.21.58,1.2.38,2.2.87,3.01,1.45.8.58,1.41,1.2,1.82,1.85.41.65.62,1.25.65,1.79h-.68c-.07-.64-.33-1.26-.78-1.88-.45-.61-1.07-1.17-1.85-1.66-.78-.49-1.71-.89-2.79-1.19s-2.27-.45-3.59-.45c-1.99,0-3.68.29-5.05.87-1.37.58-2.48,1.31-3.31,2.19-.84.88-1.44,1.83-1.82,2.86-.37,1.03-.56,2.01-.56,2.92,0,1.11.23,2.19.68,3.22.45,1.03,1.12,1.94,2.01,2.73.88.79,1.97,1.42,3.25,1.89,1.28.48,2.74.71,4.37.71,1.45,0,2.75-.17,3.91-.52,1.16-.34,2.15-.82,2.99-1.42.84-.61,1.52-1.33,2.04-2.16.52-.83.87-1.73,1.05-2.7h.68c-.2,1.06-.59,2.04-1.16,2.93Z"/>
          <path class="cls-1" d="M378.36,156.55l-3.02-2.77c-.68.9-1.6,1.65-2.77,2.26-1.17.61-2.61.91-4.33.91-.84,0-1.68-.1-2.51-.29-.84-.2-1.58-.48-2.23-.85-.65-.37-1.17-.82-1.58-1.35-.41-.53-.61-1.14-.61-1.83s.2-1.36.61-1.93c.41-.56.93-1.08,1.56-1.53.63-.46,1.34-.87,2.11-1.24.77-.37,1.52-.72,2.24-1.04-.34-.34-.71-.7-1.12-1.07-.41-.37-.8-.74-1.17-1.13-.37-.38-.69-.78-.93-1.18-.25-.4-.37-.81-.37-1.22,0-.57.15-1.06.44-1.47.29-.41.67-.74,1.14-1.01.46-.26.99-.46,1.58-.59.59-.13,1.19-.2,1.8-.2.68,0,1.32.07,1.92.22.6.15,1.13.36,1.58.64.45.28.81.62,1.07,1.02.26.4.39.86.39,1.39,0,.59-.18,1.11-.53,1.56-.35.45-.79.86-1.31,1.23-.52.37-1.1.71-1.73,1.02-.63.31-1.22.61-1.77.91l6.39,5.84c.23-.36.43-.8.61-1.33.18-.52.25-1.11.2-1.77h.68c.02.74-.06,1.37-.24,1.9-.18.53-.44,1.08-.78,1.63l3.57,3.27h-.88ZM366.1,148.25c-.74.34-1.41.72-2.02,1.14s-1.12.89-1.51,1.41c-.4.52-.59,1.13-.59,1.82,0,.62.18,1.17.54,1.66.36.48.83.89,1.41,1.22.58.33,1.25.57,2,.74.76.16,1.52.25,2.29.25,1.63,0,2.99-.29,4.08-.88,1.09-.59,1.95-1.35,2.58-2.28l-6.66-6.04c-.68.31-1.39.64-2.12.98ZM365.1,143.07c.14.28.35.59.63.92.28.34.65.72,1.09,1.14.44.43.97.93,1.58,1.5.48-.25,1.01-.52,1.6-.81s1.14-.62,1.65-.97c.51-.35.94-.74,1.29-1.17.35-.43.53-.89.53-1.4,0-.43-.11-.81-.34-1.15-.23-.34-.54-.63-.93-.87-.4-.24-.85-.42-1.36-.55-.51-.13-1.05-.2-1.61-.2s-1.14.06-1.67.18c-.52.12-.98.3-1.38.54s-.71.52-.93.86-.34.72-.34,1.14c0,.28.07.56.2.83Z"/>
          <path class="cls-1" d="M425.46,139.02l-7.04,17.53h-.92l-7.14-16.92h-.07l-7,16.92h-.92l-7.14-17.53h.68l6.86,16.92h.07l7-16.92h.99l7.1,16.92h.07l6.76-16.92h.68Z"/>
          <path class="cls-1" d="M446.6,156.06v.49h-16.24v-17.53h16.11v.49h-15.43v7.66h14.51v.49h-14.51v8.4h15.56Z"/>
          <path class="cls-1" d="M462.2,139.02c.95,0,1.84.09,2.67.27.83.18,1.55.45,2.17.82s1.11.82,1.46,1.36c.35.54.53,1.18.53,1.92,0,.52-.13,1.02-.39,1.5-.26.47-.62.89-1.07,1.25-.45.36-.99.65-1.61.87-.62.22-1.31.35-2.06.38v.05c.79.02,1.55.13,2.26.33.71.21,1.34.49,1.87.86.53.37.96.82,1.27,1.35.32.53.48,1.13.48,1.8,0,.79-.2,1.48-.59,2.07s-.95,1.09-1.65,1.49c-.7.39-1.55.69-2.53.9-.99.21-2.06.31-3.21.31h-10.03v-17.53h10.43ZM462.2,147.17c.82,0,1.59-.08,2.33-.23.74-.16,1.39-.39,1.95-.71.57-.32,1.02-.72,1.36-1.19.34-.47.51-1.02.51-1.65,0-.67-.16-1.25-.48-1.73-.32-.48-.75-.88-1.31-1.2-.56-.32-1.21-.56-1.95-.71-.75-.16-1.55-.23-2.41-.23h-9.75v7.66h9.75ZM462.09,156.06c1,0,1.92-.09,2.77-.26s1.59-.43,2.21-.79c.62-.35,1.12-.79,1.48-1.33.36-.53.54-1.16.54-1.88,0-.77-.2-1.42-.59-1.94-.4-.52-.92-.95-1.56-1.28-.65-.33-1.38-.56-2.21-.71-.83-.15-1.67-.22-2.53-.22h-9.75v8.4h9.65Z"/>
        </g>
      </g>
    </g>
  </g>
</svg>