<?xml version="1.0" encoding="UTF-8"?>
<svg id="Layer_2" data-name="Layer 2" xmlns="http://www.w3.org/2000/svg" viewBox="0 0 74.84 76.89">
  <defs>
    <style>
      .cls-1 {
        fill: #282828;
        stroke-width: 0px;
      }
    </style>
  </defs>
  <g id="Layer_3" data-name="Layer 3">
    <g>
      <path class="cls-1" d="M53.06,0h-31.29C9.8,0,0,9.8,0,21.77v33.35c0,11.97,9.8,21.77,21.77,21.77h31.29c11.97,0,21.77-9.8,21.77-21.77V21.77c0-11.97-9.8-21.77-21.77-21.77ZM69.08,55.12c0,4.25-1.67,8.27-4.71,11.31-3.04,3.04-7.05,4.71-11.31,4.71h-31.29c-4.25,0-8.27-1.67-11.31-4.71-3.04-3.04-4.71-7.05-4.71-11.31V21.77c0-4.25,1.67-8.27,4.71-11.31s7.05-4.71,11.31-4.71h31.29c4.25,0,8.27,1.67,11.31,4.71,3.04,3.04,4.71,7.05,4.71,11.31v33.35Z"/>
      <path class="cls-1" d="M37.53,17.54c-11.38,0-20.61,9.23-20.61,20.61s9.23,20.61,20.61,20.61,20.61-9.23,20.61-20.61-9.23-20.61-20.61-20.61ZM37.43,51.66c-7.45,0-13.49-6.04-13.49-13.49s6.04-13.49,13.49-13.49,13.49,6.04,13.49,13.49-6.04,13.49-13.49,13.49Z"/>
      <circle class="cls-1" cx="58.47" cy="17.22" r="4.88" transform="translate(4.95 46.39) rotate(-45)"/>
    </g>
  </g>
</svg>