<?xml version="1.0" encoding="UTF-8"?>
<svg id="Layer_2" data-name="Layer 2" xmlns="http://www.w3.org/2000/svg" viewBox="0 0 975.37 132.9">
  <defs>
    <style>
      .cls-1 {
        fill: #f4f4f4;
        stroke-width: 0px;
      }
    </style>
  </defs>
  <g id="Layer_4" data-name="Layer 4">
    <g>
      <path class="cls-1" d="M2.49,112.5c-.32-.41-.62-.75-.89-1.03-.37-.36-.68-.77-.96-1.23-.27-.46-.48-1.12-.62-1.98-.05-.41-.03-.69.03-.85.07-.16.16-.23.27-.21.11.02.22.08.31.17.09.09.14.21.14.34-.05.09-.05.22,0,.38.04.16.11.29.21.38.09.09.19.13.31.1.11-.02.22-.17.31-.44.18-.36.26-.64.24-.82-.02-.18-.1-.3-.24-.34-.14-.04-.27-.07-.41-.07-.09-.04-.16-.07-.21-.07s-.07-.02-.07-.07l.48-1.23c0-1.55.5-3.63,1.5-6.25,1-2.62,2.07-5.01,3.21-7.18,1.14-2.16,1.98-3.45,2.53-3.86.09-.09.14-.17.14-.24s-.02-.12-.07-.17c0-.04-.01-.1-.03-.17-.02-.07-.01-.12.03-.17s.14-.09.27-.14l1.3-1.91,1.91-2.87c.18,0,.27-.06.27-.17s-.02-.24-.07-.38c-.05-.09-.07-.17-.07-.24s.01-.11.03-.14.1-.01.24.03c.32.09.54.03.65-.17.11-.21.19-.47.24-.79.04-.23.09-.43.14-.62.04-.18.16-.27.34-.27.41,0,.69-.07.85-.21.16-.14.24-.31.24-.51s-.02-.4-.07-.58v-.31c0-.07.02-.1.07-.1.09,0,.21-.02.34-.07.23,0,.4-.02.51-.07.11-.04.21-.16.27-.34.07-.18.1-.46.1-.82.04-.46.12-.8.24-1.03.11-.23.24-.4.38-.51.14-.11.28-.17.44-.17s.31.02.44.07c.14.05.3.11.48.21.55-.73.91-1.37,1.09-1.91.18-.55.3-.98.34-1.3.04-.23.09-.39.14-.48.04-.09.14-.11.27-.07.36.09.73-.07,1.09-.48.36-.41.69-.92.99-1.54.3-.62.56-1.2.79-1.74.14-.32.25-.58.34-.79.09-.21.16-.31.21-.31l2.19-2.73c.27,0,.75-.4,1.44-1.2.68-.8,1.32-1.61,1.91-2.43.59-.82.98-1.37,1.16-1.64l.07-.07c0,.09.06.08.17-.03s.24-.25.38-.41c.14-.16.25-.34.34-.55.09-.21.11-.39.07-.55-.05-.16-.16-.26-.34-.31l.48-.62.27-.27c.09-.36,1.58-2.55,4.48-6.56,2.89-4.01,6.32-8.6,10.29-13.77,3.96-5.17,7.64-9.76,11.04-13.77,3.39-4.01,5.48-6.02,6.25-6.02.32,0,.54-.07.65-.21.11-.14.19-.27.24-.41,0-.09.02-.17.07-.24.04-.07.11-.09.21-.07.09.02.23.1.41.24.14.05.22.09.24.14.02.05.02.08,0,.1l-.1.1c-.09.05-.17.1-.24.17s-.1.19-.1.38.07.41.21.68c.68,1.32,1.42,1.91,2.22,1.78.8-.14,1.58-.62,2.36-1.44.55.68.89,1.16,1.03,1.44.14.23.26.39.38.48.11.09.33.16.65.21l1.98.48c.14-.23.38-.3.72-.21.34.09.72.25,1.13.48.5.27.96.46,1.37.55.41.09.62-.09.62-.55,0-.27.02-.43.07-.48s.1-.03.17.03.11.17.14.31c.02.14-.01.3-.1.48-.05.05-.07.09-.07.14-.09.18-.16.31-.21.38-.05.07-.05.13,0,.17.04.05.11.07.21.07.14.05.32.15.55.31.23.16.5.4.82.72.46.46.82.74,1.09.85.27.11.5.17.68.17.09,0,.16.01.21.03.04.02.08.08.1.17.02.09.01.25-.03.48-.09.18-.18.32-.27.41-.14.14-.26.3-.38.48-.11.18-.16.33-.14.44.02.11.22.17.58.17.14,0,.25.07.34.21.09.14.18.3.27.48.04.23.15.46.31.68.16.23.4.43.72.62.46.32.75.89.89,1.71s.19,1.63.17,2.43c-.02.8-.08,1.29-.17,1.47-.32.59-.5,1.19-.55,1.78-.05.73-.32,1.39-.82,1.98l-1.16,1.44c-.09,0-.17.07-.24.21s-.15.34-.24.62c-.14.37-.3.74-.48,1.13-.18.39-.41.65-.68.79l-3.49,6.84-1.98,3.96c-.41.59-.71,1.12-.89,1.57-.18.5-.49,1.07-.92,1.71-.43.64-1.15,1.48-2.15,2.53-1.64,1.87-2.69,3.44-3.14,4.72-.27.73-.57,1.26-.89,1.61-.32.34-.75.49-1.3.44-.46-.09-.8-.14-1.03-.14-.23-.04-.42-.09-.58-.14-.16-.04-.35-.16-.58-.34-.23-.18-.55-.48-.96-.89-.14-.09-.27-.21-.41-.34l-1.78-1.44c0-.23-.06-.41-.17-.55-.11-.14-.24-.27-.38-.41-.18-.14-.32-.27-.41-.41-.09-.14-.09-.27,0-.41.27-.46.36-.82.27-1.09-.09-.27-.23-.48-.41-.62-.14-.14-.22-.27-.24-.41-.02-.14.08-.3.31-.48l8.34-14.42c.09-.32.18-.57.27-.75.09-.18.16-.3.21-.34.04-.09.08-.15.1-.17s.01-.06-.03-.1c-.05-.04-.11-.09-.21-.14-.14-.04-.31-.01-.51.1-.21.11-.42.24-.65.38-.23.18-.43.32-.62.41-.18.09-.34.13-.48.1-.14-.02-.21-.19-.21-.51,0-.41-.05-.62-.14-.62s-.21.11-.34.34c-.14.23-.27.48-.41.75l-.34.68c-.05.09-.07.16-.07.21l-1.57,1.98-4.58,4.24-2.39,2.67c-.09-.04-.21.01-.34.17-.14.16-.27.38-.41.65-.23.32-.47.62-.72.89-.25.27-.47.39-.65.34-.41-.09-.73.09-.96.55-.23.46-.43.93-.62,1.44-.09.37-.18.65-.27.85-.09.21-.19.31-.31.31s-.24-.16-.38-.48c-.09-.32-.17-.43-.24-.34-.07.09-.15.27-.24.55-.05.32-.14.65-.27.99s-.32.65-.55.92l-2.12,2.87-8,10.66-3.49,5.2-1.78,2.53-3.21,5.47-2.39,4.58-2.67,4.44c-.05.27-.3.9-.75,1.88-.46.98-.97,1.97-1.54,2.97-.57,1-1.08,1.71-1.54,2.12-.41.37-.74.73-.99,1.09-.25.37-.41.68-.48.96s.01.41.24.41l7.04-3.42c-.32.27-.35.4-.1.38.25-.02.65-.16,1.2-.41.55-.25,1.13-.55,1.74-.89s1.14-.67,1.57-.99c.43-.32.65-.55.65-.68,0-.18.03-.33.1-.44.07-.11.16-.18.27-.21.11-.02.21-.01.27.03.07.05.08.09.03.14l5.13-1.85c.23-.46.6-.79,1.13-.99.52-.21,1.06-.35,1.61-.44.46-.09.84-.19,1.16-.31.32-.11.48-.28.48-.51v-.27c.04.09.1.16.17.21.07.05.17.08.31.1.14.02.32.03.55.03s.5-.02.82-.07c.41-.09.76-.18,1.06-.27.3-.09.47-.16.51-.21.14-.09.96-.24,2.46-.44s3.21-.38,5.13-.51,3.58-.14,4.99,0c1.41.14,2.12.48,2.12,1.03-.32,1-.97,1.77-1.95,2.29-.98.52-1.79.88-2.43,1.06-.23.09-.37.16-.41.21-.23.32-.62.63-1.16.92-.55.3-1.09.58-1.64.85-.59.32-1.09.59-1.5.82-.41.23-.62.46-.62.68,0,.14-.01.23-.03.27-.02.05-.06.07-.1.07h-.41c-.09,0-.17.03-.24.1s-.15.22-.24.44l-2.73,3.21c.18.37.15.65-.1.85-.25.21-.58.38-.99.51-.32.14-.63.3-.92.48-.3.18-.44.41-.44.68,0,.23-.06.37-.17.41-.11.05-.24.07-.38.07-.18,0-.34.02-.48.07-.14.05-.21.18-.21.41,0,.32-.03.51-.1.58s-.16.08-.27.03c-.11-.04-.22-.11-.31-.21-.14-.09-.26-.15-.38-.17-.11-.02-.17.08-.17.31s-.17.54-.51.92c-.34.39-.76.79-1.26,1.2l-1.3,1.3c-.41.41-.66.78-.75,1.09-.27.73-.82,1.29-1.64,1.67-.82.39-1.55.67-2.19.85-.41.14-.62.23-.62.27.09.18-.11.44-.62.79-.5.34-1.13.68-1.88,1.03s-1.47.67-2.15.99c-.46.18-.83.34-1.13.48-.3.14-.44.23-.44.27l-3.14,1.23-7.79.48c-.64-.32-1.5-.59-2.6-.82-1-.18-2.05-.47-3.14-.85-1.09-.39-2.17-1.01-3.21-1.88l-5.26-3.83ZM14.25,78.86l.14.27s-.08-.03-.1-.1c-.02-.07-.03-.12-.03-.17ZM20.57,70.15c.11-.02.23-.02.34,0,.11.02.21.06.27.1.07.05.08.09.03.14s-.18.07-.41.07c-.09,0-.23-.02-.41-.07,0-.14.06-.22.17-.24ZM22.18,91.58l-.27.14c.09,0,.16-.01.21-.03.04-.02.07-.06.07-.1ZM27.92,61.09c-.18,0-.25-.09-.21-.27l.21.27ZM28.67,60.06c-.27.27-.42.37-.44.27-.02-.09.1-.32.38-.68l.07.41ZM34.41,95.89c-.09.09-.18.16-.27.21-.09.05-.18.07-.27.07s-.14-.02-.14-.07l.68-.21ZM39.33,46.46c-.14-.14-.25-.19-.34-.17-.09.02-.16.09-.21.21-.05.11-.08.24-.1.38-.02.14,0,.23.07.27.07.05.17,0,.31-.14.09-.09.16-.18.21-.27.04-.09.07-.18.07-.27ZM68.39,16.66s-.09.02-.14.07-.09.11-.14.21l-.21.21s-.11.03-.21-.03c-.09-.07-.21-.22-.34-.44-.14-.27-.13-.48.03-.62.16-.14.38-.25.65-.34.18-.04.35-.11.51-.21.16-.09.28-.23.38-.41.04-.14.1-.16.17-.07.07.09.14.23.21.41.07.18.1.38.1.58s-.08.38-.24.51c-.16.14-.42.18-.79.14ZM68.11,14.67c-.09,0-.16-.02-.21-.07-.05-.04-.07-.11-.07-.21l.27.27Z"/>
      <path class="cls-1" d="M128.41,71.96c-.37.55-.82,1.04-1.37,1.47-.55.43-1.05.79-1.5,1.06-.32.23-.57.41-.75.55-.18.14-.23.25-.14.34.23.18.31.31.24.38s-.21.1-.41.1h-1.09c-.11,0-.15.02-.1.07.23.27.25.81.07,1.61-.18.8-.48,1.67-.89,2.63s-.85,1.74-1.33,2.36-.9.88-1.26.79c-.23-.09-.44-.11-.65-.07-.21.05-.4.11-.58.21-.27.14-.55.18-.82.14-.27-.04-.62-.32-1.03-.82-1.64-2.28-2.83-4.57-3.55-6.87-.73-2.3-1.16-4-1.3-5.09-.09-.36-.14-.59-.14-.68-.14-.23-.46-.1-.96.38-.5.48-1.05,1.11-1.64,1.88-.59.78-1.14,1.48-1.64,2.12-.46.64-.78,1.05-.96,1.23l-12.44,16.47c0,.14-.03.24-.1.31s-.17.15-.31.24c-.18.09-.4.27-.65.55-.25.27-.54.75-.85,1.44-.46.87-1.19,1.85-2.19,2.94-1.41,1.46-2.53,3.08-3.35,4.85l-4.24,6.97c0,.18-.03.27-.1.27h-.31c-.09-.04-.18-.07-.27-.07s-.18.05-.27.14-.16.27-.21.55c-.09.32-.21.52-.34.62-.14.09-.27.16-.41.21-.05,0-.09.01-.14.03-.05.02-.07.08-.07.17.09,1.05-.31,1.97-1.2,2.77-.89.8-1.81,1.47-2.77,2.02-.73.46-1.23.84-1.5,1.16l-4.1.55c-.87-.23-1.54-.41-2.02-.55s-.83-.25-1.06-.34c-.23-.09-.39-.17-.48-.24-.09-.07-.14-.13-.14-.17-.05-.09-.13-.19-.24-.31s-.34-.25-.68-.41c-.34-.16-.85-.38-1.54-.65-2.78-1.14-4.49-2.51-5.13-4.1-.64-1.59-.71-3.17-.21-4.72.5-1.55,1.05-2.83,1.64-3.83.27-.5.46-.87.55-1.09.37-1.59.95-3.21,1.74-4.85s1.63-3.28,2.5-4.92c1.09-1.91,2.03-3.74,2.8-5.47l15.72-29.6c1.37-2.32,2.84-3.39,4.41-3.21,1.57.18,2.93,1.07,4.07,2.67,1.14,1.6,1.71,3.26,1.71,4.99,0,.78-.13,1.48-.38,2.12-.25.64-.54,1.25-.85,1.85-.5.96-.89,2.07-1.16,3.35l-3.49,9.98-3.76,10.39c-.96,1.64-.7,1.71.79.21,1.48-1.5,3.88-4.28,7.21-8.34,4.6-5.56,8.02-9.66,10.25-12.3,2.23-2.64,4.26-5.01,6.08-7.11,1.41-1.55,2.52-2.78,3.32-3.69.8-.91,1.38-1.59,1.74-2.05.36-.46.6-.83.72-1.13.11-.3.19-.63.24-.99.09-.46.19-.79.31-.99.11-.21.22-.33.31-.38.09-.04.18-.07.27-.07s.17-.01.24-.03c.07-.02.11-.1.14-.24.02-.14.03-.34.03-.62,0-.36.09-.62.27-.75.18-.14.41-.25.68-.34.23-.04.43-.14.62-.27.18-.14.27-.36.27-.68,0-.23.31-.46.92-.68.62-.23,1.4-.3,2.36-.21.96.09,1.98.46,3.08,1.09l1.91.41c.68.46,1.32.78,1.91.96.68.23,1.32.57,1.91,1.03.59.46,1.23,1.3,1.91,2.53.14.27.25.5.34.68.23.41.39.73.48.96.09.23.14.48.14.75s-.02.68-.07,1.23c0,.55-.02,1.32-.07,2.32-.14,3.51-.58,6.02-1.33,7.52s-1.52,2.58-2.29,3.21c-.41.37-.78.75-1.09,1.16Z"/>
      <path class="cls-1" d="M158.55,53.37c.14.18.43.4.89.65.46.25.96.43,1.5.55.55.11,1.05.08,1.5-.1,1.05-.32,2.53-.07,4.44.75s3.88,1.9,5.91,3.25c2.03,1.34,3.75,2.66,5.16,3.93,1.41,1.28,2.1,2.12,2.05,2.53,0,.09.11.34.34.75.36.59.76,1.47,1.2,2.63.43,1.16.63,2.48.58,3.96-.05,1.48-.59,3.02-1.64,4.61l-.07.07c-.14.32-.52,1.15-1.16,2.5-.64,1.34-1.39,2.69-2.26,4.03-.87,1.34-1.69,2.2-2.46,2.56-.18.09-.38.31-.58.65s-.42.76-.65,1.26c-.37.68-.74,1.32-1.13,1.91-.39.59-.74.87-1.06.82l-7.45,8.96c-.68.64-1.19,1.2-1.5,1.67-.32.48-.57.9-.75,1.26-.18.37-.37.67-.55.92-.18.25-.46.44-.82.58-.09.09-.34.32-.75.68-.59.55-1.28,1.12-2.05,1.71-.78.59-1.39.89-1.85.89-.32-.04-.59.09-.82.41-.23.32-.43.71-.62,1.16-.18.55-.43,1.06-.75,1.54-.32.48-.78.81-1.37.99l-4.65,1.98c-.23-.04-.64.07-1.23.34-.59.32-1.24.57-1.95.75-.71.18-1.4.07-2.08-.34-.18-.09-.33-.16-.44-.21-.11-.04-.21-.06-.27-.03-.07.02-.15.03-.24.03-.09.09-.23.15-.41.17-.18.02-.49-.02-.92-.14-.43-.11-1.04-.35-1.81-.72-1.32-.59-2.64-1.12-3.96-1.57-1.69-.5-3.27-1.15-4.75-1.95-1.48-.8-2.78-2-3.9-3.62-1.12-1.62-1.97-3.93-2.56-6.94-.37-2.37-.4-5.32-.1-8.85.3-3.53.83-6.86,1.61-9.98.77-3.12,1.69-5.23,2.73-6.32.46-.41.93-1.07,1.44-1.98.73-1.32,2.03-3.06,3.9-5.23,1.87-2.16,4.97-4.71,9.3-7.62l2.87-1.85c.09,0,.42-.03.99-.1.57-.07,1.23-.12,1.98-.17.75-.04,1.45-.02,2.08.07.64.09,1.07.32,1.3.68.27.32.5.48.68.48s.32-.12.41-.38c.09-.25.18-.54.27-.85.14-.32.26-.62.38-.89.11-.27.26-.41.44-.41.27.05.55-.07.82-.34s.55-.57.82-.89c.41-.46.81-.82,1.2-1.09.39-.27.76-.25,1.13.07.14.14.25.21.34.21s.17-.04.24-.14c.07-.09.12-.18.17-.27.04-.14.1-.24.17-.31s.16-.09.27-.07c.11.02.26.15.44.38ZM161.29,71.62c-.09-.23-.44-.63-1.06-1.2-.62-.57-1.29-1.13-2.02-1.67-.73-.55-1.39-.92-1.98-1.13-.59-.21-.93-.03-1.03.51-.05.46-.23.79-.55.99-.32.21-.66.38-1.03.51-.27.09-.51.19-.72.31-.21.11-.35.26-.44.44-.18.32-.68.73-1.5,1.23-.87.5-1.79,1.16-2.77,1.98-.98.82-1.77,1.89-2.36,3.21-.14.41-.39.84-.75,1.3-.37.46-.76,1.05-1.2,1.78-.43.73-.83,1.71-1.2,2.94-.05.05-.14.21-.27.48-.46.96-1.05,2.61-1.78,4.96-.73,2.35-.96,5-.68,7.96.23,1.55.47,2.72.72,3.52.25.8.49,1.33.72,1.61.23.27.46.39.68.34.23-.04.46-.14.68-.27.14-.04.25-.09.34-.14,2.19-.91,5.07-2.67,8.65-5.26,3.58-2.6,6.82-5.29,9.74-8.07,2.92-2.78,4.47-4.92,4.65-6.43l-.27-4.03-4.58-5.88Z"/>
      <path class="cls-1" d="M284.88,53.02c-.09.18-.23.46-.41.82-.41,1.05-.98,2.31-1.71,3.79-.73,1.48-1.5,2.59-2.32,3.32l-6.15,10.87c-.14,0-.56.54-1.26,1.61-.71,1.07-1.56,2.38-2.56,3.93-1.05,1.69-2.14,3.37-3.28,5.06-1.14,1.69-2.15,3.11-3.04,4.27s-1.54,1.77-1.95,1.81c-.37.05-.78.42-1.23,1.13-.46.71-.89,1.45-1.3,2.22-.32.59-.57,1.04-.75,1.33-.18.3-.27.31-.27.03,0-.32-.05-.47-.14-.44-.09.02-.22.14-.38.34-.16.21-.33.47-.51.79-.23.37-.44.7-.65.99-.21.3-.4.54-.58.72-.32.23-.52.43-.62.62-.09.18-.14.34-.14.48,0,.09-.02.17-.07.24-.05.07-.11.15-.21.24-.14.05-.21.01-.21-.1s.03-.27.1-.48.16-.41.27-.62c.11-.21.24-.35.38-.44.46-.32.64-.56.55-.72-.09-.16-.3-.21-.62-.14-.32.07-.64.26-.96.58s-.48.78-.48,1.37l-1.37,2.6c-.32.18-.55.42-.68.72-.14.3-.21.58-.21.85-.05.27-.11.49-.21.65-.09.16-.27.22-.55.17-.27-.04-.46-.03-.55.03-.09.07-.11.16-.07.27.04.11.11.22.21.31.04.05.09.1.14.17.04.07.06.11.03.14s-.08.01-.17-.03l-2.87,6.22c-.23-.09-.39-.04-.48.14-.09.18-.15.43-.17.75-.02.32-.03.66-.03,1.03s-.01.7-.03.99c-.02.3-.1.44-.24.44l-2.46,4.44c-.09-.09-.23-.14-.41-.14s-.41.02-.68.07c-.32.04-.62.06-.89.03-.27-.02-.46-.15-.55-.38-.32-.77-.65-1.37-.99-1.78s-.65-.73-.92-.96c-.18-.18-.34-.34-.48-.48s-.21-.32-.21-.55l-.07-.34c-.14-.46-.31-1.13-.51-2.02s-.34-1.71-.41-2.46.08-1.13.44-1.13c.23,0,.41-.36.55-1.09.14-.73.25-1.59.34-2.6.14-.87.27-1.72.41-2.56.14-.84.3-1.51.48-2.02.5-1.14.92-2.52,1.26-4.14.34-1.62.63-3.13.85-4.55.27-1.69.5-2.8.68-3.35.09-.18.16-.4.21-.65.04-.25.03-.46-.03-.62-.07-.16-.27-.16-.62,0-.34.16-.83.56-1.47,1.2-.64.59-1.13.97-1.47,1.13-.34.16-.6.24-.79.24l-.21.1s-.08.08-.1.17c-.02.09-.03.23-.03.41l-1.85,2.6-8.48,8c-.09,0-.16.01-.21.03-.05.02-.08.06-.1.1-.02.05-.03.09-.03.14v.14s-.02.08-.07.1c-.05.02-.11.01-.21-.03-.14-.04-.23-.07-.27-.07s-.08.01-.1.03-.01.08.03.17c0,.09-.01.21-.03.34-.02.14-.13.29-.31.44-.18.16-.49.31-.92.44-.43.14-1.06.25-1.88.34-.5.05-.91.07-1.23.07-.55.09-1.03.13-1.44.1-.41-.02-1-.12-1.78-.31-.78-.18-2.01-.5-3.69-.96-.41-.09-.87-.21-1.37-.34-2.32-.68-3.75-1.91-4.27-3.69-.52-1.78-.74-3.94-.65-6.49,0-.46-.02-.91-.07-1.37l-7.86,7.93c0,.18-.21.49-.62.92-.41.43-.89.95-1.44,1.54-1,1-1.96,2.03-2.87,3.08-.91,1.05-1.34,1.91-1.3,2.6,0,.14-.08.27-.24.41-.16.14-.38.25-.65.34-.23.14-.46.29-.68.44-.23.16-.37.35-.41.58l-5.2,4.72c-.18.23-.33.38-.44.44-.11.07-.21.08-.27.03-.07-.04-.13-.09-.17-.14-.09-.14-.21-.24-.34-.31s-.37-.08-.68-.03c-1.69.37-3.13.4-4.34.1-1.21-.3-2.4-.72-3.59-1.26-.59-.23-1.21-.48-1.85-.75-1.23-.5-2.08-.98-2.56-1.44-.48-.46-.72-.9-.72-1.33s.07-.85.21-1.26.21-.8.21-1.16c0-.68.07-1.16.21-1.44s.39-.57.75-.89c.09-.09.18-.21.27-.34,0,.87.06,1.45.17,1.74.11.3.23.42.34.38.11-.04.22-.18.31-.41.09-.23.11-.43.07-.62-.04-.32-.06-.54-.03-.65.02-.11.08-.22.17-.31.09-.09.17-.21.24-.34s.14-.35.21-.65c.07-.3.1-.69.1-1.2.05-.64.25-1.55.62-2.73.27-.96.5-1.86.68-2.7.18-.84.11-1.4-.21-1.67l1.09-1.78c0-.55.79-2.16,2.36-4.85,1.57-2.69,3.42-5.66,5.54-8.92,2.12-3.26,4.07-6.19,5.84-8.78s2.94-4.21,3.49-4.85c.27-.32.59-.73.96-1.23.59-.87,1.25-1.64,1.98-2.32.73-.68,1.48-.82,2.26-.41.09,0,.34.05.75.14.91.14,2.05.41,3.42.82s2.51.99,3.42,1.74c.91.75,1.07,1.74.48,2.97l-2.94,6.7-5.33,10.25-5.13,10.05c-.14.27-.23.48-.27.62-.05.14-.07.23-.07.27s.07.03.21-.03.35-.25.65-.55.72-.74,1.26-1.33c.04-.09.57-.62,1.57-1.57,1.55-1.46,3.68-3.52,6.39-6.19,2.71-2.67,5.48-5.41,8.31-8.24s5.17-5.27,7.04-7.35c1.87-2.07,2.73-3.25,2.6-3.52,0-.04-.01-.1-.03-.17-.02-.07-.05-.17-.07-.31-.02-.14-.01-.27.03-.41.04-.14.12-.26.24-.38s.31-.22.58-.31c.27-.09.64-.14,1.09-.14.14,0,.26-.07.38-.21.11-.14.22-.3.31-.48.09-.23.21-.43.34-.62.14-.18.33-.28.58-.31.25-.02.6.1,1.06.38.41.27.72.4.92.38.21-.02.32-.11.34-.27.02-.16.03-.35.03-.58-.05-.23-.05-.41,0-.55.04-.14.21-.16.48-.07.04.05.16.07.34.07.55.05,1.46.18,2.73.41,1.28.23,2.63.62,4.07,1.16s2.63,1.34,3.59,2.39c.41.55.46,1.5.14,2.87-.32,1.37-.81,2.84-1.47,4.41-.66,1.57-1.32,2.95-1.98,4.14-.66,1.19-1.11,1.87-1.33,2.05l-2.32,4.24c0,.23,1.05-.58,3.14-2.43,2.1-1.85,4.62-4.14,7.59-6.87,2.96-2.73,5.86-5.4,8.68-8,4.1-3.83,6.81-6.31,8.13-7.45l7.79-9.43c.14.27.26.38.38.31.11-.07.22-.22.31-.44.14-.27.31-.55.51-.82s.51-.48.92-.62.96-.11,1.64.07c.36.09.67.1.92.03.25-.07.47-.17.65-.31.32-.18.65-.28.99-.31.34-.02.79.15,1.33.51.27.18.62.3,1.03.34.41.05.82.07,1.23.07s.76.02,1.06.07c.3.05.49.14.58.27.14.23.36.4.68.51.32.11.68.22,1.09.31.73.14,1.41.37,2.05.68.64.32,1.01.91,1.13,1.78.11.87-.26,2.17-1.13,3.9Z"/>
      <path class="cls-1" d="M274.42,85.56c3.92-5.97,8.37-12.07,13.36-18.29s10.2-11.34,15.62-15.35c.91.82,1.63,1.42,2.15,1.81.52.39.93.64,1.23.75.3.11.58.17.85.17.27.05.56.1.85.17.3.07.69.24,1.2.51.36.18.71.34,1.03.48,1.14.5,2.08,1.08,2.84,1.74.75.66,1.58,1.88,2.5,3.66.14.23.25.46.34.68.27.59.55,1,.82,1.23.27.23.71.17,1.3-.17.59-.34,1.46-1.1,2.6-2.29l3.01-2.73c.23-.46.77-1.25,1.64-2.39.73-.91,1.42-1.85,2.08-2.8.66-.96,1.06-1.73,1.2-2.32.14-.77.43-1.14.89-1.09.46.05.98.23,1.57.55.5.27.96.47,1.37.58.41.11.73-.01.96-.38.14-.18.58-.21,1.33-.07s1.61.41,2.56.82,1.82.92,2.6,1.54c.77.62,1.23,1.33,1.37,2.15.27,2.1.23,3.66-.14,4.68-.37,1.03-.71,1.72-1.03,2.08-.18.23-.27.41-.27.55,0,.46-.27,1.16-.82,2.12s-1.07,1.82-1.57,2.6c-.46.73-.71,1.16-.75,1.3l-5.95,11.55c0,.46-.13.9-.38,1.33-.25.43-.54.88-.85,1.33-.91,1.09-1.53,2.46-1.85,4.1l-4.85,12.92c-.41.5-.66,1.11-.75,1.81-.09.71-.11,1.31-.07,1.81,0,.27-.01.46-.03.55-.02.09-.08.02-.17-.21-.32-.64-.57-.84-.75-.62-.18.23-.33.68-.44,1.37-.11.68-.18,1.41-.21,2.19-.02.78-.03,1.41-.03,1.91l-2.46.07c-.32.32-.83.38-1.54.17-.71-.21-1.46-.57-2.26-1.09-.8-.52-1.48-1.06-2.05-1.61-.57-.55-.85-.93-.85-1.16,0-.55-.11-1.05-.34-1.5-.23-.46-.48-.87-.75-1.23-.32-.41-.58-.82-.79-1.23s-.31-.87-.31-1.37c0-.04-.02-.14-.07-.27-.14-.23-.27-.96-.41-2.19s-.11-3.3.07-6.22l.21-2.53-1.57.41s.12-.17.24-.38c.11-.21.21-.42.27-.65.07-.23.08-.39.03-.48-.05-.09-.19-.07-.44.07-.25.14-.65.46-1.2.96-.5.46-.88.76-1.13.92-.25.16-.42.26-.51.31-.09,0-.15.01-.17.03s-.03.06-.03.1v.27c-.05.09-.07.27-.07.55-.05.09-.39.41-1.03.96-.5.46-1.07.99-1.71,1.61-.64.62-1.2,1.21-1.67,1.78-.48.57-.72.99-.72,1.26,0,.14-.05.22-.14.24-.09.02-.18.03-.27.03-.14,0-.26.01-.38.03-.11.02-.22.09-.31.21-.09.11-.14.31-.14.58,0,.46-.17.78-.51.96-.34.18-.67.32-.99.41-.18.09-.34.16-.48.21-.14.05-.16.14-.07.27.14.32.1.64-.1.96-.21.32-.5.62-.89.89-.39.27-.76.52-1.13.75-.23.14-.41.25-.55.34-.14.09-.21.16-.21.21,0,.23-.49.84-1.47,1.85-.98,1-2.14,2.07-3.49,3.21-1.34,1.14-2.61,2.14-3.79,3.01-1.19.87-1.98,1.3-2.39,1.3-.18,0-.31.03-.38.1s-.1.13-.1.17-.02.09-.07.14-.09.07-.14.07h-.27l-1.78.82c-.05.09-.16.09-.34,0-.18-.09-.39-.21-.62-.34-.23-.09-.43-.18-.62-.27-.18-.09-.31-.1-.38-.03s-.03.26.1.58c.09.18.08.29-.03.31-.11.02-.35-.06-.72-.24-.14-.04-.25-.07-.34-.07h-.27c-.09,0-.19-.01-.31-.03-.11-.02-.25-.09-.41-.21-.16-.11-.38-.31-.65-.58-.55-.5-1.31-.96-2.29-1.37-.98-.41-1.9-.77-2.77-1.09-.5-.18-.91-.34-1.23-.48-.32-.14-.48-.23-.48-.27,0-.14-.21-.41-.62-.82-.32-.36-.66-.79-1.03-1.26-.36-.48-.55-.95-.55-1.4,0-1.28.57-3.27,1.71-5.98,1.14-2.71,2.38-5.32,3.73-7.83,1.34-2.51,2.36-4.26,3.04-5.26ZM311.27,67.11c-.23-.23-.48-.52-.75-.89-.46-.64-.98-1.13-1.57-1.47-.59-.34-1.34-.17-2.26.51-.27.18-.57.34-.89.48-.37.18-.91.52-1.64,1.03-.73.5-1.78,1.41-3.14,2.73-.41.37-.84.75-1.3,1.16-.87.78-1.71,1.58-2.53,2.43-.82.84-1.41,1.63-1.78,2.36-.14.37-.26.63-.38.79-.11.16-.22.25-.31.27-.09.02-.16.03-.21.03-.05-.04-.1-.06-.17-.03-.07.02-.14.08-.21.17-.07.09-.15.23-.24.41l-8.07,11.89c-.59.96-1.25,1.75-1.98,2.39-.46.41-.87.84-1.23,1.3-.37.46-.66,1.03-.89,1.71v2.19l3.08-2.32c.32,0,.73-.3,1.23-.89.36-.41.82-.81,1.37-1.2.55-.39,1.16-.63,1.85-.72.68-.09,1.56-.55,2.63-1.37,1.07-.82,2.12-1.73,3.14-2.73,1.03-1,1.79-1.8,2.29-2.39l.48-.48,10.6-9.91s.16-.16.48-.34c.64-.36,1.38-.93,2.22-1.71.84-.77,1.29-1.73,1.33-2.87,0-.09.02-.16.07-.21l.14-.14c.09-.04.16-.11.21-.21.04-.09.04-.21,0-.34-.05-.14-.19-.33-.44-.58-.25-.25-.63-.6-1.13-1.06ZM306.14,89.94c-.55.32-.57.23-.07-.27l.07.27Z"/>
      <path class="cls-1" d="M431.79,39.15c-.46.32-.83.54-1.13.65-.3.11-.54.17-.72.17s-.34-.04-.48-.14c-.09-.04-.21-.07-.34-.07s-.3.05-.48.14l-18.32,1.23c-.5.27-1.66.47-3.49.58-1.82.11-4.01.22-6.56.31-3.05.14-6.11.31-9.16.51-3.05.21-5.56.54-7.52.99-1.96.46-2.8,1.09-2.53,1.91l-1.3,2.12-2.87,6.15c-.55.87-1.21,2.23-1.98,4.1-.5,1.19-.99,2.29-1.47,3.32s-.95,1.7-1.4,2.02l-15.04,31.04c-.14,0-.33.24-.58.72-.25.48-.51,1.06-.79,1.74-.37.87-.78,1.74-1.23,2.63-.46.89-.93,1.61-1.44,2.15l-3.14,5.4-1.98,3.96c-.05.27-.15.5-.31.68-.16.18-.31.37-.44.55-.14.14-.25.27-.34.41-.09.14-.11.3-.07.48.09.09.14.16.14.21v.1s-.02.03-.07.03c-.09,0-.22.05-.38.14-.16.09-.35.31-.58.65-.23.34-.48.85-.75,1.54l-2.53,3.42c-.14.46-.3.77-.48.96-.18.18-.37.32-.55.41-.23.14-.47.33-.72.58-.25.25-.49.74-.72,1.47-.23.59-.57,1.09-1.03,1.5-.55.5-.98,1.25-1.3,2.26l-1.44,3.08c0,.23-.06.35-.17.38-.11.02-.26.01-.44-.03-.18,0-.38.01-.58.03-.21.02-.4.16-.58.41-.18.25-.3.67-.34,1.26-.04.68-.18,1.12-.41,1.3-.23.18-.48.24-.75.17s-.55-.17-.82-.31c-.23-.14-.4-.22-.51-.24-.11-.02-.17.08-.17.31.05.27-.07.4-.34.38-.27-.02-.57-.1-.89-.24-.32-.09-.62-.16-.89-.21-.27-.05-.48,0-.62.14-.09.14-.21.22-.34.24-.14.02-.26.01-.38-.03-.11-.05-.21-.1-.27-.17l-.31-.31c-.27-.32-.43-.64-.48-.96-.04-.32-.04-.55,0-.68,0-.09-.01-.13-.03-.1s-.06.08-.1.17c-.18.23-.48-.02-.89-.75-.41-.73-.82-1.73-1.23-3.01-.41-1.28-.68-2.6-.82-3.96s0-2.55.41-3.55l.55-2.39c.09-.05.15-.03.17.03.02.07.01.19-.03.38-.04.09-.07.21-.07.34s.02.25.07.34c.05.09.16.11.34.07l1.71-4.99c-.04-.18-.04-.31,0-.38.05-.07.11-.15.21-.24.05-.04.08-.1.1-.17.02-.07,0-.17-.07-.31s-.22-.32-.44-.55c-.46-.46-.52-.91-.21-1.37.32-.46.78-.87,1.37-1.23.59-.36,1.09-.64,1.5-.82l.34-.14c.05-.14.09-.21.14-.21s.09.02.14.07l.14.14c.05.09.1.16.17.21.07.05.14.02.21-.07.07-.09.17-.3.31-.62l1.23-4.58c.14-.68.31-1.17.51-1.47.21-.3.4-.51.58-.65.05-.04.09-.09.14-.14.05-.04.07-.11.07-.21l18.59-38.21c0-.59.5-1.75,1.5-3.49,1-1.73,2.14-3.62,3.42-5.67,1.14-1.82,2.13-3.46,2.97-4.92.84-1.46,1.24-2.39,1.2-2.8l-3.21-.48-20.58,1.09c-.18.18-.59.18-1.23,0-.64-.18-1.36-.48-2.15-.89s-1.54-.84-2.22-1.3c-.68-.46-1.18-.84-1.5-1.16s-.27-.48.14-.48v-.14c0-.14.02-.34.07-.62.05-.27.19-.51.44-.72.25-.21.67-.31,1.26-.31l.07-.07c1.05-.32,4.77-1.13,11.18-2.43,6.4-1.3,13.52-2.11,21.36-2.43l7.52-13.74,4.79-8.27c.73-1.55,1.41-2.51,2.05-2.87.64-.36,1.82-.43,3.55-.21,1.5.09,3.05.52,4.65,1.3,1.59.78,2.69,1.89,3.28,3.35.36,1.09.41,2.31.14,3.66-.27,1.34-.62,2.66-1.03,3.93-.55,1.5-.8,2.6-.75,3.28l-4.24,8.61c-.23.05-.11.14.34.27,1.14.23,4.83.34,11.07.34,6.65-.04,13.69.07,21.12.34,7.43.27,12.65.98,15.65,2.12.55.27.88.48.99.62.11.14.09.24-.07.31-.16.07-.4.13-.72.17-.23.05-.47.1-.72.17-.25.07-.47.15-.65.24ZM325.21,116.12s-.09.03-.14-.03c-.04-.07-.07-.17-.07-.31l.21.34ZM332.73,99.58c-.09.23-.17.37-.24.41-.07.05-.1-.04-.1-.27l.34-.14ZM339.16,122.82c.09,0,.15-.03.17-.1.02-.07.03-.15.03-.24l-.21.34ZM348.52,67.72c-.27.78-.43.98-.48.62l.48-.62Z"/>
      <path class="cls-1" d="M373.82,90.62c.18,0,.46-.4.82-1.2.36-.8.74-1.7,1.13-2.7.39-1,.66-1.87.82-2.6.16-.73.1-1.05-.17-.96-.27.09-.4.01-.38-.24.02-.25.14-.59.34-1.03.21-.43.42-.85.65-1.26.23-.41.43-.74.62-.99.18-.25.28-.32.31-.21.02.11-.1.47-.38,1.06-.18.41-.24.68-.17.82s.18.18.34.14c.16-.04.32-.15.48-.31s.24-.31.24-.44c-.05-.09.18-.55.68-1.37.5-.82,1.14-1.85,1.91-3.08.96-1.59,1.96-3.26,3.01-4.99,1.05-1.73,1.89-3.26,2.53-4.58.64-1.32.89-2.14.75-2.46-.23-.41-.01-1.14.65-2.19.66-1.05,1.49-2.19,2.5-3.42,1-1.23,1.91-2.3,2.73-3.21.87-.96,1.3-1.48,1.3-1.57,0-.18.32-.39.96-.62.64-.23,1.4-.32,2.29-.27.89.05,1.74.37,2.56.96h.07c.09.09.35.26.79.51.43.25.85.57,1.26.96.41.39.62.76.62,1.13,0,.09.04.18.14.27.14.18.25.46.34.82.09.37.08.89-.03,1.57-.11.68-.42,1.57-.92,2.67l-1.57,2.8-10.32,22.63-2.46,5.13-4.92,9.23-1.98,2.53c0,.23-.03.4-.1.51-.07.11-.15.19-.24.24-.09.05-.18.07-.27.07h-.21s-.07-.06-.07-.03.04.03.14.03c0,.05.04.09.14.14.09.09.11.26.07.51-.05.25-.13.52-.24.82-.11.3-.24.54-.38.72-.14.18-.24.26-.31.24-.07-.02-.03-.24.1-.65.04-.18.03-.3-.03-.34-.07-.04-.18-.04-.34,0-.16.05-.3.11-.41.21-.11.09-.17.17-.17.24s.11.08.34.03c.18.27.34.5.48.68.14.18.25.38.34.58.09.21.11.38.07.51-.05.14-.18.21-.41.21-.18,0-.31.06-.38.17-.07.11-.11.24-.14.38-.02.14-.02.25,0,.34.02.09.06.13.1.1.04-.02.11-.12.21-.31.09-.27.19-.41.31-.41s.15.14.1.41c-.05.18-.14.35-.27.51-.14.16-.29.29-.44.38-.16.09-.29.09-.38,0v.07l-3.9-.55c-1.14.18-2.11-.4-2.91-1.74-.8-1.34-1.33-2.97-1.61-4.89s-.21-3.6.21-5.06l1.5-5.61c.36-.96.64-1.71.82-2.26.23-.55.39-.95.48-1.2.09-.25.14-.36.14-.34v.24c-.05.18-.08.4-.1.65-.02.25-.02.47,0,.65.02.18.1.25.24.21ZM384.89,66.9c-.23.23-.27.18-.14-.14l.14.14ZM406.7,22.54c0-.32.23-.43.68-.34.46.09,1.01.3,1.67.62.66.32,1.31.66,1.95,1.03.59.27,1.1.52,1.54.75.43.23.72.32.85.27.09,0,.42.16.99.48.57.32,1.16.72,1.78,1.2s1.1.96,1.47,1.44c.36.48.41.88.14,1.2-.09.09-.15.21-.17.34-.02.14-.06.27-.1.41,0,.23-.02.46-.07.68-.05.23-.18.48-.41.75-.78.87-1.62,1.44-2.53,1.71-.59.18-1.15.44-1.67.79-.52.34-1.01.9-1.47,1.67-.5,1-1.03,1.8-1.57,2.39-.55.59-1.21.8-1.98.62-1.19-.32-1.98-.43-2.39-.34-.27,0-.49-.03-.65-.1-.16-.07-.32-.27-.48-.62-.16-.34-.38-.92-.65-1.74-.14-.36-.3-.8-.48-1.3-.41-1.14-.68-2.62-.82-4.44-.14-1.82-.17-3.49-.1-4.99s.19-2.35.38-2.53c.18-.14.47-.17.85-.1.39.07.81.15,1.26.24.55.09,1.03.16,1.44.21.41.05.59-.04.55-.27Z"/>
      <path class="cls-1" d="M450.99,62.18c-.14,0-.31.38-.51,1.13s-.38,1.64-.51,2.67-.22,1.97-.24,2.84c-.02.87.06,1.46.24,1.78l.41,2.73c0,.09-.1.27-.31.55s-.48.55-.82.82-.68.49-1.03.65c-.34.16-.63.19-.85.1-.37-.27-.67-.42-.92-.44-.25-.02-.47-.01-.65.03-.18.05-.4.03-.65-.03-.25-.07-.57-.28-.96-.65-.39-.36-.95-.98-1.67-1.85-.27-.32-.62-.64-1.03-.96-.41-.32-.74-.62-.99-.89-.25-.27-.31-.55-.17-.82l-1.09-3.55c.14-.55.11-.84-.07-.89-.18-.04-.44.05-.79.27-.34.23-.7.52-1.06.89-.32.23-.59.43-.82.62-.23.18-.39.25-.48.21l-1.16,1.78-6.15,6.36-12.24,15.65c0,.37-.17.71-.51,1.03-.34.32-.7.57-1.06.75-.32.23-.48.37-.48.41l-4.99,8.2c-.59.73-.75,1.19-.48,1.37.27.18,1.12.16,2.53-.07,2.73-.36,5.86-1.1,9.37-2.22,3.51-1.12,7-2.31,10.46-3.59,3.14-1.14,5.95-2.1,8.41-2.87l13.47-4.65c.46-.14.72-.14.79,0s.01.33-.17.58c-.18.25-.41.54-.68.85-.27.27-.51.55-.72.82s-.31.5-.31.68c0,.14-.14.3-.41.48-.23.18-.48.42-.75.72-.27.3-.48.7-.62,1.2-.18.55-.46.95-.82,1.2-.37.25-.82.49-1.37.72-.73.32-1.66.84-2.8,1.57-.41.32-.73.5-.96.55-.23.05-.4.05-.51,0-.11-.04-.19-.11-.24-.21,0-.04-.02-.08-.07-.1-.05-.02-.08-.01-.1.03-.02.05-.07.13-.14.24-.07.11-.15.29-.24.51l-3.69,2.6c-.82.68-1.89,1.3-3.21,1.85-.82.41-1.53.79-2.12,1.13-.59.34-.89.7-.89,1.06,0,.09-.07.16-.21.21-.14.05-.32.07-.55.07-.32,0-.65.06-.99.17-.34.11-.63.35-.85.72l-3.28.89c.09.23-.03.5-.38.82-.34.32-.78.63-1.3.92-.52.3-1.01.55-1.47.75-.46.21-.75.29-.89.24-.27-.09-.49-.12-.65-.1-.16.02-.27.08-.34.17-.07.09-.13.21-.17.34-.05.14-.14.27-.27.41s-.41.18-.82.14c-.14-.04-.24-.04-.31,0-.07.05-.15.11-.24.21-.14.18-.41.37-.82.55-.41.18-1.09.27-2.05.27h-.07c-.23.09-.91.24-2.05.44-1.14.21-2.35.37-3.62.48-1.28.11-2.26.01-2.94-.31l-5.4-1.78h-.07c-.23-.04-.85-.25-1.88-.62-1.03-.36-2.07-.91-3.14-1.64-1.07-.73-1.81-1.64-2.22-2.73,0-.04-.04-.11-.14-.21-.14-.23-.32-.55-.55-.96-.23-.41-.41-.87-.55-1.37-.14-.5-.09-.98.14-1.44.32-.87.62-2.03.89-3.49.18-1,.4-1.92.65-2.77.25-.84.54-1.42.85-1.74.23-.18.48-.55.75-1.09s.57-1.16.89-1.85c.37-.91.74-1.73,1.13-2.46.39-.73.74-1.12,1.06-1.16.36,0,.62-.11.75-.34.14-.23.23-.52.27-.89.09-.36.23-.76.41-1.2.18-.43.5-.88.96-1.33l3.55-4.03,5.33-6.08c.27-.32.48-.58.62-.79s.22-.36.24-.48c.02-.11.01-.19-.03-.24,0-.09.01-.21.03-.34.02-.14.11-.31.27-.51.16-.21.42-.49.79-.85l2.73-2.87c.09,0,.17-.03.24-.1s.1-.17.1-.31c.32-.73,1.7-2.37,4.14-4.92,2.44-2.55,5.12-5.22,8.03-8,2.92-2.78,5.24-4.9,6.97-6.36.55.14,1.32.25,2.32.34,1,.09,1.94.09,2.8,0,.87-.09,1.34-.34,1.44-.75.04-.23.09-.34.14-.34s.14.05.27.14c.23.23.8.55,1.71.96l3.83,1.64c1.32.41,2.15.95,2.5,1.61.34.66.54,1.31.58,1.95.04.32.1.59.17.82.07.23.24.34.51.34.04,0,.15.05.31.14.16.09.32.21.48.34.16.14.25.27.27.41.02.14-.06.23-.24.27-.37.18-.72.7-1.06,1.54-.34.84-.67,1.7-.99,2.56-.18.5-.33.92-.44,1.26-.11.34-.22.51-.31.51Z"/>
      <path class="cls-1" d="M488.87,112.5c-.32-.41-.62-.75-.89-1.03-.37-.36-.68-.77-.96-1.23-.27-.46-.48-1.12-.62-1.98-.05-.41-.03-.69.03-.85.07-.16.16-.23.27-.21.11.02.22.08.31.17.09.09.14.21.14.34-.05.09-.05.22,0,.38.04.16.11.29.21.38.09.09.19.13.31.1.11-.02.22-.17.31-.44.18-.36.26-.64.24-.82-.02-.18-.1-.3-.24-.34-.14-.04-.27-.07-.41-.07-.09-.04-.16-.07-.21-.07s-.07-.02-.07-.07l.48-1.23c0-1.55.5-3.63,1.5-6.25,1-2.62,2.07-5.01,3.21-7.18,1.14-2.16,1.98-3.45,2.53-3.86.09-.09.14-.17.14-.24s-.02-.12-.07-.17c0-.04-.01-.1-.03-.17-.02-.07-.01-.12.03-.17s.14-.09.27-.14l1.3-1.91,1.91-2.87c.18,0,.27-.06.27-.17s-.02-.24-.07-.38c-.05-.09-.07-.17-.07-.24s.01-.11.03-.14.1-.01.24.03c.32.09.54.03.65-.17.11-.21.19-.47.24-.79.04-.23.09-.43.14-.62.04-.18.16-.27.34-.27.41,0,.69-.07.85-.21.16-.14.24-.31.24-.51s-.02-.4-.07-.58v-.31c0-.07.02-.1.07-.1.09,0,.21-.02.34-.07.23,0,.4-.02.51-.07.11-.04.21-.16.27-.34.07-.18.1-.46.1-.82.04-.46.12-.8.24-1.03.11-.23.24-.4.38-.51.14-.11.28-.17.44-.17s.31.02.44.07c.14.05.3.11.48.21.55-.73.91-1.37,1.09-1.91.18-.55.3-.98.34-1.3.04-.23.09-.39.14-.48.04-.09.14-.11.27-.07.36.09.73-.07,1.09-.48.36-.41.69-.92.99-1.54.3-.62.56-1.2.79-1.74.14-.32.25-.58.34-.79.09-.21.16-.31.21-.31l2.19-2.73c.27,0,.75-.4,1.44-1.2.68-.8,1.32-1.61,1.91-2.43.59-.82.98-1.37,1.16-1.64l.07-.07c0,.09.06.08.17-.03s.24-.25.38-.41c.14-.16.25-.34.34-.55.09-.21.11-.39.07-.55-.05-.16-.16-.26-.34-.31l.48-.62.27-.27c.09-.36,1.58-2.55,4.48-6.56,2.89-4.01,6.32-8.6,10.29-13.77,3.96-5.17,7.64-9.76,11.04-13.77,3.39-4.01,5.48-6.02,6.25-6.02.32,0,.54-.07.65-.21.11-.14.19-.27.24-.41,0-.09.02-.17.07-.24.04-.07.11-.09.21-.07.09.02.23.1.41.24.14.05.22.09.24.14.02.05.02.08,0,.1l-.1.1c-.09.05-.17.1-.24.17s-.1.19-.1.38.07.41.21.68c.68,1.32,1.42,1.91,2.22,1.78.8-.14,1.58-.62,2.36-1.44.55.68.89,1.16,1.03,1.44.14.23.26.39.38.48.11.09.33.16.65.21l1.98.48c.14-.23.38-.3.72-.21.34.09.72.25,1.13.48.5.27.96.46,1.37.55.41.09.62-.09.62-.55,0-.27.02-.43.07-.48s.1-.03.17.03.11.17.14.31c.02.14-.01.3-.1.48-.05.05-.07.09-.07.14-.09.18-.16.31-.21.38-.05.07-.05.13,0,.17.04.05.11.07.21.07.14.05.32.15.55.31.23.16.5.4.82.72.46.46.82.74,1.09.85.27.11.5.17.68.17.09,0,.16.01.21.03.04.02.08.08.1.17.02.09.01.25-.03.48-.09.18-.18.32-.27.41-.14.14-.26.3-.38.48-.11.18-.16.33-.14.44.02.11.22.17.58.17.14,0,.25.07.34.21.09.14.18.3.27.48.04.23.15.46.31.68.16.23.4.43.72.62.46.32.75.89.89,1.71s.19,1.63.17,2.43c-.02.8-.08,1.29-.17,1.47-.32.59-.5,1.19-.55,1.78-.05.73-.32,1.39-.82,1.98l-1.16,1.44c-.09,0-.17.07-.24.21s-.15.34-.24.62c-.14.37-.3.74-.48,1.13-.18.39-.41.65-.68.79l-3.49,6.84-1.98,3.96c-.41.59-.71,1.12-.89,1.57-.18.5-.49,1.07-.92,1.71-.43.64-1.15,1.48-2.15,2.53-1.64,1.87-2.69,3.44-3.14,4.72-.27.73-.57,1.26-.89,1.61-.32.34-.75.49-1.3.44-.46-.09-.8-.14-1.03-.14-.23-.04-.42-.09-.58-.14-.16-.04-.35-.16-.58-.34-.23-.18-.55-.48-.96-.89-.14-.09-.27-.21-.41-.34l-1.78-1.44c0-.23-.06-.41-.17-.55-.11-.14-.24-.27-.38-.41-.18-.14-.32-.27-.41-.41-.09-.14-.09-.27,0-.41.27-.46.36-.82.27-1.09-.09-.27-.23-.48-.41-.62-.14-.14-.22-.27-.24-.41-.02-.14.08-.3.31-.48l8.34-14.42c.09-.32.18-.57.27-.75.09-.18.16-.3.21-.34.04-.09.08-.15.1-.17s.01-.06-.03-.1c-.05-.04-.11-.09-.21-.14-.14-.04-.31-.01-.51.1-.21.11-.42.24-.65.38-.23.18-.43.32-.62.41-.18.09-.34.13-.48.1-.14-.02-.21-.19-.21-.51,0-.41-.05-.62-.14-.62s-.21.11-.34.34c-.14.23-.27.48-.41.75l-.34.68c-.05.09-.07.16-.07.21l-1.57,1.98-4.58,4.24-2.39,2.67c-.09-.04-.21.01-.34.17-.14.16-.27.38-.41.65-.23.32-.47.62-.72.89-.25.27-.47.39-.65.34-.41-.09-.73.09-.96.55-.23.46-.43.93-.62,1.44-.09.37-.18.65-.27.85-.09.21-.19.31-.31.31s-.24-.16-.38-.48c-.09-.32-.17-.43-.24-.34-.07.09-.15.27-.24.55-.05.32-.14.65-.27.99s-.32.65-.55.92l-2.12,2.87-8,10.66-3.49,5.2-1.78,2.53-3.21,5.47-2.39,4.58-2.67,4.44c-.05.27-.3.9-.75,1.88-.46.98-.97,1.97-1.54,2.97-.57,1-1.08,1.71-1.54,2.12-.41.37-.74.73-.99,1.09-.25.37-.41.68-.48.96s.01.41.24.41l7.04-3.42c-.32.27-.35.4-.1.38.25-.02.65-.16,1.2-.41.55-.25,1.13-.55,1.74-.89s1.14-.67,1.57-.99c.43-.32.65-.55.65-.68,0-.18.03-.33.1-.44.07-.11.16-.18.27-.21.11-.02.21-.01.27.03.07.05.08.09.03.14l5.13-1.85c.23-.46.6-.79,1.13-.99.52-.21,1.06-.35,1.61-.44.46-.09.84-.19,1.16-.31.32-.11.48-.28.48-.51v-.27c.04.09.1.16.17.21.07.05.17.08.31.1.14.02.32.03.55.03s.5-.02.82-.07c.41-.09.76-.18,1.06-.27.3-.09.47-.16.51-.21.14-.09.96-.24,2.46-.44s3.21-.38,5.13-.51,3.58-.14,4.99,0c1.41.14,2.12.48,2.12,1.03-.32,1-.97,1.77-1.95,2.29-.98.52-1.79.88-2.43,1.06-.23.09-.37.16-.41.21-.23.32-.62.63-1.16.92-.55.3-1.09.58-1.64.85-.59.32-1.09.59-1.5.82-.41.23-.62.46-.62.68,0,.14-.01.23-.03.27-.02.05-.06.07-.1.07h-.41c-.09,0-.17.03-.24.1s-.15.22-.24.44l-2.73,3.21c.18.37.15.65-.1.85-.25.21-.58.38-.99.51-.32.14-.63.3-.92.48-.3.18-.44.41-.44.68,0,.23-.06.37-.17.41-.11.05-.24.07-.38.07-.18,0-.34.02-.48.07-.14.05-.21.18-.21.41,0,.32-.03.51-.1.58s-.16.08-.27.03c-.11-.04-.22-.11-.31-.21-.14-.09-.26-.15-.38-.17-.11-.02-.17.08-.17.31s-.17.54-.51.92c-.34.39-.76.79-1.26,1.2l-1.3,1.3c-.41.41-.66.78-.75,1.09-.27.73-.82,1.29-1.64,1.67-.82.39-1.55.67-2.19.85-.41.14-.62.23-.62.27.09.18-.11.44-.62.79-.5.34-1.13.68-1.88,1.03s-1.47.67-2.15.99c-.46.18-.83.34-1.13.48-.3.14-.44.23-.44.27l-3.14,1.23-7.79.48c-.64-.32-1.5-.59-2.6-.82-1-.18-2.05-.47-3.14-.85-1.09-.39-2.17-1.01-3.21-1.88l-5.26-3.83ZM500.62,78.86l.14.27s-.08-.03-.1-.1c-.02-.07-.03-.12-.03-.17ZM506.95,70.15c.11-.02.23-.02.34,0,.11.02.21.06.27.1.07.05.08.09.03.14s-.18.07-.41.07c-.09,0-.23-.02-.41-.07,0-.14.06-.22.17-.24ZM508.55,91.58l-.27.14c.09,0,.16-.01.21-.03.04-.02.07-.06.07-.1ZM514.3,61.09c-.18,0-.25-.09-.21-.27l.21.27ZM515.05,60.06c-.27.27-.42.37-.44.27-.02-.09.1-.32.38-.68l.07.41ZM520.79,95.89c-.09.09-.18.16-.27.21-.09.05-.18.07-.27.07s-.14-.02-.14-.07l.68-.21ZM525.71,46.46c-.14-.14-.25-.19-.34-.17-.09.02-.16.09-.21.21-.05.11-.08.24-.1.38-.02.14,0,.23.07.27.07.05.17,0,.31-.14.09-.09.16-.18.21-.27.04-.09.07-.18.07-.27ZM554.76,16.66s-.09.02-.14.07-.09.11-.14.21l-.21.21s-.11.03-.21-.03c-.09-.07-.21-.22-.34-.44-.14-.27-.13-.48.03-.62.16-.14.38-.25.65-.34.18-.04.35-.11.51-.21.16-.09.28-.23.38-.41.04-.14.1-.16.17-.07.07.09.14.23.21.41.07.18.1.38.1.58s-.08.38-.24.51c-.16.14-.42.18-.79.14ZM554.49,14.67c-.09,0-.16-.02-.21-.07-.05-.04-.07-.11-.07-.21l.27.27Z"/>
      <path class="cls-1" d="M587.23,53.37c.14.18.43.4.89.65.46.25.96.43,1.5.55.55.11,1.05.08,1.5-.1,1.05-.32,2.53-.07,4.44.75s3.88,1.9,5.91,3.25c2.03,1.34,3.75,2.66,5.16,3.93,1.41,1.28,2.1,2.12,2.05,2.53,0,.09.11.34.34.75.36.59.76,1.47,1.2,2.63.43,1.16.63,2.48.58,3.96-.05,1.48-.59,3.02-1.64,4.61l-.07.07c-.14.32-.52,1.15-1.16,2.5-.64,1.34-1.39,2.69-2.26,4.03-.87,1.34-1.69,2.2-2.46,2.56-.18.09-.38.31-.58.65s-.42.76-.65,1.26c-.37.68-.74,1.32-1.13,1.91-.39.59-.74.87-1.06.82l-7.45,8.96c-.68.64-1.19,1.2-1.5,1.67-.32.48-.57.9-.75,1.26-.18.37-.37.67-.55.92-.18.25-.46.44-.82.58-.09.09-.34.32-.75.68-.59.55-1.28,1.12-2.05,1.71-.78.59-1.39.89-1.85.89-.32-.04-.59.09-.82.41-.23.32-.43.71-.62,1.16-.18.55-.43,1.06-.75,1.54-.32.48-.78.81-1.37.99l-4.65,1.98c-.23-.04-.64.07-1.23.34-.59.32-1.24.57-1.95.75-.71.18-1.4.07-2.08-.34-.18-.09-.33-.16-.44-.21-.11-.04-.21-.06-.27-.03-.07.02-.15.03-.24.03-.09.09-.23.15-.41.17-.18.02-.49-.02-.92-.14-.43-.11-1.04-.35-1.81-.72-1.32-.59-2.64-1.12-3.96-1.57-1.69-.5-3.27-1.15-4.75-1.95-1.48-.8-2.78-2-3.9-3.62-1.12-1.62-1.97-3.93-2.56-6.94-.37-2.37-.4-5.32-.1-8.85.3-3.53.83-6.86,1.61-9.98.77-3.12,1.69-5.23,2.73-6.32.46-.41.93-1.07,1.44-1.98.73-1.32,2.03-3.06,3.9-5.23,1.87-2.16,4.97-4.71,9.3-7.62l2.87-1.85c.09,0,.42-.03.99-.1.57-.07,1.23-.12,1.98-.17.75-.04,1.45-.02,2.08.07.64.09,1.07.32,1.3.68.27.32.5.48.68.48s.32-.12.41-.38c.09-.25.18-.54.27-.85.14-.32.26-.62.38-.89.11-.27.26-.41.44-.41.27.05.55-.07.82-.34s.55-.57.82-.89c.41-.46.81-.82,1.2-1.09.39-.27.76-.25,1.13.07.14.14.25.21.34.21s.17-.04.24-.14c.07-.09.12-.18.17-.27.04-.14.1-.24.17-.31s.16-.09.27-.07c.11.02.26.15.44.38ZM589.97,71.62c-.09-.23-.44-.63-1.06-1.2-.62-.57-1.29-1.13-2.02-1.67-.73-.55-1.39-.92-1.98-1.13-.59-.21-.93-.03-1.03.51-.05.46-.23.79-.55.99-.32.21-.66.38-1.03.51-.27.09-.51.19-.72.31-.21.11-.35.26-.44.44-.18.32-.68.73-1.5,1.23-.87.5-1.79,1.16-2.77,1.98-.98.82-1.77,1.89-2.36,3.21-.14.41-.39.84-.75,1.3-.37.46-.76,1.05-1.2,1.78-.43.73-.83,1.71-1.2,2.94-.05.05-.14.21-.27.48-.46.96-1.05,2.61-1.78,4.96-.73,2.35-.96,5-.68,7.96.23,1.55.47,2.72.72,3.52.25.8.49,1.33.72,1.61.23.27.46.39.68.34.23-.04.46-.14.68-.27.14-.04.25-.09.34-.14,2.19-.91,5.07-2.67,8.65-5.26,3.58-2.6,6.82-5.29,9.74-8.07,2.92-2.78,4.47-4.92,4.65-6.43l-.27-4.03-4.58-5.88Z"/>
      <path class="cls-1" d="M635.63,77.09h.27c.59-.14.92-.17.99-.1s-.03.29-.31.65c-.37.5-.84,1.41-1.44,2.73l-1.5,2.8c-.09.91-.24,1.58-.44,2.02-.21.43-.42.81-.65,1.13-.23.27-.47.64-.72,1.09-.25.46-.49,1.14-.72,2.05-.05.18-.34.8-.89,1.85-.64,1.28-1.39,2.85-2.26,4.72-.87,1.87-1.57,3.69-2.12,5.47l-3.49,8.07-1.85,7.11c-.18.27-.29.74-.31,1.4-.02.66.02,1.38.14,2.15.11.77.26,1.44.44,1.98.18.55.39.84.62.89l.89,1.64c.18.46.17.8-.03,1.03-.21.23-.74.39-1.61.48-.87.09-2.23.14-4.1.14-1.19.04-2.05.03-2.6-.03s-1.03-.22-1.44-.44c-.73-.32-1.3-.58-1.71-.79s-.71-.38-.89-.51c-.18-.14-.32-.26-.41-.38-.09-.11-.18-.24-.27-.38-.05-.09-.11-.21-.21-.34-.09-.14-.23-.3-.41-.48-2.05-2.46-3.08-4.91-3.08-7.35s.37-4.86,1.09-7.28c.36-1.46.66-2.92.89-4.38l3.35-10.19,1.91-3.83,2.6-3.9,1.44-2.94c-.18-.64-.09-1.29.27-1.95.36-.66.91-1.47,1.64-2.43.46-.55.93-1.16,1.44-1.85l2.53-5.2c-.05-.27-.01-.49.1-.65.11-.16.28-.33.51-.51.32-.23.68-.57,1.09-1.03.41-.46.84-1.14,1.3-2.05l4.03-6.9c.04-.09.24-.38.58-.85s.79-1.08,1.33-1.81c1.32-1.78,2.69-3.68,4.1-5.71,1.41-2.03,2.19-3.54,2.32-4.55l2.53-3.21c.27-.64.54-1.08.79-1.33s.49-.44.72-.58c.18-.04.32-.12.41-.24.09-.11.14-.28.14-.51.04-.41.25-.89.62-1.44.46-.68.75-1.53.89-2.53.09-.82.39-1.66.89-2.53.5-.87,1.03-1.66,1.57-2.39.77-.96,1.21-1.69,1.3-2.19l4.51-8.13c0-.46.03-.79.1-.99s.15-.34.24-.41c.09-.07.18-.1.27-.1.09-.04.18-.11.27-.21s.14-.27.14-.55l13.81-19.35c.27-.23.54-.34.79-.34s.47.05.65.14c.23.05.4.06.51.03.11-.02.17-.19.17-.51.04-.32.32-.4.82-.24.5.16,1.12.44,1.85.85.73.41,1.44.85,2.12,1.33s1.21.92,1.57,1.33c.23.27.48.52.75.75.41.37.71.74.89,1.13.18.39.16.97-.07,1.74-.23.78-.75,1.91-1.57,3.42-1.05,1.82-2.48,4.19-4.31,7.11-1.55,2.46-3.03,4.87-4.44,7.21-1.41,2.35-2.42,4.23-3.01,5.64l-11.42,19-4.1,6.7v.99c0,.07-.02.11-.07.14-.05.02-.09.03-.14.03-.09,0-.22.02-.38.07-.16.05-.34.19-.55.44-.21.25-.44.65-.72,1.2l-2.19,4.79-4.38,6.22c-.23.14-.37.31-.41.51-.05.21-.05.4,0,.58.04.18.04.34,0,.48-.05.14-.18.23-.41.27l-3.62,5.06ZM630.78,65.53c.09-.04.35-.36.79-.96.43-.59.89-1.29,1.37-2.08.48-.8.83-1.53,1.06-2.19.23-.66.18-1.08-.14-1.26-.41-.14-.88.11-1.4.75-.52.64-1.03,1.45-1.5,2.43-.48.98-.88,1.86-1.2,2.63-.32.73-.52,1.16-.62,1.3-.37.5-.67.84-.92,1.03-.25.18-.47.27-.65.27s-.37-.02-.55-.07c-.09-.04-.19-.07-.31-.07s-.22.06-.31.17c-.09.11-.18.31-.27.58l-1.37,2.32c-.05.46-.42,1.38-1.13,2.77-.71,1.39-1.53,2.91-2.46,4.55-.93,1.64-1.77,3.08-2.5,4.31-.73,1.23-1.14,1.91-1.23,2.05-.68,2.01-1.57,4.08-2.67,6.22-1.55,3.1-2.67,6.08-3.35,8.96-.05.14-.16.39-.34.75-.27.46-.6,1.15-.99,2.08-.39.93-.67,2.22-.85,3.86-.09.96.02,1.38.34,1.26.32-.11.72-.62,1.2-1.5s.88-1.97,1.2-3.25c.23-.91.71-2.37,1.44-4.38.73-2,1.51-3.94,2.36-5.81.84-1.87,1.51-3.08,2.02-3.62.18-.23.39-.55.62-.96.23-.41.46-.84.68-1.3.27-.59.54-1.12.79-1.57.25-.46.49-.68.72-.68.23-.04.38-.19.44-.44.07-.25.1-.54.1-.85,0-.5.07-.93.21-1.3.14-.36.43-.57.89-.62l3.42-6.29c.5-.18.93-.69,1.3-1.54.36-.84.68-1.74.96-2.7.36-1.18.68-1.98.96-2.39l1.91-2.46ZM629.96,81.87c.27,0,.44-.11.51-.34.07-.23.04-.44-.07-.65-.11-.21-.27-.31-.48-.31s-.42.23-.65.68c-.18.41-.31.72-.38.92s-.09.32-.07.34c.02.02.08.01.17-.03.09-.04.18-.11.27-.21.14-.09.26-.18.38-.27.11-.09.22-.14.31-.14ZM629.41,91.17c.09-.23.09-.41,0-.55-.09-.14-.21-.18-.34-.14-.14.05-.21.23-.21.55s.07.5.21.55c.14.05.25-.09.34-.41ZM703.1,13.99c.27.27.52.5.75.68.46.27.79.58.99.92s.21.87,0,1.57c-.21.71-.7,1.72-1.47,3.04-.87,1.46-1.89,3.12-3.08,4.99-1.19,1.82-2.32,3.63-3.42,5.43-1.09,1.8-1.91,3.36-2.46,4.68l-10.8,17.16-3.96,6.08c.04.32.07.55.07.68s-.02.23-.07.27-.11.05-.21,0c-.09,0-.21.03-.34.1s-.31.22-.51.44c-.21.23-.44.59-.72,1.09l-2.05,4.24-4.1,5.67c-.27.14-.42.3-.44.48-.02.18-.01.37.03.55,0,.14-.01.26-.03.38-.02.11-.13.22-.31.31l-3.55,4.58c.09-.04.18-.07.27-.07.59-.14.92-.17.99-.1s-.03.26-.31.58c-.32.46-.78,1.28-1.37,2.46l-1.37,2.53c-.09.82-.23,1.42-.41,1.81-.18.39-.39.72-.62.99-.23.27-.44.62-.65,1.03s-.42,1.03-.65,1.85c-.05.18-.32.73-.82,1.64-.59,1.14-1.3,2.55-2.12,4.24-.82,1.69-1.48,3.33-1.98,4.92l-3.21,7.25-1.71,6.36c-.18.37-.24.99-.17,1.88s.23,1.74.48,2.56c.25.82.51,1.23.79,1.23l1.03,1.44c.18.41.17.72-.03.92s-.74.35-1.61.44c-.87.09-2.23.18-4.1.27-1.19.04-2.05.04-2.6,0-.55-.05-1.05-.16-1.5-.34-.68-.27-1.23-.5-1.64-.68-.41-.18-.72-.33-.92-.44-.21-.11-.35-.22-.44-.31l-.27-.27c-.05-.09-.11-.19-.21-.31-.09-.11-.23-.26-.41-.44-2.14-2.1-3.25-4.23-3.32-6.39-.07-2.16.22-4.34.85-6.53.36-1.32.64-2.62.82-3.9l2.94-9.16,1.85-3.42,2.53-3.55,1.3-2.67c-.18-.55-.1-1.12.24-1.71.34-.59.88-1.32,1.61-2.19.41-.5.87-1.07,1.37-1.71l2.32-4.65c-.05-.23-.01-.42.1-.58.11-.16.28-.33.51-.51.27-.18.62-.48,1.03-.89s.82-1.03,1.23-1.85l3.83-6.22c0-.09.17-.35.51-.79.34-.43.79-.99,1.33-1.67,1.28-1.55,2.61-3.28,4-5.2,1.39-1.91,2.08-3.26,2.08-4.03l2.46-2.94c.23-.59.48-1,.75-1.23.27-.23.5-.39.68-.48.18-.09.32-.18.41-.27s.14-.23.14-.41c0-.41.18-.84.55-1.3.46-.64.73-1.39.82-2.26.04-.77.32-1.54.82-2.29.5-.75,1-1.47,1.5-2.15.82-.91,1.23-1.57,1.23-1.98l4.24-7.38c0-.36.03-.64.1-.82.07-.18.14-.31.21-.38s.15-.1.24-.1c.14-.04.24-.1.31-.17s.1-.24.1-.51l11.01-14.56c.27-.23.54-.34.79-.34s.47.02.65.07c.23.09.4.13.51.1.11-.02.17-.19.17-.51,0-.27.26-.35.79-.24.52.11,1.16.34,1.91.68s1.47.73,2.15,1.16c.68.43,1.21.81,1.57,1.13ZM662.22,67.17c.09-.04.34-.33.75-.85.41-.52.84-1.15,1.3-1.88.46-.73.8-1.39,1.03-1.98.23-.59.16-.96-.21-1.09-.41-.14-.85.09-1.33.68-.48.59-.95,1.33-1.4,2.22-.46.89-.84,1.67-1.16,2.36-.27.64-.48,1.03-.62,1.16-.32.46-.6.76-.85.92-.25.16-.47.24-.65.24s-.34-.02-.48-.07h-.34c-.09,0-.18.06-.27.17-.09.11-.21.29-.34.51l-1.23,2.05c0,.41-.33,1.24-.99,2.5-.66,1.25-1.44,2.6-2.32,4.03s-1.67,2.71-2.36,3.83c-.68,1.12-1.09,1.79-1.23,2.02h-.07c-.64,1.78-1.44,3.65-2.39,5.61-1.5,2.78-2.55,5.45-3.14,8-.05.14-.16.37-.34.68-.23.41-.51,1.04-.85,1.88-.34.84-.6,1.99-.79,3.45-.09.87.03,1.24.38,1.13.34-.11.73-.57,1.16-1.37.43-.8.79-1.77,1.06-2.91.23-.82.68-2.13,1.37-3.93.68-1.8,1.41-3.54,2.19-5.23.77-1.69,1.41-2.78,1.91-3.28.18-.18.38-.47.58-.85.21-.39.4-.79.58-1.2.27-.55.54-1.03.79-1.44.25-.41.47-.62.65-.62.23,0,.38-.11.44-.34.07-.23.1-.5.1-.82,0-.41.06-.79.17-1.13.11-.34.4-.51.85-.51l3.21-5.67c.5-.23.92-.72,1.26-1.47s.65-1.56.92-2.43c.32-1.05.62-1.75.89-2.12l1.78-2.26ZM661.88,81.73c.27,0,.44-.1.51-.31s.04-.41-.07-.62c-.11-.21-.27-.3-.48-.27-.21.02-.42.24-.65.65-.18.37-.31.64-.38.82-.07.18-.08.29-.03.31.04.02.1.01.17-.03.07-.04.17-.11.31-.21.09-.09.19-.17.31-.24.11-.07.22-.1.31-.1ZM661.68,90.01c.04-.23.02-.4-.07-.51-.09-.11-.21-.16-.34-.14-.14.02-.21.19-.21.51,0,.27.07.43.21.48.14.05.27-.07.41-.34ZM683.35,28.35s.09-.04.14-.14c.04-.09.07-.21.07-.34,0-.23-.02-.35-.07-.38-.05-.02-.11,0-.21.07-.09.07-.15.17-.17.31-.02.14-.02.25,0,.34.02.09.1.14.24.14Z"/>
      <path class="cls-1" d="M674.05,93.56l1.03-1.44-.96,3.21c.14.23.18.41.14.55-.04.14-.14.24-.27.31s-.27.13-.41.17c-.09.05-.17.09-.24.14-.07.05-.09.1-.07.17.02.07.1.15.24.24l.07,1.64c-.09-.27-.18-.52-.27-.75-.18-.36-.28-.76-.31-1.2-.02-.43.13-.92.44-1.47.23-.36.35-.65.38-.85.02-.21.01-.35-.03-.44,0-.09.01-.16.03-.21.02-.04.1-.07.24-.07ZM675.28,103.4h.31s.01-.02-.03-.07-.09-.18-.14-.41c-.04-.23-.04-.55,0-.96,0-.36-.04-.66-.14-.89-.09-.23-.18-.43-.27-.62-.18-.23-.33-.52-.44-.89-.11-.36-.11-.9,0-1.61.11-.71.4-1.67.85-2.91.36-.96.59-1.91.68-2.87.09-.59.19-1.13.31-1.61.11-.48.31-.83.58-1.06l1.16-1.16-1.09,3.69c.18.09.47-.17.85-.79.39-.62.77-1.37,1.16-2.26.39-.89.65-1.7.79-2.43.09-.55.18-.96.27-1.23.09-.27.18-.47.27-.58.09-.11.18-.17.27-.17s.16.02.21.07h.14s.08-.02.1-.07c.02-.04.03-.14.03-.27l8.82-11.42,20.23-20.44c1-.36,2.39-1.18,4.17-2.46,1.18-.87,2.44-1.7,3.76-2.5,1.32-.8,2.62-1.33,3.9-1.61,1.55-.36,2.62-.75,3.21-1.16.55-.27,1.05-.41,1.5-.41s1.14.32,2.05.96c1.59.96,3.44,1.64,5.54,2.05,1.23.32,2.37.68,3.42,1.09,1.05.41,1.82.96,2.32,1.64.18.27.48.59.89.96.73.68,1.38,1.46,1.95,2.32.57.87.58,1.69.03,2.46l-.55,1.44s-.19.18-.44.55c-.25.37-.56.82-.92,1.37-.59.82-1.21,1.69-1.85,2.6-.64.91-1.23,1.71-1.78,2.39s-.96,1.07-1.23,1.16l-4.85,6.08c-.59.41-1.04.83-1.33,1.26-.3.43-.54.85-.72,1.26-.23.55-.48.89-.75,1.03-.18.05-.33.14-.44.27-.11.14-.24.34-.38.62-.27.64-1.09,1.69-2.46,3.14l-3.62,4.72c0,.14-.08.27-.24.41-.16.14-.38.27-.65.41-.32.18-.62.39-.89.62-.27.23-.41.5-.41.82s-.43.81-1.3,1.47c-.87.66-1.79,1.28-2.77,1.85-.98.57-1.61.85-1.88.85-.23,0-.41.02-.55.07-.14.05-.21.11-.21.21s-.22.15-.65.17c-.43.02-.95.02-1.54,0-.59-.02-1.13-.07-1.61-.14s-.79-.15-.92-.24c-.27-.23-.84-.48-1.71-.75-.68-.23-1.4-.49-2.15-.79-.75-.3-1.4-.65-1.95-1.06l-4.17-2.19-4.1,5.26c-.5.87-.97,1.52-1.4,1.95s-.79.72-1.06.85c-.23.18-.38.33-.44.44-.07.11.01.29.24.51l-1.57,7.04c.04.37,0,.78-.14,1.23-.14.41-.18.8-.14,1.16.04.37.33.62.85.75.52.14,1.46.1,2.8-.1,1.34-.21,3.24-.64,5.67-1.3,2.44-.66,5.62-1.63,9.54-2.91l24.2-7.04c.18.23.63.23,1.33,0,.71-.23,1.45-.5,2.22-.82.46-.18.85-.33,1.2-.44.34-.11.54-.15.58-.1.14.18-.01.52-.44,1.03-.43.5-.99,1.05-1.67,1.64-.68.59-1.31,1.11-1.88,1.54-.57.43-.88.65-.92.65l-8.41,4.79-3.35,1.71-5.47,3.76-3.14,1.85-2.67,1.23c-.09.32-.31.56-.65.72-.34.16-.72.27-1.13.34s-.73.13-.96.17h-.21c-.41.05-.72.11-.92.21-.21.09-.32.21-.34.34-.02.14-.01.25.03.34,0,.09-.01.17-.03.24-.02.07-.07.13-.14.17-.07.05-.22.07-.44.07-.05-.04-.24-.09-.58-.14-.34-.04-.72-.06-1.13-.03-.41.02-.78.13-1.09.31-.32.18-.52.5-.62.96-.05.23-.33.39-.85.48-.52.09-1.06.18-1.61.27-.37.05-.66.08-.89.1-.23.02-.34.08-.34.17,0,.18-.01.3-.03.34-.02.05-.07.06-.14.03-.07-.02-.15-.08-.24-.17-.09-.04-.19-.09-.31-.14-.11-.04-.19-.02-.24.07-.27.32-.59.47-.96.44-.37-.02-.71-.08-1.03-.17-.18-.04-.34-.08-.48-.1-.14-.02-.23.01-.27.1l-1.98.27c-.09-.09-.18-.14-.27-.14s-.16.02-.21.07c-.05.04-.09.09-.14.14,0,.04-.02.08-.07.1-.05.02-.08.03-.1.03s-.06-.05-.1-.14c-.14-.23-.33-.33-.58-.31-.25.02-.49.08-.72.17-.23.04-.43.08-.62.1-.18.02-.32-.03-.41-.17-.09-.09-.19-.16-.31-.21-.11-.04-.26-.07-.44-.07-.23,0-.57-.07-1.03-.21-.46-.14-1.09-.39-1.91-.75-.27-.09-.64-.25-1.09-.48-1.37-.5-2.91-1.2-4.61-2.08s-2.79-1.81-3.25-2.77c-.41-.82-.73-1.5-.96-2.05s-.39-1.09-.48-1.64c-.09-.55-.07-.96.07-1.23l.21-.48ZM712.26,66.7s-.46.57-1.37,1.57c-.78.91-1.67,1.95-2.7,3.11s-1.93,2.25-2.7,3.25c-.78,1-1.16,1.66-1.16,1.98,0,.87.27,1.61.82,2.22s1.16.99,1.85,1.13,1.25-.09,1.71-.68l10.46-7.45c.82-.68,2.16-1.86,4.03-3.52,1.87-1.66,3.66-3.34,5.37-5.02,1.71-1.69,2.7-2.87,2.97-3.55.23-.91-.16-1.65-1.16-2.22-1-.57-2.14-.9-3.42-.99-1.28-.09-2.23.11-2.87.62-.46.41-.87.7-1.23.85-.37.16-.66.29-.89.38-.27.05-.49.13-.65.24-.16.11-.31.29-.44.51l-8.61,7.59Z"/>
      <path class="cls-1" d="M787.53,62.18c-.14,0-.31.38-.51,1.13s-.38,1.64-.51,2.67-.22,1.97-.24,2.84c-.02.87.06,1.46.24,1.78l.41,2.73c0,.09-.1.27-.31.55s-.48.55-.82.82-.68.49-1.03.65c-.34.16-.63.19-.85.1-.37-.27-.67-.42-.92-.44-.25-.02-.47-.01-.65.03-.18.05-.4.03-.65-.03-.25-.07-.57-.28-.96-.65-.39-.36-.95-.98-1.67-1.85-.27-.32-.62-.64-1.03-.96-.41-.32-.74-.62-.99-.89-.25-.27-.31-.55-.17-.82l-1.09-3.55c.14-.55.11-.84-.07-.89-.18-.04-.44.05-.79.27-.34.23-.7.52-1.06.89-.32.23-.59.43-.82.62-.23.18-.39.25-.48.21l-1.16,1.78-6.15,6.36-12.24,15.65c0,.37-.17.71-.51,1.03-.34.32-.7.57-1.06.75-.32.23-.48.37-.48.41l-4.99,8.2c-.59.73-.75,1.19-.48,1.37.27.18,1.12.16,2.53-.07,2.73-.36,5.86-1.1,9.37-2.22,3.51-1.12,7-2.31,10.46-3.59,3.14-1.14,5.95-2.1,8.41-2.87l13.47-4.65c.46-.14.72-.14.79,0s.01.33-.17.58c-.18.25-.41.54-.68.85-.27.27-.51.55-.72.82s-.31.5-.31.68c0,.14-.14.3-.41.48-.23.18-.48.42-.75.72-.27.3-.48.7-.62,1.2-.18.55-.46.95-.82,1.2-.37.25-.82.49-1.37.72-.73.32-1.66.84-2.8,1.57-.41.32-.73.5-.96.55-.23.05-.4.05-.51,0-.11-.04-.19-.11-.24-.21,0-.04-.02-.08-.07-.1-.05-.02-.08-.01-.1.03-.02.05-.07.13-.14.24-.07.11-.15.29-.24.51l-3.69,2.6c-.82.68-1.89,1.3-3.21,1.85-.82.41-1.53.79-2.12,1.13-.59.34-.89.7-.89,1.06,0,.09-.07.16-.21.21-.14.05-.32.07-.55.07-.32,0-.65.06-.99.17-.34.11-.63.35-.85.72l-3.28.89c.09.23-.03.5-.38.82-.34.32-.78.63-1.3.92-.52.3-1.01.55-1.47.75-.46.21-.75.29-.89.24-.27-.09-.49-.12-.65-.1-.16.02-.27.08-.34.17-.07.09-.13.21-.17.34-.05.14-.14.27-.27.41s-.41.18-.82.14c-.14-.04-.24-.04-.31,0-.07.05-.15.11-.24.21-.14.18-.41.37-.82.55-.41.18-1.09.27-2.05.27h-.07c-.23.09-.91.24-2.05.44-1.14.21-2.35.37-3.62.48-1.28.11-2.26.01-2.94-.31l-5.4-1.78h-.07c-.23-.04-.85-.25-1.88-.62-1.03-.36-2.07-.91-3.14-1.64-1.07-.73-1.81-1.64-2.22-2.73,0-.04-.04-.11-.14-.21-.14-.23-.32-.55-.55-.96-.23-.41-.41-.87-.55-1.37-.14-.5-.09-.98.14-1.44.32-.87.62-2.03.89-3.49.18-1,.4-1.92.65-2.77.25-.84.54-1.42.85-1.74.23-.18.48-.55.75-1.09s.57-1.16.89-1.85c.37-.91.74-1.73,1.13-2.46.39-.73.74-1.12,1.06-1.16.36,0,.62-.11.75-.34.14-.23.23-.52.27-.89.09-.36.23-.76.41-1.2.18-.43.5-.88.96-1.33l3.55-4.03,5.33-6.08c.27-.32.48-.58.62-.79s.22-.36.24-.48c.02-.11.01-.19-.03-.24,0-.09.01-.21.03-.34.02-.14.11-.31.27-.51.16-.21.42-.49.79-.85l2.73-2.87c.09,0,.17-.03.24-.1s.1-.17.1-.31c.32-.73,1.7-2.37,4.14-4.92,2.44-2.55,5.12-5.22,8.03-8,2.92-2.78,5.24-4.9,6.97-6.36.55.14,1.32.25,2.32.34,1,.09,1.94.09,2.8,0,.87-.09,1.34-.34,1.44-.75.04-.23.09-.34.14-.34s.14.05.27.14c.23.23.8.55,1.71.96l3.83,1.64c1.32.41,2.15.95,2.5,1.61.34.66.54,1.31.58,1.95.04.32.1.59.17.82.07.23.24.34.51.34.04,0,.15.05.31.14.16.09.32.21.48.34.16.14.25.27.27.41.02.14-.06.23-.24.27-.37.18-.72.7-1.06,1.54-.34.84-.67,1.7-.99,2.56-.18.5-.33.92-.44,1.26-.11.34-.22.51-.31.51Z"/>
      <path class="cls-1" d="M885.21,39.15c-.46.32-.83.54-1.13.65-.3.11-.54.17-.72.17s-.34-.04-.48-.14c-.09-.04-.21-.07-.34-.07s-.3.05-.48.14l-18.32,1.23c-.5.27-1.66.47-3.49.58-1.82.11-4.01.22-6.56.31-3.05.14-6.11.31-9.16.51-3.05.21-5.56.54-7.52.99-1.96.46-2.8,1.09-2.53,1.91l-1.3,2.12-2.87,6.15c-.55.87-1.21,2.23-1.98,4.1-.5,1.19-.99,2.29-1.47,3.32s-.95,1.7-1.4,2.02l-15.04,31.04c-.14,0-.33.24-.58.72-.25.48-.51,1.06-.79,1.74-.37.87-.78,1.74-1.23,2.63-.46.89-.93,1.61-1.44,2.15l-3.14,5.4-1.98,3.96c-.05.27-.15.5-.31.68-.16.18-.31.37-.44.55-.14.14-.25.27-.34.41-.09.14-.11.3-.07.48.09.09.14.16.14.21v.1s-.02.03-.07.03c-.09,0-.22.05-.38.14-.16.09-.35.31-.58.65-.23.34-.48.85-.75,1.54l-2.53,3.42c-.14.46-.3.77-.48.96-.18.18-.37.32-.55.41-.23.14-.47.33-.72.58-.25.25-.49.74-.72,1.47-.23.59-.57,1.09-1.03,1.5-.55.5-.98,1.25-1.3,2.26l-1.44,3.08c0,.23-.06.35-.17.38-.11.02-.26.01-.44-.03-.18,0-.38.01-.58.03-.21.02-.4.16-.58.41-.18.25-.3.67-.34,1.26-.04.68-.18,1.12-.41,1.3-.23.18-.48.24-.75.17s-.55-.17-.82-.31c-.23-.14-.4-.22-.51-.24-.11-.02-.17.08-.17.31.05.27-.07.4-.34.38-.27-.02-.57-.1-.89-.24-.32-.09-.62-.16-.89-.21-.27-.05-.48,0-.62.14-.09.14-.21.22-.34.24-.14.02-.26.01-.38-.03-.11-.05-.21-.1-.27-.17l-.31-.31c-.27-.32-.43-.64-.48-.96-.04-.32-.04-.55,0-.68,0-.09-.01-.13-.03-.1s-.06.08-.1.17c-.18.23-.48-.02-.89-.75-.41-.73-.82-1.73-1.23-3.01-.41-1.28-.68-2.6-.82-3.96s0-2.55.41-3.55l.55-2.39c.09-.05.15-.03.17.03.02.07.01.19-.03.38-.04.09-.07.21-.07.34s.02.25.07.34c.05.09.16.11.34.07l1.71-4.99c-.04-.18-.04-.31,0-.38.05-.07.11-.15.21-.24.05-.04.08-.1.1-.17.02-.07,0-.17-.07-.31s-.22-.32-.44-.55c-.46-.46-.52-.91-.21-1.37.32-.46.78-.87,1.37-1.23.59-.36,1.09-.64,1.5-.82l.34-.14c.05-.14.09-.21.14-.21s.09.02.14.07l.14.14c.05.09.1.16.17.21.07.05.14.02.21-.07.07-.09.17-.3.31-.62l1.23-4.58c.14-.68.31-1.17.51-1.47.21-.3.4-.51.58-.65.05-.04.09-.09.14-.14.05-.04.07-.11.07-.21l18.59-38.21c0-.59.5-1.75,1.5-3.49,1-1.73,2.14-3.62,3.42-5.67,1.14-1.82,2.13-3.46,2.97-4.92.84-1.46,1.24-2.39,1.2-2.8l-3.21-.48-20.58,1.09c-.18.18-.59.18-1.23,0-.64-.18-1.36-.48-2.15-.89s-1.54-.84-2.22-1.3c-.68-.46-1.18-.84-1.5-1.16s-.27-.48.14-.48v-.14c0-.14.02-.34.07-.62.05-.27.19-.51.44-.72.25-.21.67-.31,1.26-.31l.07-.07c1.05-.32,4.77-1.13,11.18-2.43,6.4-1.3,13.52-2.11,21.36-2.43l7.52-13.74,4.79-8.27c.73-1.55,1.41-2.51,2.05-2.87.64-.36,1.82-.43,3.55-.21,1.5.09,3.05.52,4.65,1.3,1.59.78,2.69,1.89,3.28,3.35.36,1.09.41,2.31.14,3.66-.27,1.34-.62,2.66-1.03,3.93-.55,1.5-.8,2.6-.75,3.28l-4.24,8.61c-.23.05-.11.14.34.27,1.14.23,4.83.34,11.07.34,6.65-.04,13.69.07,21.12.34,7.43.27,12.65.98,15.65,2.12.55.27.88.48.99.62.11.14.09.24-.07.31-.16.07-.4.13-.72.17-.23.05-.47.1-.72.17-.25.07-.47.15-.65.24ZM778.64,116.12s-.09.03-.14-.03c-.04-.07-.07-.17-.07-.31l.21.34ZM786.16,99.58c-.09.23-.17.37-.24.41-.07.05-.1-.04-.1-.27l.34-.14ZM792.59,122.82c.09,0,.15-.03.17-.1.02-.07.03-.15.03-.24l-.21.34ZM801.95,67.72c-.27.78-.43.98-.48.62l.48-.62Z"/>
      <path class="cls-1" d="M827.24,90.62c.18,0,.46-.4.82-1.2.36-.8.74-1.7,1.13-2.7.39-1,.66-1.87.82-2.6.16-.73.1-1.05-.17-.96-.27.09-.4.01-.38-.24.02-.25.14-.59.34-1.03.21-.43.42-.85.65-1.26.23-.41.43-.74.62-.99.18-.25.28-.32.31-.21.02.11-.1.47-.38,1.06-.18.41-.24.68-.17.82s.18.18.34.14c.16-.04.32-.15.48-.31s.24-.31.24-.44c-.05-.09.18-.55.68-1.37.5-.82,1.14-1.85,1.91-3.08.96-1.59,1.96-3.26,3.01-4.99,1.05-1.73,1.89-3.26,2.53-4.58.64-1.32.89-2.14.75-2.46-.23-.41-.01-1.14.65-2.19.66-1.05,1.49-2.19,2.5-3.42,1-1.23,1.91-2.3,2.73-3.21.87-.96,1.3-1.48,1.3-1.57,0-.18.32-.39.96-.62.64-.23,1.4-.32,2.29-.27.89.05,1.74.37,2.56.96h.07c.09.09.35.26.79.51.43.25.85.57,1.26.96.41.39.62.76.62,1.13,0,.09.04.18.14.27.14.18.25.46.34.82.09.37.08.89-.03,1.57-.11.68-.42,1.57-.92,2.67l-1.57,2.8-10.32,22.63-2.46,5.13-4.92,9.23-1.98,2.53c0,.23-.03.4-.1.51-.07.11-.15.19-.24.24-.09.05-.18.07-.27.07h-.21s-.07-.06-.07-.03.04.03.14.03c0,.05.04.09.14.14.09.09.11.26.07.51-.05.25-.13.52-.24.82-.11.3-.24.54-.38.72-.14.18-.24.26-.31.24-.07-.02-.03-.24.1-.65.04-.18.03-.3-.03-.34-.07-.04-.18-.04-.34,0-.16.05-.3.11-.41.21-.11.09-.17.17-.17.24s.11.08.34.03c.18.27.34.5.48.68.14.18.25.38.34.58.09.21.11.38.07.51-.05.14-.18.21-.41.21-.18,0-.31.06-.38.17-.07.11-.11.24-.14.38-.02.14-.02.25,0,.34.02.09.06.13.1.1.04-.02.11-.12.21-.31.09-.27.19-.41.31-.41s.15.14.1.41c-.05.18-.14.35-.27.51-.14.16-.29.29-.44.38-.16.09-.29.09-.38,0v.07l-3.9-.55c-1.14.18-2.11-.4-2.91-1.74-.8-1.34-1.33-2.97-1.61-4.89s-.21-3.6.21-5.06l1.5-5.61c.36-.96.64-1.71.82-2.26.23-.55.39-.95.48-1.2.09-.25.14-.36.14-.34v.24c-.05.18-.08.4-.1.65-.02.25-.02.47,0,.65.02.18.1.25.24.21ZM838.32,66.9c-.23.23-.27.18-.14-.14l.14.14ZM860.13,22.54c0-.32.23-.43.68-.34.46.09,1.01.3,1.67.62.66.32,1.31.66,1.95,1.03.59.27,1.1.52,1.54.75.43.23.72.32.85.27.09,0,.42.16.99.48.57.32,1.16.72,1.78,1.2s1.1.96,1.47,1.44c.36.48.41.88.14,1.2-.09.09-.15.21-.17.34-.02.14-.06.27-.1.41,0,.23-.02.46-.07.68-.05.23-.18.48-.41.75-.78.87-1.62,1.44-2.53,1.71-.59.18-1.15.44-1.67.79-.52.34-1.01.9-1.47,1.67-.5,1-1.03,1.8-1.57,2.39-.55.59-1.21.8-1.98.62-1.19-.32-1.98-.43-2.39-.34-.27,0-.49-.03-.65-.1-.16-.07-.32-.27-.48-.62-.16-.34-.38-.92-.65-1.74-.14-.36-.3-.8-.48-1.3-.41-1.14-.68-2.62-.82-4.44-.14-1.82-.17-3.49-.1-4.99s.19-2.35.38-2.53c.18-.14.47-.17.85-.1.39.07.81.15,1.26.24.55.09,1.03.16,1.44.21.41.05.59-.04.55-.27Z"/>
      <path class="cls-1" d="M917.55,49.67c.36-.14.75-.06,1.16.24.41.3.69.73.85,1.3.16.57-.01,1.15-.51,1.74-.05.05-.16.23-.34.55-.18.41-.42.87-.72,1.37-.3.5-.6.95-.92,1.33-.32.39-.59.54-.82.44l-1.44,2.87c-.09-.04-.27.09-.55.41-.27.32-.57.73-.89,1.23-.46.64-.91,1.23-1.37,1.78-.46.55-.87.84-1.23.89-.27,0-.47.1-.58.31-.11.21-.19.44-.24.72-.05.37-.14.71-.27,1.03-.14.32-.39.62-.75.89l-2.6,4.72c.09.18.14.31.14.38s-.02.09-.07.07c-.05-.02-.09-.03-.14-.03-.09-.04-.18-.08-.27-.1-.09-.02-.18.02-.27.14-.09.11-.16.33-.21.65l-2.05,3.14c-.78.41-1.29.78-1.54,1.09-.25.32-.37.6-.34.85.02.25.1.44.24.58.04.09.07.16.07.21s-.07.07-.21.07c-.37,0-.82.48-1.37,1.44s-1.14,2.03-1.78,3.21c-.5.96-.96,1.8-1.37,2.53-.41.73-.75,1.19-1.03,1.37-.23.14-.5.56-.82,1.26-.32.71-.68,1.56-1.09,2.56-.55,1.46-1.14,2.86-1.78,4.2-.64,1.34-1.28,2.27-1.91,2.77-.14.14-.46.59-.96,1.37-.46.59-.95,1.25-1.47,1.98-.52.73-1.03,1.37-1.5,1.91s-.85.82-1.13.82l-.75,1.16c-.27.14-.75.66-1.44,1.57-.96,1.28-2.19,2.62-3.69,4.03-1.5,1.41-3.1,2.1-4.79,2.05-.32-.04-.6.01-.85.17-.25.16-.49.33-.72.51-.32.32-.72.57-1.2.75-.48.18-1.15.11-2.02-.21-.09-.04-.44-.12-1.06-.24-.62-.11-1.4-.26-2.36-.44-1.23-.18-2.51-.4-3.83-.65-1.32-.25-2.46-.51-3.42-.79s-1.48-.52-1.57-.75c-.09-.23-.21-.41-.34-.55s-.3-.25-.48-.34c-.32-.14-.67-.39-1.06-.75-.39-.36-.76-.98-1.13-1.85-.37-.87-.71-2.1-1.03-3.69-.32-1.91-.49-3.41-.51-4.48-.02-1.07.07-1.92.27-2.56.21-.64.44-1.21.72-1.71.32-.64.64-1.48.96-2.53l8.41-31.79c.46-1.28.71-2.51.75-3.69.04-.87.16-1.57.34-2.12.18-.55.55-.87,1.09-.96.32,0,.6-.09.85-.27.25-.18.49-.39.72-.62.32-.32.65-.56.99-.72.34-.16.69-.15,1.06.03.36.23.82.41,1.37.55,1.14.27,2.29.85,3.45,1.74s1.81,2.54,1.95,4.96c.04.46.09.88.14,1.26.04.39.09.63.14.72.46.96.56,3.28.31,6.97-.25,3.69-.58,7.63-.99,11.83-.59,5.15-.89,8.84-.89,11.07,1.37-.5,2.85-1.58,4.44-3.25,1.59-1.66,3.19-3.47,4.79-5.43,1.18-1.41,2.3-2.71,3.35-3.9l17.57-18.12,2.46-2.94c0-.36.43-.96,1.3-1.78.87-.82,1.92-1.69,3.18-2.6,1.25-.91,2.4-1.74,3.45-2.5,1.05-.75,1.75-1.24,2.12-1.47Z"/>
      <path class="cls-1" d="M906.06,93.56l1.03-1.44-.96,3.21c.14.23.18.41.14.55-.04.14-.14.24-.27.31s-.27.13-.41.17c-.09.05-.17.09-.24.14-.07.05-.09.1-.07.17.02.07.1.15.24.24l.07,1.64c-.09-.27-.18-.52-.27-.75-.18-.36-.28-.76-.31-1.2-.02-.43.13-.92.44-1.47.23-.36.35-.65.38-.85.02-.21.01-.35-.03-.44,0-.09.01-.16.03-.21.02-.04.1-.07.24-.07ZM907.29,103.4h.31s.01-.02-.03-.07-.09-.18-.14-.41c-.04-.23-.04-.55,0-.96,0-.36-.04-.66-.14-.89-.09-.23-.18-.43-.27-.62-.18-.23-.33-.52-.44-.89-.11-.36-.11-.9,0-1.61.11-.71.4-1.67.85-2.91.36-.96.59-1.91.68-2.87.09-.59.19-1.13.31-1.61.11-.48.31-.83.58-1.06l1.16-1.16-1.09,3.69c.18.09.47-.17.85-.79.39-.62.77-1.37,1.16-2.26.39-.89.65-1.7.79-2.43.09-.55.18-.96.27-1.23.09-.27.18-.47.27-.58.09-.11.18-.17.27-.17s.16.02.21.07h.14s.08-.02.1-.07c.02-.04.03-.14.03-.27l8.82-11.42,20.23-20.44c1-.36,2.39-1.18,4.17-2.46,1.18-.87,2.44-1.7,3.76-2.5,1.32-.8,2.62-1.33,3.9-1.61,1.55-.36,2.62-.75,3.21-1.16.55-.27,1.05-.41,1.5-.41s1.14.32,2.05.96c1.59.96,3.44,1.64,5.54,2.05,1.23.32,2.37.68,3.42,1.09,1.05.41,1.82.96,2.32,1.64.18.27.48.59.89.96.73.68,1.38,1.46,1.95,2.32.57.87.58,1.69.03,2.46l-.55,1.44s-.19.18-.44.55c-.25.37-.56.82-.92,1.37-.59.82-1.21,1.69-1.85,2.6-.64.91-1.23,1.71-1.78,2.39s-.96,1.07-1.23,1.16l-4.85,6.08c-.59.41-1.04.83-1.33,1.26-.3.43-.54.85-.72,1.26-.23.55-.48.89-.75,1.03-.18.05-.33.14-.44.27-.11.14-.24.34-.38.62-.27.64-1.09,1.69-2.46,3.14l-3.62,4.72c0,.14-.08.27-.24.41-.16.14-.38.27-.65.41-.32.18-.62.39-.89.62-.27.23-.41.5-.41.82s-.43.81-1.3,1.47c-.87.66-1.79,1.28-2.77,1.85-.98.57-1.61.85-1.88.85-.23,0-.41.02-.55.07-.14.05-.21.11-.21.21s-.22.15-.65.17c-.43.02-.95.02-1.54,0-.59-.02-1.13-.07-1.61-.14s-.79-.15-.92-.24c-.27-.23-.84-.48-1.71-.75-.68-.23-1.4-.49-2.15-.79-.75-.3-1.4-.65-1.95-1.06l-4.17-2.19-4.1,5.26c-.5.87-.97,1.52-1.4,1.95s-.79.72-1.06.85c-.23.18-.38.33-.44.44-.07.11.01.29.24.51l-1.57,7.04c.04.37,0,.78-.14,1.23-.14.41-.18.8-.14,1.16.04.37.33.62.85.75.52.14,1.46.1,2.8-.1,1.34-.21,3.24-.64,5.67-1.3,2.44-.66,5.62-1.63,9.54-2.91l24.2-7.04c.18.23.63.23,1.33,0,.71-.23,1.45-.5,2.22-.82.46-.18.85-.33,1.2-.44.34-.11.54-.15.58-.1.14.18-.01.52-.44,1.03-.43.5-.99,1.05-1.67,1.64-.68.59-1.31,1.11-1.88,1.54-.57.43-.88.65-.92.65l-8.41,4.79-3.35,1.71-5.47,3.76-3.14,1.85-2.67,1.23c-.09.32-.31.56-.65.72-.34.16-.72.27-1.13.34s-.73.13-.96.17h-.21c-.41.05-.72.11-.92.21-.21.09-.32.21-.34.34-.02.14-.01.25.03.34,0,.09-.01.17-.03.24-.02.07-.07.13-.14.17-.07.05-.22.07-.44.07-.05-.04-.24-.09-.58-.14-.34-.04-.72-.06-1.13-.03-.41.02-.78.13-1.09.31-.32.18-.52.5-.62.96-.05.23-.33.39-.85.48-.52.09-1.06.18-1.61.27-.37.05-.66.08-.89.1-.23.02-.34.08-.34.17,0,.18-.01.3-.03.34-.02.05-.07.06-.14.03-.07-.02-.15-.08-.24-.17-.09-.04-.19-.09-.31-.14-.11-.04-.19-.02-.24.07-.27.32-.59.47-.96.44-.37-.02-.71-.08-1.03-.17-.18-.04-.34-.08-.48-.1-.14-.02-.23.01-.27.1l-1.98.27c-.09-.09-.18-.14-.27-.14s-.16.02-.21.07c-.05.04-.09.09-.14.14,0,.04-.02.08-.07.1-.05.02-.08.03-.1.03s-.06-.05-.1-.14c-.14-.23-.33-.33-.58-.31-.25.02-.49.08-.72.17-.23.04-.43.08-.62.1-.18.02-.32-.03-.41-.17-.09-.09-.19-.16-.31-.21-.11-.04-.26-.07-.44-.07-.23,0-.57-.07-1.03-.21-.46-.14-1.09-.39-1.91-.75-.27-.09-.64-.25-1.09-.48-1.37-.5-2.91-1.2-4.61-2.08s-2.79-1.81-3.25-2.77c-.41-.82-.73-1.5-.96-2.05s-.39-1.09-.48-1.64c-.09-.55-.07-.96.07-1.23l.21-.48ZM944.28,66.7s-.46.57-1.37,1.57c-.78.91-1.67,1.95-2.7,3.11s-1.93,2.25-2.7,3.25c-.78,1-1.16,1.66-1.16,1.98,0,.87.27,1.61.82,2.22s1.16.99,1.85,1.13,1.25-.09,1.71-.68l10.46-7.45c.82-.68,2.16-1.86,4.03-3.52,1.87-1.66,3.66-3.34,5.37-5.02,1.71-1.69,2.7-2.87,2.97-3.55.23-.91-.16-1.65-1.16-2.22-1-.57-2.14-.9-3.42-.99-1.28-.09-2.23.11-2.87.62-.46.41-.87.7-1.23.85-.37.16-.66.29-.89.38-.27.05-.49.13-.65.24-.16.11-.31.29-.44.51l-8.61,7.59Z"/>
    </g>
  </g>
</svg>