<?xml version="1.0" encoding="UTF-8"?>
<svg id="Layer_2" data-name="Layer 2" xmlns="http://www.w3.org/2000/svg" viewBox="0 0 168.05 75.6">
  <defs>
    <style>
      .cls-1 {
        fill: #f4f4f4;
        stroke-width: 0px;
      }
    </style>
  </defs>
  <g id="Layer_4" data-name="Layer 4">
    <g>
      <path class="cls-1" d="M2.95,10.8h11.66c3.93,0,6.89,1.06,8.86,3.17,1.97,2.11,2.95,5.21,2.95,9.29v4.97c0,4.08-.98,7.18-2.95,9.29-1.97,2.11-4.92,3.17-8.86,3.17h-3.74v20.52H2.95V10.8ZM14.62,33.48c1.3,0,2.27-.36,2.92-1.08.65-.72.97-1.94.97-3.67v-5.98c0-1.73-.32-2.95-.97-3.67-.65-.72-1.62-1.08-2.92-1.08h-3.74v15.48h3.74Z"/>
      <path class="cls-1" d="M30.74,10.8h7.92v20.52h8.5V10.8h7.92v50.4h-7.92v-22.68h-8.5v22.68h-7.92V10.8Z"/>
      <path class="cls-1" d="M63.5,58.61c-2.06-2.21-3.1-5.33-3.1-9.36v-26.5c0-4.03,1.03-7.15,3.1-9.36,2.06-2.21,5.04-3.31,8.93-3.31s6.86,1.1,8.93,3.31c2.06,2.21,3.1,5.33,3.1,9.36v26.5c0,4.03-1.03,7.15-3.1,9.36-2.06,2.21-5.04,3.31-8.93,3.31s-6.87-1.1-8.93-3.31ZM76.54,49.75v-27.5c0-3.31-1.37-4.97-4.1-4.97s-4.1,1.66-4.1,4.97v27.5c0,3.31,1.37,4.97,4.1,4.97s4.1-1.66,4.1-4.97Z"/>
      <path class="cls-1" d="M95.69,18h-8.28v-7.2h24.48v7.2h-8.28v43.2h-7.92V18Z"/>
      <path class="cls-1" d="M117.93,58.61c-2.06-2.21-3.1-5.33-3.1-9.36v-26.5c0-4.03,1.03-7.15,3.1-9.36,2.06-2.21,5.04-3.31,8.93-3.31s6.86,1.1,8.93,3.31c2.06,2.21,3.1,5.33,3.1,9.36v26.5c0,4.03-1.03,7.15-3.1,9.36-2.06,2.21-5.04,3.31-8.93,3.31s-6.87-1.1-8.93-3.31ZM130.97,49.75v-27.5c0-3.31-1.37-4.97-4.1-4.97s-4.1,1.66-4.1,4.97v27.5c0,3.31,1.37,4.97,4.1,4.97s4.1-1.66,4.1-4.97Z"/>
      <path class="cls-1" d="M145.8,58.64c-1.97-2.18-2.95-5.32-2.95-9.4v-2.88h7.49v3.46c0,3.26,1.37,4.9,4.1,4.9,1.34,0,2.36-.4,3.06-1.19.7-.79,1.04-2.08,1.04-3.85,0-2.11-.48-3.97-1.44-5.58-.96-1.61-2.74-3.54-5.33-5.8-3.26-2.88-5.54-5.48-6.84-7.81-1.3-2.33-1.94-4.96-1.94-7.88,0-3.98,1.01-7.07,3.02-9.25,2.02-2.18,4.94-3.28,8.78-3.28s6.66,1.09,8.6,3.28c1.94,2.19,2.92,5.32,2.92,9.4v2.09h-7.49v-2.59c0-1.73-.34-2.99-1.01-3.78s-1.66-1.19-2.95-1.19c-2.64,0-3.96,1.61-3.96,4.82,0,1.82.49,3.53,1.48,5.11.98,1.58,2.77,3.5,5.36,5.76,3.31,2.88,5.59,5.5,6.84,7.85,1.25,2.35,1.87,5.11,1.87,8.28,0,4.13-1.02,7.3-3.06,9.5-2.04,2.21-5,3.31-8.89,3.31s-6.74-1.09-8.71-3.28Z"/>
    </g>
  </g>
</svg>