<?xml version="1.0" encoding="UTF-8"?>
<svg id="Layer_2" data-name="Layer 2" xmlns="http://www.w3.org/2000/svg" viewBox="0 0 371.3 88.82">
  <defs>
    <style>
      .cls-1 {
        fill: #000;
        stroke-width: 0px;
      }
    </style>
  </defs>
  <g id="Layer_3" data-name="Layer 3">
    <g>
      <path class="cls-1" d="M40.23.7c.16-.07.28-.11.35-.12.07-.01.12,0,.16.04s.06.08.09.12c0,.05.02.08.05.11.04.02.09.02.16,0,.07-.02.18-.08.32-.18.42-.23,1.45-.4,3.09-.51s3.32-.16,5.04-.16,2.91.04,3.57.11c2.48.4,4.35.83,5.61,1.3,1.25.47,2.1.84,2.55,1.12.23.14.41.22.53.25.21.07.57.29,1.07.65.5.36,1.04.78,1.6,1.25.56.47,1.03.91,1.39,1.34s.51.72.44.88c0,.02.02.05.05.09s.1.09.19.16c.21.14.43.33.65.58s.33.58.33,1c0,.12.01.23.04.35.02.12.06.2.11.25.19.21.23.66.12,1.35-.11.69-.28,1.41-.51,2.14s-.48,1.3-.74,1.67c-.16.26-.26.45-.28.58-.02.13,0,.22.05.28.06.06.12.1.19.12.05,0,.08.01.11.04.02.02.02.05,0,.09s-.08.09-.18.16c-.21.16-.56.52-1.05,1.05-.45.49-.9.97-1.37,1.44-.47.47-.8.7-.98.7l-1.58,1.93-.35-.14-2.39,1.48s-.16.14-.35.28c-.3.21-.63.46-.98.76-.35.29-.57.57-.67.83l-1.41.77s-.08,0-.18.07-.2.15-.32.25c-.12.09-.23.18-.33.25s-.19.11-.25.12c-.06.01-.06-.05-.02-.19.05-.12.05-.19.02-.21-.04-.02-.09-.02-.18.02s-.17.09-.26.16c-.07.05-.14.09-.21.12s-.12.05-.14.04c-.02-.01-.02-.05,0-.12.02-.12.03-.18.02-.18s-.04.02-.09.07c-.07.09-.17.19-.3.28-.13.09-.26.15-.4.18l-2.5,1.34-.14.14c-.12.12-.29.28-.53.47-.23.2-.48.36-.74.49-.26.13-.49.17-.7.12-.21-.05-.62.03-1.21.23-.6.2-1.2.45-1.81.74-.61.29-1.04.56-1.3.79l-2.14.91c-.16.02-.28.02-.33,0-.06-.02-.08-.07-.05-.14s.07-.13.14-.19c.07-.06.14-.1.21-.12.21-.05.3-.13.26-.25-.04-.12-.15-.19-.35-.21-.2-.02-.44.07-.72.28-.12.09-.22.16-.3.19s-.15.06-.19.07c-.05.01-.09,0-.14-.02-.02,0-.05,0-.07.02-.02.01-.05.03-.07.05l-.11.11c-.09.12-.33.29-.72.51-.39.22-.77.4-1.16.54s-.64.14-.76,0c.02-.07.06-.12.11-.14.02-.05.05-.09.07-.12s.02-.06,0-.09c-.02-.02-.09-.02-.21,0-.02,0-.07.04-.14.11-.16.16-.4.36-.7.58-.3.22-.61.33-.91.33l-1.51.77-.25-.28c0-.23-.02-.37-.05-.42-.04-.05-.08-.03-.14.05-.06.08-.12.19-.19.33-.09.19-.19.36-.3.53-.11.16-.22.23-.33.21-.05-.02-.14-.02-.28.02l-.49.12c-.23.07-.48.14-.74.19-.26.06-.48.09-.67.09s-.3-.07-.35-.21c-.05-.16-.11-.23-.18-.21-.07.02-.15.09-.25.21-.07.07-.13.14-.19.19-.06.06-.12.09-.19.09-.16,0-.27.04-.32.11s-.06.15-.05.25c.01.09.03.2.05.32.02.09.04.18.05.25s-.02.11-.09.11c-.12,0-.2.05-.25.16s-.08.23-.11.37-.06.29-.12.44c-.06.15-.15.3-.26.44-.02.02-.07.09-.14.21-.12.21-.28.47-.47.79s-.4.6-.6.86c-.2.26-.37.39-.51.39-.07,0-.1,0-.09.02.01.01.04.04.09.09.05.05.09.11.12.18s.02.15-.04.23c-.06.08-.19.17-.4.26l-3.59,6.29c-.07.26-.16.45-.28.58-.12.13-.2.18-.25.14s0-.16.14-.37c.16-.37.31-.7.44-.97.13-.27.23-.54.32-.83s.13-.52.14-.7c.01-.19-.04-.28-.16-.28-.09-.09-.18-.17-.26-.23-.08-.06-.16-.11-.25-.14s-.16-.04-.23-.02c-.07.02-.13.09-.19.21-.06.12-.09.29-.09.53l-.53,1.34s-.09.12-.12.21c-.04.09-.06.19-.09.28-.02.16-.06.3-.11.4s-.13.14-.25.09c-.09,0-.28.19-.54.58s-.53.84-.79,1.35c-.26.52-.39.93-.39,1.23,0,.19-.05.39-.16.62-.11.22-.23.44-.37.65-.14.23-.26.45-.35.65-.09.2-.13.37-.11.51l-.49,1.62-.74,2.71-.35,1.34c-.09.07-.13.02-.12-.14.01-.16.05-.39.12-.67.07-.33.13-.64.18-.95.05-.3.02-.52-.07-.63-.07-.07-.14,0-.21.21s-.14.49-.21.83-.14.7-.21,1.07c-.09.37-.17.7-.23.98s-.11.44-.16.49c-.05.02-.08.06-.09.12-.01.06,0,.12.02.19.02.09,0,.18-.09.25s-.17.11-.26.11-.16-.05-.21-.14c-.05-.12-.12-.18-.23-.18s-.21.09-.3.28c-.09.19-.14.48-.14.88,0,.28,0,.47-.02.58s-.03.16-.05.18c-.02.01-.05-.02-.07-.09s-.06-.14-.11-.21c-.02-.12-.05-.22-.09-.3-.04-.08-.06-.12-.09-.12-.21.09-.37.18-.47.26-.11.08-.18.15-.21.19-.04.05-.05.09-.05.14,0,.02-.01.05-.04.07-.02.02-.06.04-.12.05-.06.01-.16.02-.3.02-.12,0-.23-.01-.33-.04-.11-.02-.17-.05-.19-.07l-.49-4.68c-.05-.14-.05-.28-.02-.42s.09-.28.16-.42c.09-.14.16-.3.19-.49.04-.19.02-.39-.05-.6l1.12-5.41s.05-.11.07-.18.04-.14.04-.21c0-.12.03-.2.09-.25.06-.05.11-.06.16-.05.05.01.07.07.07.18s-.05.26-.14.47c-.23.49-.35.94-.35,1.35s.05.66.14.74c.09.08.19-.15.28-.69l1.2-3.69c.14-.09.21-.18.19-.26-.01-.08-.04-.17-.09-.26-.02-.07-.05-.15-.07-.23-.02-.08,0-.16.07-.23l1.41-3.45,2.57-7.91s.07.03.14-.05c.07-.08.15-.21.23-.39s.15-.35.19-.53.06-.33.05-.46c-.01-.13-.09-.19-.23-.19-.07,0-.15.05-.25.16s-.18.23-.25.37c-.09.12-.17.21-.23.28s-.11.11-.14.11-.05-.07-.05-.21c0-.16.04-.33.12-.49.08-.16.17-.32.26-.46.19-.23.28-.43.28-.6,0-.28.39-1.38,1.18-3.3.79-1.92,1.68-4.05,2.67-6.38,1-2.33,1.87-4.38,2.62-6.13.75-1.71,1.15-2.61,1.2-2.71,0-.23.06-.42.19-.54.13-.13.3-.24.51-.33.33-.14.62-.39.88-.74.16-.26.35-.39.54-.4.2-.01.39,0,.58.05.09,0,.18,0,.26.02.08.01.15-.02.19-.09.09-.12.37-.11.83.02.46.13.97.31,1.55.54.57.23,1.08.47,1.53.72s.7.44.77.58c.12.23.26.43.42.6.19.19.36.46.51.83.15.36.24.97.26,1.81s-.07,2.1-.28,3.76l-1.12,3.73c0,.19-.04.37-.12.54s-.17.33-.26.47c-.09.16-.15.29-.18.39-.02.09.04.14.18.14l3.94-2.29,2.04-.95,6.89-4.36c.26-.21.63-.43,1.12-.67.35-.19.66-.36.93-.53.27-.16.4-.32.4-.46,0-.12.21-.34.62-.67.41-.33.9-.69,1.48-1.07s1.13-.76,1.67-1.11c.66-.4,1.1-.69,1.34-.88.52-.4,1.2-.94,2.04-1.62.84-.68,1.62-1.34,2.32-1.97s1.05-1.05,1.05-1.27c0-.33-.22-.66-.65-1-.43-.34-.8-.62-1.11-.83l-.21-.11c-.77-.47-1.88-.81-3.3-1.04-1.43-.22-2.91-.36-4.45-.4-1.54-.05-2.85-.04-3.96.04s-1.71.15-1.83.25c-.02.05-.18.09-.46.14-.28.05-.63.09-1.05.14-.49.07-1,.15-1.51.25-.52.09-.96.18-1.34.26-.38.08-.59.17-.63.26-.07.12-.15.18-.25.19-.09.01-.19,0-.28-.05-.09-.02-.19-.04-.28-.05-.09-.01-.18.03-.25.12-.12.12-.4.25-.84.39s-.96.3-1.55.49c-.63.16-1.22.33-1.76.51s-.91.35-1.12.51l-.67.14-3.52,1.37c-.19.12-.57.3-1.14.56-.57.26-1.25.55-2.02.88-1.24.52-2.43,1.03-3.57,1.55-1.14.52-1.83.91-2.09,1.2l-3.45,1.9c-.4.35-.98.75-1.74,1.2-.76.45-1.48.83-2.16,1.16-.59.3-.95.5-1.09.6-.56.45-1.2.84-1.9,1.2-.84.38-1.58.84-2.21,1.41-.09.07-.3.2-.63.39-.42.21-.84.46-1.27.76-.42.29-.64.54-.67.76-.02.12-.05.18-.09.19-.04.01-.09,0-.16-.05-.09-.05-.24-.06-.44-.05-.2.01-.44.14-.72.37-.12.09-.28.05-.47-.12s-.39-.38-.58-.62c-.14-.14-.27-.27-.39-.39-.12-.12-.21-.19-.28-.21-.12-.02-.2-.06-.25-.11-.05-.05-.07-.11-.07-.18-.02-.07-.08-.16-.16-.26s-.24-.22-.47-.33c-.23-.12-.39-.21-.46-.28s-.09-.13-.07-.18c.02-.05.08-.09.18-.14.09-.07.18-.15.26-.25.08-.09.13-.22.16-.39l3.13-2.6s.27-.16.74-.47,1.07-.72,1.79-1.21c1.38-.96,2.83-1.93,4.34-2.92s2.56-1.59,3.15-1.83l.49-.32,6.71-3.3,5.45-2.04s.15-.04.32-.11.38-.16.63-.28c.47-.21.97-.41,1.49-.6.53-.19.97-.29,1.32-.32l2.53-.81,3.2-.98,4.32-.98ZM12.07,56.43s.08-.04.09-.12c.01-.08.02-.19.02-.33,0-.21,0-.35-.02-.4-.01-.06-.04-.07-.07-.04s-.06.1-.09.19c-.02.09-.04.19-.05.3s0,.2.02.28c.02.08.06.12.11.12ZM12.84,56.43s.05-.01.09-.04c.04-.02.05-.05.05-.07l-.14.11ZM13.86,45.6c0-.12.02-.18.05-.19.04-.01.07,0,.11.04s.06.08.09.14c.02.06.03.11.02.16-.01.05-.05.07-.12.07-.02,0-.05-.02-.09-.07-.04-.05-.05-.09-.05-.14ZM13.97,47.07s-.04.02-.05-.02-.02-.09-.02-.16l.07.18ZM14.7,58.43c-.19.23-.12.27.21.11l-.21-.11ZM14.99,42.82s-.03-.03-.02-.09c.01-.06.04-.12.09-.19l-.07.28ZM16.67,54.21c.07.16.14.23.21.19s.11-.16.11-.37c0-.09-.02-.18-.07-.25s-.1-.11-.16-.11-.1.04-.12.12c-.02.08-.01.22.04.4ZM23.46,40.64s.07.04.14-.02c.07-.06.13-.13.19-.21.06-.08.09-.16.09-.23s-.04-.11-.12-.11-.17.02-.26.07c-.09.05-.15.12-.18.21-.02.09.02.19.14.28ZM23.49,37.2l-.14.28s.05-.02.09-.07c.04-.05.05-.12.05-.21ZM23.49,38.36l-.14.18s.08-.02.11-.05.04-.08.04-.12ZM27.25,37.23s.05-.01.07-.04c.02-.02.04-.05.04-.07,0-.12-.01-.19-.04-.21-.02-.02-.06-.02-.11,0-.05.02-.08.06-.11.11-.02.05-.03.09-.02.14.01.05.06.07.16.07ZM32.49,33.19c.05-.23.04-.37-.04-.42-.07-.05-.15-.05-.25,0-.09.05-.16.13-.19.25-.04.12,0,.25.12.39.14.14.26.07.35-.21ZM37.8,31.5c.07,0,.12,0,.16-.02.04-.01.04-.03.02-.05l-.18.07ZM39.81,32.03s-.05-.02-.02-.07c.04-.05.09-.11.16-.18l-.14.25ZM43.29,29.71s.09-.02.12-.05.05-.09.05-.16c0-.12-.03-.18-.09-.19-.06-.01-.12,0-.19.04s-.12.08-.16.14c-.04.06-.04.11-.02.16.02.05.12.07.28.07ZM48.07,16.42c-.19.07-.22.05-.11-.07l.11.07ZM54.75,22.71s.08-.02.11-.07c.02-.05.04-.09.04-.14,0-.12-.02-.18-.05-.19-.04-.01-.07,0-.11.04s-.06.08-.09.14c-.02.06-.03.11-.02.16.01.05.05.07.12.07ZM58.02,23.24c0-.07.02-.12.05-.16s.08-.06.12-.09c.05-.02.09-.03.12-.02.04.01.05.04.04.07s-.06.09-.16.16c-.12.12-.18.13-.18.04ZM58.58,22.85l.28-.04c-.09.05-.17.07-.23.07s-.08-.01-.05-.04ZM60.48,20.64l-.14.11s.08-.01.11-.04c.02-.02.04-.05.04-.07ZM65.05,15.93c0,.09-.02.15-.07.18-.05.02-.11.05-.18.07-.05,0-.1,0-.16.02-.06.01-.1.05-.12.12s0,.12.05.14c.06.02.14.02.25-.02s.22-.1.33-.19c.14-.14.22-.26.23-.35.01-.09-.01-.15-.07-.18-.06-.02-.12-.02-.19,0-.07.02-.09.09-.07.21ZM65.65,6.08l-.04.14s.04-.09.04-.14Z"/>
      <path class="cls-1" d="M52.18,49.96s-.05-.05-.07-.07c-.14-.14-.25-.25-.33-.32s-.13-.12-.16-.16-.03-.06-.02-.07c.01-.01.04-.03.09-.05.05-.02.1-.06.16-.12.06-.06.12-.16.18-.32.06-.15.09-.37.09-.65l.14-1.48c-.07-.44.01-.96.25-1.55.23-.59.52-1.18.84-1.79.38-.75.64-1.38.81-1.9.26-.94,1-2.61,2.23-5.01,1.23-2.4,2.49-4.74,3.78-7.01,1.29-2.27,2.13-3.7,2.53-4.29.49-.63.84-1.14,1.05-1.51.21-.37.33-.66.35-.86.02-.2.02-.37,0-.51,0-.09,0-.19.02-.3s.08-.24.19-.4l2.57-4.15.42-.88,4.75-7.88c.12-.12.32-.43.62-.93.29-.5.64-1.12,1.04-1.85.52-.96,1.05-1.9,1.6-2.83.55-.93,1.01-1.62,1.39-2.09.21-.28.34-.49.39-.63.05-.07.08-.12.11-.14.02-.02.05-.01.09.04.04.05.1.13.19.25h.04c.21.26.54.53.98.81.35.23.67.48.97.74.29.26.49.54.58.84.02.35-.18,1.16-.6,2.43s-.93,2.67-1.51,4.2c-.59,1.54-1.12,2.87-1.62,3.99s-.77,1.72-.84,1.79l-.46,1.05c-.19.23-.31.43-.37.58-.06.15-.09.28-.09.37-.02.09-.05.17-.09.23-.04.06-.1.12-.19.19l-2.07,4.78-.7,1.62-2,4.22c-.12.14-.21.31-.26.51-.06.2-.1.4-.12.62-.02.19-.06.35-.11.47-.05.13-.12.21-.21.23l-1.51,3.38c-.07.02-.15.12-.23.3s-.17.4-.26.69c-.23.73-.57,1.44-1.02,2.14l-2.18,4.39-1.44,2.88c-.07,0-.13.02-.18.07-.05.05-.08.09-.11.12s-.02.06.02.07c.04.01.11-.01.21-.07.11-.06.27-.16.49-.32.22-.15.5-.37.84-.65s.76-.64,1.25-1.09l1.86-1.48c.14-.14.47-.5.98-1.09.8-.94,1.9-2.18,3.32-3.73s2.98-3.12,4.69-4.71c1.71-1.59,3.41-2.93,5.1-4.01,1.69-1.08,3.21-1.62,4.55-1.62s2.36.81,3.04,2.43c.3.91.28,1.82-.09,2.72-.36.9-.72,1.61-1.07,2.13-.16.28-.26.46-.28.53,0,.16-.13.5-.39,1-.26.5-.56,1.07-.91,1.71-.38.63-.7,1.21-.97,1.74s-.4.88-.4,1.07l-2.74,7.21c.02.16,0,.3-.05.42-.06.12-.13.22-.23.32-.12.14-.21.29-.28.46-.07.16-.11.39-.11.67l-3.34,6.89c-.07.02-.12.06-.14.12-.02.06-.02.12,0,.19,0,.12-.01.23-.04.35-.02.12-.12.2-.28.25-.05,0-.15.07-.3.21s-.29.33-.42.58-.18.53-.16.86c.05.37,0,.66-.12.84-.13.19-.3.31-.53.37-.22.06-.45.08-.67.07-.22-.01-.41-.03-.56-.05-.15-.02-.23-.05-.23-.07l-1.83-.39c-.02-.12-.14-.27-.35-.46-.45-.33-.87-.94-1.28-1.83s-.42-2.29-.02-4.18c.07-.4.14-.75.21-1.05.09-.59.26-1.21.49-1.88s.7-1.65,1.41-2.94c.42-.84.66-1.58.72-2.21s.05-1.21-.02-1.72c-.09-.56-.08-1.07.04-1.51.05-.19.04-.28-.02-.26-.06.01-.16.09-.3.23s-.3.32-.49.53c-.3.35-.62.69-.95,1.02-.33.33-.61.5-.84.53l-.46.74c-.02-.09-.07-.15-.14-.16-.07-.01-.13.01-.19.07-.06.06-.09.14-.09.23.02.28-.01.48-.11.6-.09.12-.19.19-.28.21-.07.05-.13.09-.18.14-.05.05-.06.12-.04.21l-.88,1.23c-.35.21-.57.39-.65.53s-.13.27-.16.39c0,.07-.02.14-.07.19-.05.06-.14.11-.28.16-.28.09-.49.18-.62.25s-.21.15-.25.23c-.04.08-.05.17-.05.26s-.02.19-.05.3-.12.22-.25.33c-.13.12-.32.25-.58.39-.05.02-.15.13-.32.32-.19.21-.41.45-.67.7-.26.26-.49.46-.69.6s-.31.14-.33,0c0-.14-.04-.19-.11-.14-.07.05-.18.14-.32.28-.19.19-.42.38-.69.58-.27.2-.58.35-.93.44-.14.02-.32.07-.53.14-.35.12-.69.21-1.02.26-.33.06-.56,0-.7-.16-.05-.07-.09-.09-.14-.07-.05.02-.09.06-.14.11-.07.05-.13.08-.18.11-.05.02-.11.02-.18,0-.09,0-.52-.03-1.27-.09-.75-.06-1.59-.22-2.53-.47-.94-.26-1.76-.68-2.46-1.27ZM59.35,30.02c-.02.07-.06.12-.11.16s-.09.05-.12.05-.06-.04-.09-.11l.32-.11ZM59.7,28.97c-.19.47-.29.56-.32.28l.32-.28ZM62.17,24.96c0-.12.02-.19.05-.21.04-.02.08-.02.12,0,.05.02.07.06.07.12s-.04.12-.11.19c-.05.02-.08.02-.11,0-.02-.02-.04-.06-.04-.11Z"/>
      <path class="cls-1" d="M106.22,24.19c.07.09.22.21.46.33.23.13.49.22.77.28.28.06.54.04.77-.05.54-.16,1.3-.04,2.29.39s2,.98,3.04,1.67c1.04.69,1.93,1.37,2.65,2.02.73.66,1.08,1.09,1.05,1.3,0,.05.06.18.18.39.19.3.39.76.62,1.35s.32,1.28.3,2.04c-.02.76-.3,1.55-.84,2.37l-.04.04c-.07.16-.27.59-.6,1.28-.33.69-.71,1.38-1.16,2.07-.45.69-.87,1.13-1.27,1.32-.09.05-.19.16-.3.33s-.22.39-.33.65c-.19.35-.38.68-.58.98-.2.3-.38.45-.54.42l-3.83,4.61c-.35.33-.61.62-.77.86s-.29.46-.39.65c-.09.19-.19.35-.28.47-.09.13-.23.23-.42.3-.05.05-.18.16-.39.35-.3.28-.66.57-1.05.88-.4.3-.71.46-.95.46-.16-.02-.3.05-.42.21-.12.16-.22.36-.32.6-.09.28-.22.54-.39.79s-.4.42-.7.51l-2.39,1.02c-.12-.02-.33.04-.63.18-.3.16-.64.29-1,.39-.36.09-.72.04-1.07-.18-.09-.05-.17-.08-.23-.11-.06-.02-.11-.03-.14-.02-.04.01-.08.02-.12.02-.05.05-.12.08-.21.09-.09.01-.25-.01-.47-.07-.22-.06-.53-.18-.93-.37-.68-.3-1.36-.57-2.04-.81-.87-.26-1.68-.59-2.44-1-.76-.41-1.43-1.03-2-1.86-.57-.83-1.01-2.02-1.32-3.57-.19-1.22-.21-2.74-.05-4.55.15-1.82.43-3.53.83-5.13.4-1.6.87-2.69,1.41-3.25.23-.21.48-.55.74-1.02.38-.68,1.04-1.58,2-2.69.96-1.11,2.55-2.42,4.78-3.92l1.48-.95s.22-.02.51-.05.63-.06,1.02-.09c.39-.02.74-.01,1.07.04.33.05.55.16.67.35.14.16.26.25.35.25s.16-.06.21-.19c.05-.13.09-.28.14-.44.07-.16.13-.32.19-.46s.13-.21.23-.21c.14.02.28-.04.42-.18s.28-.29.42-.46c.21-.23.42-.42.62-.56s.39-.13.58.04c.07.07.13.11.18.11s.09-.02.12-.07c.04-.05.06-.09.09-.14.02-.07.05-.12.09-.16s.08-.05.14-.04c.06.01.13.08.23.19ZM107.62,33.57c-.05-.12-.23-.32-.54-.62-.32-.29-.66-.58-1.04-.86s-.71-.47-1.02-.58-.48-.02-.53.26c-.02.23-.12.4-.28.51s-.34.19-.53.26c-.14.05-.26.1-.37.16-.11.06-.18.14-.23.23-.09.16-.35.38-.77.63-.45.26-.92.6-1.42,1.02s-.91.97-1.21,1.65c-.07.21-.2.43-.39.67-.19.23-.39.54-.62.91-.22.38-.43.88-.62,1.51-.02.02-.07.11-.14.25-.23.49-.54,1.34-.91,2.55-.38,1.21-.49,2.57-.35,4.1.12.8.24,1.4.37,1.81.13.41.25.69.37.83s.23.2.35.18c.12-.02.23-.07.35-.14.07-.02.13-.05.18-.07,1.12-.47,2.61-1.37,4.45-2.71s3.51-2.72,5.01-4.15c1.5-1.43,2.3-2.53,2.39-3.3l-.14-2.07-2.36-3.02Z"/>
      <path class="cls-1" d="M165.91,16.88c-.23.16-.43.28-.58.33-.15.06-.28.09-.37.09s-.18-.02-.25-.07c-.05-.02-.11-.04-.18-.04s-.15.02-.25.07l-9.42.63c-.26.14-.86.24-1.79.3-.94.06-2.06.11-3.38.16-1.57.07-3.14.16-4.71.26s-2.86.28-3.87.51c-1.01.23-1.44.56-1.3.98l-.67,1.09-1.48,3.16c-.28.45-.62,1.15-1.02,2.11-.26.61-.51,1.18-.76,1.71s-.49.87-.72,1.04l-7.73,15.96c-.07,0-.17.12-.3.37s-.26.54-.4.9c-.19.45-.4.9-.63,1.35s-.48.83-.74,1.11l-1.62,2.78-1.02,2.04c-.02.14-.08.26-.16.35-.08.09-.16.19-.23.28-.07.07-.13.14-.18.21s-.06.15-.04.25c.05.05.07.08.07.11v.05s-.01.02-.04.02c-.05,0-.11.02-.19.07-.08.05-.18.16-.3.33s-.25.44-.39.79l-1.3,1.76c-.07.23-.15.4-.25.49-.09.09-.19.16-.28.21-.12.07-.24.17-.37.3-.13.13-.25.38-.37.76-.12.3-.29.56-.53.77-.28.26-.5.64-.67,1.16l-.74,1.58c0,.12-.03.18-.09.19-.06.01-.13,0-.23-.02-.09,0-.19,0-.3.02-.11.01-.21.08-.3.21-.09.13-.15.35-.18.65-.02.35-.09.57-.21.67-.12.09-.25.12-.39.09s-.28-.09-.42-.16c-.12-.07-.21-.11-.26-.12-.06-.01-.09.04-.09.16.02.14-.04.21-.18.19-.14-.01-.29-.05-.46-.12-.16-.05-.32-.08-.46-.11-.14-.02-.25,0-.32.07-.05.07-.11.11-.18.12-.07.01-.13,0-.19-.02-.06-.02-.11-.05-.14-.09l-.16-.16c-.14-.16-.22-.33-.25-.49-.02-.16-.02-.28,0-.35,0-.05,0-.06-.02-.05-.01.01-.03.04-.05.09-.09.12-.25-.01-.46-.39-.21-.38-.42-.89-.63-1.55-.21-.66-.35-1.34-.42-2.04s0-1.31.21-1.83l.28-1.23s.08-.02.09.02,0,.1-.02.19c-.02.05-.04.11-.04.18s.01.13.04.18c.02.05.08.06.18.04l.88-2.57c-.02-.09-.02-.16,0-.19s.06-.08.11-.12c.02-.02.04-.05.05-.09s0-.09-.04-.16-.11-.16-.23-.28c-.23-.23-.27-.47-.11-.7.16-.23.4-.44.7-.63.3-.19.56-.33.77-.42l.18-.07c.02-.07.05-.11.07-.11s.05.01.07.04c.02.02.05.05.07.07.02.05.05.08.09.11.04.02.07.01.11-.04.04-.05.09-.15.16-.32l.63-2.36c.07-.35.16-.6.26-.76.11-.15.21-.26.3-.33.02-.02.05-.05.07-.07.02-.02.04-.06.04-.11l9.56-19.65c0-.3.26-.9.77-1.79.52-.89,1.1-1.86,1.76-2.92.59-.94,1.1-1.78,1.53-2.53.43-.75.64-1.23.62-1.44l-1.65-.25-10.58.56c-.09.09-.3.09-.63,0-.33-.09-.7-.25-1.11-.46s-.79-.43-1.14-.67c-.35-.23-.61-.43-.77-.6-.16-.16-.14-.25.07-.25v-.07c0-.07.01-.18.04-.32s.1-.26.23-.37.35-.16.65-.16l.04-.04c.54-.16,2.46-.58,5.75-1.25s6.96-1.08,10.99-1.25l3.87-7.07,2.46-4.25c.38-.8.73-1.29,1.05-1.48.33-.19.94-.22,1.83-.11.77.05,1.57.27,2.39.67.82.4,1.38.97,1.69,1.72.19.56.21,1.19.07,1.88-.14.69-.32,1.37-.53,2.02-.28.77-.41,1.34-.39,1.69l-2.18,4.43c-.12.02-.06.07.18.14.59.12,2.48.18,5.7.18,3.42-.02,7.04.04,10.86.18s6.5.5,8.05,1.09c.28.14.45.25.51.32s.05.12-.04.16-.21.06-.37.09c-.12.02-.24.05-.37.09s-.24.08-.33.12ZM111.1,56.46s-.05.02-.07-.02-.04-.09-.04-.16l.11.18ZM114.97,47.95c-.05.12-.09.19-.12.21-.04.02-.05-.02-.05-.14l.18-.07ZM118.27,59.91s.08-.02.09-.05.02-.08.02-.12l-.11.18ZM123.09,31.57c-.14.4-.22.5-.25.32l.25-.32Z"/>
      <path class="cls-1" d="M154.03,24.19c.07.09.22.21.46.33.23.13.49.22.77.28.28.06.54.04.77-.05.54-.16,1.3-.04,2.29.39s2,.98,3.04,1.67c1.04.69,1.93,1.37,2.65,2.02.73.66,1.08,1.09,1.05,1.3,0,.05.06.18.18.39.19.3.39.76.62,1.35s.32,1.28.3,2.04c-.02.76-.3,1.55-.84,2.37l-.04.04c-.07.16-.27.59-.6,1.28-.33.69-.71,1.38-1.16,2.07-.45.69-.87,1.13-1.27,1.32-.09.05-.19.16-.3.33s-.22.39-.33.65c-.19.35-.38.68-.58.98-.2.3-.38.45-.54.42l-3.83,4.61c-.35.33-.61.62-.77.86s-.29.46-.39.65c-.09.19-.19.35-.28.47-.09.13-.23.23-.42.3-.05.05-.18.16-.39.35-.3.28-.66.57-1.05.88-.4.3-.71.46-.95.46-.16-.02-.3.05-.42.21-.12.16-.22.36-.32.6-.09.28-.22.54-.39.79s-.4.42-.7.51l-2.39,1.02c-.12-.02-.33.04-.63.18-.3.16-.64.29-1,.39-.36.09-.72.04-1.07-.18-.09-.05-.17-.08-.23-.11-.06-.02-.11-.03-.14-.02-.04.01-.08.02-.12.02-.05.05-.12.08-.21.09-.09.01-.25-.01-.47-.07-.22-.06-.53-.18-.93-.37-.68-.3-1.36-.57-2.04-.81-.87-.26-1.68-.59-2.44-1-.76-.41-1.43-1.03-2-1.86-.57-.83-1.01-2.02-1.32-3.57-.19-1.22-.21-2.74-.05-4.55.15-1.82.43-3.53.83-5.13.4-1.6.87-2.69,1.41-3.25.23-.21.48-.55.74-1.02.38-.68,1.04-1.58,2-2.69.96-1.11,2.55-2.42,4.78-3.92l1.48-.95s.22-.02.51-.05.63-.06,1.02-.09c.39-.02.74-.01,1.07.04.33.05.55.16.67.35.14.16.26.25.35.25s.16-.06.21-.19c.05-.13.09-.28.14-.44.07-.16.13-.32.19-.46s.13-.21.23-.21c.14.02.28-.04.42-.18s.28-.29.42-.46c.21-.23.42-.42.62-.56s.39-.13.58.04c.07.07.13.11.18.11s.09-.02.12-.07c.04-.05.06-.09.09-.14.02-.07.05-.12.09-.16s.08-.05.14-.04c.06.01.13.08.23.19ZM155.43,33.57c-.05-.12-.23-.32-.54-.62-.32-.29-.66-.58-1.04-.86s-.71-.47-1.02-.58-.48-.02-.53.26c-.02.23-.12.4-.28.51s-.34.19-.53.26c-.14.05-.26.1-.37.16-.11.06-.18.14-.23.23-.09.16-.35.38-.77.63-.45.26-.92.6-1.42,1.02s-.91.97-1.21,1.65c-.07.21-.2.43-.39.67-.19.23-.39.54-.62.91-.22.38-.43.88-.62,1.51-.02.02-.07.11-.14.25-.23.49-.54,1.34-.91,2.55-.38,1.21-.49,2.57-.35,4.1.12.8.24,1.4.37,1.81.13.41.25.69.37.83s.23.2.35.18c.12-.02.23-.07.35-.14.07-.02.13-.05.18-.07,1.12-.47,2.61-1.37,4.45-2.71s3.51-2.72,5.01-4.15c1.5-1.43,2.3-2.53,2.39-3.3l-.14-2.07-2.36-3.02Z"/>
      <path class="cls-1" d="M190.42,27.84c.07-.21.16-.33.28-.35.12-.02.26,0,.42.07.26.12.6.16,1.02.14.3-.05.68.02,1.12.21.45.19.89.4,1.34.63.4.21.77.4,1.11.56.34.16.64.25.9.25.09,0,.16.04.21.11s.09.15.14.25c.05.12.11.23.19.35.08.12.21.21.37.28.35.16.45.43.3.79-.15.36-.4.78-.76,1.25-.38.52-.67,1.02-.88,1.51-.23.68-.56,1.4-.97,2.16-.41.76-.8,1.46-1.18,2.09-.56.89-.84,1.42-.84,1.58,0,.4-.23.94-.69,1.63-.46.69-.91,1.32-1.35,1.88l-.53.7c-.14.19-.21.3-.21.35,0,.07-.06.21-.18.4-.12.2-.26.43-.42.69-.26.4-.5.8-.72,1.21-.22.41-.33.73-.33.97,0,.07-.02.12-.07.14-.05.02-.11.06-.18.11-.09.02-.19.08-.3.18-.11.09-.18.25-.23.46-.09.35-.32.84-.67,1.46-.35.62-.73,1.23-1.12,1.81-.26.4-.47.75-.65,1.05-.18.3-.26.49-.26.56,0,.05-.06.16-.19.35-.13.19-.3.42-.51.7-.45.61-.9,1.29-1.37,2.04s-.7,1.32-.7,1.72l-2.04,3.41-2.11,3.76c-.14.28-.27.48-.39.6-.12.12-.22.18-.32.19-.09.01-.16.02-.21.02h-.05s-.01.01,0,.04c.01.02.03.07.05.14.05.16.02.29-.07.39-.09.09-.21.18-.35.25-.07.05-.14.09-.21.14-.07.05-.12.12-.14.21-.07.26-.19.51-.37.76s-.38.47-.62.69c-.21.23-.4.46-.58.69-.18.22-.26.46-.26.72,0,.16-.01.29-.04.37-.02.08-.05.13-.07.14-.02.01-.06.02-.11.02s-.1.01-.16.04c-.06.02-.12.09-.19.19s-.14.29-.21.54c-.07.21-.21.49-.4.84s-.42.65-.67.9-.47.31-.69.19c-.05-.02-.07,0-.07.07v.28c.02.09.03.19.02.28-.01.09-.03.16-.05.21-.02.05-.08.05-.18,0-.02-.02-.08,0-.16.05-.08.06-.17.15-.26.26-.21.21-.47.43-.77.67-.3.23-.67.35-1.09.35-.21,0-.45.08-.7.23-.26.15-.5.31-.74.47-.23.16-.43.29-.6.37-.16.08-.25.05-.25-.09,0-.02-.05-.04-.14-.05-.09-.01-.2-.02-.32-.02s-.23.01-.33.04c-.11.02-.16.07-.18.14s.05.15.19.25c.12.09.17.18.16.26-.01.08-.05.14-.12.18s-.15.04-.23,0-.15-.12-.19-.26c-.05-.16-.1-.23-.16-.19s-.12.11-.19.23c-.07.09-.15.18-.23.26-.08.08-.17.12-.26.12l-.77.77-1.69.84-2.99.32-1.16-.25c0-.16-.08-.25-.25-.26-.16-.01-.35,0-.56.02-.16.05-.3.06-.42.05-.12-.01-.15-.08-.11-.19.02-.12-.02-.21-.14-.28s-.27-.13-.46-.18c-.28-.09-.52-.22-.72-.37-.2-.15-.26-.37-.19-.65l-.53-.91c.14,0,.21-.04.19-.11s-.05-.15-.12-.25c-.09-.09-.16-.19-.19-.28-.04-.09,0-.18.12-.25.14-.07.36-.08.65-.04.29.05.59.11.9.18.3.09.57.16.79.19s.33,0,.33-.12c0-.21.09-.38.28-.49.19-.12.39-.21.6-.28.16-.07.29-.14.37-.19.08-.06.1-.12.05-.19,0-.02.04-.06.12-.11.08-.05.19-.09.33-.14.21-.09.43-.2.67-.32.23-.12.35-.28.35-.49l3.62-5.38c.14-.19.26-.32.35-.39s.16-.12.21-.14c.05-.02.08-.05.11-.07.02-.02.04-.08.04-.18l3.09-4.32c.09,0,.18-.09.26-.26s.18-.39.3-.65c.21-.66.59-1.31,1.12-1.97l2.85-3.83,3.76-5.06c.16-.14.25-.26.25-.35s-.05-.16-.14-.21c-.09-.05-.19-.07-.3-.07s-.18.01-.23.04c-.26.14-.42.2-.49.18-.07-.02-.08-.09-.04-.21.05-.12.12-.26.21-.42.12-.19.22-.38.3-.58.08-.2.08-.35-.02-.44-.19-.16-.42-.16-.69,0-.27.16-.51.34-.72.53-.12.12-.22.21-.3.26-.08.06-.13.06-.16.02-.02-.09-.08-.13-.18-.12-.09.01-.19.05-.28.12s-.14.16-.14.28c0,.09-.08.16-.23.19s-.32.05-.51.05c-.14,0-.28.01-.4.04-.13.02-.22.06-.26.11-.02.05-.04.08-.05.11-.01.02-.02.03-.04.02-.01-.01-.02-.03-.02-.05,0-.07-.01-.11-.04-.12-.02-.01-.06-.01-.11,0-.05.01-.11.04-.18.09-.45.23-1.25.22-2.41-.05-1.16-.27-2.29-.73-3.39-1.39-1.1-.66-1.8-1.43-2.11-2.32-.26-.98-.41-1.73-.46-2.25-.05-.52-.02-.9.07-1.16.09-.26.21-.48.35-.67.09-.14.19-.3.28-.47s.16-.42.21-.72c.23-.96.74-2.04,1.53-3.25.79-1.21,1.47-2.17,2.06-2.9.3-.42.47-.66.49-.7.09-.28.57-.94,1.44-1.97.87-1.03,1.9-2.17,3.09-3.43,1.2-1.25,2.31-2.37,3.36-3.36s1.79-1.56,2.23-1.72c.12-.05.22-.08.3-.11.08-.02.15-.05.21-.09s.11-.06.16-.09c.05-.02.09-.04.12-.05.04-.01.06-.02.07-.04l.05-.05s.04.04.05.04.02,0,.04.02c.01.01.04.02.07.04.04.01.08.02.12.04.05.01.1.03.16.05.06.02.13.04.21.05.08.01.17.03.26.05.09.02.21.04.33.05.13.01.27.03.42.05.15.02.32.05.49.07.18.02.37.05.58.07.68.07,1.35.26,2,.56.66.3,1.02.6,1.09.88.05.28.21.5.47.67.27.16.58.32.93.46.4.14.74.32,1.02.53s.39.49.32.84c-.05.19-.05.35,0,.49s.11.27.18.39c.07.12.12.24.14.37.02.13-.04.28-.18.44-.26.3-.41.54-.46.7-.07.16-.15.29-.25.37-.09.08-.32.12-.67.12-.26,0-.52-.09-.79-.26s-.54-.38-.83-.62c-.45-.4-.93-.71-1.44-.93-.52-.22-1.08-.15-1.69.23l-1.69,1.23-2.29,2.5-4.61,6.82s-.05.13-.14.32c-.09.19-.22.42-.39.7-.28.52-.58,1.08-.9,1.69-.32.61-.54,1.14-.69,1.6s-.07.69.21.69c.45,0,1.63-.63,3.55-1.9s3.82-2.54,5.7-3.83c1.71-1.17,2.89-1.97,3.55-2.39.28-.19.67-.66,1.18-1.41.5-.75,1.01-1.59,1.53-2.51.52-.93.95-1.76,1.3-2.51.35-.75.53-1.22.53-1.41,0-.26.02-.44.07-.54s.11-.18.19-.21.18-.05.3-.05c.14.02.29,0,.44-.07s.29-.25.4-.53ZM162.43,78.33s.08-.01.11-.04c.02-.02.04-.06.04-.11l-.14.14ZM166.9,76.25s.08-.02.11-.05.04-.06.04-.09l-.14.14ZM174.74,52.7c.05-.12.1-.19.16-.21.06-.02.11-.02.16.02s.06.08.05.12c-.01.05-.08.09-.19.14-.14.07-.2.05-.18-.07Z"/>
      <path class="cls-1" d="M230,33.75c-.19.28-.42.53-.7.76-.28.22-.54.4-.77.54-.16.12-.29.21-.39.28s-.12.13-.07.18c.12.09.16.16.12.19s-.11.05-.21.05h-.56c-.06,0-.08.01-.05.04.12.14.13.42.04.83-.09.41-.25.86-.46,1.35s-.44.9-.69,1.21-.46.45-.65.4c-.12-.05-.23-.06-.33-.04-.11.02-.21.06-.3.11-.14.07-.28.09-.42.07-.14-.02-.32-.16-.53-.42-.84-1.17-1.45-2.35-1.83-3.53-.38-1.18-.6-2.06-.67-2.62-.05-.19-.07-.3-.07-.35-.07-.12-.23-.05-.49.19s-.54.57-.84.97c-.3.4-.59.76-.84,1.09-.23.33-.4.54-.49.63l-6.4,8.47c0,.07-.02.12-.05.16s-.09.08-.16.12c-.09.05-.21.14-.33.28s-.28.39-.44.74c-.23.45-.61.95-1.12,1.51-.73.75-1.3,1.58-1.72,2.5l-2.18,3.59c0,.09-.02.14-.05.14h-.16s-.09-.04-.14-.04-.09.02-.14.07c-.05.05-.08.14-.11.28-.05.16-.11.27-.18.32-.07.05-.14.08-.21.11-.02,0-.05,0-.07.02-.02.01-.04.04-.04.09.05.54-.16,1.01-.62,1.42-.46.41-.93.76-1.42,1.04-.38.23-.63.43-.77.6l-2.11.28c-.45-.12-.79-.21-1.04-.28s-.43-.13-.54-.18c-.12-.05-.2-.09-.25-.12s-.07-.06-.07-.09c-.02-.05-.06-.1-.12-.16-.06-.06-.18-.13-.35-.21-.18-.08-.44-.19-.79-.33-1.43-.59-2.31-1.29-2.64-2.11-.33-.82-.36-1.63-.11-2.43.26-.8.54-1.45.84-1.97.14-.26.23-.44.28-.56.19-.82.49-1.65.9-2.5s.84-1.69,1.28-2.53c.56-.98,1.04-1.92,1.44-2.81l8.09-15.22c.7-1.2,1.46-1.75,2.27-1.65.81.09,1.51.55,2.09,1.37.59.82.88,1.68.88,2.57,0,.4-.06.76-.19,1.09-.13.33-.28.65-.44.95-.26.49-.46,1.07-.6,1.72l-1.79,5.13-1.93,5.34c-.49.84-.36.88.4.11s2-2.2,3.71-4.29c2.37-2.86,4.12-4.97,5.27-6.33,1.15-1.36,2.19-2.58,3.13-3.66.73-.8,1.29-1.43,1.71-1.9.41-.47.71-.82.9-1.05.19-.23.31-.43.37-.58.06-.15.1-.32.12-.51.05-.23.1-.4.16-.51s.11-.17.16-.19c.05-.02.09-.04.14-.04s.09,0,.12-.02c.04-.01.06-.05.07-.12s.02-.18.02-.32c0-.19.05-.32.14-.39s.21-.13.35-.18c.12-.02.22-.07.32-.14s.14-.19.14-.35c0-.12.16-.23.47-.35.32-.12.72-.15,1.21-.11.49.05,1.02.23,1.58.56l.98.21c.35.23.68.4.98.49.35.12.68.29.98.53.3.23.63.67.98,1.3.07.14.13.26.18.35.12.21.2.38.25.49.05.12.07.25.07.39s-.01.35-.04.63c0,.28-.01.68-.04,1.2-.07,1.81-.3,3.09-.69,3.87s-.78,1.32-1.18,1.65c-.21.19-.4.39-.56.6Z"/>
      <path class="cls-1" d="M227.96,40.75c2.02-3.07,4.31-6.21,6.87-9.4s5.24-5.83,8.03-7.89c.47.42.84.73,1.11.93.27.2.48.33.63.39.15.06.3.09.44.09.14.02.29.05.44.09s.36.12.62.26c.19.09.36.18.53.25.59.26,1.07.56,1.46.9.39.34.81.97,1.28,1.88.07.12.13.23.18.35.14.3.28.52.42.63.14.12.36.09.67-.09s.75-.57,1.34-1.18l1.55-1.41c.12-.23.4-.64.84-1.23.38-.47.73-.95,1.07-1.44s.54-.89.62-1.2c.07-.4.22-.59.46-.56.23.02.5.12.81.28.26.14.49.24.7.3.21.06.38,0,.49-.19.07-.09.3-.11.69-.04s.83.21,1.32.42.94.47,1.34.79.63.69.7,1.11c.14,1.08.12,1.88-.07,2.41s-.36.88-.53,1.07c-.09.12-.14.21-.14.28,0,.23-.14.6-.42,1.09s-.55.94-.81,1.34c-.23.38-.36.6-.39.67l-3.06,5.94c0,.23-.06.46-.19.69-.13.22-.28.45-.44.69-.47.56-.79,1.27-.95,2.11l-2.5,6.64c-.21.26-.34.57-.39.93-.05.36-.06.67-.04.93,0,.14,0,.23-.02.28-.01.05-.04.01-.09-.11-.16-.33-.29-.43-.39-.32-.09.12-.17.35-.23.7s-.09.73-.11,1.12c-.01.4-.02.73-.02.98l-1.27.04c-.16.16-.43.19-.79.09s-.75-.29-1.16-.56c-.41-.27-.76-.54-1.05-.83s-.44-.48-.44-.6c0-.28-.06-.54-.18-.77-.12-.23-.25-.44-.39-.63-.16-.21-.3-.42-.4-.63s-.16-.44-.16-.7c0-.02-.01-.07-.04-.14-.07-.12-.14-.49-.21-1.12s-.06-1.7.04-3.2l.11-1.3-.81.21s.06-.09.12-.19.11-.22.14-.33c.04-.12.04-.2.02-.25-.02-.05-.1-.04-.23.04s-.33.23-.62.49c-.26.23-.45.39-.58.47-.13.08-.22.14-.26.16-.05,0-.08,0-.09.02-.01.01-.02.03-.02.05v.14s-.04.14-.04.28c-.02.05-.2.21-.53.49-.26.23-.55.51-.88.83s-.62.62-.86.91c-.25.29-.37.51-.37.65,0,.07-.02.11-.07.12-.05.01-.09.02-.14.02-.07,0-.13,0-.19.02-.06.01-.11.05-.16.11-.05.06-.07.16-.07.3,0,.23-.09.4-.26.49-.18.09-.35.16-.51.21-.09.05-.18.08-.25.11-.07.02-.08.07-.04.14.07.16.05.33-.05.49-.11.16-.26.32-.46.46s-.39.27-.58.39c-.12.07-.21.13-.28.18-.07.05-.11.08-.11.11,0,.12-.25.43-.76.95-.5.52-1.1,1.07-1.79,1.65-.69.59-1.34,1.1-1.95,1.55-.61.45-1.02.67-1.23.67-.09,0-.16.02-.19.05s-.05.06-.05.09-.01.05-.04.07c-.02.02-.05.04-.07.04h-.14l-.91.42s-.08.05-.18,0c-.09-.05-.2-.11-.32-.18-.12-.05-.22-.09-.32-.14-.09-.05-.16-.05-.19-.02s-.02.14.05.3c.05.09.04.15-.02.16-.06.01-.18-.03-.37-.12-.07-.02-.13-.04-.18-.04h-.14s-.1,0-.16-.02c-.06-.01-.13-.05-.21-.11-.08-.06-.19-.16-.33-.3-.28-.26-.67-.49-1.18-.7s-.98-.4-1.42-.56c-.26-.09-.47-.18-.63-.25s-.25-.12-.25-.14c0-.07-.11-.21-.32-.42-.16-.19-.34-.4-.53-.65s-.28-.49-.28-.72c0-.66.29-1.68.88-3.08.59-1.39,1.22-2.74,1.92-4.03.69-1.29,1.21-2.19,1.56-2.71ZM246.91,31.25c-.12-.12-.25-.27-.39-.46-.23-.33-.5-.58-.81-.76s-.69-.09-1.16.26c-.14.09-.29.18-.46.25-.19.09-.47.27-.84.53-.38.26-.91.73-1.62,1.41-.21.19-.43.39-.67.6-.45.4-.88.81-1.3,1.25-.42.43-.73.84-.91,1.21-.07.19-.13.32-.19.4-.06.08-.11.13-.16.14-.05.01-.08.02-.11.02-.02-.02-.05-.03-.09-.02-.04.01-.07.04-.11.09-.04.05-.08.12-.12.21l-4.15,6.12c-.3.49-.64.9-1.02,1.23-.23.21-.45.43-.63.67-.19.23-.34.53-.46.88v1.12l1.58-1.2c.16,0,.38-.15.63-.46.19-.21.42-.42.7-.62.28-.2.6-.32.95-.37.35-.05.8-.28,1.35-.7s1.09-.89,1.62-1.41c.53-.52.92-.93,1.18-1.23l.25-.25,5.45-5.1s.08-.08.25-.18c.33-.19.71-.48,1.14-.88.43-.4.66-.89.69-1.48,0-.05.01-.08.04-.11.02-.02.05-.05.07-.07.05-.02.08-.06.11-.11.02-.05.02-.11,0-.18s-.1-.17-.23-.3c-.13-.13-.32-.31-.58-.54ZM244.27,43c-.28.16-.29.12-.04-.14l.04.14Z"/>
      <path class="cls-1" d="M279.57,47.67c-.28,0-.55.1-.81.3-.26.2-.5.4-.74.62-.16.14-.3.26-.42.35-.12.09-.22.14-.32.14-.75-.07-1.29-.06-1.62.04-.33.09-.56.21-.7.35-.09.07-.19.13-.28.18-.09.05-.21.07-.35.07l-4.54.81-.21.25-.53-.04c.09-.14.1-.26.02-.35-.08-.09-.21-.15-.39-.18-.18-.02-.35,0-.53.09-.18.08-.29.24-.33.47l-1.65.91.49-.91c-.07-.16-.14-.24-.21-.23-.07.01-.15.05-.25.12-.09.09-.22.18-.39.25-.38.14-.86.79-1.44,1.93-.59,1.15-1.15,2.36-1.69,3.62-.38.87-.7,1.58-.98,2.14s-.47.82-.56.77l-.35,1.51-1.93,4.39-2.88,6.54c-.09.37-.26.73-.49,1.05-.12.16-.22.33-.32.51s-.14.36-.14.54c0,.28-.06.53-.19.74s-.28.42-.44.63c-.3.35-.54.77-.7,1.27l-3.27,7.1-.88,1.62c-.45.19-.74.44-.9.76s-.22.64-.21.97c.01.33.04.6.09.81.02.14.03.23.02.26s-.05,0-.12-.12c-.16-.19-.28-.28-.35-.28s-.11.05-.12.16-.01.23,0,.39c.01.15.03.28.05.37l-1.48.11c-.07.05-.13.08-.19.11-.06.02-.1.02-.12,0v-.04s-.13-.01-.32-.04c-.38-.05-.85-.16-1.42-.33s-1.04-.5-1.39-.97c-.19-.3-.27-.55-.25-.74.02-.19.09-.33.21-.44s.22-.18.32-.23c.05-.02.08-.05.09-.07.01-.02,0-.04-.05-.04h-.25c-.21,0-.25-.35-.12-1.04.13-.69.35-1.52.65-2.48.3-.96.62-1.89.93-2.79.32-.9.57-1.6.76-2.09.12-.3.18-.47.18-.49l6.36-13.11,1.05-3.16.39-2.21,1.58-3.06c.21-.4.36-.71.46-.93.09-.22.14-.4.14-.53s-.02-.24-.07-.33c-.02-.09-.03-.2-.02-.32.01-.12.07-.29.18-.51.11-.22.3-.53.58-.93l7.35-15.12,1.05-2.64c.07-.02.22-.28.44-.76.22-.48.51-1.1.86-1.85.42-.91.86-1.85,1.32-2.79s.86-1.73,1.21-2.34c.35-.61.59-.86.7-.74.07.14.18.19.33.16s.3-.13.44-.3c.16-.16.38-.22.63-.18.26.05.54.14.84.28.28.09.55.18.81.25s.48.06.67-.04c.12-.07.21-.11.26-.12.06-.01.1-.01.12,0,.02.01.05.04.07.09,0,.02.03.06.09.11.06.05.14.08.25.09.11.01.27.01.49,0,.22-.01.51-.06.86-.16.35-.09.8-.22,1.34-.39,2.11-.66,4.41-1.03,6.91-1.12,2.5-.09,4.92.15,7.28.74,2.36.59,4.37,1.55,6.03,2.88.59.47,1.01.85,1.27,1.14.26.29.42.6.49.91s.11.77.11,1.35c-.02,1.24-.23,2.19-.63,2.83-.4.65-.86,1.18-1.37,1.6-.47.38-.88.82-1.23,1.34l-5.13,4.29c-.45.42-.81.72-1.09.88-.28.16-.54.28-.77.35-.21.09-.47.23-.79.42-.32.19-.72.5-1.21.95l-4.15,2.29-2.46,1.34ZM248.46,85.78s.08-.02.11-.05.04-.08.04-.12l-.14.18ZM257.35,63.07s.09-.02.12-.05.05-.06.05-.09l-.18.14ZM266.49,51.57s-.07.09-.14.14l.14-.14ZM275.7,40.82l4.46-2.85,4.5-2.67c.12,0,.28-.15.49-.44.21-.29.45-.63.7-1,.23-.37.46-.7.67-.98s.38-.42.49-.42c.02,0,.22-.12.58-.37s.77-.54,1.23-.9.87-.7,1.25-1.05.62-.65.72-.9-.04-.37-.44-.37c-.07,0-.18-.04-.32-.11-.3-.21-1.02-.42-2.14-.63s-2.86-.2-5.2.04c-1.2.16-2.46.51-3.78,1.04s-2.43,1.1-3.32,1.71c-.96.63-1.65,1.15-2.07,1.55-.42.4-.7.73-.83,1-.13.27-.21.51-.23.72,0,.14-.02.29-.07.44-.05.15-.14.32-.28.51-.07.12-.3.63-.7,1.53-.4.9-.83,1.93-1.28,3.08-.46,1.15-.82,2.16-1.09,3.04s-.29,1.32-.05,1.32c.05,0,.22-.05.51-.14.29-.09.63-.21,1-.35.8-.33,1.39-.59,1.79-.77.4-.19.69-.33.86-.42.18-.09.33-.2.47-.32.12-.12.32-.27.62-.46.29-.19.78-.46,1.46-.81ZM270.01,50.38s.04-.02.05-.05.02-.08.02-.12l-.07.18ZM275.63,50.03c0-.07.03-.13.09-.19.06-.06.12-.11.19-.14s.13-.05.18-.05.06.03.04.09c-.02.06-.09.15-.21.26-.12.12-.19.18-.23.18s-.05-.05-.05-.14ZM276.76,49.64c-.28.05-.38.04-.28-.04l.28.04Z"/>
      <path class="cls-1" d="M293.92,49.96s-.05-.05-.07-.07c-.14-.14-.25-.25-.33-.32s-.13-.12-.16-.16-.03-.06-.02-.07c.01-.01.04-.03.09-.05.05-.02.1-.06.16-.12.06-.06.12-.16.18-.32.06-.15.09-.37.09-.65l.14-1.48c-.07-.44.01-.96.25-1.55.23-.59.52-1.18.84-1.79.38-.75.64-1.38.81-1.9.26-.94,1-2.61,2.23-5.01,1.23-2.4,2.49-4.74,3.78-7.01,1.29-2.27,2.13-3.7,2.53-4.29.49-.63.84-1.14,1.05-1.51.21-.37.33-.66.35-.86.02-.2.02-.37,0-.51,0-.09,0-.19.02-.3s.08-.24.19-.4l2.57-4.15.42-.88,4.75-7.88c.12-.12.32-.43.62-.93.29-.5.64-1.12,1.04-1.85.52-.96,1.05-1.9,1.6-2.83.55-.93,1.01-1.62,1.39-2.09.21-.28.34-.49.39-.63.05-.07.08-.12.11-.14.02-.02.05-.01.09.04.04.05.1.13.19.25h.04c.21.26.54.53.98.81.35.23.67.48.97.74.29.26.49.54.58.84.02.35-.18,1.16-.6,2.43s-.93,2.67-1.51,4.2c-.59,1.54-1.12,2.87-1.62,3.99s-.77,1.72-.84,1.79l-.46,1.05c-.19.23-.31.43-.37.58-.06.15-.09.28-.09.37-.02.09-.05.17-.09.23-.04.06-.1.12-.19.19l-2.07,4.78-.7,1.62-2,4.22c-.12.14-.21.31-.26.51-.06.2-.1.4-.12.62-.02.19-.06.35-.11.47-.05.13-.12.21-.21.23l-1.51,3.38c-.07.02-.15.12-.23.3s-.17.4-.26.69c-.23.73-.57,1.44-1.02,2.14l-2.18,4.39-1.44,2.88c-.07,0-.13.02-.18.07-.05.05-.08.09-.11.12s-.02.06.02.07c.04.01.11-.01.21-.07.11-.06.27-.16.49-.32.22-.15.5-.37.84-.65s.76-.64,1.25-1.09l1.86-1.48c.14-.14.47-.5.98-1.09.8-.94,1.9-2.18,3.32-3.73s2.98-3.12,4.69-4.71c1.71-1.59,3.41-2.93,5.1-4.01,1.69-1.08,3.21-1.62,4.55-1.62s2.36.81,3.04,2.43c.3.91.28,1.82-.09,2.72-.36.9-.72,1.61-1.07,2.13-.16.28-.26.46-.28.53,0,.16-.13.5-.39,1-.26.5-.56,1.07-.91,1.71-.38.63-.7,1.21-.97,1.74s-.4.88-.4,1.07l-2.74,7.21c.02.16,0,.3-.05.42-.06.12-.13.22-.23.32-.12.14-.21.29-.28.46-.07.16-.11.39-.11.67l-3.34,6.89c-.07.02-.12.06-.14.12-.02.06-.02.12,0,.19,0,.12-.01.23-.04.35-.02.12-.12.2-.28.25-.05,0-.15.07-.3.21s-.29.33-.42.58-.18.53-.16.86c.05.37,0,.66-.12.84-.13.19-.3.31-.53.37-.22.06-.45.08-.67.07-.22-.01-.41-.03-.56-.05-.15-.02-.23-.05-.23-.07l-1.83-.39c-.02-.12-.14-.27-.35-.46-.45-.33-.87-.94-1.28-1.83s-.42-2.29-.02-4.18c.07-.4.14-.75.21-1.05.09-.59.26-1.21.49-1.88s.7-1.65,1.41-2.94c.42-.84.66-1.58.72-2.21s.05-1.21-.02-1.72c-.09-.56-.08-1.07.04-1.51.05-.19.04-.28-.02-.26-.06.01-.16.09-.3.23s-.3.32-.49.53c-.3.35-.62.69-.95,1.02-.33.33-.61.5-.84.53l-.46.74c-.02-.09-.07-.15-.14-.16-.07-.01-.13.01-.19.07-.06.06-.09.14-.09.23.02.28-.01.48-.11.6-.09.12-.19.19-.28.21-.07.05-.13.09-.18.14-.05.05-.06.12-.04.21l-.88,1.23c-.35.21-.57.39-.65.53s-.13.27-.16.39c0,.07-.02.14-.07.19-.05.06-.14.11-.28.16-.28.09-.49.18-.62.25s-.21.15-.25.23c-.04.08-.05.17-.05.26s-.02.19-.05.3-.12.22-.25.33c-.13.12-.32.25-.58.39-.05.02-.15.13-.32.32-.19.21-.41.45-.67.7-.26.26-.49.46-.69.6s-.31.14-.33,0c0-.14-.04-.19-.11-.14-.07.05-.18.14-.32.28-.19.19-.42.38-.69.58-.27.2-.58.35-.93.44-.14.02-.32.07-.53.14-.35.12-.69.21-1.02.26-.33.06-.56,0-.7-.16-.05-.07-.09-.09-.14-.07-.05.02-.09.06-.14.11-.07.05-.13.08-.18.11-.05.02-.11.02-.18,0-.09,0-.52-.03-1.27-.09-.75-.06-1.59-.22-2.53-.47-.94-.26-1.76-.68-2.46-1.27ZM301.09,30.02c-.02.07-.06.12-.11.16s-.09.05-.12.05-.06-.04-.09-.11l.32-.11ZM301.44,28.97c-.19.47-.29.56-.32.28l.32-.28ZM303.9,24.96c0-.12.02-.19.05-.21.04-.02.08-.02.12,0,.05.02.07.06.07.12s-.04.12-.11.19c-.05.02-.08.02-.11,0-.02-.02-.04-.06-.04-.11Z"/>
      <path class="cls-1" d="M368.69,21.8c.16.09.39.19.67.28.38.14.76.3,1.14.49.39.19.64.42.76.7s-.01.63-.39,1.05c-.07.07-.22.36-.46.88-.21.52-.47,1.11-.79,1.78s-.64,1.27-.97,1.79-.62.85-.88.97c-.26.09-.95,1.08-2.07,2.97-1.12,1.89-1.75,3.02-1.86,3.39-.09.4-.26.88-.49,1.44s-.6,1.17-1.09,1.83c-.38.52-.64.94-.81,1.27-.12.28-.23.47-.35.56-.12.09-.29.08-.53-.04-.23-.12-.39-.13-.47-.05-.08.08-.15.24-.19.47-.05.21-.12.44-.23.69s-.28.5-.51.76c-.16.19-.29.34-.37.46-.08.12-.13.21-.16.28-.02.09-.06.16-.11.21-.05.05-.14.09-.28.14-.07.02-.15.11-.23.26-.08.15-.17.32-.26.51-.12.23-.23.46-.35.67s-.25.35-.39.4c-.14.06-.28,0-.42-.16l-.07.25c.14,0,.21.09.19.26s-.06.38-.16.62c-.09.23-.22.45-.37.63-.15.19-.3.3-.44.35-.05.02-.09.09-.14.21-.05.12-.11.26-.18.42-.07.21-.15.42-.25.62-.09.2-.19.35-.28.44-.09.09-.19.11-.28.04-.02-.05-.03-.09-.02-.12s.04-.08.09-.12c.05-.07.08-.14.09-.21s-.03-.15-.12-.25c-.09-.07-.17-.09-.23-.05s-.11.09-.14.16-.06.14-.07.21,0,.11.05.11c.14,0,.22.11.23.32s-.04.42-.14.62c-.11.2-.26.3-.47.3-.02,0-.11.19-.25.56-.14.38-.31.8-.51,1.27-.2.47-.41.9-.63,1.28s-.43.64-.62.76l-1.05,1.62-1.51,2.25-1.37,2.5-1.41,2.71-1.65,2.99c-.14.02-.3.16-.47.4s-.35.53-.53.84-.32.6-.42.84-.17.38-.19.4c-.09.4-.19.7-.28.91s-.19.36-.28.44c-.09.08-.18.13-.25.14-.07.01-.13,0-.18-.02-.05-.02-.08-.03-.11-.02-.02.01-.04.05-.04.12s.01.2.04.39c.05.19.05.32.02.4-.04.08-.08.13-.14.14-.06.01-.12,0-.19-.02-.09-.02-.18-.03-.25-.02-.07.01-.12.06-.16.16-.04.09-.04.27-.02.53.02.21.03.37.02.47s-.04.17-.09.19c-.05.02-.09.05-.14.07-.09,0-.19.04-.28.12-.09.08-.19.26-.28.54-.05.14-.12.23-.21.26s-.19.06-.28.09c-.05,0-.09.01-.14.04-.05.02-.07.06-.07.11,0,.21-.13.43-.4.65-.27.22-.55.42-.84.6s-.49.28-.58.3v.04l-.88,1.51-.46.35-.53.49c-.12.07-.2.13-.25.19-.05.06-.07.12-.07.19v.18c.02.07.03.11.02.12-.01.01-.06,0-.16-.02l-.81,1.65-2.21,2.43c-.05.19-.09.31-.12.37-.04.06-.06.07-.09.04s-.05-.09-.07-.16c-.02-.09-.05-.17-.09-.23-.04-.06-.09-.08-.16-.05l-.42,1.12s-.05-.01-.07-.04c-.02-.02-.05-.06-.07-.11-.02-.05-.05-.09-.09-.14-.04-.05-.08-.06-.14-.05-.06.01-.13.07-.21.18s-.18.28-.3.51c-.21.44-.32.55-.32.32-.02-.28-.13-.42-.33-.42s-.47.05-.83.14c-.28.07-.59.13-.91.18.02-.49.06-.87.12-1.14.06-.27.11-.46.16-.58.02-.12.04-.2.04-.25s-.05-.11-.14-.18c-.12-.07-.19-.12-.21-.16s-.02-.07,0-.11.06-.06.11-.09c.05-.02.09-.06.14-.11.05-.05.08-.11.09-.19.01-.08-.02-.19-.09-.33-.14-.4-.16-.83-.05-1.28s.28-.87.51-1.25c.23-.38.45-.63.65-.77s.3-.09.3.14c0,.07.08.11.25.12.16.01.35.01.54,0,.2-.01.36-.05.47-.12s.14-.16.07-.28c-.07-.12-.29-.27-.67-.46l-.74-.81s.18-.41.39-1.09c.23-.82.38-1.35.42-1.58.02-.09.04-.16.05-.19s.02-.05.04-.05.02.01.02.04c0,.05.01.09.04.14.02.05.06.08.11.09.05.01.12-.02.21-.09l1.16-3.38c-.21,0-.38.09-.49.26s-.21.36-.28.54c-.05.12-.09.21-.12.26-.04.06-.08.08-.12.05l-.07.63c-.09.37-.18.57-.25.6-.07.02-.13-.05-.18-.23s-.07-.39-.07-.63.02-.46.07-.65c.05-.19.14-.27.28-.25.21-.16.38-.31.49-.44.12-.13.22-.27.32-.42.09-.15.14-.29.14-.42s-.08-.24-.25-.33c-.07-.07-.03-.23.12-.47s.36-.56.62-.93c.35-.47.67-.94.95-1.41.28-.47.4-.86.35-1.16-.05-.23-.05-.39-.02-.47.04-.08.09-.13.18-.14.08-.01.16,0,.23.02h.16s.05-.01.05-.04-.02-.08-.07-.18c-.09-.28.04-.84.39-1.67.35-.83.76-1.69,1.23-2.58.3-.56.56-1.07.77-1.51.21-.45.33-.77.35-.98.05-.28.15-.6.32-.95s.35-.7.56-1.05c.35-.61.56-1.09.63-1.44.12-.49.26-.88.42-1.16.12-.21.18-.36.19-.46.01-.09-.09-.14-.3-.14-.38,0-.76-.13-1.16-.39-.56-.33-1.38-.57-2.46-.74-1.73-.26-3-1.02-3.8-2.3-.8-1.28-1.27-2.72-1.41-4.32-.14-1.6-.09-3.04.14-4.31s.53-2.04.88-2.32c.09-.05.14-.11.14-.19s-.01-.17-.04-.26c-.02-.07-.03-.13-.02-.18.01-.05.06-.05.16,0,.09.05.16.08.21.09.05.01.07,0,.07-.02s-.01-.05-.04-.07c-.05-.07-.09-.16-.12-.28-.04-.12-.03-.27.02-.46.09-.23.28-.55.56-.95.21-.3.42-.62.62-.93s.3-.59.3-.83c0-.37.08-.71.23-1,.15-.29.31-.53.47-.72.21-.26.32-.47.32-.63,0-.07.12-.33.35-.79s.52-.97.84-1.53.65-1.05.97-1.48.57-.66.76-.7c.14-.02.24-.05.3-.07.06-.02.09-.04.11-.05.01-.01.01-.02,0-.04l-.05-.05s-.05-.05-.07-.07c-.02-.02-.02-.05.02-.07.04-.02.1-.05.19-.09s.23-.08.42-.12c.19-.05.45-.09.77-.14.4-.05.67-.04.83.04s.26.14.33.21c.05.05.09.09.14.12s.12.03.21-.02l2.64.88c.59.14.8.51.63,1.11s-.5,1.39-1.02,2.37c-.42.77-.83,1.63-1.23,2.58s-.71,1.96-.95,3.04c0,.09-.01.18-.04.25-.28,1.31-.55,2.98-.81,5.01-.26,2.03-.2,3.59.18,4.69.19.45.4.63.65.56s.63-.33,1.14-.77c.28-.23.63-.5,1.05-.81,1.43-1.08,2.51-1.96,3.23-2.64.73-.68,1.22-1.22,1.49-1.62.27-.4.45-.73.54-.98.07-.14.14-.27.21-.39.07-.12.16-.23.28-.35.12-.07.19-.15.21-.23.02-.08.05-.18.07-.3,0-.14.06-.36.19-.67.13-.3.4-.75.83-1.34.56-.8,2.29-3.66,5.17-8.58.82-1.62,1.65-3.11,2.5-4.46.84-1.36,1.56-2.09,2.14-2.18.21-.02.46-.1.74-.23.28-.13.56-.29.84-.47.33-.21.62-.37.86-.47s.37-.04.37.19c0,.14.06.21.18.21s.26-.07.42-.21c.19-.16.52-.26.98-.28.47-.02.93,0,1.37.09.45.08.75.21.91.37.07.09.13.15.19.16.06.01.11,0,.16-.05.05-.05.09-.09.14-.14.05-.07.09-.12.14-.14.05-.02.09-.02.14,0,.05.02.09.11.14.25.09.23.21.36.35.39.14.02.29,0,.46-.07.12-.05.25-.08.39-.09.14-.01.28.02.42.09ZM329.99,75.41c.07-.47.18-.85.32-1.14.14-.29.24-.44.3-.44s0,.2-.19.6l-.53,1.83.11-.84ZM329.88,76.32s.08.01.09.04c.01.02.03.06.05.11l-.14-.14ZM330.13,76.57s-.04.06-.05.04c-.01-.02-.02-.05-.02-.07-.02-.02-.04-.05-.04-.07l.11.11ZM331.25,70.49c0-.12.03-.19.09-.23s.11-.05.16-.04c.05.01.07.05.07.11s-.06.12-.18.19c-.05.02-.08.03-.11.02-.02-.01-.04-.03-.04-.05ZM331.92,84.2c-.05.09-.1.16-.16.21-.06.05-.11.06-.16.04-.05-.02-.06-.08-.04-.18l.35-.07ZM334.31,67.15c.23-.42.33-.7.3-.84s-.13-.16-.28-.07c-.15.09-.3.26-.46.49-.15.23-.23.49-.23.77,0,.09.05.13.14.12.09-.01.19-.06.28-.14.09-.08.18-.19.25-.33ZM336.35,62.02s.09-.01.12-.04c.04-.02.05-.06.05-.11l-.18.14ZM337.26,76.32c.09-.09.17-.18.23-.26.06-.08.09-.15.09-.19l-.32.46ZM338.63,75.06c0,.3.06.27.18-.11l-.18.11ZM341.94,69.26s.08-.02.11-.07c.02-.05.04-.11.04-.18l-.14.25ZM342.43,68.2c-.05.09-.05.18,0,.25s.11.13.18.18c.07.05.14.08.21.09.07.01.11,0,.12-.04s-.03-.1-.12-.19c-.07-.05-.11-.12-.11-.21s.01-.18.04-.25c.05-.12.06-.22.05-.3-.01-.08-.12-.12-.33-.12-.19,0-.3.02-.35.05s-.05.08,0,.14c.05.06.11.11.18.16.05.05.09.09.12.14.04.05.04.08.02.11ZM343.73,58.92s.08-.06.11-.11c.02-.05.04-.08.04-.11l-.14.21ZM343.73,62.02s.08,0,.11-.02c.02-.01.04-.03.04-.05l-.14.07ZM345.56,63.28c.07-.02.13-.06.19-.12.06-.06.09-.11.09-.16,0-.12-.04-.18-.11-.18s-.14.03-.21.09c-.07.06-.13.12-.19.19s-.08.12-.05.16.12.04.28.02ZM345.7,59.31s.08,0,.11-.02c.02-.01.04-.03.04-.05l-.14.07ZM348.55,58.71c.28,0,.34-.06.18-.18-.05-.07-.11-.1-.19-.09-.08.01-.15.04-.19.07s-.06.08-.04.12c.02.05.11.07.25.07ZM348.34,59.17s.04-.02.05-.05.02-.06.02-.09l-.07.14ZM349.15,52.77s.09-.06.12-.11c.04-.05.05-.09.05-.14l-.18.25ZM351.08,53.16s.03-.1.02-.16c-.01-.06-.03-.1-.05-.12l.04.28ZM351.68,51.64s.04-.1.04-.16-.01-.1-.04-.12v.28ZM352.34,53.05s.06-.07.05-.14-.05-.14-.12-.21c-.14-.23-.25-.36-.33-.39-.08-.02-.13.01-.14.11-.01.09,0,.21.04.33.04.13.1.23.19.3s.2.07.32,0ZM353.15,51.47s.05-.01.07-.04c.02-.02.05-.06.07-.11l-.14.14ZM354.03,48.02c.28,0,.39-.08.32-.25-.07-.12-.16-.18-.26-.18s-.2.04-.28.11-.11.14-.09.21.13.11.32.11ZM354.59,46.83s.05-.03.09-.09c.04-.06.05-.13.05-.23,0-.14-.02-.22-.05-.23-.04-.01-.08,0-.12.05-.05.05-.08.11-.11.18s-.03.14-.02.21.06.11.16.11ZM355.79,47.36c.19-.21.29-.36.32-.44.02-.08-.01-.12-.11-.11-.09.01-.21.06-.33.14-.13.08-.24.18-.33.3-.09.12-.14.23-.14.35,0,.23.2.15.6-.25ZM355.72,44.26l-.07.21s.08-.06.09-.11c.01-.05,0-.08-.02-.11ZM357.34,43.84c.07-.07.11-.13.11-.19s-.04-.11-.11-.16c-.12-.12-.2-.15-.25-.11-.05.05-.07.12-.07.23s.03.19.09.25c.06.06.13.05.23-.02ZM358.81,43.07s.05-.02.09-.05.05-.08.05-.12l-.14.18Z"/>
    </g>
  </g>
</svg>