<?xml version="1.0" encoding="UTF-8"?>
<svg id="Layer_2" data-name="Layer 2" xmlns="http://www.w3.org/2000/svg" viewBox="0 0 217.74 65.09">
  <defs>
    <style>
      .cls-1 {
        fill: #000;
        stroke-width: 0px;
      }
    </style>
  </defs>
  <g id="Layer_3" data-name="Layer 3">
    <g id="posters">
      <path class="cls-1" d="M40.23.7c.16-.07.28-.11.35-.12.07-.01.12,0,.16.04s.06.08.09.12c0,.05.02.08.05.11.04.02.09.02.16,0,.07-.02.18-.08.32-.18.42-.23,1.45-.4,3.09-.51s3.32-.16,5.04-.16,2.91.04,3.57.11c2.48.4,4.35.83,5.61,1.3,1.25.47,2.1.84,2.55,1.12.23.14.41.22.53.25.21.07.57.29,1.07.65.5.36,1.04.78,1.6,1.25.56.47,1.03.91,1.39,1.34s.51.72.44.88c0,.02.02.05.05.09s.1.09.19.16c.21.14.43.33.65.58s.33.58.33,1c0,.12.01.23.04.35.02.12.06.2.11.25.19.21.23.66.12,1.35-.11.69-.28,1.41-.51,2.14s-.48,1.3-.74,1.67c-.16.26-.26.45-.28.58-.02.13,0,.22.05.28.06.06.12.1.19.12.05,0,.08.01.11.04.02.02.02.05,0,.09s-.08.09-.18.16c-.21.16-.56.52-1.05,1.05-.45.49-.9.97-1.37,1.44-.47.47-.8.7-.98.7l-1.58,1.93-.35-.14-2.39,1.48s-.16.14-.35.28c-.3.21-.63.46-.98.76-.35.29-.57.57-.67.83l-1.41.77s-.08,0-.18.07-.2.15-.32.25c-.12.09-.23.18-.33.25s-.19.11-.25.12c-.06.01-.06-.05-.02-.19.05-.12.05-.19.02-.21-.04-.02-.09-.02-.18.02s-.17.09-.26.16c-.07.05-.14.09-.21.12s-.12.05-.14.04c-.02-.01-.02-.05,0-.12.02-.12.03-.18.02-.18s-.04.02-.09.07c-.07.09-.17.19-.3.28-.13.09-.26.15-.4.18l-2.5,1.34-.14.14c-.12.12-.29.28-.53.47-.23.2-.48.36-.74.49-.26.13-.49.17-.7.12-.21-.05-.62.03-1.21.23-.6.2-1.2.45-1.81.74-.61.29-1.04.56-1.3.79l-2.14.91c-.16.02-.28.02-.33,0-.06-.02-.08-.07-.05-.14s.07-.13.14-.19c.07-.06.14-.1.21-.12.21-.05.3-.13.26-.25-.04-.12-.15-.19-.35-.21-.2-.02-.44.07-.72.28-.12.09-.22.16-.3.19s-.15.06-.19.07c-.05.01-.09,0-.14-.02-.02,0-.05,0-.07.02-.02.01-.05.03-.07.05l-.11.11c-.09.12-.33.29-.72.51-.39.22-.77.4-1.16.54s-.64.14-.76,0c.02-.07.06-.12.11-.14.02-.05.05-.09.07-.12s.02-.06,0-.09c-.02-.02-.09-.02-.21,0-.02,0-.07.04-.14.11-.16.16-.4.36-.7.58-.3.22-.61.33-.91.33l-1.51.77-.25-.28c0-.23-.02-.37-.05-.42-.04-.05-.08-.03-.14.05-.06.08-.12.19-.19.33-.09.19-.19.36-.3.53-.11.16-.22.23-.33.21-.05-.02-.14-.02-.28.02l-.49.12c-.23.07-.48.14-.74.19-.26.06-.48.09-.67.09s-.3-.07-.35-.21c-.05-.16-.11-.23-.18-.21-.07.02-.15.09-.25.21-.07.07-.13.14-.19.19-.06.06-.12.09-.19.09-.16,0-.27.04-.32.11s-.06.15-.05.25c.01.09.03.2.05.32.02.09.04.18.05.25s-.02.11-.09.11c-.12,0-.2.05-.25.16s-.08.23-.11.37-.06.29-.12.44c-.06.15-.15.3-.26.44-.02.02-.07.09-.14.21-.12.21-.28.47-.47.79s-.4.6-.6.86c-.2.26-.37.39-.51.39-.07,0-.1,0-.09.02.01.01.04.04.09.09.05.05.09.11.12.18s.02.15-.04.23c-.06.08-.19.17-.4.26l-3.59,6.29c-.07.26-.16.45-.28.58-.12.13-.2.18-.25.14s0-.16.14-.37c.16-.37.31-.7.44-.97.13-.27.23-.54.32-.83s.13-.52.14-.7c.01-.19-.04-.28-.16-.28-.09-.09-.18-.17-.26-.23-.08-.06-.16-.11-.25-.14s-.16-.04-.23-.02c-.07.02-.13.09-.19.21-.06.12-.09.29-.09.53l-.53,1.34s-.09.12-.12.21c-.04.09-.06.19-.09.28-.02.16-.06.3-.11.4s-.13.14-.25.09c-.09,0-.28.19-.54.58s-.53.84-.79,1.35c-.26.52-.39.93-.39,1.23,0,.19-.05.39-.16.62-.11.22-.23.44-.37.65-.14.23-.26.45-.35.65-.09.2-.13.37-.11.51l-.49,1.62-.74,2.71-.35,1.34c-.09.07-.13.02-.12-.14.01-.16.05-.39.12-.67.07-.33.13-.64.18-.95.05-.3.02-.52-.07-.63-.07-.07-.14,0-.21.21s-.14.49-.21.83-.14.7-.21,1.07c-.09.37-.17.7-.23.98s-.11.44-.16.49c-.05.02-.08.06-.09.12-.01.06,0,.12.02.19.02.09,0,.18-.09.25s-.17.11-.26.11-.16-.05-.21-.14c-.05-.12-.12-.18-.23-.18s-.21.09-.3.28c-.09.19-.14.48-.14.88,0,.28,0,.47-.02.58s-.03.16-.05.18c-.02.01-.05-.02-.07-.09s-.06-.14-.11-.21c-.02-.12-.05-.22-.09-.3-.04-.08-.06-.12-.09-.12-.21.09-.37.18-.47.26-.11.08-.18.15-.21.19-.04.05-.05.09-.05.14,0,.02-.01.05-.04.07-.02.02-.06.04-.12.05-.06.01-.16.02-.3.02-.12,0-.23-.01-.33-.04-.11-.02-.17-.05-.19-.07l-.49-4.68c-.05-.14-.05-.28-.02-.42s.09-.28.16-.42c.09-.14.16-.3.19-.49.04-.19.02-.39-.05-.6l1.12-5.41s.05-.11.07-.18.04-.14.04-.21c0-.12.03-.2.09-.25.06-.05.11-.06.16-.05.05.01.07.07.07.18s-.05.26-.14.47c-.23.49-.35.94-.35,1.35s.05.66.14.74c.09.08.19-.15.28-.69l1.2-3.69c.14-.09.21-.18.19-.26-.01-.08-.04-.17-.09-.26-.02-.07-.05-.15-.07-.23-.02-.08,0-.16.07-.23l1.41-3.45,2.57-7.91s.07.03.14-.05c.07-.08.15-.21.23-.39s.15-.35.19-.53.06-.33.05-.46c-.01-.13-.09-.19-.23-.19-.07,0-.15.05-.25.16s-.18.23-.25.37c-.09.12-.17.21-.23.28s-.11.11-.14.11-.05-.07-.05-.21c0-.16.04-.33.12-.49.08-.16.17-.32.26-.46.19-.23.28-.43.28-.6,0-.28.39-1.38,1.18-3.3.79-1.92,1.68-4.05,2.67-6.38,1-2.33,1.87-4.38,2.62-6.13.75-1.71,1.15-2.61,1.2-2.71,0-.23.06-.42.19-.54.13-.13.3-.24.51-.33.33-.14.62-.39.88-.74.16-.26.35-.39.54-.4.2-.01.39,0,.58.05.09,0,.18,0,.26.02.08.01.15-.02.19-.09.09-.12.37-.11.83.02.46.13.97.31,1.55.54.57.23,1.08.47,1.53.72s.7.44.77.58c.12.23.26.43.42.6.19.19.36.46.51.83.15.36.24.97.26,1.81s-.07,2.1-.28,3.76l-1.12,3.73c0,.19-.04.37-.12.54s-.17.33-.26.47c-.09.16-.15.29-.18.39-.02.09.04.14.18.14l3.94-2.29,2.04-.95,6.89-4.36c.26-.21.63-.43,1.12-.67.35-.19.66-.36.93-.53.27-.16.4-.32.4-.46,0-.12.21-.34.62-.67.41-.33.9-.69,1.48-1.07s1.13-.76,1.67-1.11c.66-.4,1.1-.69,1.34-.88.52-.4,1.2-.94,2.04-1.62.84-.68,1.62-1.34,2.32-1.97s1.05-1.05,1.05-1.27c0-.33-.22-.66-.65-1-.43-.34-.8-.62-1.11-.83l-.21-.11c-.77-.47-1.88-.81-3.3-1.04-1.43-.22-2.91-.36-4.45-.4-1.54-.05-2.85-.04-3.96.04s-1.71.15-1.83.25c-.02.05-.18.09-.46.14-.28.05-.63.09-1.05.14-.49.07-1,.15-1.51.25-.52.09-.96.18-1.34.26-.38.08-.59.17-.63.26-.07.12-.15.18-.25.19-.09.01-.19,0-.28-.05-.09-.02-.19-.04-.28-.05-.09-.01-.18.03-.25.12-.12.12-.4.25-.84.39s-.96.3-1.55.49c-.63.16-1.22.33-1.76.51s-.91.35-1.12.51l-.67.14-3.52,1.37c-.19.12-.57.3-1.14.56-.57.26-1.25.55-2.02.88-1.24.52-2.43,1.03-3.57,1.55-1.14.52-1.83.91-2.09,1.2l-3.45,1.9c-.4.35-.98.75-1.74,1.2-.76.45-1.48.83-2.16,1.16-.59.3-.95.5-1.09.6-.56.45-1.2.84-1.9,1.2-.84.38-1.58.84-2.21,1.41-.09.07-.3.2-.63.39-.42.21-.84.46-1.27.76-.42.29-.64.54-.67.76-.02.12-.05.18-.09.19-.04.01-.09,0-.16-.05-.09-.05-.24-.06-.44-.05-.2.01-.44.14-.72.37-.12.09-.28.05-.47-.12s-.39-.38-.58-.62c-.14-.14-.27-.27-.39-.39-.12-.12-.21-.19-.28-.21-.12-.02-.2-.06-.25-.11-.05-.05-.07-.11-.07-.18-.02-.07-.08-.16-.16-.26s-.24-.22-.47-.33c-.23-.12-.39-.21-.46-.28s-.09-.13-.07-.18c.02-.05.08-.09.18-.14.09-.07.18-.15.26-.25.08-.09.13-.22.16-.39l3.13-2.6s.27-.16.74-.47,1.07-.72,1.79-1.21c1.38-.96,2.83-1.93,4.34-2.92s2.56-1.59,3.15-1.83l.49-.32,6.71-3.3,5.45-2.04s.15-.04.32-.11.38-.16.63-.28c.47-.21.97-.41,1.49-.6.53-.19.97-.29,1.32-.32l2.53-.81,3.2-.98,4.32-.98ZM12.07,56.43s.08-.04.09-.12c.01-.08.02-.19.02-.33,0-.21,0-.35-.02-.4-.01-.06-.04-.07-.07-.04s-.06.1-.09.19c-.02.09-.04.19-.05.3s0,.2.02.28c.02.08.06.12.11.12ZM12.84,56.43s.05-.01.09-.04c.04-.02.05-.05.05-.07l-.14.11ZM13.86,45.6c0-.12.02-.18.05-.19.04-.01.07,0,.11.04s.06.08.09.14c.02.06.03.11.02.16-.01.05-.05.07-.12.07-.02,0-.05-.02-.09-.07-.04-.05-.05-.09-.05-.14ZM13.97,47.07s-.04.02-.05-.02-.02-.09-.02-.16l.07.18ZM14.7,58.43c-.19.23-.12.27.21.11l-.21-.11ZM14.99,42.82s-.03-.03-.02-.09c.01-.06.04-.12.09-.19l-.07.28ZM16.67,54.21c.07.16.14.23.21.19s.11-.16.11-.37c0-.09-.02-.18-.07-.25s-.1-.11-.16-.11-.1.04-.12.12c-.02.08-.01.22.04.4ZM23.46,40.64s.07.04.14-.02c.07-.06.13-.13.19-.21.06-.08.09-.16.09-.23s-.04-.11-.12-.11-.17.02-.26.07c-.09.05-.15.12-.18.21-.02.09.02.19.14.28ZM23.49,37.2l-.14.28s.05-.02.09-.07c.04-.05.05-.12.05-.21ZM23.49,38.36l-.14.18s.08-.02.11-.05.04-.08.04-.12ZM27.25,37.23s.05-.01.07-.04c.02-.02.04-.05.04-.07,0-.12-.01-.19-.04-.21-.02-.02-.06-.02-.11,0-.05.02-.08.06-.11.11-.02.05-.03.09-.02.14.01.05.06.07.16.07ZM32.49,33.19c.05-.23.04-.37-.04-.42-.07-.05-.15-.05-.25,0-.09.05-.16.13-.19.25-.04.12,0,.25.12.39.14.14.26.07.35-.21ZM37.8,31.5c.07,0,.12,0,.16-.02.04-.01.04-.03.02-.05l-.18.07ZM39.81,32.03s-.05-.02-.02-.07c.04-.05.09-.11.16-.18l-.14.25ZM43.29,29.71s.09-.02.12-.05.05-.09.05-.16c0-.12-.03-.18-.09-.19-.06-.01-.12,0-.19.04s-.12.08-.16.14c-.04.06-.04.11-.02.16.02.05.12.07.28.07ZM48.07,16.42c-.19.07-.22.05-.11-.07l.11.07ZM54.75,22.71s.08-.02.11-.07c.02-.05.04-.09.04-.14,0-.12-.02-.18-.05-.19-.04-.01-.07,0-.11.04s-.06.08-.09.14c-.02.06-.03.11-.02.16.01.05.05.07.12.07ZM58.02,23.24c0-.07.02-.12.05-.16s.08-.06.12-.09c.05-.02.09-.03.12-.02.04.01.05.04.04.07s-.06.09-.16.16c-.12.12-.18.13-.18.04ZM58.58,22.85l.28-.04c-.09.05-.17.07-.23.07s-.08-.01-.05-.04ZM60.48,20.64l-.14.11s.08-.01.11-.04c.02-.02.04-.05.04-.07ZM65.05,15.93c0,.09-.02.15-.07.18-.05.02-.11.05-.18.07-.05,0-.1,0-.16.02-.06.01-.1.05-.12.12s0,.12.05.14c.06.02.14.02.25-.02s.22-.1.33-.19c.14-.14.22-.26.23-.35.01-.09-.01-.15-.07-.18-.06-.02-.12-.02-.19,0-.07.02-.09.09-.07.21ZM65.65,6.08l-.04.14s.04-.09.04-.14Z"/>
      <path class="cls-1" d="M72.96,24.19c.07.09.22.21.46.33.23.13.49.22.77.28.28.06.54.04.77-.05.54-.16,1.3-.04,2.29.39s2,.98,3.04,1.67c1.04.69,1.93,1.37,2.65,2.02.73.66,1.08,1.09,1.05,1.3,0,.05.06.18.18.39.19.3.39.76.62,1.35s.32,1.28.3,2.04c-.02.76-.3,1.55-.84,2.37l-.04.04c-.07.16-.27.59-.6,1.28-.33.69-.71,1.38-1.16,2.07-.45.69-.87,1.13-1.27,1.32-.09.05-.19.16-.3.33s-.22.39-.33.65c-.19.35-.38.68-.58.98-.2.3-.38.45-.54.42l-3.83,4.61c-.35.33-.61.62-.77.86s-.29.46-.39.65c-.09.19-.19.35-.28.47-.09.13-.23.23-.42.3-.05.05-.18.16-.39.35-.3.28-.66.57-1.05.88-.4.3-.71.46-.95.46-.16-.02-.3.05-.42.21-.12.16-.22.36-.32.6-.09.28-.22.54-.39.79s-.4.42-.7.51l-2.39,1.02c-.12-.02-.33.04-.63.18-.3.16-.64.29-1,.39-.36.09-.72.04-1.07-.18-.09-.05-.17-.08-.23-.11-.06-.02-.11-.03-.14-.02-.04.01-.08.02-.12.02-.05.05-.12.08-.21.09-.09.01-.25-.01-.47-.07-.22-.06-.53-.18-.93-.37-.68-.3-1.36-.57-2.04-.81-.87-.26-1.68-.59-2.44-1-.76-.41-1.43-1.03-2-1.86-.57-.83-1.01-2.02-1.32-3.57-.19-1.22-.21-2.74-.05-4.55.15-1.82.43-3.53.83-5.13.4-1.6.87-2.69,1.41-3.25.23-.21.48-.55.74-1.02.38-.68,1.04-1.58,2-2.69.96-1.11,2.55-2.42,4.78-3.92l1.48-.95s.22-.02.51-.05.63-.06,1.02-.09c.39-.02.74-.01,1.07.04.33.05.55.16.67.35.14.16.26.25.35.25s.16-.06.21-.19c.05-.13.09-.28.14-.44.07-.16.13-.32.19-.46s.13-.21.23-.21c.14.02.28-.04.42-.18s.28-.29.42-.46c.21-.23.42-.42.62-.56s.39-.13.58.04c.07.07.13.11.18.11s.09-.02.12-.07c.04-.05.06-.09.09-.14.02-.07.05-.12.09-.16s.08-.05.14-.04c.06.01.13.08.23.19ZM74.36,33.57c-.05-.12-.23-.32-.54-.62-.32-.29-.66-.58-1.04-.86s-.71-.47-1.02-.58-.48-.02-.53.26c-.02.23-.12.4-.28.51s-.34.19-.53.26c-.14.05-.26.1-.37.16-.11.06-.18.14-.23.23-.09.16-.35.38-.77.63-.45.26-.92.6-1.42,1.02s-.91.97-1.21,1.65c-.07.21-.2.43-.39.67-.19.23-.39.54-.62.91-.22.38-.43.88-.62,1.51-.02.02-.07.11-.14.25-.23.49-.54,1.34-.91,2.55-.38,1.21-.49,2.57-.35,4.1.12.8.24,1.4.37,1.81.13.41.25.69.37.83s.23.2.35.18c.12-.02.23-.07.35-.14.07-.02.13-.05.18-.07,1.12-.47,2.61-1.37,4.45-2.71s3.51-2.72,5.01-4.15c1.5-1.43,2.3-2.53,2.39-3.3l-.14-2.07-2.36-3.02Z"/>
      <path class="cls-1" d="M76.79,57.69c0-.07-.05-.14-.16-.21s-.24-.14-.4-.21c-.21-.09-.39-.2-.54-.32-.15-.12-.22-.26-.19-.42l.35-1.69c.07-.05.12-.11.14-.18s.02-.14,0-.21c0-.07.01-.13.04-.19.02-.06.07-.1.14-.12.05-.02.11-.08.18-.18.09-.12.21-.23.35-.33s.3-.13.49-.09c.16.02.31-.02.44-.12s.25-.24.37-.4c.12-.16.24-.3.37-.4s.26-.15.4-.12l5.73-3.06c.77-.3,1.42-.64,1.95-1,.53-.36.93-.67,1.21-.93.19-.16.32-.26.39-.28l4.11-1.86,3.27-2.21c1.29-.42,1.82-.76,1.6-1.02-.22-.26-.92-.55-2.09-.88-1.03-.3-2.21-.73-3.55-1.27-.98-.42-1.72-.76-2.2-1.02-.48-.26-.84-.5-1.07-.72-.23-.22-.47-.51-.7-.86-.16-.21-.36-.46-.6-.74-.54-.68-.9-1.29-1.07-1.83-.18-.54-.3-1.15-.37-1.83,0-.19-.02-.37-.07-.56,0-.23.09-.49.26-.76.18-.27.37-.53.58-.79.14-.19.26-.35.35-.49s.15-.26.18-.35c.02-.35.44-.76,1.25-1.23.81-.47,1.64-.9,2.5-1.28s1.45-.65,1.78-.79l.14-.07c.19-.16.83-.46,1.92-.9,1.09-.43,2.34-.91,3.74-1.42,1.5-.56,2.85-1.08,4.06-1.56,1.21-.48,1.9-.83,2.09-1.04.05-.02.11-.04.19-.05.08-.01.18-.02.3-.02.16.02.33.02.51,0,.18-.02.33-.08.47-.18.23-.19.49-.22.76-.11.27.12.54.28.83.49.21.16.43.31.65.44.22.13.45.21.69.23l4.18,2.07c.35.21.56.4.63.56.07.16.06.33-.02.49-.08.16-.21.32-.37.46-.14.16-.27.33-.39.49-.59.89-1.35,1.69-2.29,2.39-.63.49-1.17,1-1.62,1.51l-3.87,4.15c-.09.35-.35.58-.77.69s-.84.08-1.27-.09c-.42-.16-.69-.46-.81-.88-.02-.12-.08-.24-.18-.37-.09-.13-.2-.25-.32-.37-.16-.14-.28-.26-.33-.37s.03-.15.26-.12c.16.02.45-.21.84-.69.4-.48.83-1.02,1.3-1.63.42-.56.83-1.08,1.21-1.55.39-.47.71-.79.97-.95.7-.47.7-.61,0-.42-.7.19-1.92.82-3.66,1.9l-3.97,2.43-.04.04c-.19.09-.67.38-1.44.84-.77.47-1.55.99-2.34,1.56-.79.57-1.31,1.08-1.56,1.53-.12.23-.1.41.05.53.15.12.45.26.9.42.33.12.73.29,1.2.53.82.38,1.63.72,2.43,1.02,1.48.52,3.02,1.24,4.64,2.18l1.2.49c-.02.12.04.2.19.25.15.05.33.09.54.14.26.05.5.12.74.21.23.09.38.25.42.46l1.48,2.04c.12.12.28.33.47.63.2.3.35.66.44,1.05.09.4.04.79-.16,1.18s-.63.71-1.28.97c-.54.21-1.3.61-2.29,1.2-.68.4-1.35.77-2,1.12s-1.22.59-1.69.7c-.4.09-.7.19-.91.3s-.35.18-.42.23c-.09.07-.15.1-.18.09-.02-.01-.06-.06-.11-.16-.09-.19-.25-.22-.47-.11-.22.12-.47.3-.76.56-.28.26-.57.49-.88.69-.3.2-.61.29-.91.26-.12,0-.26.04-.44.11s-.36.15-.54.25c-.16.09-.3.16-.42.21-.12.05-.21.06-.26.05-.06-.01-.06-.08-.02-.19.07-.23.08-.35.04-.33-.05.01-.14.09-.28.23-.16.16-.39.34-.69.53-.29.19-.62.28-.97.28l-1.3.56c-.07-.28-.15-.47-.25-.56-.09-.09-.18-.12-.26-.07-.08.05-.13.12-.14.21-.01.09.03.18.12.25.05.02.06.04.05.05-.01.01-.04.02-.07.04-.04.01-.08,0-.12-.02-.05-.02-.08-.06-.11-.11-.02-.05-.04-.11-.04-.18.02-.16.02-.26,0-.28-.02-.02-.06-.01-.11.04-.05.05-.09.11-.14.18-.07.07-.13.14-.18.21s-.09.09-.14.07c-.09,0-.16.02-.21.05s-.08.08-.11.12c-.05.05-.1.09-.16.12s-.18.03-.37-.02c-.16-.02-.35,0-.54.07s-.38.16-.54.28c-.14.07-.26.13-.37.18-.11.05-.18.06-.23.04-.21-.07-.53-.04-.95.11s-.84.3-1.27.49c-.33.12-.6.22-.83.3-.22.08-.35.09-.37.04-.02-.06.12-.23.42-.51.19-.16.3-.3.35-.42.05-.12.05-.2.02-.25-.04-.05-.09-.06-.16-.05-.07.01-.13.06-.18.16l-1.65.63c-.05-.12-.11-.16-.19-.12s-.18.11-.28.23-.21.25-.3.39c-.07.09-.13.17-.19.23-.06.06-.1.09-.12.11-.02.01-.04-.02-.04-.09l-.49-.07c.07.14.04.28-.09.4-.13.13-.29.24-.47.33-.19.09-.36.16-.53.21-.16.05-.27.05-.32,0-.02-.02-.04-.04-.04-.05s0-.02-.02-.02-.02.01-.02.04c0,.05-.01.09-.04.14-.02.05-.06.09-.12.12s-.15.05-.26.05l-.77.11-.88-.35ZM80.45,56.32c.02-.09,0-.16-.07-.21s-.15-.06-.23-.05c-.08.01-.13.04-.16.07s0,.09.07.16c.26.19.39.2.39.04ZM81.08,56.39l-.21.04c.09.12.16.17.21.16.05-.01.05-.08,0-.19ZM82.59,55.23c.02-.14.01-.22-.04-.25-.05-.02-.12-.01-.21.04-.09.05-.18.11-.25.19-.07.08-.1.15-.09.21.01.06.1.08.26.05.07,0,.13-.02.19-.07.06-.05.1-.11.12-.18ZM85.26,48.23l.63-.11s-.12.09-.23.12-.2.05-.28.05-.12-.02-.12-.07Z"/>
      <path class="cls-1" d="M157.54,16.88c-.23.16-.43.28-.58.33-.15.06-.28.09-.37.09s-.18-.02-.25-.07c-.05-.02-.11-.04-.18-.04s-.15.02-.25.07l-9.42.63c-.26.14-.86.24-1.79.3-.94.06-2.06.11-3.38.16-1.57.07-3.14.16-4.71.26s-2.86.28-3.87.51c-1.01.23-1.44.56-1.3.98l-.67,1.09-1.48,3.16c-.28.45-.62,1.15-1.02,2.11-.26.61-.51,1.18-.76,1.71s-.49.87-.72,1.04l-7.73,15.96c-.07,0-.17.12-.3.37s-.26.54-.4.9c-.19.45-.4.9-.63,1.35s-.48.83-.74,1.11l-1.62,2.78-1.02,2.04c-.02.14-.08.26-.16.35-.08.09-.16.19-.23.28-.07.07-.13.14-.18.21s-.06.15-.04.25c.05.05.07.08.07.11v.05s-.01.02-.04.02c-.05,0-.11.02-.19.07-.08.05-.18.16-.3.33s-.25.44-.39.79l-1.3,1.76c-.07.23-.15.4-.25.49-.09.09-.19.16-.28.21-.12.07-.24.17-.37.3-.13.13-.25.38-.37.76-.12.3-.29.56-.53.77-.28.26-.5.64-.67,1.16l-.74,1.58c0,.12-.03.18-.09.19-.06.01-.13,0-.23-.02-.09,0-.19,0-.3.02-.11.01-.21.08-.3.21-.09.13-.15.35-.18.65-.02.35-.09.57-.21.67-.12.09-.25.12-.39.09s-.28-.09-.42-.16c-.12-.07-.21-.11-.26-.12-.06-.01-.09.04-.09.16.02.14-.04.21-.18.19-.14-.01-.29-.05-.46-.12-.16-.05-.32-.08-.46-.11-.14-.02-.25,0-.32.07-.05.07-.11.11-.18.12-.07.01-.13,0-.19-.02-.06-.02-.11-.05-.14-.09l-.16-.16c-.14-.16-.22-.33-.25-.49-.02-.16-.02-.28,0-.35,0-.05,0-.06-.02-.05-.01.01-.03.04-.05.09-.09.12-.25-.01-.46-.39-.21-.38-.42-.89-.63-1.55-.21-.66-.35-1.34-.42-2.04s0-1.31.21-1.83l.28-1.23s.08-.02.09.02,0,.1-.02.19c-.02.05-.04.11-.04.18s.01.13.04.18c.02.05.08.06.18.04l.88-2.57c-.02-.09-.02-.16,0-.19s.06-.08.11-.12c.02-.02.04-.05.05-.09s0-.09-.04-.16-.11-.16-.23-.28c-.23-.23-.27-.47-.11-.7.16-.23.4-.44.7-.63.3-.19.56-.33.77-.42l.18-.07c.02-.07.05-.11.07-.11s.05.01.07.04c.02.02.05.05.07.07.02.05.05.08.09.11.04.02.07.01.11-.04.04-.05.09-.15.16-.32l.63-2.36c.07-.35.16-.6.26-.76.11-.15.21-.26.3-.33.02-.02.05-.05.07-.07.02-.02.04-.06.04-.11l9.56-19.65c0-.3.26-.9.77-1.79.52-.89,1.1-1.86,1.76-2.92.59-.94,1.1-1.78,1.53-2.53.43-.75.64-1.23.62-1.44l-1.65-.25-10.58.56c-.09.09-.3.09-.63,0-.33-.09-.7-.25-1.11-.46s-.79-.43-1.14-.67c-.35-.23-.61-.43-.77-.6-.16-.16-.14-.25.07-.25v-.07c0-.07.01-.18.04-.32s.1-.26.23-.37.35-.16.65-.16l.04-.04c.54-.16,2.46-.58,5.75-1.25s6.96-1.08,10.99-1.25l3.87-7.07,2.46-4.25c.38-.8.73-1.29,1.05-1.48.33-.19.94-.22,1.83-.11.77.05,1.57.27,2.39.67.82.4,1.38.97,1.69,1.72.19.56.21,1.19.07,1.88-.14.69-.32,1.37-.53,2.02-.28.77-.41,1.34-.39,1.69l-2.18,4.43c-.12.02-.06.07.18.14.59.12,2.48.18,5.7.18,3.42-.02,7.04.04,10.86.18s6.5.5,8.05,1.09c.28.14.45.25.51.32s.05.12-.04.16-.21.06-.37.09c-.12.02-.24.05-.37.09s-.24.08-.33.12ZM102.74,56.46s-.05.02-.07-.02-.04-.09-.04-.16l.11.18ZM106.6,47.95c-.05.12-.09.19-.12.21-.04.02-.05-.02-.05-.14l.18-.07ZM109.91,59.91s.08-.02.09-.05.02-.08.02-.12l-.11.18ZM114.72,31.57c-.14.4-.22.5-.25.32l.25-.32Z"/>
      <path class="cls-1" d="M125.38,44.86l.53-.74-.49,1.65c.07.12.09.21.07.28s-.07.12-.14.16-.14.06-.21.09c-.05.02-.09.05-.12.07-.04.02-.05.05-.04.09s.05.08.12.12l.04.84c-.05-.14-.09-.27-.14-.39-.09-.19-.15-.39-.16-.62-.01-.22.06-.47.23-.76.12-.19.18-.33.19-.44s0-.18-.02-.23c0-.05,0-.08.02-.11.01-.02.05-.04.12-.04ZM126.01,49.92h.16s0-.01-.02-.04c-.02-.02-.05-.09-.07-.21-.02-.12-.02-.28,0-.49,0-.19-.02-.34-.07-.46-.05-.12-.09-.22-.14-.32-.09-.12-.17-.27-.23-.46-.06-.19-.06-.46,0-.83.06-.36.21-.86.44-1.49.19-.49.3-.98.35-1.48.05-.3.1-.58.16-.83s.16-.43.3-.54l.6-.6-.56,1.9c.09.05.24-.09.44-.4s.4-.7.6-1.16.33-.87.4-1.25c.05-.28.09-.49.14-.63s.09-.24.14-.3c.05-.06.09-.09.14-.09s.08.01.11.04h.07s.04-.01.05-.04c.01-.02.02-.07.02-.14l4.54-5.87,10.41-10.51c.52-.19,1.23-.61,2.14-1.27.61-.44,1.25-.87,1.93-1.28.68-.41,1.35-.69,2-.83.8-.19,1.35-.39,1.65-.6.28-.14.54-.21.77-.21s.59.16,1.05.49c.82.49,1.77.84,2.85,1.05.63.16,1.22.35,1.76.56s.94.49,1.2.84c.09.14.25.3.46.49.38.35.71.75,1,1.2.29.45.3.87.02,1.27l-.28.74s-.1.09-.23.28c-.13.19-.29.42-.47.7-.3.42-.62.87-.95,1.34-.33.47-.63.88-.91,1.23s-.49.55-.63.6l-2.5,3.13c-.3.21-.53.43-.69.65-.15.22-.28.44-.37.65-.12.28-.25.46-.39.53-.09.02-.17.07-.23.14s-.12.18-.19.32c-.14.33-.56.87-1.27,1.62l-1.86,2.43c0,.07-.04.14-.12.21s-.19.14-.33.21c-.16.09-.32.2-.46.32-.14.12-.21.26-.21.42s-.22.42-.67.76c-.45.34-.92.66-1.42.95-.5.29-.83.44-.97.44-.12,0-.21.01-.28.04-.07.02-.11.06-.11.11s-.11.08-.33.09c-.22.01-.49.01-.79,0-.3-.01-.58-.04-.83-.07s-.4-.08-.47-.12c-.14-.12-.43-.25-.88-.39-.35-.12-.72-.25-1.11-.4-.39-.15-.72-.33-1-.54l-2.14-1.12-2.11,2.71c-.26.45-.5.78-.72,1-.22.22-.4.37-.54.44-.12.09-.19.17-.23.23-.04.06,0,.15.12.26l-.81,3.62c.02.19,0,.4-.07.63-.07.21-.09.41-.07.6.02.19.17.32.44.39s.75.05,1.44-.05,1.66-.33,2.92-.67c1.25-.34,2.89-.84,4.9-1.49l12.45-3.62c.09.12.32.12.69,0,.36-.12.74-.26,1.14-.42.23-.09.44-.17.62-.23.18-.06.28-.08.3-.05.07.09,0,.27-.23.53-.22.26-.51.54-.86.84-.35.3-.67.57-.97.79-.29.22-.45.33-.47.33l-4.32,2.46-1.72.88-2.81,1.93-1.62.95-1.37.63c-.05.16-.16.29-.33.37-.18.08-.37.14-.58.18s-.38.06-.49.09h-.11c-.21.02-.37.06-.47.11-.11.05-.16.11-.18.18s0,.13.02.18c0,.05,0,.09-.02.12s-.04.06-.07.09c-.04.02-.11.04-.23.04-.02-.02-.12-.05-.3-.07-.18-.02-.37-.03-.58-.02-.21.01-.4.06-.56.16-.16.09-.27.26-.32.49-.02.12-.17.2-.44.25-.27.05-.54.09-.83.14-.19.02-.34.04-.46.05-.12.01-.18.04-.18.09,0,.09,0,.15-.02.18-.01.02-.04.03-.07.02-.04-.01-.08-.04-.12-.09-.05-.02-.1-.05-.16-.07-.06-.02-.1-.01-.12.04-.14.16-.3.24-.49.23-.19-.01-.36-.04-.53-.09-.09-.02-.18-.04-.25-.05-.07-.01-.12,0-.14.05l-1.02.14s-.09-.07-.14-.07-.08.01-.11.04c-.02.02-.05.05-.07.07,0,.02-.01.04-.04.05-.02.01-.04.02-.05.02s-.03-.02-.05-.07c-.07-.12-.17-.17-.3-.16-.13.01-.25.04-.37.09-.12.02-.22.04-.32.05-.09.01-.16-.02-.21-.09-.05-.05-.1-.08-.16-.11-.06-.02-.13-.04-.23-.04-.12,0-.29-.04-.53-.11s-.56-.2-.98-.39c-.14-.05-.33-.13-.56-.25-.7-.26-1.49-.62-2.37-1.07s-1.44-.93-1.67-1.42c-.21-.42-.38-.77-.49-1.05s-.2-.56-.25-.84-.04-.49.04-.63l.11-.25ZM145.03,31.04s-.23.29-.7.81c-.4.47-.86,1-1.39,1.6s-.99,1.15-1.39,1.67c-.4.52-.6.86-.6,1.02,0,.45.14.83.42,1.14s.6.51.95.58.64-.05.88-.35l5.38-3.83c.42-.35,1.11-.95,2.07-1.81.96-.86,1.88-1.72,2.76-2.58.88-.87,1.39-1.48,1.53-1.83.12-.47-.08-.85-.6-1.14-.52-.29-1.1-.46-1.76-.51-.66-.05-1.15.06-1.48.32-.23.21-.45.36-.63.44-.19.08-.34.15-.46.19-.14.02-.25.06-.33.12-.08.06-.16.15-.23.26l-4.43,3.9Z"/>
      <path class="cls-1" d="M191.01,33.75c-.19.28-.42.53-.7.76-.28.22-.54.4-.77.54-.16.12-.29.21-.39.28s-.12.13-.07.18c.12.09.16.16.12.19s-.11.05-.21.05h-.56c-.06,0-.08.01-.05.04.12.14.13.42.04.83-.09.41-.25.86-.46,1.35s-.44.9-.69,1.21-.46.45-.65.4c-.12-.05-.23-.06-.33-.04-.11.02-.21.06-.3.11-.14.07-.28.09-.42.07-.14-.02-.32-.16-.53-.42-.84-1.17-1.45-2.35-1.83-3.53-.38-1.18-.6-2.06-.67-2.62-.05-.19-.07-.3-.07-.35-.07-.12-.23-.05-.49.19s-.54.57-.84.97c-.3.4-.59.76-.84,1.09-.23.33-.4.54-.49.63l-6.4,8.47c0,.07-.02.12-.05.16s-.09.08-.16.12c-.09.05-.21.14-.33.28s-.28.39-.44.74c-.23.45-.61.95-1.12,1.51-.73.75-1.3,1.58-1.72,2.5l-2.18,3.59c0,.09-.02.14-.05.14h-.16s-.09-.04-.14-.04-.09.02-.14.07c-.05.05-.08.14-.11.28-.05.16-.11.27-.18.32-.07.05-.14.08-.21.11-.02,0-.05,0-.07.02-.02.01-.04.04-.04.09.05.54-.16,1.01-.62,1.42-.46.41-.93.76-1.42,1.04-.38.23-.63.43-.77.6l-2.11.28c-.45-.12-.79-.21-1.04-.28s-.43-.13-.54-.18c-.12-.05-.2-.09-.25-.12s-.07-.06-.07-.09c-.02-.05-.06-.1-.12-.16-.06-.06-.18-.13-.35-.21-.18-.08-.44-.19-.79-.33-1.43-.59-2.31-1.29-2.64-2.11-.33-.82-.36-1.63-.11-2.43.26-.8.54-1.45.84-1.97.14-.26.23-.44.28-.56.19-.82.49-1.65.9-2.5s.84-1.69,1.28-2.53c.56-.98,1.04-1.92,1.44-2.81l8.09-15.22c.7-1.2,1.46-1.75,2.27-1.65.81.09,1.51.55,2.09,1.37.59.82.88,1.68.88,2.57,0,.4-.06.76-.19,1.09-.13.33-.28.65-.44.95-.26.49-.46,1.07-.6,1.72l-1.79,5.13-1.93,5.34c-.49.84-.36.88.4.11s2-2.2,3.71-4.29c2.37-2.86,4.12-4.97,5.27-6.33,1.15-1.36,2.19-2.58,3.13-3.66.73-.8,1.29-1.43,1.71-1.9.41-.47.71-.82.9-1.05.19-.23.31-.43.37-.58.06-.15.1-.32.12-.51.05-.23.1-.4.16-.51s.11-.17.16-.19c.05-.02.09-.04.14-.04s.09,0,.12-.02c.04-.01.06-.05.07-.12s.02-.18.02-.32c0-.19.05-.32.14-.39s.21-.13.35-.18c.12-.02.22-.07.32-.14s.14-.19.14-.35c0-.12.16-.23.47-.35.32-.12.72-.15,1.21-.11.49.05,1.02.23,1.58.56l.98.21c.35.23.68.4.98.49.35.12.68.29.98.53.3.23.63.67.98,1.3.07.14.13.26.18.35.12.21.2.38.25.49.05.12.07.25.07.39s-.01.35-.04.63c0,.28-.01.68-.04,1.2-.07,1.81-.3,3.09-.69,3.87s-.78,1.32-1.18,1.65c-.21.19-.4.39-.56.6Z"/>
      <path class="cls-1" d="M181.13,57.69c0-.07-.05-.14-.16-.21s-.24-.14-.4-.21c-.21-.09-.39-.2-.54-.32-.15-.12-.22-.26-.19-.42l.35-1.69c.07-.05.12-.11.14-.18s.02-.14,0-.21c0-.07.01-.13.04-.19.02-.06.07-.1.14-.12.05-.02.11-.08.18-.18.09-.12.21-.23.35-.33s.3-.13.49-.09c.16.02.31-.02.44-.12s.25-.24.37-.4c.12-.16.24-.3.37-.4s.26-.15.4-.12l5.73-3.06c.77-.3,1.42-.64,1.95-1,.53-.36.93-.67,1.21-.93.19-.16.32-.26.39-.28l4.11-1.86,3.27-2.21c1.29-.42,1.82-.76,1.6-1.02-.22-.26-.92-.55-2.09-.88-1.03-.3-2.21-.73-3.55-1.27-.98-.42-1.72-.76-2.2-1.02-.48-.26-.84-.5-1.07-.72-.23-.22-.47-.51-.7-.86-.16-.21-.36-.46-.6-.74-.54-.68-.9-1.29-1.07-1.83-.18-.54-.3-1.15-.37-1.83,0-.19-.02-.37-.07-.56,0-.23.09-.49.26-.76.18-.27.37-.53.58-.79.14-.19.26-.35.35-.49s.15-.26.18-.35c.02-.35.44-.76,1.25-1.23.81-.47,1.64-.9,2.5-1.28s1.45-.65,1.78-.79l.14-.07c.19-.16.83-.46,1.92-.9,1.09-.43,2.34-.91,3.74-1.42,1.5-.56,2.85-1.08,4.06-1.56,1.21-.48,1.9-.83,2.09-1.04.05-.02.11-.04.19-.05.08-.01.18-.02.3-.02.16.02.33.02.51,0,.18-.02.33-.08.47-.18.23-.19.49-.22.76-.11.27.12.54.28.83.49.21.16.43.31.65.44.22.13.45.21.69.23l4.18,2.07c.35.21.56.4.63.56.07.16.06.33-.02.49-.08.16-.21.32-.37.46-.14.16-.27.33-.39.49-.59.89-1.35,1.69-2.29,2.39-.63.49-1.17,1-1.62,1.51l-3.87,4.15c-.09.35-.35.58-.77.69s-.84.08-1.27-.09c-.42-.16-.69-.46-.81-.88-.02-.12-.08-.24-.18-.37-.09-.13-.2-.25-.32-.37-.16-.14-.28-.26-.33-.37s.03-.15.26-.12c.16.02.45-.21.84-.69.4-.48.83-1.02,1.3-1.63.42-.56.83-1.08,1.21-1.55.39-.47.71-.79.97-.95.7-.47.7-.61,0-.42-.7.19-1.92.82-3.66,1.9l-3.97,2.43-.04.04c-.19.09-.67.38-1.44.84-.77.47-1.55.99-2.34,1.56-.79.57-1.31,1.08-1.56,1.53-.12.23-.1.41.05.53.15.12.45.26.9.42.33.12.73.29,1.2.53.82.38,1.63.72,2.43,1.02,1.48.52,3.02,1.24,4.64,2.18l1.2.49c-.02.12.04.2.19.25.15.05.33.09.54.14.26.05.5.12.74.21.23.09.38.25.42.46l1.48,2.04c.12.12.28.33.47.63.2.3.35.66.44,1.05.09.4.04.79-.16,1.18s-.63.71-1.28.97c-.54.21-1.3.61-2.29,1.2-.68.4-1.35.77-2,1.12s-1.22.59-1.69.7c-.4.09-.7.19-.91.3s-.35.18-.42.23c-.09.07-.15.1-.18.09-.02-.01-.06-.06-.11-.16-.09-.19-.25-.22-.47-.11-.22.12-.47.3-.76.56-.28.26-.57.49-.88.69-.3.2-.61.29-.91.26-.12,0-.26.04-.44.11s-.36.15-.54.25c-.16.09-.3.16-.42.21-.12.05-.21.06-.26.05-.06-.01-.06-.08-.02-.19.07-.23.08-.35.04-.33-.05.01-.14.09-.28.23-.16.16-.39.34-.69.53-.29.19-.62.28-.97.28l-1.3.56c-.07-.28-.15-.47-.25-.56-.09-.09-.18-.12-.26-.07-.08.05-.13.12-.14.21-.01.09.03.18.12.25.05.02.06.04.05.05-.01.01-.04.02-.07.04-.04.01-.08,0-.12-.02-.05-.02-.08-.06-.11-.11-.02-.05-.04-.11-.04-.18.02-.16.02-.26,0-.28-.02-.02-.06-.01-.11.04-.05.05-.09.11-.14.18-.07.07-.13.14-.18.21s-.09.09-.14.07c-.09,0-.16.02-.21.05s-.08.08-.11.12c-.05.05-.1.09-.16.12s-.18.03-.37-.02c-.16-.02-.35,0-.54.07s-.38.16-.54.28c-.14.07-.26.13-.37.18-.11.05-.18.06-.23.04-.21-.07-.53-.04-.95.11s-.84.3-1.27.49c-.33.12-.6.22-.83.3-.22.08-.35.09-.37.04-.02-.06.12-.23.42-.51.19-.16.3-.3.35-.42.05-.12.05-.2.02-.25-.04-.05-.09-.06-.16-.05-.07.01-.13.06-.18.16l-1.65.63c-.05-.12-.11-.16-.19-.12s-.18.11-.28.23-.21.25-.3.39c-.07.09-.13.17-.19.23-.06.06-.1.09-.12.11-.02.01-.04-.02-.04-.09l-.49-.07c.07.14.04.28-.09.4-.13.13-.29.24-.47.33-.19.09-.36.16-.53.21-.16.05-.27.05-.32,0-.02-.02-.04-.04-.04-.05s0-.02-.02-.02-.02.01-.02.04c0,.05-.01.09-.04.14-.02.05-.06.09-.12.12s-.15.05-.26.05l-.77.11-.88-.35ZM184.79,56.32c.02-.09,0-.16-.07-.21s-.15-.06-.23-.05c-.08.01-.13.04-.16.07s0,.09.07.16c.26.19.39.2.39.04ZM185.42,56.39l-.21.04c.09.12.16.17.21.16.05-.01.05-.08,0-.19ZM186.93,55.23c.02-.14.01-.22-.04-.25-.05-.02-.12-.01-.21.04-.09.05-.18.11-.25.19-.07.08-.1.15-.09.21.01.06.1.08.26.05.07,0,.13-.02.19-.07.06-.05.1-.11.12-.18ZM189.61,48.23l.63-.11s-.12.09-.23.12-.2.05-.28.05-.12-.02-.12-.07Z"/>
    </g>
  </g>
</svg>