<?xml version="1.0" encoding="UTF-8"?>
<svg id="Layer_2" data-name="Layer 2" xmlns="http://www.w3.org/2000/svg" viewBox="0 0 191.52 75.6">
  <defs>
    <style>
      .cls-1 {
        fill: #f4f4f4;
        stroke-width: 0px;
      }
    </style>
  </defs>
  <g id="Layer_4" data-name="Layer 4">
    <g>
      <path class="cls-1" d="M2.95,10.8h11.66c3.93,0,6.89,1.06,8.86,3.17,1.97,2.11,2.95,5.21,2.95,9.29v4.97c0,4.08-.98,7.18-2.95,9.29-1.97,2.11-4.92,3.17-8.86,3.17h-3.74v20.52H2.95V10.8ZM14.62,33.48c1.3,0,2.27-.36,2.92-1.08.65-.72.97-1.94.97-3.67v-5.98c0-1.73-.32-2.95-.97-3.67-.65-.72-1.62-1.08-2.92-1.08h-3.74v15.48h3.74Z"/>
      <path class="cls-1" d="M33.26,58.61c-2.06-2.21-3.1-5.33-3.1-9.36v-26.5c0-4.03,1.03-7.15,3.1-9.36,2.06-2.21,5.04-3.31,8.93-3.31s6.86,1.1,8.93,3.31c2.06,2.21,3.1,5.33,3.1,9.36v26.5c0,4.03-1.03,7.15-3.1,9.36-2.06,2.21-5.04,3.31-8.93,3.31s-6.87-1.1-8.93-3.31ZM46.29,49.75v-27.5c0-3.31-1.37-4.97-4.1-4.97s-4.1,1.66-4.1,4.97v27.5c0,3.31,1.37,4.97,4.1,4.97s4.1-1.66,4.1-4.97Z"/>
      <path class="cls-1" d="M61.13,58.64c-1.97-2.18-2.95-5.32-2.95-9.4v-2.88h7.49v3.46c0,3.26,1.37,4.9,4.1,4.9,1.34,0,2.36-.4,3.06-1.19.7-.79,1.04-2.08,1.04-3.85,0-2.11-.48-3.97-1.44-5.58-.96-1.61-2.74-3.54-5.33-5.8-3.26-2.88-5.54-5.48-6.84-7.81-1.3-2.33-1.94-4.96-1.94-7.88,0-3.98,1.01-7.07,3.02-9.25,2.02-2.18,4.94-3.28,8.78-3.28s6.66,1.09,8.6,3.28c1.94,2.19,2.92,5.32,2.92,9.4v2.09h-7.49v-2.59c0-1.73-.34-2.99-1.01-3.78s-1.66-1.19-2.95-1.19c-2.64,0-3.96,1.61-3.96,4.82,0,1.82.49,3.53,1.48,5.11.98,1.58,2.77,3.5,5.36,5.76,3.31,2.88,5.59,5.5,6.84,7.85,1.25,2.35,1.87,5.11,1.87,8.28,0,4.13-1.02,7.3-3.06,9.5-2.04,2.21-5,3.31-8.89,3.31s-6.74-1.09-8.71-3.28Z"/>
      <path class="cls-1" d="M92.52,18h-8.28v-7.2h24.48v7.2h-8.28v43.2h-7.92V18Z"/>
      <path class="cls-1" d="M112.53,10.8h21.6v7.2h-13.68v13.32h10.87v7.2h-10.87v15.48h13.68v7.2h-21.6V10.8Z"/>
      <path class="cls-1" d="M138.67,10.8h11.74c4.08,0,7.06.95,8.93,2.84,1.87,1.9,2.81,4.81,2.81,8.75v3.1c0,5.23-1.73,8.54-5.18,9.94v.14c1.92.58,3.28,1.75,4.07,3.53.79,1.78,1.19,4.15,1.19,7.13v8.86c0,1.44.05,2.6.14,3.49.1.89.34,1.76.72,2.63h-8.06c-.29-.82-.48-1.58-.58-2.3-.1-.72-.14-2.02-.14-3.89v-9.22c0-2.3-.37-3.91-1.12-4.82-.75-.91-2.03-1.37-3.85-1.37h-2.74v21.6h-7.92V10.8ZM149.47,32.4c1.58,0,2.77-.41,3.56-1.22.79-.82,1.19-2.18,1.19-4.1v-3.89c0-1.82-.32-3.14-.97-3.96-.65-.82-1.67-1.22-3.06-1.22h-3.6v14.4h2.88Z"/>
      <path class="cls-1" d="M169.27,58.64c-1.97-2.18-2.95-5.32-2.95-9.4v-2.88h7.49v3.46c0,3.26,1.37,4.9,4.1,4.9,1.34,0,2.36-.4,3.06-1.19.7-.79,1.04-2.08,1.04-3.85,0-2.11-.48-3.97-1.44-5.58-.96-1.61-2.74-3.54-5.33-5.8-3.26-2.88-5.54-5.48-6.84-7.81-1.3-2.33-1.94-4.96-1.94-7.88,0-3.98,1.01-7.07,3.02-9.25,2.02-2.18,4.94-3.28,8.78-3.28s6.66,1.09,8.6,3.28c1.94,2.19,2.92,5.32,2.92,9.4v2.09h-7.49v-2.59c0-1.73-.34-2.99-1.01-3.78s-1.66-1.19-2.95-1.19c-2.64,0-3.96,1.61-3.96,4.82,0,1.82.49,3.53,1.48,5.11.98,1.58,2.77,3.5,5.36,5.76,3.31,2.88,5.59,5.5,6.84,7.85,1.25,2.35,1.87,5.11,1.87,8.28,0,4.13-1.02,7.3-3.06,9.5-2.04,2.21-5,3.31-8.89,3.31s-6.74-1.09-8.71-3.28Z"/>
    </g>
  </g>
</svg>