<?xml version="1.0" encoding="UTF-8"?>
<svg id="Layer_2" data-name="Layer 2" xmlns="http://www.w3.org/2000/svg" viewBox="0 0 868.41 180.26">
  <defs>
    <style>
      .cls-1 {
        fill: #282828;
        stroke-width: 0px;
      }
    </style>
  </defs>
  <g id="Layer_3" data-name="Layer 3">
    <g>
      <path class="cls-1" d="M8.79,27.57c-.46-.39-.13-.93.98-1.61,1.11-.68,2.55-1.42,4.35-2.2,1.79-.78,3.5-1.5,5.13-2.15,1.11-.45,2.02-.83,2.73-1.12.72-.29,1.11-.5,1.17-.63.2-.13,1.09-.5,2.69-1.12,1.59-.62,3.53-1.32,5.81-2.1,2.28-.78,4.51-1.51,6.69-2.2,2.18-.68,3.92-1.19,5.22-1.51,20.44-4.88,39.91-6.05,58.4-3.52,2.47.33,6.18,1.01,11.13,2.05,4.95,1.04,9.77,2.28,14.45,3.71,4.69,1.43,7.88,2.9,9.57,4.39l6.35,4,1.46.78.29.29c.72.59,2,1.73,3.86,3.42,1.86,1.69,3.65,3.39,5.37,5.08,1.72,1.69,2.55,2.8,2.49,3.32-.07.26.16.78.68,1.56.72.98,1.48,2.38,2.29,4.2.81,1.82,1.35,4.07,1.61,6.74.06.39.1.85.1,1.37.2,1.37.28,2.82.24,4.35-.03,1.53-.38,2.82-1.03,3.86-.2.33-.33.59-.39.78-.07.2-.1.38-.1.54s.03.31.1.44c.06.13.11.26.15.39.03.13.02.33-.05.59-.07.26-.23.59-.49.98l-2.44,5.37-4.3,4.59c-.52.33-.98.81-1.37,1.46-.26.46-.55.85-.88,1.17s-.72.46-1.17.39l-3.32,3.52-1.07.49c-.33.2-.6.36-.83.49-.23.13-.46.23-.68.29-.23.07-.41.08-.54.05-.13-.03-.2-.21-.2-.54.06-.33-.03-.46-.29-.39-.26.07-.57.24-.93.54-.36.29-.65.59-.88.88-.23.29-.31.5-.24.63.26.2.34.33.24.39-.1.07-.28.13-.54.2-.33.07-.63.16-.93.29-.29.13-.5.36-.63.68-.13.59-.47.98-1.03,1.17-.55.2-1.16.33-1.81.39-.52,0-.96.05-1.32.15-.36.1-.67.28-.93.54-.13.13-.36.24-.68.34-.33.1-.72.21-1.17.34-.59.13-1.12.28-1.61.44-.49.16-.77.41-.83.73-.2.46-.42.67-.68.63-.26-.03-.52-.15-.78-.34-.26-.13-.49-.24-.68-.34s-.38-.06-.54.1-.28.54-.34,1.12c-.07.26-.18.41-.34.44-.16.03-.34.02-.54-.05-.2,0-.39.02-.59.05-.2.03-.33.18-.39.44-.39.98-1.21,1.77-2.44,2.39-1.24.62-2.54,1.16-3.91,1.61-.91.33-1.69.63-2.34.93-.65.29-.98.6-.98.93l-6.25,1.46c-.33.39-.85.63-1.56.73-.72.1-1.43.15-2.15.15-.91,0-1.56.08-1.95.24-.39.16-.33.5.2,1.03.33.33.52.54.59.63.06.1.03.11-.1.05-.13-.06-.29-.13-.49-.2-.26-.13-.54-.26-.83-.39-.29-.13-.55-.2-.78-.2s-.34.13-.34.39c-.07.26-.13.41-.2.44-.07.03-.2.05-.39.05-.26-.06-.67-.06-1.22,0-.55.07-1.32.33-2.29.78-.46.2-.85.23-1.17.1-.33-.13-.62-.29-.88-.49-.2-.2-.36-.33-.49-.39-.13-.06-.26-.05-.39.05-.13.1-.23.34-.29.73-.13.39-.36.6-.68.63-.33.03-.62.02-.88-.05-.2-.06-.33-.08-.39-.05-.07.03-.1.11-.1.24.13.26.16.42.1.49s-.21.03-.44-.1c-.23-.13-.47-.26-.73-.39-.2-.13-.38-.24-.54-.34-.16-.1-.29-.15-.39-.15s-.15.03-.15.1c0,.52-.03.88-.1,1.07-.07.2-.15.28-.24.24-.1-.03-.21-.11-.34-.24-.13-.13-.28-.24-.44-.34-.16-.1-.34-.1-.54,0s-.42.31-.68.63c-.13.2-.23.33-.29.39-.46,0-.75.03-.88.1-.2,0-.39.03-.59.1-.2.07-.46.23-.78.49-.52.13-1.21.23-2.05.29,0-.13-.05-.23-.15-.29-.1-.06-.24,0-.44.2-.07,0-.13.03-.2.1-1.17.07-2.54.07-4.1,0,.06-.13.18-.24.34-.34.16-.1.34-.15.54-.15.65.07,1.11-.03,1.37-.29s.29-.54.1-.83-.68-.44-1.46-.44c-.33.07-.57.03-.73-.1-.16-.13-.28-.29-.34-.49-.07-.06-.13-.13-.2-.2-.07-.06-.16-.03-.29.1s-.33.36-.59.68c-.26.26-.75.44-1.46.54-.72.1-1.46.15-2.25.15-.65.07-1.17.11-1.56.15-.39.03-.54.13-.44.29.1.16.57.41,1.42.73-4.23-.2-8.37-.1-12.4.29,1.11.52,2.18,1.04,3.22,1.56l.59.59c.33.33.6.55.83.68.23.13.41.18.54.15.13-.03.23-.08.29-.15h.2l.2.1c.06.07.2.29.39.68.26.59.49.96.68,1.12.2.16.37.2.54.1.16-.1.31-.24.44-.44l.29-.29c1.37.65,2.6,1.21,3.71,1.66-1.95.52,2.08,4.1,12.11,10.74,8.85,5.99,17.61,12.22,26.27,18.7,8.66,6.48,15.69,12.09,21.09,16.85l15.23,14.65c.13.98-.07,1.45-.59,1.42-.52-.03-1.17-.24-1.95-.63-.65-.33-1.24-.57-1.76-.73-.52-.16-.91-.02-1.17.44l-.39.78-16.7-10.55-1.46-.68-1.46-1.07c-.07-.26-.15-.42-.24-.49-.1-.07-.18-.08-.24-.05-.07.03-.13.05-.2.05-.07.06-.13.1-.2.1s-.1-.02-.1-.05v-.24l-3.42-2.54-3.91-1.37c-.2.07-.41.02-.63-.15-.23-.16-.44-.37-.63-.63-.2-.26-.39-.47-.59-.63-.2-.16-.36-.21-.49-.15-.65.26-1.43.13-2.34-.39-.91-.52-1.89-1.14-2.93-1.86-.72-.52-1.4-.98-2.05-1.37-.65-.39-1.24-.62-1.76-.68-1.04-.2-2.05-.72-3.03-1.56-.65-.52-1.37-.99-2.15-1.42-.78-.42-1.73-.6-2.83-.54-.72.07-1.53-.21-2.44-.83-.91-.62-1.82-1.32-2.73-2.1-.78-.59-1.46-1.07-2.05-1.46s-1.01-.55-1.27-.49c-.46.2-.83.16-1.12-.1-.29-.26-.54-.62-.73-1.07-.26-.52-.54-.94-.83-1.27-.29-.33-.7-.39-1.22-.2-.07,0-.33-.03-.78-.1-.46-.06-.96-.16-1.51-.29-.55-.13-1.04-.29-1.46-.49-.42-.2-.6-.42-.54-.68.06-.33.05-.55-.05-.68-.1-.13-.24-.2-.44-.2s-.39.03-.59.1c-.2.07-.39.1-.59.1s-.36-.06-.49-.2c-.26-.26-.49-.39-.68-.39h-.49c-.07.07-.13.1-.2.1s-.1-.05-.1-.15.03-.24.1-.44c.2-.65.21-1.04.05-1.17-.16-.13-.5-.23-1.03-.29-.98,0-2.6-.49-4.88-1.46-1.04-.52-1.89-.85-2.54-.98-.65-.13-1.11-.16-1.37-.1-.2,0-.29-.02-.29-.05s.06-.11.2-.24.26-.23.39-.29c.26-.33.31-.68.15-1.07-.16-.39-.42-.63-.78-.73-.36-.1-.73.11-1.12.63-.2.33-.38.52-.54.59-.16.07-.28,0-.34-.2-.07-.2-.13-.42-.2-.68-.07-.46-.21-.85-.44-1.17-.23-.33-.57-.36-1.03-.1-.26.07-.85-.1-1.76-.49-.91-.39-1.79-.86-2.64-1.42-.85-.55-1.33-.99-1.46-1.32-.2-.46-.41-.68-.63-.68s-.47.07-.73.2c-.2.13-.41.23-.63.29-.23.07-.44.03-.63-.1-.2-.13-.34-.26-.44-.39-.1-.13-.15-.23-.15-.29s.03-.13.1-.2v-.15s-.03-.05-.1-.05h-.39l-2.25-1.76.29.49c-1.04.13-1.84.38-2.39.73-.55.36-.83.67-.83.93l-1.37,4.3,2.05-2.64c-.13.98-.24,1.73-.34,2.25-.1.52-.18.88-.24,1.07-.07.2-.15.29-.24.29s-.18-.03-.24-.1c-.07-.06-.16-.13-.29-.2-.13-.06-.26-.06-.39,0-.13.07-.29.23-.49.49-.2.33-.28.57-.24.73.03.16.13.26.29.29.16.03.34.05.54.05.13.07.26.11.39.15.13.03.18.1.15.2-.03.1-.18.24-.44.44-.39.33-.73.46-1.03.39-.29-.06-.54-.24-.73-.54s-.36-.6-.49-.93c-.13-.26-.24-.46-.34-.59-.1-.13-.2-.13-.29,0-.1.13-.21.46-.34.98l-.98,3.91c.13.2.18.38.15.54-.03.16-.08.31-.15.44v.24s.05.03.15,0c.1-.03.28-.15.54-.34.26-.2.62-.42,1.07-.68l2.05-1.86c-.13.65-.41,1.27-.83,1.86-.42.59-.9,1.14-1.42,1.66-.78.72-1.21,1.33-1.27,1.86-.13.65-.29,1.07-.49,1.27s-.44.24-.73.15-.6-.24-.93-.44c-.39-.2-.73-.31-1.03-.34-.29-.03-.5.24-.63.83,0,.26-.08.42-.24.49-.16.07-.34.1-.54.1-.2-.06-.36-.06-.49,0-.13.07-.2.2-.2.39l-7.42,11.33c-.39.78-.8,1.33-1.22,1.66-.42.33-.8.5-1.12.54-.33.03-.52-.02-.59-.15-.13-.46-.39-.49-.78-.1s-.85,1.01-1.37,1.86c-.52.85-1.07,1.76-1.66,2.73-.52.85-.99,1.63-1.42,2.34-.42.72-.77,1.17-1.03,1.37l-3.71,5.86c.33.13.5.23.54.29.03.06,0,.13-.1.2-.1.06-.24.1-.44.1-.13.06-.24.11-.34.15-.1.03-.15.08-.15.15-.33,1.11-.62,2.05-.88,2.83-.26.78-.55,1.46-.88,2.05-.33.59-.62.94-.88,1.07-.39.06-.62.16-.68.29-.07.13-.03.26.1.39s.29.23.49.29l.2.2c.06.06.05.11-.05.15-.1.03-.28.02-.54-.05-.46-.07-.78.06-.98.39-.2.33-.33.72-.39,1.17-.13.52-.29.93-.49,1.22s-.59.34-1.17.15c-.46-.13-.9-.08-1.32.15-.42.23-.86.47-1.32.73-.39.33-.78.59-1.17.78s-.81.26-1.27.2h.1c-.72-.2-1.17-.55-1.37-1.07-.2-.52-.29-1.04-.29-1.56.07-.52.03-.88-.1-1.07-.46-.72-.78-2.26-.98-4.64C0,168.8-.05,166.41.05,164c.1-2.41.41-4.07.93-4.98.2-.26.29-.49.29-.68s-.03-.36-.1-.49c-.06-.2-.1-.39-.1-.59s.1-.46.29-.78l.88-2.25c.13.78.33.94.59.49.26-.46.57-1.27.93-2.44.36-1.17.7-2.41,1.03-3.71.26-.98.5-1.82.73-2.54.23-.72.37-1.17.44-1.37.33-.39.62-1.09.88-2.1.26-1.01.55-2.2.88-3.56.39-1.76.81-3.4,1.27-4.93.46-1.53.94-2.59,1.46-3.17.13-.06.29-.29.49-.68l.68-1.37c.26-.59.52-1.14.78-1.66.26-.52.49-.89.68-1.12.2-.23.29-.21.29.05s-.13.91-.39,1.95c-.33,1.24-.47,1.97-.44,2.2.03.23.18.13.44-.29.26-.42.57-1.01.93-1.76.36-.75.7-1.55,1.03-2.39.33-.65.6-1.24.83-1.76.23-.52.37-.81.44-.88l5.18-11.52c.39-.98.63-1.69.73-2.15.1-.46.06-.76-.1-.93-.16-.16-.38-.24-.63-.24-.26-.06-.52-.18-.78-.34-.26-.16-.46-.47-.59-.93-.13-.52-.52-1.11-1.17-1.76-.72-.72-1.32-1.51-1.81-2.39s-.5-1.87-.05-2.98c.33-.72.36-1.45.1-2.2-.26-.75-.59-1.48-.98-2.2-.52-.91-.88-1.76-1.07-2.54-.13-1.37-.16-2.31-.1-2.83.06-.52.21-.81.44-.88.23-.06.5-.06.83,0,.26.13.55.18.88.15.33-.03.62-.28.88-.73.2-.26.37-.42.54-.49.16-.06.33-.06.49,0,.16.07.31.16.44.29.2.13.39.23.59.29.2.07.36-.03.49-.29.2-.2.42-.26.68-.2.26.07.55.2.88.39.33.13.63.24.93.34s.57.05.83-.15l4,1.27,4.59-8.2,1.07-2.15c.98-1.95,2.26-4.52,3.86-7.71,1.59-3.19,3.16-6.36,4.69-9.52,1.53-3.16,2.67-5.65,3.42-7.47.75-1.82.76-2.31.05-1.46-.39.46-.54.59-.44.39s.31-.62.63-1.27c.59-.98,1.19-2.12,1.81-3.42.62-1.3.99-2.41,1.12-3.32l1.86-4.79,6.05-13.77c.2-.13.42-.26.68-.39.46-.33.98-.6,1.56-.83.59-.23,1.14-.21,1.66.05l7.23,1.17c.46.26.88.38,1.27.34.39-.03.75-.08,1.07-.15.39-.13.78-.18,1.17-.15.39.03.8.31,1.22.83.42.52.89,1.43,1.42,2.73,1.17,2.67,2.28,4.62,3.32,5.86.98,1.17,1.76,2.59,2.34,4.25s.85,4.41.78,8.25c-.2,5.66-.6,9.83-1.22,12.5-.62,2.67-1.16,4.53-1.61,5.57-.26.65-.46,1.24-.59,1.76-.13.65-.28,1.16-.44,1.51-.16.36-.34.62-.54.78-.2.16-.36.28-.49.34-.26.07-.47.2-.63.39-.16.2-.29.55-.39,1.07-.1.52-.11,1.3-.05,2.34l7.13-2.54c.46.07.8.08,1.03.05.23-.03.39-.1.49-.2s.16-.18.2-.24c.03-.06.05-.16.05-.29v-.15s.03-.06.1-.1c.06-.03.2-.05.39-.05.39,0,1.89-.34,4.49-1.03,2.6-.68,5.6-1.53,8.98-2.54,3.38-1.01,6.43-1.97,9.13-2.88,2.7-.91,4.35-1.59,4.93-2.05.65-.52,3.03-1.53,7.13-3.03,3.71-1.37,7.71-2.96,12.01-4.79,4.3-1.82,7.78-3.65,10.45-5.47,1.89-1.3,3.19-2.39,3.91-3.27.72-.88,1.07-1.68,1.07-2.39s-.16-1.5-.49-2.34v-.1c-.78-2.21-2.07-4.2-3.86-5.96-1.79-1.76-3.68-3.22-5.66-4.39-1.99-1.17-3.73-2.07-5.22-2.69-1.5-.62-2.34-.93-2.54-.93-.07,0-.33-.1-.78-.29-1.43-.52-4.17-1.4-8.2-2.64-4.04-1.24-8.66-2.38-13.87-3.42-5.21-1.04-10.35-1.53-15.43-1.46l-10.16.39c-.52.07-.9.08-1.12.05-.23-.03-.39-.08-.49-.15-.1-.06-.18-.13-.24-.2,0-.06-.03-.11-.1-.15-.07-.03-.18-.03-.34,0-.16.03-.41.11-.73.24-.2.07-1.24.2-3.12.39-3,.33-6.53.77-10.6,1.32-4.07.55-7.15,1.16-9.23,1.81l-23.14,7.62c-.91.52-1.86.78-2.83.78-.98.07-1.89.36-2.73.88l-6.54,3.91c-.46.52-.83.85-1.12.98-.29.13-.52.15-.68.05-.16-.1-.31-.24-.44-.44-.2-.2-.39-.37-.59-.54-.2-.16-.49-.2-.88-.1s-.91.38-1.56.83c-.59.46-.94.57-1.07.34-.13-.23-.2-.7-.2-1.42,0-.65-.1-1.48-.29-2.49-.2-1.01-.62-2.03-1.27-3.08l-1.46-4ZM9.67,135.87c.06,0,.15-.05.24-.15s.15-.24.15-.44l-.39.59ZM35.45,84.6c.26-.59.34-.94.24-1.07-.1-.13-.26-.13-.49,0-.23.13-.46.33-.68.59-.23.26-.34.5-.34.73s.2.38.59.44c.13,0,.26-.05.39-.15.13-.1.23-.28.29-.54ZM34.47,147.98c.06-.33.18-.63.34-.93.16-.29.29-.46.39-.49.1-.03.11.11.05.44-.07.33-.36.91-.88,1.76l.1-.78ZM39.94,135.38c.13,0,.26-.03.39-.1l-.39.1ZM44.73,55.31c-.33.78-.49.81-.49.1l.49-.1ZM47.27,122.79c-.13,0-.23-.05-.29-.15-.07-.1-.1-.18-.1-.24l.39.39ZM73.44,110.04c-.26-.03-.42-.11-.49-.24-.07-.13-.1-.29-.1-.49.72.26,1.37.46,1.95.59-.65.13-1.11.18-1.37.15ZM76.27,109.99c.2-.06.46.03.78.29-.13.07-.24.08-.34.05-.1-.03-.18-.11-.24-.24-.07,0-.13-.03-.2-.1ZM139.26,168.2l-.49.1c.06.06.15.1.24.1s.18-.07.24-.2ZM141.11,169.86c.13-.26.18-.44.15-.54-.03-.1-.11-.15-.24-.15s-.26.05-.39.15c-.13.1-.2.2-.2.29s.06.21.2.34c.06.06.15.08.24.05.1-.03.18-.08.24-.15ZM146.09,77.57l-.49.29c.13,0,.23-.02.29-.05.06-.03.13-.11.2-.24Z"/>
      <path class="cls-1" d="M148.83,124.06l1.46-2.05-1.37,4.59c.2.33.26.59.2.78-.06.2-.2.34-.39.44s-.39.18-.59.24c-.13.07-.24.13-.34.2-.1.07-.13.15-.1.24.03.1.15.21.34.34l.1,2.34c-.13-.39-.26-.75-.39-1.07-.26-.52-.41-1.09-.44-1.71-.03-.62.18-1.32.63-2.1.33-.52.5-.93.54-1.22.03-.29.02-.5-.05-.63,0-.13.02-.23.05-.29.03-.06.15-.1.34-.1ZM150.59,138.12h.44s.02-.03-.05-.1-.13-.26-.2-.59c-.06-.33-.06-.78,0-1.37,0-.52-.06-.94-.2-1.27-.13-.33-.26-.62-.39-.88-.26-.33-.47-.75-.63-1.27-.16-.52-.16-1.29,0-2.29.16-1.01.57-2.39,1.22-4.15.52-1.37.85-2.73.98-4.1.13-.85.28-1.61.44-2.29.16-.68.44-1.19.83-1.51l1.66-1.66-1.56,5.27c.26.13.67-.24,1.22-1.12.55-.88,1.11-1.95,1.66-3.22.55-1.27.93-2.42,1.12-3.47.13-.78.26-1.37.39-1.76.13-.39.26-.67.39-.83.13-.16.26-.24.39-.24s.23.03.29.1h.2c.06,0,.11-.03.15-.1.03-.06.05-.2.05-.39l12.6-16.31,28.91-29.2c1.43-.52,3.42-1.69,5.96-3.52,1.69-1.24,3.48-2.42,5.37-3.56,1.89-1.14,3.74-1.9,5.57-2.29,2.21-.52,3.74-1.07,4.59-1.66.78-.39,1.5-.59,2.15-.59s1.63.46,2.93,1.37c2.28,1.37,4.92,2.34,7.91,2.93,1.76.46,3.38.98,4.88,1.56,1.5.59,2.6,1.37,3.32,2.34.26.39.68.85,1.27,1.37,1.04.98,1.97,2.08,2.78,3.32.81,1.24.83,2.41.05,3.52l-.78,2.05c-.07,0-.28.26-.63.78-.36.52-.8,1.17-1.32,1.95-.85,1.17-1.73,2.41-2.64,3.71-.91,1.3-1.76,2.44-2.54,3.42s-1.37,1.53-1.76,1.66l-6.93,8.69c-.85.59-1.48,1.19-1.9,1.81-.42.62-.77,1.22-1.03,1.81-.33.78-.68,1.27-1.07,1.46-.26.07-.47.2-.63.39-.16.2-.34.49-.54.88-.39.91-1.56,2.41-3.52,4.49l-5.18,6.74c0,.2-.11.39-.34.59-.23.2-.54.39-.93.59-.46.26-.88.55-1.27.88-.39.33-.59.72-.59,1.17s-.62,1.16-1.86,2.1c-1.24.94-2.56,1.82-3.96,2.64-1.4.81-2.29,1.22-2.69,1.22-.33,0-.59.03-.78.1-.2.07-.29.16-.29.29s-.31.21-.93.24c-.62.03-1.35.03-2.2,0-.85-.03-1.61-.1-2.29-.2s-1.12-.21-1.32-.34c-.39-.33-1.21-.68-2.44-1.07-.98-.33-2-.7-3.08-1.12-1.07-.42-2-.93-2.78-1.51l-5.96-3.12-5.86,7.52c-.72,1.24-1.38,2.17-2,2.78s-1.12,1.03-1.51,1.22c-.33.26-.54.47-.63.63-.1.16.02.41.34.73l-2.25,10.06c.06.52,0,1.11-.2,1.76-.2.59-.26,1.14-.2,1.66.06.52.47.88,1.22,1.07.75.2,2.08.15,4-.15,1.92-.29,4.62-.91,8.11-1.86,3.48-.94,8.02-2.33,13.62-4.15l34.57-10.06c.26.33.89.33,1.9,0,1.01-.33,2.07-.72,3.17-1.17.65-.26,1.22-.47,1.71-.63.49-.16.76-.21.83-.15.2.26-.02.75-.63,1.46-.62.72-1.42,1.5-2.39,2.34-.98.85-1.87,1.58-2.69,2.2-.81.62-1.25.93-1.32.93l-12.01,6.84-4.79,2.44-7.81,5.37-4.49,2.64-3.81,1.76c-.13.46-.44.8-.93,1.03-.49.23-1.03.39-1.61.49s-1.04.18-1.37.24h-.29c-.59.07-1.03.16-1.32.29-.29.13-.46.29-.49.49-.03.2-.02.36.05.49,0,.13-.02.24-.05.34-.03.1-.1.18-.2.24-.1.07-.31.1-.63.1-.07-.06-.34-.13-.83-.2-.49-.06-1.03-.08-1.61-.05-.59.03-1.11.18-1.56.44-.46.26-.75.72-.88,1.37-.07.33-.47.55-1.22.68-.75.13-1.51.26-2.29.39-.52.07-.94.11-1.27.15-.33.03-.49.11-.49.24,0,.26-.02.42-.05.49-.03.07-.1.08-.2.05-.1-.03-.21-.11-.34-.24-.13-.06-.28-.13-.44-.2-.16-.06-.28-.03-.34.1-.39.46-.85.67-1.37.63-.52-.03-1.01-.11-1.46-.24-.26-.06-.49-.11-.68-.15-.2-.03-.33.02-.39.15l-2.83.39c-.13-.13-.26-.2-.39-.2s-.23.03-.29.1c-.07.06-.13.13-.2.2,0,.06-.03.11-.1.15-.07.03-.11.05-.15.05s-.08-.07-.15-.2c-.2-.33-.47-.47-.83-.44-.36.03-.7.11-1.03.24-.33.06-.62.11-.88.15-.26.03-.46-.05-.59-.24-.13-.13-.28-.23-.44-.29-.16-.06-.38-.1-.63-.1-.33,0-.81-.1-1.46-.29-.65-.2-1.56-.55-2.73-1.07-.39-.13-.91-.36-1.56-.68-1.95-.72-4.15-1.71-6.59-2.98s-3.99-2.59-4.64-3.96c-.59-1.17-1.04-2.15-1.37-2.93s-.55-1.56-.68-2.34c-.13-.78-.1-1.37.1-1.76l.29-.68ZM203.42,85.68c0,.07-.65.81-1.95,2.25-1.11,1.3-2.39,2.78-3.86,4.44s-2.75,3.21-3.86,4.64c-1.11,1.43-1.66,2.38-1.66,2.83,0,1.24.39,2.29,1.17,3.17s1.66,1.42,2.64,1.61,1.79-.13,2.44-.98l14.94-10.64c1.17-.98,3.09-2.65,5.76-5.03,2.67-2.38,5.22-4.77,7.67-7.18,2.44-2.41,3.86-4.1,4.25-5.08.33-1.3-.23-2.36-1.66-3.17-1.43-.81-3.06-1.29-4.88-1.42-1.82-.13-3.19.16-4.1.88-.65.59-1.24.99-1.76,1.22-.52.23-.94.41-1.27.54-.39.07-.7.18-.93.34-.23.16-.44.41-.63.73l-12.3,10.84Z"/>
      <path class="cls-1" d="M243.07,112.63c5.6-8.53,11.96-17.24,19.09-26.12s14.57-16.19,22.31-21.92c1.3,1.17,2.33,2.04,3.08,2.59.75.55,1.33.91,1.76,1.07.42.16.83.24,1.22.24.39.07.8.15,1.22.24.42.1.99.34,1.71.73.52.26,1.01.49,1.46.68,1.63.72,2.98,1.55,4.05,2.49,1.07.94,2.26,2.69,3.56,5.22.2.33.36.65.49.98.39.85.78,1.43,1.17,1.76.39.33,1.01.24,1.86-.24.85-.49,2.08-1.58,3.71-3.27l4.3-3.91c.33-.65,1.11-1.79,2.34-3.42,1.04-1.3,2.03-2.64,2.98-4,.94-1.37,1.51-2.47,1.71-3.32.2-1.11.62-1.63,1.27-1.56.65.07,1.4.33,2.25.78.72.39,1.37.67,1.95.83.59.16,1.04-.02,1.37-.54.2-.26.83-.29,1.9-.1s2.29.59,3.66,1.17,2.6,1.32,3.71,2.2c1.11.88,1.76,1.9,1.95,3.08.39,3,.33,5.22-.2,6.69-.52,1.46-1.01,2.46-1.46,2.98-.26.33-.39.59-.39.78,0,.65-.39,1.66-1.17,3.03s-1.53,2.6-2.25,3.71c-.65,1.04-1.01,1.66-1.07,1.86l-8.5,16.5c0,.65-.18,1.29-.54,1.9-.36.62-.77,1.25-1.22,1.9-1.3,1.56-2.18,3.52-2.64,5.86l-6.93,18.46c-.59.72-.94,1.58-1.07,2.59-.13,1.01-.16,1.87-.1,2.59,0,.39-.02.65-.05.78-.03.13-.11.03-.24-.29-.46-.91-.81-1.2-1.07-.88-.26.33-.47.98-.63,1.95-.16.98-.26,2.02-.29,3.12-.03,1.11-.05,2.02-.05,2.73l-3.52.1c-.46.46-1.19.54-2.2.24-1.01-.29-2.08-.81-3.22-1.56-1.14-.75-2.12-1.51-2.93-2.29-.81-.78-1.22-1.33-1.22-1.66,0-.78-.16-1.5-.49-2.15-.33-.65-.68-1.24-1.07-1.76-.46-.59-.83-1.17-1.12-1.76s-.44-1.24-.44-1.95c0-.06-.03-.2-.1-.39-.2-.33-.39-1.37-.59-3.12s-.16-4.72.1-8.89l.29-3.61-2.25.59c.06-.06.18-.24.34-.54.16-.29.29-.6.39-.93.1-.33.11-.55.05-.68-.07-.13-.28-.1-.63.1-.36.2-.93.65-1.71,1.37-.72.65-1.25,1.09-1.61,1.32-.36.23-.6.38-.73.44-.13,0-.21.02-.24.05s-.05.08-.05.15v.39c-.07.13-.1.39-.1.78-.07.13-.55.59-1.46,1.37-.72.65-1.53,1.42-2.44,2.29-.91.88-1.71,1.73-2.39,2.54-.68.81-1.03,1.42-1.03,1.81,0,.2-.07.31-.2.34-.13.03-.26.05-.39.05-.2,0-.38.02-.54.05-.16.03-.31.13-.44.29-.13.16-.2.44-.2.83,0,.65-.24,1.11-.73,1.37-.49.26-.96.46-1.42.59-.26.13-.49.23-.68.29-.2.07-.23.2-.1.39.2.46.15.91-.15,1.37-.29.46-.72.88-1.27,1.27-.55.39-1.09.75-1.61,1.07-.33.2-.59.36-.78.49-.2.13-.29.23-.29.29,0,.33-.7,1.21-2.1,2.64-1.4,1.43-3.06,2.96-4.98,4.59-1.92,1.63-3.73,3.06-5.42,4.3-1.69,1.24-2.83,1.86-3.42,1.86-.26,0-.44.05-.54.15s-.15.18-.15.24-.03.13-.1.2-.13.1-.2.1h-.39l-2.54,1.17c-.07.13-.23.13-.49,0-.26-.13-.55-.29-.88-.49-.33-.13-.62-.26-.88-.39-.26-.13-.44-.15-.54-.05s-.05.38.15.83c.13.26.11.41-.05.44-.16.03-.5-.08-1.03-.34-.2-.06-.36-.1-.49-.1h-.39c-.13,0-.28-.02-.44-.05-.16-.03-.36-.13-.59-.29-.23-.16-.54-.44-.93-.83-.78-.72-1.87-1.37-3.27-1.95-1.4-.59-2.72-1.11-3.96-1.56-.72-.26-1.3-.49-1.76-.68-.46-.2-.68-.33-.68-.39,0-.2-.29-.59-.88-1.17-.46-.52-.94-1.12-1.46-1.81-.52-.68-.78-1.35-.78-2,0-1.82.81-4.67,2.44-8.54,1.63-3.87,3.4-7.6,5.32-11.18,1.92-3.58,3.37-6.09,4.35-7.52ZM295.7,86.26c-.33-.33-.68-.75-1.07-1.27-.65-.91-1.4-1.61-2.25-2.1-.85-.49-1.92-.24-3.22.73-.39.26-.81.49-1.27.68-.52.26-1.3.75-2.34,1.46-1.04.72-2.54,2.02-4.49,3.91-.59.52-1.21,1.07-1.86,1.66-1.24,1.11-2.44,2.26-3.61,3.47-1.17,1.21-2.02,2.33-2.54,3.37-.2.52-.38.9-.54,1.12-.16.23-.31.36-.44.39-.13.03-.23.05-.29.05-.07-.06-.15-.08-.24-.05-.1.03-.2.11-.29.24-.1.13-.21.33-.34.59l-11.52,16.99c-.85,1.37-1.79,2.51-2.83,3.42-.65.59-1.24,1.21-1.76,1.86-.52.65-.94,1.46-1.27,2.44v3.12l4.39-3.32c.46,0,1.04-.42,1.76-1.27.52-.59,1.17-1.16,1.95-1.71.78-.55,1.66-.89,2.64-1.03.98-.13,2.23-.78,3.76-1.95,1.53-1.17,3.03-2.47,4.49-3.91,1.46-1.43,2.55-2.57,3.27-3.42l.68-.68,15.14-14.16c0-.06.23-.23.68-.49.91-.52,1.97-1.33,3.17-2.44,1.2-1.11,1.84-2.47,1.9-4.1,0-.13.03-.23.1-.29l.2-.2c.13-.06.23-.16.29-.29.06-.13.06-.29,0-.49-.07-.2-.28-.47-.63-.83-.36-.36-.9-.86-1.61-1.51ZM288.38,118.88c-.78.46-.81.33-.1-.39l.1.39Z"/>
      <path class="cls-1" d="M402.34,79.23c-.2,0-.44.54-.73,1.61s-.54,2.34-.73,3.81-.31,2.82-.34,4.05c-.03,1.24.08,2.08.34,2.54l.59,3.91c0,.13-.15.39-.44.78s-.68.78-1.17,1.17-.98.7-1.46.93c-.49.23-.9.28-1.22.15-.52-.39-.96-.6-1.32-.63-.36-.03-.67-.02-.93.05-.26.07-.57.05-.93-.05-.36-.1-.81-.41-1.37-.93-.55-.52-1.35-1.4-2.39-2.64-.39-.46-.88-.91-1.46-1.37-.59-.46-1.06-.88-1.42-1.27-.36-.39-.44-.78-.24-1.17l-1.56-5.08c.2-.78.16-1.2-.1-1.27-.26-.06-.63.07-1.12.39-.49.33-.99.75-1.51,1.27-.46.33-.85.62-1.17.88-.33.26-.55.36-.68.29l-1.66,2.54-8.79,9.08-17.48,22.36c0,.52-.24,1.01-.73,1.46-.49.46-.99.81-1.51,1.07-.46.33-.68.52-.68.59l-7.13,11.72c-.85,1.04-1.07,1.69-.68,1.95.39.26,1.59.23,3.61-.1,3.91-.52,8.37-1.58,13.38-3.17,5.01-1.59,9.99-3.3,14.94-5.13,4.49-1.63,8.5-2.99,12.01-4.1l19.24-6.64c.65-.2,1.03-.2,1.12,0s.02.47-.24.83c-.26.36-.59.77-.98,1.22-.39.39-.73.78-1.03,1.17s-.44.72-.44.98c0,.2-.2.42-.59.68-.33.26-.68.6-1.07,1.03-.39.42-.68.99-.88,1.71-.26.78-.65,1.35-1.17,1.71-.52.36-1.17.7-1.95,1.03-1.04.46-2.38,1.21-4,2.25-.59.46-1.04.72-1.37.78-.33.07-.57.07-.73,0-.16-.06-.28-.16-.34-.29,0-.06-.03-.11-.1-.15-.07-.03-.11-.02-.15.05-.03.07-.1.18-.2.34-.1.16-.21.41-.34.73l-5.27,3.71c-1.17.98-2.7,1.86-4.59,2.64-1.17.59-2.18,1.12-3.03,1.61-.85.49-1.27.99-1.27,1.51,0,.13-.1.23-.29.29-.2.07-.46.1-.78.1-.46,0-.93.08-1.42.24-.49.16-.9.5-1.22,1.03l-4.69,1.27c.13.33-.05.72-.54,1.17-.49.46-1.11.9-1.86,1.32-.75.42-1.45.78-2.1,1.07-.65.29-1.07.41-1.27.34-.39-.13-.7-.18-.93-.15-.23.03-.39.11-.49.24-.1.13-.18.29-.24.49-.07.2-.2.39-.39.59s-.59.26-1.17.2c-.2-.06-.34-.06-.44,0-.1.07-.21.16-.34.29-.2.26-.59.52-1.17.78-.59.26-1.56.39-2.93.39h-.1c-.33.13-1.3.34-2.93.63-1.63.29-3.35.52-5.18.68-1.82.16-3.22.02-4.2-.44l-7.71-2.54h-.1c-.33-.06-1.22-.36-2.69-.88-1.46-.52-2.96-1.3-4.49-2.34-1.53-1.04-2.59-2.34-3.17-3.91,0-.06-.06-.16-.2-.29-.2-.33-.46-.78-.78-1.37-.33-.59-.59-1.24-.78-1.95-.2-.72-.13-1.4.2-2.05.46-1.24.88-2.9,1.27-4.98.26-1.43.57-2.75.93-3.96.36-1.2.77-2.03,1.22-2.49.33-.26.68-.78,1.07-1.56s.81-1.66,1.27-2.64c.52-1.3,1.06-2.47,1.61-3.52.55-1.04,1.06-1.59,1.51-1.66.52,0,.88-.16,1.07-.49.2-.33.33-.75.39-1.27.13-.52.33-1.09.59-1.71.26-.62.72-1.25,1.37-1.9l5.08-5.76,7.62-8.69c.39-.46.68-.83.88-1.12s.31-.52.34-.68c.03-.16.02-.28-.05-.34,0-.13.02-.29.05-.49.03-.2.16-.44.39-.73.23-.29.6-.7,1.12-1.22l3.91-4.1c.13,0,.24-.05.34-.15s.15-.24.15-.44c.46-1.04,2.42-3.38,5.91-7.03,3.48-3.65,7.31-7.45,11.47-11.43,4.17-3.97,7.49-7,9.96-9.08.78.2,1.89.36,3.32.49,1.43.13,2.77.13,4,0,1.24-.13,1.92-.49,2.05-1.07.06-.33.13-.49.2-.49s.2.07.39.2c.33.33,1.14.78,2.44,1.37l5.47,2.34c1.89.59,3.08,1.35,3.56,2.29.49.94.76,1.87.83,2.78.06.46.15.85.24,1.17.1.33.34.49.73.49.06,0,.21.07.44.2.23.13.46.29.68.49.23.2.36.39.39.59.03.2-.08.33-.34.39-.52.26-1.03.99-1.51,2.2-.49,1.21-.96,2.43-1.42,3.66-.26.72-.47,1.32-.63,1.81-.16.49-.31.73-.44.73Z"/>
      <path class="cls-1" d="M399.51,138.22l-.2-.2c-.39-.39-.7-.68-.93-.88-.23-.2-.37-.34-.44-.44-.06-.1-.08-.16-.05-.2.03-.03.11-.08.24-.15.13-.06.28-.18.44-.34.16-.16.33-.46.49-.88.16-.42.24-1.03.24-1.81l.39-4.1c-.2-1.24.03-2.67.68-4.3.65-1.63,1.43-3.29,2.34-4.98,1.04-2.08,1.79-3.84,2.25-5.27.72-2.6,2.78-7.24,6.2-13.92,3.42-6.67,6.92-13.17,10.5-19.48,3.58-6.31,5.92-10.29,7.03-11.91,1.37-1.76,2.34-3.16,2.93-4.2.59-1.04.91-1.84.98-2.39.06-.55.06-1.03,0-1.42,0-.26.02-.54.05-.83.03-.29.21-.67.54-1.12l7.13-11.52,1.17-2.44,13.18-21.88c.33-.33.89-1.19,1.71-2.59.81-1.4,1.77-3.11,2.88-5.13,1.43-2.67,2.91-5.29,4.44-7.86,1.53-2.57,2.82-4.51,3.86-5.81.59-.78.94-1.37,1.07-1.76.13-.2.23-.33.29-.39.06-.06.15-.03.24.1.1.13.28.36.54.68h.1c.59.72,1.5,1.46,2.73,2.25.98.65,1.87,1.33,2.69,2.05.81.72,1.35,1.5,1.61,2.34.06.98-.49,3.22-1.66,6.74s-2.57,7.41-4.2,11.67c-1.63,4.26-3.12,7.96-4.49,11.08s-2.15,4.79-2.34,4.98l-1.27,2.93c-.52.65-.86,1.19-1.03,1.61-.16.42-.24.77-.24,1.03-.07.26-.15.47-.24.63-.1.16-.28.34-.54.54l-5.76,13.28-1.95,4.49-5.57,11.72c-.33.39-.57.86-.73,1.42-.16.55-.28,1.12-.34,1.71-.07.52-.16.96-.29,1.32-.13.36-.33.57-.59.63l-4.2,9.38c-.2.07-.41.34-.63.83-.23.49-.47,1.12-.73,1.9-.65,2.02-1.6,4-2.83,5.96l-6.05,12.21-4,8.01c-.2,0-.36.07-.49.2s-.23.24-.29.34c-.07.1-.05.16.05.2.1.03.29-.03.59-.2.29-.16.75-.46,1.37-.88.62-.42,1.4-1.03,2.34-1.81.94-.78,2.1-1.79,3.47-3.03l5.18-4.1c.39-.39,1.3-1.4,2.73-3.03,2.21-2.6,5.29-6.05,9.23-10.35,3.94-4.3,8.28-8.66,13.04-13.09,4.75-4.43,9.47-8.14,14.16-11.13,4.69-2.99,8.9-4.49,12.65-4.49s6.56,2.25,8.45,6.74c.85,2.54.76,5.06-.24,7.57-1.01,2.51-2,4.48-2.98,5.91-.46.78-.72,1.27-.78,1.46,0,.46-.36,1.38-1.07,2.78-.72,1.4-1.56,2.98-2.54,4.74-1.04,1.76-1.94,3.37-2.69,4.83-.75,1.46-1.12,2.46-1.12,2.98l-7.62,20.02c.06.46.02.85-.15,1.17-.16.33-.38.62-.63.88-.33.39-.59.81-.78,1.27-.2.46-.29,1.07-.29,1.86l-9.28,19.14c-.2.07-.33.18-.39.34-.07.16-.07.34,0,.54,0,.33-.03.65-.1.98-.07.33-.33.55-.78.68-.13,0-.41.2-.83.59-.42.39-.81.93-1.17,1.61-.36.68-.5,1.48-.44,2.39.13,1.04.02,1.82-.34,2.34-.36.52-.85.86-1.46,1.03-.62.16-1.24.23-1.86.2-.62-.03-1.14-.08-1.56-.15-.42-.07-.63-.13-.63-.2l-5.08-1.07c-.07-.33-.39-.75-.98-1.27-1.24-.91-2.43-2.6-3.56-5.08-1.14-2.47-1.16-6.35-.05-11.62.2-1.11.39-2.08.59-2.93.26-1.63.72-3.37,1.37-5.22.65-1.86,1.95-4.57,3.91-8.15,1.17-2.34,1.84-4.39,2-6.15.16-1.76.15-3.35-.05-4.79-.26-1.56-.23-2.96.1-4.2.13-.52.11-.76-.05-.73-.16.03-.44.24-.83.63s-.85.88-1.37,1.46c-.85.98-1.73,1.92-2.64,2.83s-1.69,1.4-2.34,1.46l-1.27,2.05c-.07-.26-.2-.41-.39-.44-.2-.03-.38.03-.54.2s-.24.38-.24.63c.06.78-.03,1.33-.29,1.66-.26.33-.52.52-.78.59-.2.13-.36.26-.49.39s-.16.33-.1.59l-2.44,3.42c-.98.59-1.58,1.07-1.81,1.46-.23.39-.38.75-.44,1.07,0,.2-.07.38-.2.54-.13.16-.39.31-.78.44-.78.26-1.35.49-1.71.68-.36.2-.59.41-.68.63-.1.23-.15.47-.15.73s-.05.54-.15.83-.33.6-.68.93c-.36.33-.9.68-1.61,1.07-.13.07-.42.36-.88.88-.52.59-1.14,1.24-1.86,1.95s-1.35,1.27-1.9,1.66c-.55.39-.86.39-.93,0,0-.39-.1-.52-.29-.39-.2.13-.49.39-.88.78-.52.52-1.16,1.06-1.9,1.61-.75.55-1.61.96-2.59,1.22-.39.07-.88.2-1.46.39-.98.33-1.92.57-2.83.73-.91.16-1.56.02-1.95-.44-.13-.2-.26-.26-.39-.2-.13.07-.26.16-.39.29-.2.13-.36.23-.49.29-.13.07-.29.07-.49,0-.26,0-1.43-.08-3.52-.24-2.08-.16-4.43-.6-7.03-1.32-2.6-.72-4.88-1.89-6.84-3.52ZM419.43,82.84c-.07.2-.16.34-.29.44-.13.1-.24.15-.34.15s-.18-.1-.24-.29l.88-.29ZM420.41,79.91c-.52,1.3-.81,1.56-.88.78l.88-.78ZM427.25,68.78c0-.33.05-.52.15-.59.1-.06.21-.06.34,0,.13.07.2.18.2.34s-.1.34-.29.54c-.13.07-.23.07-.29,0-.07-.06-.1-.16-.1-.29Z"/>
      <path class="cls-1" d="M599.22,66.63c.2.26.62.57,1.27.93.65.36,1.37.62,2.15.78.78.16,1.5.11,2.15-.15,1.5-.46,3.61-.1,6.35,1.07s5.55,2.72,8.45,4.64c2.9,1.92,5.35,3.79,7.37,5.62,2.02,1.82,2.99,3.03,2.93,3.61,0,.13.16.49.49,1.07.52.85,1.09,2.1,1.71,3.76.62,1.66.89,3.55.83,5.66-.07,2.12-.85,4.31-2.34,6.59l-.1.1c-.2.46-.75,1.64-1.66,3.56-.91,1.92-1.99,3.84-3.22,5.76-1.24,1.92-2.41,3.14-3.52,3.66-.26.13-.54.44-.83.93s-.6,1.09-.93,1.81c-.52.98-1.06,1.89-1.61,2.73-.55.85-1.06,1.24-1.51,1.17l-10.64,12.79c-.98.91-1.69,1.71-2.15,2.39-.46.68-.81,1.29-1.07,1.81-.26.52-.52.96-.78,1.32-.26.36-.65.63-1.17.83-.13.13-.49.46-1.07.98-.85.78-1.82,1.6-2.93,2.44-1.11.85-1.99,1.27-2.64,1.27-.46-.06-.85.13-1.17.59-.33.46-.62,1.01-.88,1.66-.26.78-.62,1.51-1.07,2.2-.46.68-1.11,1.16-1.95,1.42l-6.64,2.83c-.33-.06-.91.1-1.76.49-.85.46-1.77.82-2.78,1.07-1.01.26-2,.1-2.98-.49-.26-.13-.47-.23-.63-.29-.16-.06-.29-.08-.39-.05-.1.03-.21.05-.34.05-.13.13-.33.21-.59.24-.26.03-.7-.03-1.32-.2-.62-.16-1.48-.5-2.59-1.03-1.89-.85-3.78-1.59-5.66-2.25-2.41-.72-4.67-1.64-6.79-2.78-2.12-1.14-3.97-2.86-5.57-5.18-1.6-2.31-2.82-5.62-3.66-9.91-.52-3.38-.57-7.6-.15-12.65.42-5.04,1.19-9.8,2.29-14.26,1.11-4.46,2.41-7.47,3.91-9.03.65-.59,1.33-1.53,2.05-2.83,1.04-1.89,2.9-4.38,5.57-7.47,2.67-3.09,7.1-6.72,13.28-10.89l4.1-2.64c.13,0,.6-.05,1.42-.15.81-.1,1.76-.18,2.83-.24,1.07-.06,2.07-.03,2.98.1.91.13,1.53.46,1.86.98.39.46.72.68.98.68s.46-.18.59-.54c.13-.36.26-.76.39-1.22.2-.46.37-.88.54-1.27.16-.39.37-.59.63-.59.39.07.78-.1,1.17-.49s.78-.81,1.17-1.27c.59-.65,1.16-1.17,1.71-1.56.55-.39,1.09-.36,1.61.1.2.2.36.29.49.29s.24-.06.34-.2c.1-.13.18-.26.24-.39.06-.2.15-.34.24-.44s.23-.13.39-.1c.16.03.37.21.63.54ZM603.12,92.71c-.13-.33-.63-.89-1.51-1.71-.88-.81-1.84-1.61-2.88-2.39-1.04-.78-1.99-1.32-2.83-1.61-.85-.29-1.33-.05-1.46.73-.07.65-.33,1.12-.78,1.42-.46.29-.94.54-1.46.73-.39.13-.73.28-1.03.44-.29.16-.5.38-.63.63-.26.46-.98,1.04-2.15,1.76-1.24.72-2.56,1.66-3.96,2.83-1.4,1.17-2.52,2.7-3.37,4.59-.2.59-.55,1.21-1.07,1.86-.52.65-1.09,1.5-1.71,2.54-.62,1.04-1.19,2.44-1.71,4.2-.07.07-.2.29-.39.68-.65,1.37-1.5,3.73-2.54,7.08-1.04,3.35-1.37,7.15-.98,11.38.33,2.21.67,3.89,1.03,5.03.36,1.14.7,1.9,1.03,2.29.33.39.65.55.98.49.33-.06.65-.2.98-.39.2-.06.36-.13.49-.2,3.12-1.3,7.24-3.81,12.35-7.52,5.11-3.71,9.75-7.55,13.92-11.52,4.17-3.97,6.38-7.03,6.64-9.18l-.39-5.76-6.54-8.4Z"/>
      <path class="cls-1" d="M705.66,127.38c-.33-.06-.52-.02-.59.15-.07.16-.1.41-.1.73,0,.46-.08.93-.24,1.42-.16.49-.6.83-1.32,1.03l-1.56.49c.06,1.43.05,2.51-.05,3.22-.1.72-.24,1.19-.44,1.42-.2.23-.39.38-.59.44-.13.07-.26.18-.39.34-.13.16-.23.47-.29.93l-3.42,8.2c-.39.26-.49.59-.29.98s.42.75.68,1.07c.26.26.39.44.39.54s-.16.08-.49-.05l-.1,1.07c.2-.13.31-.15.34-.05.03.1.05.28.05.54-.07.26-.08.59-.05.98.03.39.18.78.44,1.17.33.46.46.8.39,1.03-.07.23-.21.36-.44.39-.23.03-.47.05-.73.05s-.46.02-.59.05c-.13.03-.16.11-.1.24.06.13.33.39.78.78.39.33.59.55.59.68s-.13.2-.39.2h-.98c-.52-.07-1.01-.08-1.46-.05-.46.03-.75.18-.88.44-.33.78-1.46.72-3.42-.2-2.8-1.43-5.18-3.66-7.13-6.69s-2.93-6.33-2.93-9.91l-1.86-8.4-4.88,6.05c0,.13-.7.93-2.1,2.39-1.4,1.46-3,3.08-4.79,4.83-1.79,1.76-3.45,3.24-4.98,4.44-1.53,1.21-2.49,1.71-2.88,1.51-.52.07-.99.16-1.42.29-.42.13-.85.29-1.27.49-.42.2-.8.46-1.12.78-.13.2-.31.26-.54.2-.23-.06-.44-.13-.63-.2-.33-.2-.6-.28-.83-.24-.23.03-.34.28-.34.73-.07.39-.39.72-.98.98-.59.26-1.27.41-2.05.44-.78.03-1.43-.11-1.95-.44l-1.37.29c-1.04-.26-2.41-.42-4.1-.49-3-.13-6.22-.73-9.67-1.81-3.45-1.07-6.22-3.4-8.3-6.98-.98-2.02-1.32-4.07-1.03-6.15.29-2.08.77-4.2,1.42-6.35.39-1.24.73-2.49,1.03-3.76s.44-2.55.44-3.86c0-.59.23-1.5.68-2.73.39-.98.7-1.94.93-2.88.23-.94.21-1.74-.05-2.39-.13-.65.02-1.55.44-2.69.42-1.14.96-2.36,1.61-3.66.46-.98.88-1.92,1.27-2.83.2,1.63.37,2.78.54,3.47.16.68.31.98.44.88.13-.1.23-.41.29-.93.06-.52.1-1.11.1-1.76s-.02-1.25-.05-1.81c-.03-.55-.11-.86-.24-.93-.2-.2-.26-.44-.2-.73.06-.29.21-.62.44-.98.23-.36.47-.7.73-1.03.2-.2.36-.39.49-.59.13-.2.2-.33.2-.39,0-.52.96-2.49,2.88-5.91,1.92-3.42,4.15-7.19,6.69-11.33,2.54-4.13,4.85-7.7,6.93-10.69,2.08-2.99,3.42-4.43,4-4.3.26.13.62.08,1.07-.15.46-.23.98-.47,1.56-.73.72-.46,1.4-.8,2.05-1.03.65-.23,1.07-.08,1.27.44.2.52.37.85.54.98.16.13.31.16.44.1.13-.06.26-.16.39-.29.13-.06.24-.13.34-.2.1-.06.21-.03.34.1.39.46.78.77,1.17.93.39.16.85.24,1.37.24.65.07,1.51.26,2.59.59,1.07.33,2.46,1.04,4.15,2.15,1.69,1.04,2.86,1.6,3.52,1.66.33.07.57.16.73.29.16.13.24.36.24.68s-.07.81-.2,1.46c-.13.78-.13,1.45,0,2,.13.55.26,1.03.39,1.42.26.59.34,1.11.24,1.56-.1.46-.67.94-1.71,1.46-1.56.85-3.06,2.12-4.49,3.81-1.43,1.69-2.64,3.3-3.61,4.83-.98,1.53-1.46,2.33-1.46,2.39,0,.59-.52,1.53-1.56,2.83-1.63,2.08-3.06,4.95-4.3,8.59-.26.91-.52,1.55-.78,1.9-.26.36-.46.57-.59.63-.13.07-.23.15-.29.24-.07.1-.1.24-.1.44,0,.13-.46,1.24-1.37,3.32-1.43,3.39-3.12,7.57-5.08,12.55s-3.12,8.97-3.52,11.96c-.07,1.43.23,2.15.88,2.15s1.48-.41,2.49-1.22c1.01-.81,2.1-1.74,3.27-2.78.98-.91,1.89-1.72,2.73-2.44.85-.72,1.53-1.11,2.05-1.17l24.9-22.36,13.48-15.14,2.34-4c0-.39.13-.78.39-1.17.26-.39.59-.78.98-1.17.39-.46.76-.91,1.12-1.37.36-.46.54-.94.54-1.46,0-.46.13-.89.39-1.32.26-.42.62-.86,1.07-1.32.65-.78,1.35-1.74,2.1-2.88.75-1.14,1.38-2.69,1.9-4.64l10.55-14.45c.52,0,1.01-.13,1.46-.39.46-.26.94-.59,1.46-.98.78-.72,1.69-1.25,2.73-1.61,1.04-.36,2.31-.11,3.81.73.52.33.93.52,1.22.59.29.07.52.08.68.05.16-.03.31-.11.44-.24.06-.06.16-.11.29-.15.13-.03.28-.02.44.05.16.07.41.23.73.49.39.33,1.16.78,2.29,1.37,1.14.59,2.26,1.14,3.37,1.66,1.11.52,1.79.78,2.05.78.85,0,1.17.88.98,2.64s-.72,3.78-1.56,6.05c-.85,2.28-1.92,4.3-3.22,6.05-.52.85-1.4,2.67-2.64,5.47-.91,2.02-1.86,4.05-2.83,6.1s-1.89,3.63-2.73,4.74c-.39.52-.91,1.53-1.56,3.03-.65,1.5-1.48,3.14-2.49,4.93-1.01,1.79-2.2,3.47-3.56,5.03-.59.72-1.33,2.02-2.25,3.91-.72,1.43-1.43,2.77-2.15,4-.72,1.24-1.37,1.86-1.95,1.86l-.39,1.76c-.59-.26-1.19-.02-1.81.73-.62.75-1.22,1.64-1.81,2.69-.39.72-.78,1.37-1.17,1.95s-.75.88-1.07.88l-1.95,3.22Z"/>
      <path class="cls-1" d="M865.23,46.32c-.65.46-1.19.77-1.61.93-.42.16-.77.24-1.03.24s-.49-.06-.68-.2c-.13-.06-.29-.1-.49-.1s-.42.07-.68.2l-26.17,1.76c-.72.39-2.38.67-4.98.83-2.6.16-5.73.31-9.38.44-4.36.2-8.72.44-13.09.73-4.36.29-7.94.77-10.74,1.42-2.8.65-4,1.56-3.61,2.73l-1.86,3.03-4.1,8.79c-.78,1.24-1.73,3.19-2.83,5.86-.72,1.69-1.42,3.27-2.1,4.74s-1.35,2.43-2,2.88l-21.48,44.34c-.2,0-.47.34-.83,1.03-.36.68-.73,1.51-1.12,2.49-.52,1.24-1.11,2.49-1.76,3.76-.65,1.27-1.33,2.29-2.05,3.08l-4.49,7.71-2.83,5.66c-.07.39-.21.72-.44.98-.23.26-.44.52-.63.78-.2.2-.36.39-.49.59-.13.2-.16.42-.1.68.13.13.2.23.2.29v.15s-.03.05-.1.05c-.13,0-.31.07-.54.2-.23.13-.5.44-.83.93-.33.49-.68,1.22-1.07,2.2l-3.61,4.88c-.2.65-.42,1.11-.68,1.37-.26.26-.52.46-.78.59-.33.2-.67.47-1.03.83-.36.36-.7,1.06-1.03,2.1-.33.85-.81,1.56-1.46,2.15-.78.72-1.4,1.79-1.86,3.22l-2.05,4.39c0,.33-.08.5-.24.54-.16.03-.38.02-.63-.05-.26,0-.54.02-.83.05-.29.03-.57.23-.83.59-.26.36-.42.96-.49,1.81-.06.98-.26,1.59-.59,1.86-.33.26-.68.34-1.07.24s-.78-.24-1.17-.44c-.33-.2-.57-.31-.73-.34-.16-.03-.24.11-.24.44.07.39-.1.57-.49.54-.39-.03-.81-.15-1.27-.34-.46-.13-.88-.23-1.27-.29-.39-.07-.68,0-.88.2-.13.2-.29.31-.49.34-.2.03-.37.02-.54-.05-.16-.07-.29-.15-.39-.24l-.44-.44c-.39-.46-.62-.91-.68-1.37-.06-.46-.06-.78,0-.98,0-.13-.02-.18-.05-.15s-.08.11-.15.24c-.26.33-.68-.03-1.27-1.07-.59-1.04-1.17-2.47-1.76-4.3-.59-1.82-.98-3.71-1.17-5.66s0-3.65.59-5.08l.78-3.42c.13-.07.21-.05.24.05.03.1.02.28-.05.54-.06.13-.1.29-.1.49s.03.36.1.49c.07.13.23.16.49.1l2.44-7.13c-.06-.26-.06-.44,0-.54.07-.1.16-.21.29-.34.07-.06.11-.15.15-.24.03-.1,0-.24-.1-.44s-.31-.46-.63-.78c-.65-.65-.75-1.3-.29-1.95.46-.65,1.11-1.24,1.95-1.76.85-.52,1.56-.91,2.15-1.17l.49-.2c.07-.2.13-.29.2-.29s.13.03.2.1l.2.2c.07.13.15.23.24.29.1.07.2.03.29-.1.1-.13.24-.42.44-.88l1.76-6.54c.2-.98.44-1.68.73-2.1.29-.42.57-.73.83-.93.07-.06.13-.13.2-.2.07-.06.1-.16.1-.29l26.56-54.59c0-.85.72-2.51,2.15-4.98,1.43-2.47,3.06-5.18,4.88-8.11,1.63-2.6,3.04-4.95,4.25-7.03,1.2-2.08,1.77-3.42,1.71-4l-4.59-.68-29.39,1.56c-.26.26-.85.26-1.76,0-.91-.26-1.94-.68-3.08-1.27s-2.2-1.2-3.17-1.86c-.98-.65-1.69-1.2-2.15-1.66s-.39-.68.2-.68v-.2c0-.2.03-.49.1-.88.07-.39.28-.73.63-1.03.36-.29.96-.44,1.81-.44l.1-.1c1.5-.46,6.82-1.61,15.97-3.47,9.15-1.86,19.32-3.01,30.52-3.47l10.74-19.63,6.84-11.82c1.04-2.21,2.02-3.58,2.93-4.1.91-.52,2.6-.62,5.08-.29,2.15.13,4.36.75,6.64,1.86,2.28,1.11,3.84,2.7,4.69,4.79.52,1.56.59,3.31.2,5.22-.39,1.92-.88,3.79-1.46,5.62-.78,2.15-1.14,3.71-1.07,4.69l-6.05,12.3c-.33.07-.16.2.49.39,1.63.33,6.9.49,15.82.49,9.5-.06,19.56.1,30.18.49,10.61.39,18.07,1.4,22.36,3.03.78.39,1.25.68,1.42.88.16.2.13.34-.1.44-.23.1-.57.18-1.03.24-.33.07-.67.15-1.03.24-.36.1-.67.21-.93.34ZM712.99,156.28c-.06.06-.13.05-.2-.05-.06-.1-.1-.24-.1-.44l.29.49ZM723.73,132.65c-.13.33-.24.52-.34.59-.1.07-.15-.06-.15-.39l.49-.2ZM732.91,165.85c.13,0,.21-.05.24-.15.03-.1.05-.21.05-.34l-.29.49ZM746.29,87.14c-.39,1.11-.62,1.4-.68.88l.68-.88Z"/>
    </g>
  </g>
</svg>