<?xml version="1.0" standalone="no"?>
<!DOCTYPE svg PUBLIC "-//W3C//DTD SVG 20010904//EN"
 "http://www.w3.org/TR/2001/REC-SVG-20010904/DTD/svg10.dtd">
<svg version="1.0" xmlns="http://www.w3.org/2000/svg"
 width="700.000000pt" height="700.000000pt" viewBox="0 0 700.000000 700.000000"
 preserveAspectRatio="xMidYMid meet">
<metadata>
Created by potrace 1.14, written by Peter Selinger 2001-2017
</metadata>
<g transform="translate(0.000000,700.000000) scale(0.100000,-0.100000)"
fill="#000000" stroke="none">
<path d="M3579 5611 c-319 -125 -600 -339 -812 -618 -307 -403 -438 -959 -342
-1458 7 -38 11 -73 8 -77 -2 -5 -14 -8 -27 -8 -81 0 -303 -87 -423 -167 -72
-48 -192 -160 -248 -233 -95 -125 -170 -290 -200 -440 -23 -111 -23 -308 0
-415 100 -477 503 -826 985 -852 451 -25 873 243 1039 659 38 95 39 105 2 79
-51 -37 -173 -90 -256 -112 -113 -31 -317 -31 -429 0 -380 102 -646 446 -646
835 0 192 57 360 180 527 l45 62 9 -31 c7 -25 2 -51 -22 -125 -154 -463 87
-945 550 -1103 152 -51 337 -57 495 -14 l82 22 55 -21 c78 -29 236 -69 341
-86 367 -61 783 2 1119 171 114 57 275 159 336 214 l35 31 -55 -31 c-301 -171
-681 -264 -1000 -245 -189 12 -441 64 -529 109 l-32 17 51 56 c149 163 226
343 237 558 12 240 -66 455 -231 632 -173 186 -385 277 -641 276 -180 -1 -319
-43 -473 -144 l-72 -47 -14 32 c-36 87 -47 384 -21 578 77 581 426 1084 950
1369 88 48 76 48 -46 0z"/>
<path d="M4668 4885 c-96 -24 -177 -72 -254 -149 -108 -109 -154 -220 -154
-376 0 -156 46 -267 154 -376 175 -176 412 -213 635 -101 143 71 258 233 283
400 37 247 -112 496 -351 585 -83 31 -228 39 -313 17z"/>
</g>
</svg>
