<?xml version="1.0" encoding="UTF-8"?>
<svg id="Layer_2" data-name="Layer 2" xmlns="http://www.w3.org/2000/svg" viewBox="0 0 248.76 64.89">
  <defs>
    <style>
      .cls-1 {
        fill: #000;
        stroke-width: 0px;
      }
    </style>
  </defs>
  <g id="Layer_3" data-name="Layer 3">
    <g id="t-shirts">
      <path class="cls-1" d="M0,52.82l.28-2.32.11-1.65c0-.3,0-.51.02-.62s.04-.14.07-.11.08.11.12.21.09.23.14.37c.05.16.09.32.14.46s.1.25.16.32.1.07.12,0l.04-.25c0-.26.03-.64.09-1.14.06-.5.15-1,.26-1.49s.29-.86.53-1.09l.28.63c.05-.21.16-.57.35-1.09.19-.52.41-1.07.67-1.65.26-.59.51-1.1.76-1.53.25-.43.44-.65.58-.65.75-1.34,1.35-2.44,1.81-3.3.46-.87.85-1.65,1.18-2.34.33-.69.48-1.1.46-1.21l.46-.74c0-.09.02-.15.05-.18.04-.02.09-.04.16-.04.05-.02.11-.05.18-.09s.13-.11.18-.21.07-.28.07-.51v-.35c0-.07,0-.12-.02-.14-.01-.02-.03-.03-.05-.02-.02.01-.05.04-.07.09-.02.05-.05.08-.07.11-.02.02-.05.03-.09.02-.04-.01-.08-.06-.12-.16-.02-.12,0-.26.05-.42.06-.16.14-.33.25-.49.11-.16.25-.36.44-.6l1.23-1.48c-.16.38-.27.64-.32.79-.05.15-.05.22,0,.19.05-.02.12-.09.23-.21.11-.12.22-.26.33-.42.12-.16.21-.32.28-.47.07-.15.11-.26.11-.33,0-.28.47-1.29,1.42-3.04.95-1.75,2.03-3.71,3.25-5.89.98-1.71,1.89-3.32,2.71-4.82.82-1.5,1.42-2.66,1.79-3.48,0-.12-.25-.17-.76-.16-.5.01-1.06.05-1.67.12-.49.02-.92.04-1.28.05-.36.01-.57,0-.62-.05l-3.66-.18-.88-.07c.02.09-.05.16-.21.19s-.36.08-.6.12c-.26.02-.51.06-.76.12-.25.06-.44.15-.58.26-.16.12-.42.05-.77-.19s-.7-.56-1.05-.93c-.35-.37-.63-.67-.84-.88-.05-.05-.08-.09-.11-.14-.05-.05-.18-.24-.39-.58-.21-.34-.45-.74-.7-1.2s-.46-.87-.62-1.23c-.15-.36-.18-.58-.09-.65l2.43-.6,9.98-1.3,9.56-.28c1.38.07,2.99.14,4.82.21,2.46.05,4.93.15,7.42.3,2.48.15,4.57.42,6.26.79l6.19,2.14c.49.3.7.63.62.98s-.31.63-.69.83c-.38.2-.79.19-1.23-.02-.21-.09-.33-.15-.35-.18l-.04-.04v.04s-.01.05-.04.07c-.02.02-.06.05-.11.07-.05.02-.12.05-.23.07-.11.02-.24.04-.4.05-.16.01-.37.02-.62.04-.25.01-.53,0-.86-.02l-2.57-.04c-.07.05-.38.12-.91.23s-1.17.21-1.88.3c-.71.09-1.38.16-1.99.19s-1.03.02-1.27-.05c-.12-.05-.21-.06-.28-.05-.07.01-.12.04-.14.09-.02.05-.04.09-.04.14-.02.05-.05.09-.07.12s-.07.04-.14.02c-.05,0-.18,0-.39.02-.21.01-.48.03-.81.05-.66.07-1.31.12-1.95.16s-1.06,0-1.25-.09c-.07-.05-.12-.07-.16-.07s-.06.02-.09.07c-.07.05-.19.1-.37.16-.18.06.02.31.58.76-.75-.02-1.23.09-1.44.33s-.34.64-.39,1.18c-.07.63-.3,1.46-.7,2.5-.73.42-1.13.79-1.21,1.09-.08.3-.13.56-.16.77-.02.26-.07.52-.14.77-.07.26-.2.56-.39.91l-4.08,7.03-3.9,6.19c-.09,0-.18.08-.26.23-.08.15-.16.33-.23.54-.14.28-.29.54-.44.79s-.33.37-.54.37c-.12,0-.22.1-.32.3-.09.2-.18.42-.25.65-.09.23-.19.45-.28.65-.09.2-.2.33-.32.4-.07.02-.12.06-.14.12-.02.06-.04.12-.04.19s-.02.14-.05.19c-.04.06-.1.08-.19.05-.21-.02-.36-.03-.44-.02-.08.01-.12.04-.12.09s.01.11.04.18c.05.09.08.22.11.37.02.15,0,.32-.07.51l-1.09,1.55-1.02,1.44-3.59,5.59c-.14,0-.22.03-.25.09-.02.06-.04.12-.04.19.02.07.02.14,0,.21s-.08.14-.16.19c-.08.06-.23.1-.44.12-.12.02-.23.11-.33.25s-.22.29-.33.46c-.09.16-.19.3-.28.42-.09.12-.19.18-.28.18-.07-.02-.12-.01-.16.04-.04.05-.08.11-.12.18-.05.12-.15.27-.32.46-.16.19-.45.39-.84.6l1.09-1.65c.05-.23.09-.41.14-.53.05-.12.06-.19.05-.23s-.1-.05-.26-.05c-.23,0-.44.18-.62.54-.18.36-.35.77-.51,1.21-.12.33-.23.61-.35.84-.12.23-.22.35-.32.35-.07,0-.13.02-.19.07-.06.05-.11.09-.16.14-.07.07-.13.12-.19.14-.06.02-.13-.02-.23-.14-.12-.14-.22-.17-.32-.09-.09.08-.17.22-.23.42-.06.2-.09.39-.11.58-.01.19.02.32.09.39l.28-.49c.09,0,.14.05.14.16s-.04.22-.11.33c-.07.12-.15.2-.25.25-.09.05-.18.01-.25-.11l-.11.21c.16.12.26.2.28.25.02.05.01.08-.04.09-.05.01-.12.02-.21.02s-.18.01-.26.04c-.08.02-.11.08-.09.18l-.63.84.28.42c0,.07-.02.11-.07.11s-.11-.01-.18-.04h-.28c-.12,0-.23.05-.33.16s-.18.28-.23.51c-.05.14-.11.24-.18.3-.07.06-.14.11-.21.16-.07.02-.12.05-.16.07-.04.02-.05.07-.05.14,0,.02-.02.07-.05.14s-.08.13-.12.18c-.05.05-.09.07-.14.07s-.08-.06-.11-.18c-.07-.14-.17-.21-.3-.19-.13.01-.25.07-.37.18s-.18.22-.18.33c0,.16-.04.26-.11.3s-.14-.03-.21-.19c-.02-.05-.06-.08-.11-.11-.05-.02-.11-.05-.18-.07-.07,0-.15-.02-.25-.07-.09-.05-.18-.15-.26-.3-.08-.15-.16-.38-.23-.69-.07-.21-.17-.4-.3-.56-.13-.16-.23-.25-.32-.25s-.08.13.02.39l-.88-1.37ZM1.09,55.31c-.12-.14-.18-.25-.18-.33s.04-.13.11-.14c.07-.01.15.02.23.09s.12.2.12.39c0,.05-.04.08-.11.09-.07.01-.13-.02-.18-.09ZM6.26,53.52c-.02.09-.06.17-.12.23-.06.06-.11.09-.16.11-.05.01-.07,0-.07-.05l.35-.28ZM10.86,48.32l.14.11s-.05-.01-.07-.04c-.02-.02-.05-.05-.07-.07ZM11.04,45.05v.95s.07-.05.14-.14c.07-.09.13-.2.18-.32.14-.33.18-.56.12-.7s-.15-.19-.26-.16-.18.16-.18.37ZM12.09,43.53c0-.12-.02-.18-.05-.19-.04-.01-.07,0-.11.04s-.06.09-.09.16-.03.13-.02.18c.01.05.05.07.12.07.05,0,.08-.02.11-.07.02-.05.04-.11.04-.18ZM13.32,41.39c-.07.23-.08.38-.04.42.05.05.16.02.35-.07.12-.09.19-.21.23-.33.04-.13.04-.26,0-.39-.04-.13-.08-.22-.14-.28-.06-.06-.13-.04-.21.05-.08.09-.15.29-.19.6ZM15.43,40.3c0-.19-.04-.28-.12-.28s-.16.04-.25.12c-.08.08-.12.18-.12.28s.07.16.21.16c.19,0,.28-.09.28-.28ZM15.79,37.49c-.16,0-.27.04-.32.11s-.06.15-.04.25c.02.09.07.18.14.25s.13.11.18.11.07-.07.07-.21l-.04-.49ZM16.03,39.14c0-.16.1-.35.3-.54.2-.2.42-.39.65-.58.19-.14.34-.26.46-.37s.16-.18.12-.23c-.04-.05-.17-.05-.4,0-.3.05-.56.18-.76.4-.2.22-.36.46-.47.7s-.18.46-.19.63.03.25.12.23c.05-.02.09-.06.12-.11.04-.05.05-.09.05-.14ZM16.66,36.5c.05-.16.05-.27,0-.32-.05-.05-.11-.05-.19-.02s-.15.09-.19.16-.05.15,0,.25c.07.09.14.14.21.12.07-.01.13-.08.18-.19Z"/>
      <path class="cls-1" d="M68.74,60.23c.07-.47.18-.8.33-1,.15-.2.32-.35.51-.44.21-.12.41-.32.6-.6l.49-.53,1.55-1.48.67-.32c-.21.28-.11.29.32.04s1.01-.66,1.76-1.2c.75-.54,1.51-1.09,2.29-1.65.61-.42,1.14-.79,1.58-1.11s.74-.51.88-.58c.84-.47,1.49-.89,1.93-1.27.49-.42,1.25-.91,2.29-1.48.4-.21,1.03-.59,1.9-1.12.87-.54,1.71-1.09,2.51-1.65s1.31-.98,1.49-1.27c.14-.21.35-.41.62-.6.27-.19.57-.37.9-.56.35-.21.67-.42.97-.62.29-.2.51-.42.65-.65l.98-.81c0-.07.04-.13.11-.19.07-.06.14-.11.21-.16.07-.05.12-.09.14-.12s0-.06-.09-.09c-.08-.02-.25-.06-.51-.11-.19-.02-.33-.05-.44-.07-.11-.02-.18-.05-.21-.09s-.06-.06-.07-.09c-.01-.02-.02-.05-.02-.07s0-.05-.02-.07c-.01-.02-.04-.04-.07-.04h-.18c-.08,0-.18.01-.3.04-.21.02-.36.03-.46.02-.09-.01-.15-.04-.18-.07s-.05-.08-.07-.12c0-.02,0-.04-.02-.05-.01-.01-.04-.01-.09,0-.05.01-.13.05-.25.12l-3.52.04c-.21-.14-.37-.22-.47-.25-.11-.02-.18-.02-.23.02s-.08.06-.11.09c-.02.02-.04.05-.05.07-.01.02-.04.02-.07,0-.04-.02-.09-.06-.16-.11-.07-.07-.13-.11-.19-.12-.06-.01-.11-.01-.14,0-.04.01-.06.04-.09.09-.02.05-.04.09-.05.12s-.02.09-.02.16l-1.2-.14c-.16.12-.45.16-.86.12s-.81-.11-1.21-.23c-.4-.12-.66-.25-.77-.39l-3.06-1.72c-.05-.09-.23-.25-.54-.47-.32-.22-.7-.46-1.14-.72-.7-.42-1.33-.83-1.88-1.21s-.79-.69-.72-.9l-.39-1.34c.07-.16.1-.3.09-.4s-.05-.18-.12-.23c-.07-.05-.14-.08-.21-.11-.07-.02-.13-.05-.19-.09s-.09-.09-.09-.16l.81-1.05c.14-.05.22,0,.23.14s0,.34-.05.6c-.07.28-.12.59-.14.93-.02.34.05.64.21.9.07.09.13.23.18.42.07.26.18.53.33.83.15.29.4.53.76.72.3.16.52.25.65.26.13.01.19-.02.18-.11-.01-.08-.06-.19-.14-.32-.08-.13-.18-.28-.3-.44-.07-.12-.14-.23-.21-.33s-.11-.18-.11-.23c0-.09-.04-.18-.11-.25l-.21-.21c-.14-.09-.24-.2-.3-.32-.06-.12-.02-.26.12-.42.02.07.05.13.07.18.05.05.09.1.12.16.04.06.06.09.09.11.02.01.04-.02.05-.09s0-.2-.02-.39c0-.09.01-.19.04-.3s.05-.18.07-.23c.07-.14.09-.3.07-.49-.02-.19-.08-.33-.16-.42-.08-.09-.17-.08-.26.04l.18-.91c.19-.82.34-1.36.46-1.62.05-.12.08-.21.09-.26.01-.06,0-.1-.04-.12-.04-.02-.09-.04-.16-.04h-.21s0-.01.07-.04c.07-.02.17-.07.3-.14s.24-.18.33-.32c.07-.12.14-.21.21-.26.07-.06.14-.1.21-.12.09-.02.17-.06.23-.12.06-.06.1-.16.12-.3.05-.26.21-.6.49-1.04.28-.43.62-.89,1-1.37.39-.48.74-.89,1.07-1.23.33-.34.54-.51.63-.51.02,0,.07-.05.14-.14.09-.16.24-.36.44-.58.2-.22.4-.37.62-.44.09-.02.16-.06.21-.12.05-.06.08-.13.11-.23.02-.07.05-.14.09-.21s.1-.12.19-.14l5.31-5.34c.09-.16.21-.28.33-.35s.25-.12.37-.14c.16-.02.3-.08.4-.18.11-.09.16-.29.16-.6,0-.23.06-.39.19-.47.13-.08.29-.13.47-.16.19-.05.35-.13.49-.25.23-.26.64-.62,1.23-1.07s1.17-.88,1.74-1.28c.57-.4.92-.6,1.04-.6l2.5-1.65,2.46-1.9s0-.04.05-.05c.06-.01.13-.03.23-.05.21-.05.46-.13.76-.26.29-.13.52-.33.69-.62s.54-.59,1.14-.93c.6-.34,1.21-.64,1.83-.9.62-.26,1-.39,1.14-.39l1.9-.84c.16-.28.5-.52,1-.7.5-.19.96-.34,1.35-.46.26-.07.4-.12.42-.14.21-.21.66-.24,1.35-.09.69.15,1.39.37,2.11.65s1.22.49,1.53.63c.21.12.38.2.51.25.13.05.22.07.28.07s.1-.02.12-.05.05-.06.07-.09c0-.05,0-.08.02-.09.01-.01.04-.01.09,0,.05.01.11.05.18.12.52.38,1.04.61,1.58.7.38.09.79.24,1.23.44.45.2.94.54,1.48,1.04.12.09.21.16.28.19s.13.06.18.09c.05,0,.1.02.16.05s.13.11.23.23c.09.12.22.29.39.53.16.23.38.56.63.98.21.33.34.59.39.79.05.2.05.36,0,.49-.05.13-.09.23-.14.3-.07.07-.12.15-.14.23-.02.08.02.19.14.33l-1.23,1.72-.07.04c-.12.12-.34.27-.67.46-.33.19-.69.3-1.09.35-.4.05-.79-.09-1.16-.42-.09-.09-.18-.16-.25-.19s-.13-.05-.18-.05-.09.01-.14.04h-.04c0-.07.01-.13.04-.18v-.04c.05-.19.01-.38-.11-.58-.12-.2-.27-.38-.46-.54-.09-.12-.18-.22-.26-.32-.08-.09-.12-.18-.12-.25,0-.23-.21-.4-.63-.51s-.93-.12-1.53-.05-1.18.23-1.74.49l-1.12.42-2.64,1.58c-.19.26-.46.46-.81.62-.35.15-.66.26-.91.33-.21.05-.32.09-.32.14l-3.69,2.67c-.14.12-.29.22-.46.32-.21.12-.39.25-.54.39s-.21.29-.16.46c.02.12-.07.25-.28.39s-.45.29-.7.46c-.23.12-.43.23-.6.33s-.25.19-.25.26c0,.16-.1.32-.3.46s-.4.26-.62.35c-.14.07-.25.14-.33.19-.08.06-.12.1-.12.12,0,.14-.15.35-.46.63s-.65.56-1.04.83c-.39.27-.72.5-1,.69-.21.16-.33.26-.35.28-.02.07-.04.12-.05.14-.01.02-.03.04-.05.04h-.11s-.07,0-.14.02c-.07.01-.15.05-.25.12s-.2.21-.32.42l-2.71,2.5c-.14.26-.26.47-.37.63-.11.16-.22.32-.33.46s-.23.23-.33.26-.18,0-.23-.12l-.11-.32-1.48,1.62c-.09.16-.18.27-.25.32-.07.05-.13.05-.18.02s-.09-.08-.14-.12c-.05-.05-.09-.09-.14-.12s-.11-.04-.18-.02c-.07.02-.15.09-.25.21-.05.05-.11.09-.18.12s-.13.05-.18.05c-.16,0-.42.19-.77.58s-.67.81-.97,1.27-.44.79-.44,1c0,.16.02.24.07.23.05-.01.11-.06.18-.14.07-.08.15-.18.25-.3.07-.14.15-.26.23-.35.08-.09.15-.14.19-.14s.09-.02.14-.07c.05-.05.09-.11.14-.18.09-.14.23-.29.4-.44.18-.15.42-.24.72-.26h.07c.14-.02.22-.03.23-.02.01.01-.02.05-.09.12-.19.12-.48.45-.88.98-.23.38-.55.81-.95,1.32-.4.5-.77.84-1.12,1-.19.09-.25.21-.18.33.07.13.25.23.53.3.16.02.67.05,1.53.07.86.02,1.92.05,3.18.07,2.3.02,4.69.08,7.17.16,2.48.08,4.36.21,5.62.37l4.15.63c.3.12.56.21.77.28s.42.11.63.12c.21.01.4-.02.56-.09.42-.23.76-.28,1-.14s.44.3.58.49c.12.14.21.21.28.21l.88.35s.08,0,.09-.02c.01-.01.02-.01.02,0s-.01.02-.04.02c-.02.05-.06.09-.11.14-.05.05-.07.11-.07.18s.04.15.12.23c.08.08.23.17.44.26.33.16.62.4.88.7.14.16.28.31.4.44.13.13.26.19.4.19.05,0,.08,0,.09.02.01.01.02.04.02.09-.02.05-.02.12,0,.21.02.09.11.19.25.28.09.09.16.15.21.16.05.01.08,0,.09-.02.01-.02.02-.05.02-.07v-.09s.01-.06.04-.07c.02-.01.06,0,.11.02.05.02.08.05.09.09s.02.08.02.12c0,.07.01.14.04.21s.09.13.21.18c.09.07.15.18.16.32s.02.28.02.42c0,.07,0,.12.02.16s.03.04.05,0,.06-.13.11-.3c.05-.09.09-.13.14-.12.05.01.1.06.16.14.06.08.11.16.16.23.02.09.05.16.09.21.04.05.06.06.09.04.02-.02.04-.09.04-.21v.18c-.05.07-.07.16-.07.26v.37c.02.14.03.28.02.42s-.06.26-.16.35c-.09.09-.14.18-.14.26v.23c.02.09.03.19.02.28-.01.09-.08.2-.19.32l-.35.6-.07.28c.16-.02.27.01.32.11.05.09.05.21,0,.33-.05.13-.12.23-.21.32-.09.08-.2.09-.32.02l-.39.04c.23.09.35.19.33.28-.01.09-.09.19-.23.28-.14.09-.28.19-.42.28-.12.05-.22.1-.3.16-.08.06-.12.1-.12.12,0,.14-.02.21-.07.21s-.08-.05-.11-.16-.02-.23,0-.37.11-.28.25-.42c.09-.12.13-.22.12-.3-.01-.08-.05-.15-.12-.19-.07-.05-.13-.05-.19-.02s-.09.12-.09.26-.06.23-.19.26-.28.05-.44.05c-.12,0-.23,0-.33.02-.11.01-.18.05-.23.12s-.11.11-.19.12c-.08.01-.17.02-.26.02-.12-.02-.22-.02-.3,0-.08.02-.12.08-.12.18l-1.83,1.23c.05-.19.05-.29.02-.32-.04-.02-.09,0-.18.09-.08.08-.19.19-.33.33-.12.14-.24.28-.37.42s-.25.23-.37.28c-.12.05-.2.04-.25-.04-.23-.28-.6-.32-1.09-.12-.49.2-1.01.46-1.55.79-.35.23-.67.42-.95.54-.28.13-.48.16-.6.09-.09-.05-.18-.03-.26.05-.08.08-.15.18-.19.3-.07.12-.13.2-.18.25-.05.05-.11.04-.18-.04-.12-.21-.26-.28-.42-.21s-.33.21-.49.42-.32.42-.46.63c0-.23,0-.4-.02-.51s-.04-.16-.09-.16-.12.02-.21.07c-.21.14-.62.25-1.23.32l-3.23,1.16c-.09.16-.52.46-1.28.9-.76.43-1.65.91-2.67,1.42-1.02.52-1.96.98-2.83,1.41s-1.45.7-1.76.84l-.14.07-5.91,2.21s-.12.03-.3.09c-.18.06-.4.13-.67.21-.27.08-.54.15-.81.19-.27.05-.5.06-.69.04-.19-.02-.28-.11-.28-.25,0-.23-.08-.34-.25-.32-.16.02-.36.08-.6.18-.33.16-.64.26-.95.28-.23.02-.42.07-.56.14s-.26.14-.35.21c-.05.07-.1.12-.16.14-.06.02-.12.02-.19,0-.02,0-.03-.02-.02-.05s.04-.08.09-.12c.02-.07.05-.14.07-.19.02-.06.01-.11-.04-.14s-.15-.04-.32-.02c-.26.05-.58.19-.97.42-.39.23-.74.46-1.07.67-.19.14-.35.25-.47.33-.13.08-.21.11-.23.09l-1.72,1.3c0,.09,0,.15-.02.18-.01.02-.02.03-.04.02-.01-.01-.03-.04-.05-.09-.02-.05-.06-.09-.12-.12s-.12-.04-.18,0-.13.13-.23.3c-.05.12-.09.19-.12.23s-.06.04-.07.02c-.01-.02-.03-.07-.05-.14s-.05-.14-.09-.21-.09-.1-.18-.09c-.08.01-.21.11-.37.3-.12.12-.19.21-.21.26-.02.06-.02.11,0,.14s.06.05.11.05c.02.02.05.04.07.05.02.01.03.03.02.05-.01.02-.03.06-.05.11-.05.05-.09.08-.14.09-.05.01-.08,0-.11-.02-.05-.05-.07-.11-.07-.19v-.3c.02-.19,0-.37-.07-.54s-.26-.3-.56-.37l-1.3-.18s.07.06.07.11-.02.08-.05.11c-.04.02-.07.02-.11,0-.04-.02-.06-.09-.09-.19s-.02-.26,0-.47ZM69.45,58.55l.14.11s-.08-.01-.11-.04c-.02-.02-.04-.05-.04-.07ZM73.38,61.39c0-.07.02-.11.07-.12.05-.01.11-.01.18,0,.07.01.12.04.16.07s.04.06.02.09c-.02.02-.11.04-.25.04-.05,0-.09,0-.12-.02-.04-.01-.05-.03-.05-.05ZM75.18,30.81c0-.21.01-.34.04-.39.02-.05.06-.05.11,0,.05.05.08.11.11.19.02.08.02.16,0,.25-.02.08-.07.12-.14.12-.02,0-.05-.02-.07-.05s-.04-.08-.04-.12ZM76.16,29.37c-.02.09-.06.17-.12.23-.06.06-.11.09-.16.11-.05.01-.07-.02-.07-.09l.35-.25ZM76.86,59.36c-.02.07-.06.12-.12.16s-.11.04-.14.02c-.04-.02-.04-.07-.02-.14l.28-.04ZM84.04,56.44l-.11.07s.05,0,.07-.02c.02-.01.04-.03.04-.05ZM87.73,45.57l.07.14s-.04-.01-.05-.04c-.01-.02-.02-.06-.02-.11ZM95.6,50.71c.09-.09.07-.17-.07-.23-.14-.06-.33-.1-.58-.12-.25-.02-.49-.04-.72-.05-.23-.01-.38-.02-.42-.02.23.21.52.39.86.53s.65.11.93-.11ZM99.54,52.29l.21.07c-.07.02-.12.03-.16.02-.04-.01-.05-.04-.05-.09ZM113.53,45.82l.14.14s-.08-.01-.11-.04c-.02-.02-.04-.06-.04-.11ZM114.52,42.73c.05-.19.05-.3.02-.35-.04-.05-.09-.05-.18,0-.08.05-.16.11-.23.19-.07.08-.1.16-.09.23s.1.11.26.11c.02,0,.06-.02.11-.05s.08-.08.11-.12ZM114.94,43.61c.09-.14.12-.22.09-.25-.04-.02-.11-.02-.23.02s-.23.09-.35.16-.18.13-.18.18.05.08.14.09c.09.01.19,0,.28-.04s.18-.09.25-.16ZM115.11,39.49s.04-.01.05-.04c.01-.02.02-.06.02-.11l-.07.14ZM116.62,41.21l-.14.18s.05-.02.07-.05.05-.08.07-.12ZM116.84,42.34l.07.18s-.04-.01-.05-.04c-.01-.02-.02-.07-.02-.14Z"/>
      <path class="cls-1" d="M118.56,49.76s-.05-.05-.07-.07c-.14-.14-.25-.25-.33-.32s-.13-.12-.16-.16-.03-.06-.02-.07c.01-.01.04-.03.09-.05.05-.02.1-.06.16-.12.06-.06.12-.16.18-.32.06-.15.09-.37.09-.65l.14-1.48c-.07-.44.01-.96.25-1.55.23-.59.52-1.18.84-1.79.38-.75.64-1.38.81-1.9.26-.94,1-2.61,2.23-5.01,1.23-2.4,2.49-4.74,3.78-7.01,1.29-2.27,2.13-3.7,2.53-4.29.49-.63.84-1.14,1.05-1.51.21-.37.33-.66.35-.86.02-.2.02-.37,0-.51,0-.09,0-.19.02-.3s.08-.24.19-.4l2.57-4.15.42-.88,4.75-7.88c.12-.12.32-.43.62-.93.29-.5.64-1.12,1.04-1.85.52-.96,1.05-1.9,1.6-2.83.55-.93,1.01-1.62,1.39-2.09.21-.28.34-.49.39-.63.05-.07.08-.12.11-.14.02-.02.05-.01.09.04.04.05.1.13.19.25h.04c.21.26.54.53.98.81.35.23.67.48.97.74.29.26.49.54.58.84.02.35-.18,1.16-.6,2.43s-.93,2.67-1.51,4.2c-.59,1.54-1.12,2.87-1.62,3.99s-.77,1.72-.84,1.79l-.46,1.05c-.19.23-.31.43-.37.58-.06.15-.09.28-.09.37-.02.09-.05.17-.09.23-.04.06-.1.12-.19.19l-2.07,4.78-.7,1.62-2,4.22c-.12.14-.21.31-.26.51-.06.2-.1.4-.12.62-.02.19-.06.35-.11.47-.05.13-.12.21-.21.23l-1.51,3.38c-.07.02-.15.12-.23.3s-.17.4-.26.69c-.23.73-.57,1.44-1.02,2.14l-2.18,4.39-1.44,2.88c-.07,0-.13.02-.18.07-.05.05-.08.09-.11.12s-.02.06.02.07c.04.01.11-.01.21-.07.11-.06.27-.16.49-.32.22-.15.5-.37.84-.65s.76-.64,1.25-1.09l1.86-1.48c.14-.14.47-.5.98-1.09.8-.94,1.9-2.18,3.32-3.73s2.98-3.12,4.69-4.71c1.71-1.59,3.41-2.93,5.1-4.01,1.69-1.08,3.21-1.62,4.55-1.62s2.36.81,3.04,2.43c.3.91.28,1.82-.09,2.72-.36.9-.72,1.61-1.07,2.13-.16.28-.26.46-.28.53,0,.16-.13.5-.39,1-.26.5-.56,1.07-.91,1.71-.38.63-.7,1.21-.97,1.74s-.4.88-.4,1.07l-2.74,7.21c.02.16,0,.3-.05.42-.06.12-.13.22-.23.32-.12.14-.21.29-.28.46-.07.16-.11.39-.11.67l-3.34,6.89c-.07.02-.12.06-.14.12-.02.06-.02.12,0,.19,0,.12-.01.23-.04.35-.02.12-.12.2-.28.25-.05,0-.15.07-.3.21s-.29.33-.42.58-.18.53-.16.86c.05.37,0,.66-.12.84-.13.19-.3.31-.53.37-.22.06-.45.08-.67.07-.22-.01-.41-.03-.56-.05-.15-.02-.23-.05-.23-.07l-1.83-.39c-.02-.12-.14-.27-.35-.46-.45-.33-.87-.94-1.28-1.83s-.42-2.29-.02-4.18c.07-.4.14-.75.21-1.05.09-.59.26-1.21.49-1.88s.7-1.65,1.41-2.94c.42-.84.66-1.58.72-2.21s.05-1.21-.02-1.72c-.09-.56-.08-1.07.04-1.51.05-.19.04-.28-.02-.26-.06.01-.16.09-.3.23s-.3.32-.49.53c-.3.35-.62.69-.95,1.02-.33.33-.61.5-.84.53l-.46.74c-.02-.09-.07-.15-.14-.16-.07-.01-.13.01-.19.07-.06.06-.09.14-.09.23.02.28-.01.48-.11.6-.09.12-.19.19-.28.21-.07.05-.13.09-.18.14-.05.05-.06.12-.04.21l-.88,1.23c-.35.21-.57.39-.65.53s-.13.27-.16.39c0,.07-.02.14-.07.19-.05.06-.14.11-.28.16-.28.09-.49.18-.62.25s-.21.15-.25.23c-.04.08-.05.17-.05.26s-.02.19-.05.3-.12.22-.25.33c-.13.12-.32.25-.58.39-.05.02-.15.13-.32.32-.19.21-.41.45-.67.7-.26.26-.49.46-.69.6s-.31.14-.33,0c0-.14-.04-.19-.11-.14-.07.05-.18.14-.32.28-.19.19-.42.38-.69.58-.27.2-.58.35-.93.44-.14.02-.32.07-.53.14-.35.12-.69.21-1.02.26-.33.06-.56,0-.7-.16-.05-.07-.09-.09-.14-.07-.05.02-.09.06-.14.11-.07.05-.13.08-.18.11-.05.02-.11.02-.18,0-.09,0-.52-.03-1.27-.09-.75-.06-1.59-.22-2.53-.47-.94-.26-1.76-.68-2.46-1.27ZM125.73,29.82c-.02.07-.06.12-.11.16s-.09.05-.12.05-.06-.04-.09-.11l.32-.11ZM126.08,28.77c-.19.47-.29.56-.32.28l.32-.28ZM128.54,24.76c0-.12.02-.19.05-.21.04-.02.08-.02.12,0,.05.02.07.06.07.12s-.04.12-.11.19c-.05.02-.08.02-.11,0-.02-.02-.04-.06-.04-.11Z"/>
      <path class="cls-1" d="M154.66,43.15c.09,0,.23-.21.42-.62.19-.41.38-.87.58-1.39.2-.52.34-.96.42-1.34.08-.37.05-.54-.09-.49-.14.05-.21,0-.19-.12.01-.13.07-.3.18-.53.11-.22.22-.44.33-.65s.22-.38.32-.51c.09-.13.15-.16.16-.11.01.06-.05.24-.19.54-.09.21-.12.35-.09.42s.09.09.18.07c.08-.02.16-.08.25-.16.08-.08.12-.16.12-.23-.02-.05.09-.28.35-.7s.59-.95.98-1.58c.49-.82,1.01-1.68,1.55-2.57.54-.89.97-1.68,1.3-2.36.33-.68.46-1.1.39-1.27-.12-.21,0-.59.33-1.12.34-.54.77-1.12,1.28-1.76s.98-1.18,1.41-1.65c.45-.49.67-.76.67-.81,0-.09.16-.2.49-.32.33-.12.72-.16,1.18-.14.46.02.9.19,1.32.49h.04s.18.14.4.26c.22.13.44.29.65.49.21.2.32.39.32.58,0,.05.02.09.07.14.07.09.13.23.18.42.05.19.04.46-.02.81s-.22.81-.47,1.37l-.81,1.44-5.31,11.64-1.27,2.64-2.53,4.75-1.02,1.3c0,.12-.02.21-.05.26-.04.06-.08.1-.12.12-.05.02-.09.04-.14.04h-.11s-.04-.03-.04-.02.02.02.07.02c0,.02.02.05.07.07.05.05.06.14.04.26-.02.13-.06.27-.12.42-.06.15-.12.28-.19.37-.07.09-.12.14-.16.12-.04-.01-.02-.12.05-.33.02-.09.02-.15-.02-.18-.04-.02-.09-.02-.18,0-.08.02-.15.06-.21.11-.06.05-.09.09-.09.12s.06.04.18.02c.09.14.18.26.25.35.07.09.13.19.18.3s.06.19.04.26-.09.11-.21.11c-.09,0-.16.03-.19.09-.04.06-.06.12-.07.19s-.01.13,0,.18c.01.05.03.06.05.05.02-.01.06-.06.11-.16.05-.14.1-.21.16-.21s.08.07.05.21c-.02.09-.07.18-.14.26-.07.08-.15.15-.23.19-.08.05-.15.05-.19,0v.04l-2-.28c-.59.09-1.08-.21-1.49-.9-.41-.69-.69-1.53-.83-2.51s-.11-1.85.11-2.6l.77-2.88c.19-.49.33-.88.42-1.16.12-.28.2-.49.25-.62.05-.13.07-.19.07-.18v.12c-.02.09-.04.21-.05.33-.01.13-.01.24,0,.33.01.09.05.13.12.11ZM46.26,28.1c.04.07.24.1.62.08.38-.02.8-.05,1.26-.1.46-.05.84-.11,1.15-.2.31-.08.42-.17.33-.26-.09-.09-.09-.15.01-.19.1-.04.25-.06.46-.07.21,0,.41,0,.61,0s.37.02.5.04c.13.02.18.05.14.08-.04.03-.2.05-.48.06-.19.01-.31.04-.35.1s-.03.11.02.16c.05.05.12.1.21.13.09.03.17.03.22,0,.03-.04.24-.04.66,0s.93.08,1.56.14c.8.06,1.64.12,2.51.18.87.07,1.62.09,2.26.08.63-.01.99-.08,1.09-.2.11-.17.43-.23.96-.18.53.05,1.14.15,1.81.3s1.27.29,1.78.43c.54.15.83.21.86.2.07-.04.21.05.43.25.22.2.41.49.57.84.17.36.22.76.16,1.19v.03c0,.05-.01.19-.02.41,0,.22-.04.45-.1.69-.06.24-.16.39-.3.47-.03.02-.06.05-.08.11-.04.09-.12.19-.24.3-.12.11-.32.21-.6.3s-.68.15-1.2.17l-1.39-.06-10.7.47-2.45.06-4.51-.09-1.37-.27c-.09.05-.16.07-.22.06-.06,0-.1-.02-.14-.05-.04-.03-.06-.06-.08-.09l-.04-.08s0-.04,0-.03,0,.02.02.06c-.02,0-.03.04-.02.08-.02.05-.08.1-.18.13-.1.03-.22.06-.36.07-.14.01-.25.01-.35,0-.1-.02-.15-.04-.15-.07,0-.03.08-.06.27-.09.08-.02.12-.05.12-.08,0-.04-.02-.08-.07-.13-.05-.05-.1-.09-.16-.12-.06-.03-.1-.03-.13-.02s0,.06.06.14c-.07.13-.12.23-.16.32-.04.09-.09.17-.15.25s-.12.12-.18.13-.12-.03-.16-.12c-.04-.07-.09-.11-.14-.11-.06,0-.11,0-.17.02s-.1.04-.13.07c-.03.03-.04.05-.02.06.02.01.07.02.16.02.12-.02.2,0,.22.04s-.02.09-.13.12c-.08.02-.16.02-.25,0-.09-.02-.17-.05-.23-.1-.07-.04-.09-.09-.08-.15h-.03s-.59-1.62-.59-1.62c-.3-.41-.28-.9.06-1.48.35-.58.85-1.11,1.52-1.6s1.32-.8,1.96-.93l2.43-.53c.44-.05.78-.09,1.02-.13.25-.02.44-.04.55-.05.11-.01.17-.02.16-.01l-.09.05c-.08.02-.17.05-.27.09-.1.04-.18.08-.25.13-.06.05-.07.09-.03.13ZM160.36,30.95c-.12.12-.14.09-.07-.07l.07.07ZM171.57,8.13c0-.16.12-.22.35-.18.23.05.52.15.86.32.34.16.67.34,1,.53.3.14.57.27.79.39.22.12.37.16.44.14.05,0,.22.08.51.25.29.16.6.37.91.62s.57.49.76.74.21.45.07.62c-.05.05-.08.11-.09.18s-.03.14-.05.21c0,.12-.01.23-.04.35-.02.12-.09.25-.21.39-.4.45-.83.74-1.3.88-.3.09-.59.23-.86.4s-.52.46-.76.86c-.26.52-.53.93-.81,1.23-.28.3-.62.41-1.02.32-.61-.16-1.02-.22-1.23-.18-.14,0-.25-.02-.33-.05s-.16-.14-.25-.32-.19-.47-.33-.9c-.07-.19-.15-.41-.25-.67-.21-.59-.35-1.35-.42-2.29-.07-.94-.09-1.79-.05-2.57s.1-1.21.19-1.3c.09-.07.24-.09.44-.05s.42.08.65.12c.28.05.53.08.74.11.21.02.3-.02.28-.14Z"/>
      <path class="cls-1" d="M201.63,33.55c-.19.28-.42.53-.7.76-.28.22-.54.4-.77.54-.16.12-.29.21-.39.28s-.12.13-.07.18c.12.09.16.16.12.19s-.11.05-.21.05h-.56c-.06,0-.08.01-.05.04.12.14.13.42.04.83-.09.41-.25.86-.46,1.35s-.44.9-.69,1.21-.46.45-.65.4c-.12-.05-.23-.06-.33-.04-.11.02-.21.06-.3.11-.14.07-.28.09-.42.07-.14-.02-.32-.16-.53-.42-.84-1.17-1.45-2.35-1.83-3.53-.38-1.18-.6-2.06-.67-2.62-.05-.19-.07-.3-.07-.35-.07-.12-.23-.05-.49.19s-.54.57-.84.97c-.3.4-.59.76-.84,1.09-.23.33-.4.54-.49.63l-6.4,8.47c0,.07-.02.12-.05.16s-.09.08-.16.12c-.09.05-.21.14-.33.28s-.28.39-.44.74c-.23.45-.61.95-1.12,1.51-.73.75-1.3,1.58-1.72,2.5l-2.18,3.59c0,.09-.02.14-.05.14h-.16s-.09-.04-.14-.04-.09.02-.14.07c-.05.05-.08.14-.11.28-.05.16-.11.27-.18.32-.07.05-.14.08-.21.11-.02,0-.05,0-.07.02-.02.01-.04.04-.04.09.05.54-.16,1.01-.62,1.42-.46.41-.93.76-1.42,1.04-.38.23-.63.43-.77.6l-2.11.28c-.45-.12-.79-.21-1.04-.28s-.43-.13-.54-.18c-.12-.05-.2-.09-.25-.12s-.07-.06-.07-.09c-.02-.05-.06-.1-.12-.16-.06-.06-.18-.13-.35-.21-.18-.08-.44-.19-.79-.33-1.43-.59-2.31-1.29-2.64-2.11-.33-.82-.36-1.63-.11-2.43.26-.8.54-1.45.84-1.97.14-.26.23-.44.28-.56.19-.82.49-1.65.9-2.5s.84-1.69,1.28-2.53c.56-.98,1.04-1.92,1.44-2.81l8.09-15.22c.7-1.2,1.46-1.75,2.27-1.65.81.09,1.51.55,2.09,1.37.59.82.88,1.68.88,2.57,0,.4-.06.76-.19,1.09-.13.33-.28.65-.44.95-.26.49-.46,1.07-.6,1.72l-1.79,5.13-1.93,5.34c-.49.84-.36.88.4.11s2-2.2,3.71-4.29c2.37-2.86,4.12-4.97,5.27-6.33,1.15-1.36,2.19-2.58,3.13-3.66.73-.8,1.29-1.43,1.71-1.9.41-.47.71-.82.9-1.05.19-.23.31-.43.37-.58.06-.15.1-.32.12-.51.05-.23.1-.4.16-.51s.11-.17.16-.19c.05-.02.09-.04.14-.04s.09,0,.12-.02c.04-.01.06-.05.07-.12s.02-.18.02-.32c0-.19.05-.32.14-.39s.21-.13.35-.18c.12-.02.22-.07.32-.14s.14-.19.14-.35c0-.12.16-.23.47-.35.32-.12.72-.15,1.21-.11.49.05,1.02.23,1.58.56l.98.21c.35.23.68.4.98.49.35.12.68.29.98.53.3.23.63.67.98,1.3.07.14.13.26.18.35.12.21.2.38.25.49.05.12.07.25.07.39s-.01.35-.04.63c0,.28-.01.68-.04,1.2-.07,1.81-.3,3.09-.69,3.87s-.78,1.32-1.18,1.65c-.21.19-.4.39-.56.6Z"/>
      <path class="cls-1" d="M247.62,16.68c-.23.16-.43.28-.58.33-.15.06-.28.09-.37.09s-.18-.02-.25-.07c-.05-.02-.11-.04-.18-.04s-.15.02-.25.07l-9.42.63c-.26.14-.86.24-1.79.3-.94.06-2.06.11-3.38.16-1.57.07-3.14.16-4.71.26s-2.86.28-3.87.51c-1.01.23-1.44.56-1.3.98l-.67,1.09-1.48,3.16c-.28.45-.62,1.15-1.02,2.11-.26.61-.51,1.18-.76,1.71s-.49.87-.72,1.04l-7.73,15.96c-.07,0-.17.12-.3.37s-.26.54-.4.9c-.19.45-.4.9-.63,1.35s-.48.83-.74,1.11l-1.62,2.78-1.02,2.04c-.02.14-.08.26-.16.35-.08.09-.16.19-.23.28-.07.07-.13.14-.18.21s-.06.15-.04.25c.05.05.07.08.07.11v.05s-.01.02-.04.02c-.05,0-.11.02-.19.07-.08.05-.18.16-.3.33s-.25.44-.39.79l-1.3,1.76c-.07.23-.15.4-.25.49-.09.09-.19.16-.28.21-.12.07-.24.17-.37.3-.13.13-.25.38-.37.76-.12.3-.29.56-.53.77-.28.26-.5.64-.67,1.16l-.74,1.58c0,.12-.03.18-.09.19-.06.01-.13,0-.23-.02-.09,0-.19,0-.3.02-.11.01-.21.08-.3.21-.09.13-.15.35-.18.65-.02.35-.09.57-.21.67-.12.09-.25.12-.39.09s-.28-.09-.42-.16c-.12-.07-.21-.11-.26-.12-.06-.01-.09.04-.09.16.02.14-.04.21-.18.19-.14-.01-.29-.05-.46-.12-.16-.05-.32-.08-.46-.11-.14-.02-.25,0-.32.07-.05.07-.11.11-.18.12-.07.01-.13,0-.19-.02-.06-.02-.11-.05-.14-.09l-.16-.16c-.14-.16-.22-.33-.25-.49-.02-.16-.02-.28,0-.35,0-.05,0-.06-.02-.05-.01.01-.03.04-.05.09-.09.12-.25-.01-.46-.39-.21-.38-.42-.89-.63-1.55-.21-.66-.35-1.34-.42-2.04s0-1.31.21-1.83l.28-1.23s.08-.02.09.02,0,.1-.02.19c-.02.05-.04.11-.04.18s.01.13.04.18c.02.05.08.06.18.04l.88-2.57c-.02-.09-.02-.16,0-.19s.06-.08.11-.12c.02-.02.04-.05.05-.09s0-.09-.04-.16-.11-.16-.23-.28c-.23-.23-.27-.47-.11-.7.16-.23.4-.44.7-.63.3-.19.56-.33.77-.42l.18-.07c.02-.07.05-.11.07-.11s.05.01.07.04c.02.02.05.05.07.07.02.05.05.08.09.11.04.02.07.01.11-.04.04-.05.09-.15.16-.32l.63-2.36c.07-.35.16-.6.26-.76.11-.15.21-.26.3-.33.02-.02.05-.05.07-.07.02-.02.04-.06.04-.11l9.56-19.65c0-.3.26-.9.77-1.79.52-.89,1.1-1.86,1.76-2.92.59-.94,1.1-1.78,1.53-2.53.43-.75.64-1.23.62-1.44l-1.65-.25-10.58.56c-.09.09-.3.09-.63,0-.33-.09-.7-.25-1.11-.46s-.79-.43-1.14-.67c-.35-.23-.61-.43-.77-.6-.16-.16-.14-.25.07-.25v-.07c0-.07.01-.18.04-.32s.1-.26.23-.37.35-.16.65-.16l.04-.04c.54-.16,2.46-.58,5.75-1.25s6.96-1.08,10.99-1.25l3.87-7.07,2.46-4.25c.38-.8.73-1.29,1.05-1.48.33-.19.94-.22,1.83-.11.77.05,1.57.27,2.39.67.82.4,1.38.97,1.69,1.72.19.56.21,1.19.07,1.88-.14.69-.32,1.37-.53,2.02-.28.77-.41,1.34-.39,1.69l-2.18,4.43c-.12.02-.06.07.18.14.59.12,2.48.18,5.7.18,3.42-.02,7.04.04,10.86.18s6.5.5,8.05,1.09c.28.14.45.25.51.32s.05.12-.04.16-.21.06-.37.09c-.12.02-.24.05-.37.09s-.24.08-.33.12ZM192.81,56.26s-.05.02-.07-.02-.04-.09-.04-.16l.11.18ZM196.68,47.75c-.05.12-.09.19-.12.21-.04.02-.05-.02-.05-.14l.18-.07ZM199.98,59.71s.08-.02.09-.05.02-.08.02-.12l-.11.18ZM204.8,31.37c-.14.4-.22.5-.25.32l.25-.32Z"/>
      <path class="cls-1" d="M210.35,57.49c0-.07-.05-.14-.16-.21s-.24-.14-.4-.21c-.21-.09-.39-.2-.54-.32-.15-.12-.22-.26-.19-.42l.35-1.69c.07-.05.12-.11.14-.18s.02-.14,0-.21c0-.07.01-.13.04-.19.02-.06.07-.1.14-.12.05-.02.11-.08.18-.18.09-.12.21-.23.35-.33s.3-.13.49-.09c.16.02.31-.02.44-.12s.25-.24.37-.4c.12-.16.24-.3.37-.4s.26-.15.4-.12l5.73-3.06c.77-.3,1.42-.64,1.95-1,.53-.36.93-.67,1.21-.93.19-.16.32-.26.39-.28l4.11-1.86,3.27-2.21c1.29-.42,1.82-.76,1.6-1.02-.22-.26-.92-.55-2.09-.88-1.03-.3-2.21-.73-3.55-1.27-.98-.42-1.72-.76-2.2-1.02-.48-.26-.84-.5-1.07-.72-.23-.22-.47-.51-.7-.86-.16-.21-.36-.46-.6-.74-.54-.68-.9-1.29-1.07-1.83-.18-.54-.3-1.15-.37-1.83,0-.19-.02-.37-.07-.56,0-.23.09-.49.26-.76.18-.27.37-.53.58-.79.14-.19.26-.35.35-.49s.15-.26.18-.35c.02-.35.44-.76,1.25-1.23.81-.47,1.64-.9,2.5-1.28s1.45-.65,1.78-.79l.14-.07c.19-.16.83-.46,1.92-.9,1.09-.43,2.34-.91,3.74-1.42,1.5-.56,2.85-1.08,4.06-1.56,1.21-.48,1.9-.83,2.09-1.04.05-.02.11-.04.19-.05.08-.01.18-.02.3-.02.16.02.33.02.51,0,.18-.02.33-.08.47-.18.23-.19.49-.22.76-.11.27.12.54.28.83.49.21.16.43.31.65.44.22.13.45.21.69.23l4.18,2.07c.35.21.56.4.63.56.07.16.06.33-.02.49-.08.16-.21.32-.37.46-.14.16-.27.33-.39.49-.59.89-1.35,1.69-2.29,2.39-.63.49-1.17,1-1.62,1.51l-3.87,4.15c-.09.35-.35.58-.77.69s-.84.08-1.27-.09c-.42-.16-.69-.46-.81-.88-.02-.12-.08-.24-.18-.37-.09-.13-.2-.25-.32-.37-.16-.14-.28-.26-.33-.37s.03-.15.26-.12c.16.02.45-.21.84-.69.4-.48.83-1.02,1.3-1.63.42-.56.83-1.08,1.21-1.55.39-.47.71-.79.97-.95.7-.47.7-.61,0-.42-.7.19-1.92.82-3.66,1.9l-3.97,2.43-.04.04c-.19.09-.67.38-1.44.84-.77.47-1.55.99-2.34,1.56-.79.57-1.31,1.08-1.56,1.53-.12.23-.1.41.05.53.15.12.45.26.9.42.33.12.73.29,1.2.53.82.38,1.63.72,2.43,1.02,1.48.52,3.02,1.24,4.64,2.18l1.2.49c-.02.12.04.2.19.25.15.05.33.09.54.14.26.05.5.12.74.21.23.09.38.25.42.46l1.48,2.04c.12.12.28.33.47.63.2.3.35.66.44,1.05.09.4.04.79-.16,1.18s-.63.71-1.28.97c-.54.21-1.3.61-2.29,1.2-.68.4-1.35.77-2,1.12s-1.22.59-1.69.7c-.4.09-.7.19-.91.3s-.35.18-.42.23c-.09.07-.15.1-.18.09-.02-.01-.06-.06-.11-.16-.09-.19-.25-.22-.47-.11-.22.12-.47.3-.76.56-.28.26-.57.49-.88.69-.3.2-.61.29-.91.26-.12,0-.26.04-.44.11s-.36.15-.54.25c-.16.09-.3.16-.42.21-.12.05-.21.06-.26.05-.06-.01-.06-.08-.02-.19.07-.23.08-.35.04-.33-.05.01-.14.09-.28.23-.16.16-.39.34-.69.53-.29.19-.62.28-.97.28l-1.3.56c-.07-.28-.15-.47-.25-.56-.09-.09-.18-.12-.26-.07-.08.05-.13.12-.14.21-.01.09.03.18.12.25.05.02.06.04.05.05-.01.01-.04.02-.07.04-.04.01-.08,0-.12-.02-.05-.02-.08-.06-.11-.11-.02-.05-.04-.11-.04-.18.02-.16.02-.26,0-.28-.02-.02-.06-.01-.11.04-.05.05-.09.11-.14.18-.07.07-.13.14-.18.21s-.09.09-.14.07c-.09,0-.16.02-.21.05s-.08.08-.11.12c-.05.05-.1.09-.16.12s-.18.03-.37-.02c-.16-.02-.35,0-.54.07s-.38.16-.54.28c-.14.07-.26.13-.37.18-.11.05-.18.06-.23.04-.21-.07-.53-.04-.95.11s-.84.3-1.27.49c-.33.12-.6.22-.83.3-.22.08-.35.09-.37.04-.02-.06.12-.23.42-.51.19-.16.3-.3.35-.42.05-.12.05-.2.02-.25-.04-.05-.09-.06-.16-.05-.07.01-.13.06-.18.16l-1.65.63c-.05-.12-.11-.16-.19-.12s-.18.11-.28.23-.21.25-.3.39c-.07.09-.13.17-.19.23-.06.06-.1.09-.12.11-.02.01-.04-.02-.04-.09l-.49-.07c.07.14.04.28-.09.4-.13.13-.29.24-.47.33-.19.09-.36.16-.53.21-.16.05-.27.05-.32,0-.02-.02-.04-.04-.04-.05s0-.02-.02-.02-.02.01-.02.04c0,.05-.01.09-.04.14-.02.05-.06.09-.12.12s-.15.05-.26.05l-.77.11-.88-.35ZM214.01,56.12c.02-.09,0-.16-.07-.21s-.15-.06-.23-.05c-.08.01-.13.04-.16.07s0,.09.07.16c.26.19.39.2.39.04ZM214.64,56.19l-.21.04c.09.12.16.17.21.16.05-.01.05-.08,0-.19ZM216.15,55.03c.02-.14.01-.22-.04-.25-.05-.02-.12-.01-.21.04-.09.05-.18.11-.25.19-.07.08-.1.15-.09.21.01.06.1.08.26.05.07,0,.13-.02.19-.07.06-.05.1-.11.12-.18ZM218.82,48.03l.63-.11s-.12.09-.23.12-.2.05-.28.05-.12-.02-.12-.07Z"/>
    </g>
  </g>
</svg>