<?xml version="1.0" encoding="UTF-8"?>
<svg id="Layer_2" data-name="Layer 2" xmlns="http://www.w3.org/2000/svg" viewBox="0 0 193.1 75.6">
  <defs>
    <style>
      .cls-1 {
        fill: #f4f4f4;
        stroke-width: 0px;
      }
    </style>
  </defs>
  <g id="Layer_4" data-name="Layer 4">
    <g>
      <path class="cls-1" d="M9.14,18H.87v-7.2h24.48v7.2h-8.28v43.2h-7.92V18Z"/>
      <path class="cls-1" d="M22.75,32.4h15.84v7.2h-15.84v-7.2Z"/>
      <path class="cls-1" d="M44.93,58.64c-1.97-2.18-2.95-5.32-2.95-9.4v-2.88h7.49v3.46c0,3.26,1.37,4.9,4.1,4.9,1.34,0,2.36-.4,3.06-1.19.7-.79,1.04-2.08,1.04-3.85,0-2.11-.48-3.97-1.44-5.58-.96-1.61-2.74-3.54-5.33-5.8-3.27-2.88-5.54-5.48-6.84-7.81-1.3-2.33-1.95-4.96-1.95-7.88,0-3.98,1.01-7.07,3.03-9.25,2.02-2.18,4.94-3.28,8.78-3.28s6.66,1.09,8.6,3.28c1.95,2.19,2.92,5.32,2.92,9.4v2.09h-7.49v-2.59c0-1.73-.34-2.99-1.01-3.78s-1.65-1.19-2.95-1.19c-2.64,0-3.96,1.61-3.96,4.82,0,1.82.49,3.53,1.47,5.11s2.77,3.5,5.37,5.76c3.31,2.88,5.59,5.5,6.84,7.85,1.25,2.35,1.87,5.11,1.87,8.28,0,4.13-1.02,7.3-3.06,9.5-2.04,2.21-5,3.31-8.89,3.31s-6.74-1.09-8.71-3.28Z"/>
      <path class="cls-1" d="M70.13,10.8h7.92v20.52h8.5V10.8h7.92v50.4h-7.92v-22.68h-8.5v22.68h-7.92V10.8Z"/>
      <path class="cls-1" d="M100.37,10.8h7.92v50.4h-7.92V10.8Z"/>
      <path class="cls-1" d="M114.19,10.8h11.74c4.08,0,7.06.95,8.93,2.84,1.87,1.9,2.81,4.81,2.81,8.75v3.1c0,5.23-1.73,8.54-5.18,9.94v.14c1.92.58,3.28,1.75,4.07,3.53.79,1.78,1.19,4.15,1.19,7.13v8.86c0,1.44.05,2.6.14,3.49.1.89.34,1.76.72,2.63h-8.06c-.29-.82-.48-1.58-.58-2.3-.1-.72-.14-2.02-.14-3.89v-9.22c0-2.3-.37-3.91-1.12-4.82-.74-.91-2.03-1.37-3.85-1.37h-2.74v21.6h-7.92V10.8ZM124.99,32.4c1.58,0,2.77-.41,3.56-1.22.79-.82,1.19-2.18,1.19-4.1v-3.89c0-1.82-.32-3.14-.97-3.96-.65-.82-1.67-1.22-3.06-1.22h-3.6v14.4h2.88Z"/>
      <path class="cls-1" d="M149.25,18h-8.28v-7.2h24.48v7.2h-8.28v43.2h-7.92V18Z"/>
      <path class="cls-1" d="M170.85,58.64c-1.97-2.18-2.95-5.32-2.95-9.4v-2.88h7.49v3.46c0,3.26,1.37,4.9,4.1,4.9,1.34,0,2.36-.4,3.06-1.19.7-.79,1.04-2.08,1.04-3.85,0-2.11-.48-3.97-1.44-5.58-.96-1.61-2.74-3.54-5.33-5.8-3.27-2.88-5.54-5.48-6.84-7.81-1.3-2.33-1.95-4.96-1.95-7.88,0-3.98,1.01-7.07,3.03-9.25,2.02-2.18,4.94-3.28,8.78-3.28s6.66,1.09,8.6,3.28c1.95,2.19,2.92,5.32,2.92,9.4v2.09h-7.49v-2.59c0-1.73-.34-2.99-1.01-3.78s-1.65-1.19-2.95-1.19c-2.64,0-3.96,1.61-3.96,4.82,0,1.82.49,3.53,1.47,5.11s2.77,3.5,5.37,5.76c3.31,2.88,5.59,5.5,6.84,7.85,1.25,2.35,1.87,5.11,1.87,8.28,0,4.13-1.02,7.3-3.06,9.5-2.04,2.21-5,3.31-8.89,3.31s-6.74-1.09-8.71-3.28Z"/>
    </g>
  </g>
</svg>