<?xml version="1.0" encoding="UTF-8"?>
<svg id="Layer_2" data-name="Layer 2" xmlns="http://www.w3.org/2000/svg" viewBox="0 0 1041.49 219.89">
  <defs>
    <style>
      .cls-1 {
        fill: #282828;
        stroke-width: 0px;
      }
    </style>
  </defs>
  <g id="Layer_2-2" data-name="Layer 2">
    <g>
      <path class="cls-1" d="M236.05,3.03c.08.39.06.7-.06.94s-.29.47-.53.7c-.23.31-.51.78-.82,1.41-.31.63-.55,1.52-.7,2.7,0,.23-.06.37-.18.41-.12.04-.22.06-.29.06-.16,0-.29.04-.41.12-.12.08-.2.2-.23.35-.04.16-.04.45,0,.88.04.43.18,1,.41,1.7.08.39-.02.78-.29,1.17-.27.39-.57.74-.88,1.05-.47.47-.78.88-.94,1.23-.16.35.12.68.82,1,.47.16.7.29.7.41s-.14.22-.41.29c-.27.08-.57.16-.88.23-.47.16-.88.29-1.23.41s-.57.25-.64.41l-.82,3.4c.16,0,0,.35-.47,1.05-.39.78-.86,1.8-1.41,3.05-.55,1.25-.86,2.62-.94,4.1-.08.39-.23.66-.47.82-.23.16-.51.27-.82.35-.23,0-.45.06-.64.18-.2.12-.29.25-.29.41,0,.86-.14,1.48-.41,1.88-.27.39-.61.7-1,.94-.39.23-.7.51-.94.82-.23.31-.35.78-.35,1.41,0,1.09-.25,2.07-.76,2.93-.51.86-1.11,1.72-1.82,2.58-1.25,1.41-2.27,3.13-3.05,5.16-.31,1.02-.57,1.68-.76,1.99-.2.31-.33.41-.41.29-.08-.12-.12-.37-.12-.76-.08-.31-.18-.64-.29-1s-.29-.53-.53-.53c-.39,0-.64.14-.76.41-.12.27-.18.64-.18,1.11,0,.55-.1,1.27-.29,2.17-.2.9-.64,1.93-1.35,3.11-.55.94-.88,1.76-1,2.46s-.14,1.33-.06,1.88c0,.7-.1,1.33-.29,1.88-.2.55-.84,1.09-1.93,1.64-.55.31-.94.84-1.17,1.58-.23.74-.43,1.54-.59,2.4-.16.86-.37,1.66-.64,2.4-.27.74-.64,1.31-1.11,1.7-.39.31-.67.63-.82.94-.16.31-.23.59-.23.82-.08.23-.18.47-.29.7s-.37.43-.76.59c-.23.16-.47.41-.7.76s-.43.68-.59,1c-.16.39-.31.7-.47.94-.16.23-.27.31-.35.23-.08-.08-.12-.39-.12-.94,0-.47-.12-.9-.35-1.29-.23-.39-.49-.51-.76-.35-.27.16-.45.7-.53,1.64-.31,3.05-.9,5.53-1.76,7.44-.86,1.92-1.92,3.69-3.16,5.33-1.02,1.56-2.11,3.44-3.28,5.62l-2.34,3.75c-.23.86-.41,1.33-.53,1.41-.12.08-.22-.16-.29-.7-.08-.94-.25-1.41-.53-1.41s-.53.25-.76.76c-.23.51-.43,1.09-.59,1.76-.16.66-.16,1.23,0,1.7.23.63.35,1.09.35,1.41s-.1.55-.29.7c-.2.16-.41.31-.64.47-.55.16-1.09.59-1.64,1.29-.55.7-.98,2.03-1.29,3.98-.16,1.17-.16,1.86,0,2.05.16.2.43.04.82-.47.39-.51.8-1.13,1.23-1.88.43-.74.84-1.46,1.23-2.17.47-.78.74-1.25.82-1.41l9.61-14.41c1.09-1.09,1.8-1.99,2.11-2.7.31-.7.51-1.25.59-1.64.08-.31.18-.59.29-.82s.37-.47.76-.7c1.17-.94,2.25-2.19,3.22-3.75.98-1.56,1.85-3.16,2.64-4.8,1.01-2.19,1.95-3.75,2.81-4.69.31-.31.68-.8,1.11-1.46.43-.66.92-1.39,1.46-2.17.62-1.01,1.21-1.91,1.76-2.7.55-.78.96-1.25,1.23-1.41.27-.16.25.2-.06,1.05l-1.17,4.34c0-.23-.04-.41-.12-.53-.08-.12-.23-.18-.47-.18-.39,0-.78.35-1.17,1.05-.39.7-.78,1.54-1.17,2.52-.39.98-.7,1.93-.94,2.87-.23.7-.45,1.29-.64,1.76-.2.47-.33.7-.41.7-.16,0-.33.22-.53.64-.2.43-.41.92-.64,1.46-.31.86-.63,1.62-.94,2.29-.31.66-.7.96-1.17.88l-1.99,4.8c.16.16.27.27.35.35l.12.12h-.12c-.08-.08-.18-.14-.29-.18-.12-.04-.25-.04-.41,0-.16.04-.29.18-.41.41s-.18.66-.18,1.29c0,.55-.04.96-.12,1.23-.08.27-.18.45-.29.53-.12.08-.22.12-.29.12-.23.08-.45.18-.64.29-.2.12-.41.41-.64.88-.23.55-.51.84-.82.88-.31.04-.63-.02-.94-.18-.31-.16-.61-.21-.88-.18-.27.04-.57.27-.88.7-.31.43-.59,1.23-.82,2.4-.23.86-.45,1.43-.64,1.7-.2.27-.39.37-.59.29-.2-.08-.41-.23-.64-.47-.08-.08-.18-.16-.29-.23-.12-.08-.22-.06-.29.06-.08.12-.16.35-.23.7-.08.35-.12.88-.12,1.58-.08.55-.27,1.45-.59,2.7-.31,1.25-.7,2.42-1.17,3.52-.47,1.09-.94,1.64-1.41,1.64-.78-.08-1.31-.02-1.58.18-.27.2-.39.47-.35.82.04.35.1.72.18,1.11.08.31.14.59.18.82.04.23-.06.35-.29.35l-.94.59c-.31-.08-.51-.08-.59,0-.08.08-.12.23-.12.47.08.31.08.63,0,.94-.08.31-.31.63-.7.94l-.47.47c-.08.08-.12.14-.12.18s.04.1.12.18c.08,0,.14.06.18.18.04.12.06.25.06.41s-.08.39-.23.7c-.16.31-.41.7-.76,1.17s-.84,1.02-1.46,1.64c-.47.55-.82,1.05-1.05,1.52-.23.39-.45.68-.64.88-.2.2-.57.22-1.11.06-.31-.08-.53-.04-.64.12-.12.16-.14.37-.06.64.08.27.19.61.35,1,.23.47.37.9.41,1.29.04.39-.1.59-.41.59-.47,0-.82.27-1.05.82-.23.55-.43,1.09-.59,1.64-.08.31-.18.61-.29.88-.12.27-.22.41-.29.41-.47,0-.82.27-1.05.82-.23.55-.43,1.21-.59,1.99-.16.55-.33,1.05-.53,1.52-.2.47-.41.7-.64.7l-4.69,6.68c.08.39.06.64-.06.76s-.27.18-.47.18h-.64c-.23-.08-.43-.1-.59-.06-.16.04-.16.22,0,.53.16.47.18.8.06,1-.12.2-.33.27-.64.23-.31-.04-.67-.14-1.05-.29-.47-.08-.88-.16-1.23-.23-.35-.08-.61-.04-.76.12l.94,4.34-2.11,4.45-.23-2.93c-.23-1.09-.47-1.68-.7-1.76-.23-.08-.45.14-.64.64-.2.51-.37,1.11-.53,1.82-.16.7-.29,1.35-.41,1.93s-.18.92-.18,1c.23,1.09.23,1.88,0,2.34s-.59.82-1.05,1.05c-.31.23-.67.61-1.05,1.11-.39.51-.7,1.27-.94,2.29-.16.63-.59,1.46-1.29,2.52s-1.52,2.25-2.46,3.57c-1.41,1.8-2.64,3.54-3.69,5.21-1.05,1.68-1.54,3.03-1.46,4.04.08.78-.12,1.6-.59,2.46-.47.86-.98,1.58-1.52,2.17-.55.59-.94.88-1.17.88-.16,0-.23-.04-.23-.12s.08-.21.23-.41c.16-.19.35-.37.59-.53.31-.31.57-.59.76-.82.19-.23.23-.43.12-.59-.12-.16-.45-.19-1-.12l-4.45,2.58c0,.31-.04.55-.12.7-.08.16-.2.31-.35.47-.16.16-.33.45-.53.88-.2.43-.29,1.27-.29,2.52,0,1.09-.14,1.84-.41,2.23-.27.39-.64.66-1.11.82-.31.16-.64.39-1,.7-.35.31-.68.86-1,1.64-.08.31-.2.51-.35.59-.16.08-.35.16-.59.23-.16,0-.31.06-.47.18-.16.12-.23.37-.23.76l-3.98,4.8-1.41-.23c.23.39.35.64.35.76s-.08.14-.23.06c-.16-.08-.35-.16-.59-.23-.23-.16-.45-.27-.64-.35-.2-.08-.33-.1-.41-.06-.08.04-.04.25.12.64.08.31.04.49-.12.53-.16.04-.39.02-.7-.06-.39-.08-.82-.12-1.29-.12s-.86.27-1.17.82l-5.86,3.05c-.08-.16-.14-.22-.18-.18-.04.04-.1.14-.18.29,0,.23-.1.55-.29.94-.2.39-.51.72-.94,1-.43.27-1.11.41-2.05.41-.31,0-.53.04-.64.12-.12.08-.2.18-.23.29-.04.12-.06.21-.06.29-.08.08-.12.14-.12.18s-.02.04-.06,0c-.04-.04-.1-.14-.18-.29-.23-.31-.67-.45-1.29-.41-.63.04-1.25.14-1.88.29-.55.16-1,.25-1.35.29-.35.04-.61.02-.76-.06l-8.09-1.17-2.23-.23c-1.95-.39-3.52-.51-4.69-.35-1.09.08-2.19-.08-3.28-.47-1.09-.39-2.58-1.48-4.45-3.28l-5.74-4.22c-1.95-2.74-3.85-6.8-5.68-12.19-1.84-5.39-2.87-10.04-3.11-13.95-.31-3.44-.94-6.02-1.88-7.73-.55-.94-.82-1.72-.82-2.34,0-.94-.25-1.39-.76-1.35-.51.04-1.04.27-1.58.7-.55.43-1.02.84-1.41,1.23,0-1.17-.14-1.85-.41-2.05-.27-.19-.59-.1-.94.29-.35.39-.68.9-1,1.52-.31.63-.55,1.21-.7,1.76-.16.55-.12.82.12.82l1.64-1.17-4.45,6.56c.08.16,0,.33-.23.53-.23.2-.55.37-.94.53-.63.23-1.17.55-1.64.94-.47.39-.67.94-.59,1.64.23.86.16,1.45-.23,1.76-.39.31-.82.55-1.29.7-.39.08-.72.2-1,.35-.27.16-.41.43-.41.82,0,.7-.25,1.31-.76,1.82-.51.51-1.04,1-1.58,1.46-.47.39-.9.78-1.29,1.17-.39.39-.59.78-.59,1.17,0,.94.37,1.21,1.11.82.74-.39,1.6-1.07,2.58-2.05.98-.98,1.89-1.93,2.75-2.87.62-.7,1.09-1.19,1.41-1.46.31-.27.35-.18.12.29-1.17,1.88-2.74,3.75-4.69,5.62-1.95,1.88-3.83,3.4-5.62,4.57-1.8,1.17-2.97,1.68-3.52,1.52-.16,0-.27-.04-.35-.12-.08,0-.16-.02-.23-.06-.08-.04-.12-.04-.12,0s.04.06.12.06c.08.08.14.23.18.47.04.23-.02.51-.18.82-.16.31-.47.68-.94,1.11-.47.43-1.17.92-2.11,1.46.62-.7,1.09-1.29,1.41-1.76.31-.47.49-.84.53-1.11.04-.27.04-.49,0-.64-.04-.16-.12-.23-.23-.23s-.23.02-.35.06c-.12.04-.14.1-.06.18.16.23.06.43-.29.59-.35.16-.8.27-1.35.35-.86.08-1.64.27-2.34.59-.7.31-.94.86-.7,1.64.16.31.35.51.59.59s.47.12.7.12c.16,0,.25.02.29.06.04.04.02.1-.06.18-.08.08-.27.23-.59.47l-4.57.7c-.7-.31-1.13-.31-1.29,0-.08.23-.37.29-.88.18-.51-.12-1.08-.35-1.7-.7-.63-.35-1.19-.74-1.7-1.17-.51-.43-.76-.8-.76-1.11,0-.39-.14-.57-.41-.53-.27.04-.64.14-1.11.29-.39.16-.76.27-1.11.35-.35.08-.61-.04-.76-.35-.23-.47-.94-.84-2.11-1.11-1.17-.27-2.58-.57-4.22-.88-2.03-.31-3.89-.68-5.57-1.11-1.68-.43-2.68-1.07-2.99-1.93-.39-1.09-1.13-2.11-2.23-3.05-.86-.78-1.66-1.68-2.4-2.7-.74-1.01-1.19-2.34-1.35-3.98-.39-6.09-.02-11.72,1.11-16.88,1.13-5.16,2.36-9.65,3.69-13.48.62-1.95,1.15-3.69,1.58-5.21.43-1.52.64-2.79.64-3.81l7.73-20.86c.94-3.36,3.08-8.77,6.45-16.23,3.36-7.46,6.74-14.57,10.14-21.33,3.4-6.76,5.6-10.76,6.62-12.01.55-.62,1.05-1.44,1.52-2.46.55-1.33,1.41-2.6,2.58-3.81,1.17-1.21,2.97-1.89,5.39-2.05.86-.08,1.54-.29,2.05-.64.51-.35.96-.72,1.35-1.11.39-.39.8-.68,1.23-.88.43-.19.92-.21,1.46-.06.55.16,1.25.66,2.11,1.52,1.88,1.48,3.75,2.38,5.62,2.7,1.25.31,2.25.7,2.99,1.17.74.47,1.11,1.33,1.11,2.58-.08,1.25-.18,2.25-.29,2.99-.12.74-.23,1.31-.35,1.7-.12.39-.25.66-.41.82-.16.16-.31.27-.47.35-.08,0-.16.04-.23.12-.08.08-.14.22-.18.41-.04.2-.06.45-.06.76,0,.47-.12.84-.35,1.11-.23.27-.59.53-1.05.76-.47.31-1.04.8-1.7,1.46-.67.66-1.27,1.62-1.82,2.87-.31.63-.82,1.45-1.52,2.46-1.64,2.11-3.24,5.23-4.8,9.38-.39,1.09-1.02,2.31-1.88,3.63-1.41,1.95-2.42,4.22-3.05,6.8l-4.45,11.25c-.08.78-.31,1.82-.7,3.11-.39,1.29-.82,2.72-1.29,4.28-.55,1.64-1,3.15-1.35,4.51-.35,1.37-.51,2.36-.47,2.99.04.63.41.59,1.11-.12.47-.39.39.12-.23,1.52-1.09,2.42-2.11,6.13-3.05,11.13-.16,1.41-.35,2.4-.59,2.99s-.43,1.04-.59,1.35c-.16.23-.27.47-.35.7-.08.23-.16.57-.23,1-.08.43-.12,1.04-.12,1.82-.16,2.58-.67,5.35-1.52,8.32-.47,1.8-.78,3.34-.94,4.63-.16,1.29.04,1.99.59,2.11.55.12,1.68-.62,3.4-2.23,1.72-1.6,4.26-4.35,7.62-8.26l14.06-16.64c3.75-3.83,7.89-8.79,12.42-14.88,2.66-3.44,5.16-6.6,7.5-9.49,1.64-1.95,3.11-4.3,4.39-7.03,1.29-2.73,2.44-5.27,3.46-7.62.94-2.34,1.72-4.08,2.34-5.21.62-1.13,1.09-1.31,1.41-.53l6.56-1.52c.62,0,1.11-.25,1.46-.76.35-.51.68-1.07,1-1.7.23-.55.47-1,.7-1.35s.53-.49.88-.41c.35.08.76.51,1.23,1.29.39.7.7,1.09.94,1.17.23.08.41.02.53-.18.12-.19.21-.45.29-.76.08-.31.18-.57.29-.76.12-.19.29-.21.53-.06.31.23.84.47,1.58.7.74.23,1.58.51,2.52.82,1.64.39,3.12.84,4.45,1.35,1.33.51,1.99,1.04,1.99,1.58,0,.86.25,1.62.76,2.29.51.66,1.03,1.31,1.58,1.93.62.55,1.09,1.07,1.41,1.58.31.51.35,1,.12,1.46-.47.86-.86,1.88-1.17,3.05-.31,1.17-.59,2.34-.82,3.52-.16,1.09-.33,2.03-.53,2.81-.2.78-.45,1.25-.76,1.41l-4.1,19.45c-.23.94-.43,1.68-.59,2.23-.16.55-.27.98-.35,1.29-.08.31-.1.53-.06.64.04.12.08.16.12.12.04-.04.1-.1.18-.18.08-.08.18-.12.29-.12s.19.06.23.18c.04.12.04.35,0,.7-.04.35-.1.88-.18,1.58l-2.11,9.49-3.05,18.98c-.08.55-.1,1.74-.06,3.57.04,1.84.16,3.85.35,6.04.19,2.19.39,4.12.59,5.8.19,1.68.37,2.52.53,2.52.55,0,1.48-.88,2.81-2.64,1.33-1.76,2.79-3.83,4.39-6.21,1.6-2.38,3.11-4.63,4.51-6.74,1.88-2.89,3.05-4.69,3.52-5.39l9.73-9.96c.08,0,.16-.1.23-.29.08-.19.08-.41,0-.64,0-.16.45-.82,1.35-1.99.9-1.17,2.01-2.62,3.34-4.34,1.72-2.27,3.52-4.61,5.39-7.03,1.88-2.42,3.48-4.65,4.8-6.68,1.33-2.03,1.99-3.36,1.99-3.98l30.12-45c.55-.78,1.41-2.19,2.58-4.22,1.41-2.27,2.81-4.47,4.22-6.62,1.41-2.15,2.5-3.3,3.28-3.46h.59q.08,0,0,0c-.08-.08-.16-.16-.23-.23-.08-.08-.12-.18-.12-.29s.02-.29.06-.53c.04-.23.14-.51.29-.82.16-.31.39-.7.7-1.17,2.34-3.36,4.61-6.68,6.8-9.96,3.83-5.62,7.77-11.21,11.84-16.76,4.06-5.55,8.51-11.05,13.36-16.52,1.41-1.8,2.26-3.2,2.58-4.22.16-.47.33-.86.53-1.17.19-.31.49-.47.88-.47.47-.16.92-.59,1.35-1.29.43-.7.88-1.52,1.35-2.46.39-.78.78-1.5,1.17-2.17.39-.66.78-1,1.17-1,.31,0,.62-.1.94-.29.31-.19.59-.41.82-.64.31-.23.6-.41.88-.53.27-.12.55.04.82.47.27.43.57,1.27.88,2.52ZM55.11,176.46c-.08,0-.14-.06-.18-.18-.04-.12-.02-.21.06-.29l.12.47ZM118.04,91.27l-.59.47c.16,0,.29-.04.41-.12.12-.08.18-.19.18-.35ZM147.69,157.36c.16,0,.29-.12.41-.35s.18-.51.18-.82c0-.7-.08-1.11-.23-1.23-.16-.12-.33-.08-.53.12-.2.2-.35.47-.47.82s-.14.68-.06,1c.08.31.31.47.7.47ZM151.09,133.1c.08,0,.18-.04.29-.12.12-.08.18-.19.18-.35l-.47.47ZM171.24,131.35c.55-1.09.76-1.8.64-2.11-.12-.31-.35-.39-.7-.23-.35.16-.68.47-1,.94-.31.47-.43,1.02-.35,1.64.16.7.33,1.04.53,1,.19-.04.49-.45.88-1.23ZM195.85,95.49c-.23.31-.39.12-.47-.59l.47.59ZM210.85,71.58c-.08-.08-.1-.23-.06-.47.04-.23.14-.51.29-.82.08-.08.16-.19.23-.35l-.47,1.64ZM212.96,62.67c0-.39.08-.62.23-.7.16-.08.31-.06.47.06.16.12.23.27.23.47s-.16.41-.47.64c-.31.08-.47-.08-.47-.47ZM233,15.45l.12.47c-.08-.16-.12-.31-.12-.47ZM236.05,10.17c-.08.08-.14.06-.18-.06-.04-.12-.06-.29-.06-.53l.23.59Z"/>
      <path class="cls-1" d="M178.51,169.43c-.08-.08-.16-.16-.23-.23-.47-.47-.84-.82-1.11-1.05-.27-.23-.45-.41-.53-.53-.08-.12-.1-.19-.06-.23.04-.04.14-.1.29-.18.16-.08.33-.21.53-.41.2-.19.39-.55.59-1.05.2-.51.29-1.23.29-2.17l.47-4.92c-.23-1.48.04-3.2.82-5.16.78-1.95,1.72-3.94,2.81-5.98,1.25-2.5,2.15-4.61,2.7-6.33.86-3.12,3.34-8.69,7.44-16.7,4.1-8.01,8.3-15.8,12.6-23.38,4.3-7.58,7.11-12.34,8.44-14.3,1.64-2.11,2.81-3.79,3.52-5.04.7-1.25,1.09-2.21,1.17-2.87.08-.66.08-1.23,0-1.7,0-.31.02-.64.06-1,.04-.35.25-.8.64-1.35l8.55-13.83,1.41-2.93,15.82-26.25c.39-.39,1.07-1.42,2.05-3.11.98-1.68,2.13-3.73,3.46-6.15,1.72-3.2,3.5-6.35,5.33-9.43,1.83-3.09,3.38-5.41,4.63-6.97.7-.94,1.13-1.64,1.29-2.11.16-.23.27-.39.35-.47.08-.08.18-.04.29.12.12.16.33.43.64.82h.12c.7.86,1.8,1.76,3.28,2.7,1.17.78,2.25,1.6,3.22,2.46.98.86,1.62,1.8,1.93,2.81.08,1.17-.59,3.87-1.99,8.09s-3.09,8.89-5.04,14c-1.95,5.12-3.75,9.55-5.39,13.3s-2.58,5.74-2.81,5.98l-1.52,3.52c-.63.78-1.04,1.43-1.23,1.93-.2.51-.29.92-.29,1.23-.08.31-.18.57-.29.76-.12.2-.33.41-.64.64l-6.91,15.94-2.34,5.39-6.68,14.06c-.39.47-.68,1.04-.88,1.7-.2.66-.33,1.35-.41,2.05-.08.63-.2,1.15-.35,1.58-.16.43-.39.68-.7.76l-5.04,11.25c-.23.08-.49.41-.76,1-.27.59-.57,1.35-.88,2.29-.78,2.42-1.92,4.8-3.4,7.15l-7.27,14.65-4.8,9.61c-.23,0-.43.08-.59.23-.16.16-.27.29-.35.41-.08.12-.06.2.06.23.12.04.35-.04.7-.23.35-.19.9-.55,1.64-1.05.74-.51,1.68-1.23,2.81-2.17,1.13-.94,2.52-2.15,4.16-3.63l6.21-4.92c.47-.47,1.56-1.68,3.28-3.63,2.66-3.12,6.35-7.27,11.07-12.42,4.73-5.16,9.94-10.39,15.64-15.7,5.7-5.31,11.37-9.77,16.99-13.36,5.62-3.59,10.68-5.39,15.18-5.39s7.87,2.7,10.14,8.09c1.01,3.05.92,6.08-.29,9.08-1.21,3.01-2.4,5.37-3.57,7.09-.55.94-.86,1.52-.94,1.76,0,.55-.43,1.66-1.29,3.34-.86,1.68-1.88,3.57-3.05,5.68-1.25,2.11-2.33,4.04-3.22,5.8-.9,1.76-1.35,2.95-1.35,3.57l-9.14,24.02c.08.55.02,1.02-.18,1.41-.2.39-.45.74-.76,1.05-.39.47-.7.98-.94,1.52-.23.55-.35,1.29-.35,2.23l-11.13,22.97c-.23.08-.39.22-.47.41-.08.2-.08.41,0,.64,0,.39-.04.78-.12,1.17-.08.39-.39.66-.94.82-.16,0-.49.23-1,.7-.51.47-.98,1.11-1.41,1.93-.43.82-.61,1.78-.53,2.87.16,1.25.02,2.19-.41,2.81-.43.62-1.02,1.03-1.76,1.23-.74.19-1.49.27-2.23.23-.74-.04-1.37-.1-1.88-.18-.51-.08-.76-.16-.76-.23l-6.09-1.29c-.08-.39-.47-.9-1.17-1.52-1.49-1.09-2.91-3.13-4.28-6.09-1.37-2.97-1.39-7.62-.06-13.95.23-1.33.47-2.5.7-3.52.31-1.95.86-4.04,1.64-6.27.78-2.23,2.34-5.49,4.69-9.79,1.41-2.81,2.21-5.27,2.4-7.38.19-2.11.18-4.02-.06-5.74-.31-1.88-.27-3.55.12-5.04.16-.62.14-.92-.06-.88-.2.04-.53.29-1,.76s-1.02,1.05-1.64,1.76c-1.02,1.17-2.07,2.31-3.16,3.4-1.09,1.09-2.03,1.68-2.81,1.76l-1.52,2.46c-.08-.31-.23-.49-.47-.53-.23-.04-.45.04-.64.23-.2.2-.29.45-.29.76.08.94-.04,1.6-.35,1.99-.31.39-.63.63-.94.7-.23.16-.43.31-.59.47-.16.16-.2.39-.12.7l-2.93,4.1c-1.17.7-1.9,1.29-2.17,1.76-.27.47-.45.9-.53,1.29,0,.23-.08.45-.23.64-.16.2-.47.37-.94.53-.94.31-1.62.59-2.05.82-.43.23-.7.49-.82.76-.12.27-.18.57-.18.88s-.06.64-.18,1-.39.72-.82,1.11c-.43.39-1.08.82-1.93,1.29-.16.08-.51.43-1.05,1.05-.63.7-1.37,1.48-2.23,2.34-.86.86-1.62,1.52-2.29,1.99-.67.47-1.04.47-1.11,0,0-.47-.12-.62-.35-.47-.23.16-.59.47-1.05.94-.63.63-1.39,1.27-2.29,1.93-.9.66-1.93,1.15-3.11,1.46-.47.08-1.05.23-1.76.47-1.17.39-2.31.68-3.4.88-1.09.2-1.88.02-2.34-.53-.16-.23-.31-.31-.47-.23-.16.08-.31.2-.47.35-.23.16-.43.27-.59.35-.16.08-.35.08-.59,0-.31,0-1.72-.1-4.22-.29-2.5-.19-5.31-.72-8.44-1.58-3.13-.86-5.86-2.27-8.2-4.22ZM202.42,102.99c-.08.23-.2.41-.35.53-.16.12-.29.18-.41.18s-.22-.12-.29-.35l1.05-.35ZM203.59,99.47c-.63,1.56-.98,1.88-1.05.94l1.05-.94ZM211.79,86.11c0-.39.06-.62.18-.7.12-.08.25-.08.41,0,.16.08.23.22.23.41s-.12.41-.35.64c-.16.08-.27.08-.35,0-.08-.08-.12-.19-.12-.35Z"/>
      <path class="cls-1" d="M300.15,138.73c6.72-10.23,14.36-20.68,22.91-31.35s17.48-19.43,26.78-26.31c1.56,1.41,2.79,2.44,3.69,3.11.9.66,1.6,1.09,2.11,1.29.51.2,1,.29,1.46.29.47.08.96.18,1.46.29.51.12,1.19.41,2.05.88.62.31,1.21.59,1.76.82,1.95.86,3.57,1.86,4.86,2.99,1.29,1.13,2.71,3.22,4.28,6.27.23.39.43.78.59,1.17.47,1.02.94,1.72,1.41,2.11.47.39,1.21.29,2.23-.29,1.01-.59,2.5-1.89,4.45-3.93l5.16-4.69c.39-.78,1.33-2.15,2.81-4.1,1.25-1.56,2.44-3.16,3.57-4.8,1.13-1.64,1.82-2.97,2.05-3.98.23-1.33.74-1.95,1.52-1.88.78.08,1.68.39,2.7.94.86.47,1.64.8,2.34,1,.7.2,1.25-.02,1.64-.64.23-.31,1-.35,2.29-.12s2.75.7,4.39,1.41,3.12,1.58,4.45,2.64c1.33,1.05,2.11,2.29,2.34,3.69.47,3.59.39,6.27-.23,8.03-.63,1.76-1.21,2.95-1.76,3.57-.31.39-.47.7-.47.94,0,.78-.47,1.99-1.41,3.63s-1.84,3.13-2.7,4.45c-.78,1.25-1.21,1.99-1.29,2.23l-10.2,19.8c0,.78-.22,1.54-.64,2.29-.43.74-.92,1.5-1.46,2.29-1.56,1.88-2.62,4.22-3.16,7.03l-8.32,22.15c-.7.86-1.13,1.9-1.29,3.11-.16,1.21-.2,2.25-.12,3.11,0,.47-.02.78-.06.94-.04.16-.14.04-.29-.35-.55-1.09-.98-1.44-1.29-1.05-.31.39-.57,1.17-.76,2.34-.2,1.17-.31,2.42-.35,3.75-.04,1.33-.06,2.42-.06,3.28l-4.22.12c-.55.55-1.43.64-2.64.29-1.21-.35-2.5-.98-3.87-1.88-1.37-.9-2.54-1.82-3.52-2.75-.98-.94-1.46-1.6-1.46-1.99,0-.94-.2-1.8-.59-2.58-.39-.78-.82-1.48-1.29-2.11-.55-.7-1-1.41-1.35-2.11s-.53-1.48-.53-2.34c0-.08-.04-.23-.12-.47-.23-.39-.47-1.64-.7-3.75s-.2-5.66.12-10.66l.35-4.34-2.7.7c.08-.08.21-.29.41-.64.19-.35.35-.72.47-1.11.12-.39.14-.66.06-.82-.08-.16-.33-.12-.76.12-.43.23-1.11.78-2.05,1.64-.86.78-1.5,1.31-1.93,1.58-.43.27-.72.45-.88.53-.16,0-.25.02-.29.06-.04.04-.06.1-.06.18v.47c-.08.16-.12.47-.12.94-.08.16-.67.7-1.76,1.64-.86.78-1.84,1.7-2.93,2.75-1.09,1.05-2.05,2.07-2.87,3.05-.82.98-1.23,1.7-1.23,2.17,0,.23-.08.37-.23.41-.16.04-.31.06-.47.06-.23,0-.45.02-.64.06-.2.04-.37.16-.53.35-.16.2-.23.53-.23,1,0,.78-.29,1.33-.88,1.64-.59.31-1.15.55-1.7.7-.31.16-.59.27-.82.35-.23.08-.27.23-.12.47.23.55.18,1.09-.18,1.64-.35.55-.86,1.05-1.52,1.52-.67.47-1.31.9-1.93,1.29-.39.23-.7.43-.94.59-.23.16-.35.27-.35.35,0,.39-.84,1.45-2.52,3.16-1.68,1.72-3.67,3.56-5.98,5.51-2.31,1.95-4.47,3.67-6.5,5.16-2.03,1.48-3.4,2.23-4.1,2.23-.31,0-.53.06-.64.18s-.18.22-.18.29-.04.16-.12.23c-.08.08-.16.12-.23.12h-.47l-3.05,1.41c-.08.16-.27.16-.59,0-.31-.16-.67-.35-1.05-.59-.39-.16-.74-.31-1.05-.47-.31-.16-.53-.18-.64-.06s-.06.45.18,1c.16.31.14.49-.06.53-.2.04-.61-.1-1.23-.41-.23-.08-.43-.12-.59-.12h-.47c-.16,0-.33-.02-.53-.06-.2-.04-.43-.16-.7-.35-.27-.19-.64-.53-1.11-1-.94-.86-2.25-1.64-3.93-2.34-1.68-.7-3.26-1.33-4.75-1.88-.86-.31-1.56-.59-2.11-.82-.55-.23-.82-.39-.82-.47,0-.23-.35-.7-1.05-1.41-.55-.62-1.13-1.35-1.76-2.17-.62-.82-.94-1.62-.94-2.4,0-2.19.98-5.6,2.93-10.25,1.95-4.65,4.08-9.12,6.39-13.42,2.3-4.3,4.04-7.3,5.21-9.02ZM363.31,107.09c-.39-.39-.82-.9-1.29-1.52-.78-1.09-1.68-1.93-2.7-2.52-1.02-.59-2.31-.29-3.87.88-.47.31-.98.59-1.52.82-.63.31-1.56.9-2.81,1.76-1.25.86-3.05,2.42-5.39,4.69-.7.63-1.45,1.29-2.23,1.99-1.49,1.33-2.93,2.72-4.34,4.16-1.41,1.45-2.42,2.79-3.05,4.04-.23.63-.45,1.07-.64,1.35-.2.27-.37.43-.53.47-.16.04-.27.06-.35.06-.08-.08-.18-.1-.29-.06-.12.04-.23.14-.35.29-.12.16-.25.39-.41.7l-13.83,20.39c-1.02,1.64-2.15,3.01-3.4,4.1-.78.7-1.49,1.45-2.11,2.23-.63.78-1.13,1.76-1.52,2.93v3.75l5.27-3.98c.55,0,1.25-.51,2.11-1.52.62-.7,1.41-1.39,2.34-2.05.94-.66,1.99-1.07,3.16-1.23,1.17-.16,2.67-.94,4.51-2.34,1.83-1.41,3.63-2.97,5.39-4.69,1.76-1.72,3.07-3.09,3.93-4.1l.82-.82,18.16-16.99c0-.08.27-.27.82-.59,1.09-.62,2.36-1.6,3.81-2.93,1.44-1.33,2.21-2.97,2.29-4.92,0-.16.04-.27.12-.35.08-.08.16-.16.23-.23.16-.08.27-.19.35-.35.08-.16.08-.35,0-.59-.08-.23-.33-.57-.76-1-.43-.43-1.08-1.03-1.93-1.82ZM354.53,146.23c-.94.55-.98.39-.12-.47l.12.47Z"/>
      <path class="cls-1" d="M569.92,59.16c-.78.55-1.43.92-1.93,1.11-.51.2-.92.29-1.23.29s-.59-.08-.82-.23c-.16-.08-.35-.12-.59-.12s-.51.08-.82.23l-31.41,2.11c-.86.47-2.85.8-5.98,1-3.13.2-6.88.37-11.25.53-5.24.23-10.47.53-15.7.88-5.24.35-9.53.92-12.89,1.7-3.36.78-4.8,1.88-4.34,3.28l-2.23,3.63-4.92,10.55c-.94,1.48-2.07,3.83-3.4,7.03-.86,2.03-1.7,3.93-2.52,5.68s-1.62,2.91-2.4,3.46l-25.78,53.2c-.23,0-.57.41-1,1.23-.43.82-.88,1.82-1.35,2.99-.63,1.48-1.33,2.99-2.11,4.51-.78,1.52-1.6,2.75-2.46,3.69l-5.39,9.26-3.4,6.8c-.08.47-.25.86-.53,1.17-.27.31-.53.63-.76.94-.23.23-.43.47-.59.7-.16.23-.2.51-.12.82.16.16.23.27.23.35v.18s-.04.06-.12.06c-.16,0-.37.08-.64.23-.27.16-.61.53-1,1.11-.39.59-.82,1.46-1.29,2.64l-4.34,5.86c-.23.78-.51,1.33-.82,1.64-.31.31-.63.55-.94.7-.39.23-.8.57-1.23,1-.43.43-.84,1.27-1.23,2.52-.39,1.01-.98,1.88-1.76,2.58-.94.86-1.68,2.15-2.23,3.87l-2.46,5.27c0,.39-.1.6-.29.64-.2.04-.45.02-.76-.06-.31,0-.64.02-1,.06-.35.04-.68.27-1,.7-.31.43-.51,1.15-.59,2.17-.08,1.17-.31,1.91-.7,2.23-.39.31-.82.41-1.29.29s-.94-.29-1.41-.53c-.39-.23-.68-.37-.88-.41-.19-.04-.29.14-.29.53.08.47-.12.68-.59.64-.47-.04-.98-.18-1.52-.41-.55-.16-1.05-.27-1.52-.35-.47-.08-.82,0-1.05.23-.16.23-.35.37-.59.41-.23.04-.45.02-.64-.06-.19-.08-.35-.18-.47-.29l-.53-.53c-.47-.55-.74-1.09-.82-1.64-.08-.55-.08-.94,0-1.17,0-.16-.02-.22-.06-.18-.04.04-.1.14-.18.29-.31.39-.82-.04-1.52-1.29-.7-1.25-1.41-2.97-2.11-5.16-.7-2.19-1.17-4.45-1.41-6.8s0-4.38.7-6.09l.94-4.1c.16-.08.25-.06.29.06.04.12.02.33-.06.64-.08.16-.12.35-.12.59s.04.43.12.59c.08.16.27.19.59.12l2.93-8.55c-.08-.31-.08-.53,0-.64.08-.12.2-.25.35-.41.08-.08.14-.18.18-.29.04-.12,0-.29-.12-.53s-.37-.55-.76-.94c-.78-.78-.9-1.56-.35-2.34.55-.78,1.33-1.48,2.34-2.11,1.02-.62,1.88-1.09,2.58-1.41l.59-.23c.08-.23.16-.35.23-.35s.16.04.23.12c.08.08.16.16.23.23.08.16.18.27.29.35.12.08.23.04.35-.12.12-.16.29-.51.53-1.05l2.11-7.85c.23-1.17.53-2.01.88-2.52.35-.51.68-.88,1-1.11.08-.08.16-.16.23-.23.08-.08.12-.19.12-.35l31.88-65.51c0-1.01.86-3.01,2.58-5.98,1.72-2.97,3.67-6.21,5.86-9.73,1.95-3.12,3.65-5.94,5.1-8.44,1.44-2.5,2.13-4.1,2.05-4.8l-5.51-.82-35.27,1.88c-.31.31-1.02.31-2.11,0-1.09-.31-2.33-.82-3.69-1.52s-2.64-1.44-3.81-2.23c-1.17-.78-2.03-1.44-2.58-1.99-.55-.55-.47-.82.23-.82v-.23c0-.23.04-.59.12-1.05.08-.47.33-.88.76-1.23.43-.35,1.15-.53,2.17-.53l.12-.12c1.8-.55,8.18-1.93,19.16-4.16,10.98-2.23,23.18-3.61,36.62-4.16l12.89-23.55,8.2-14.18c1.25-2.66,2.42-4.3,3.52-4.92,1.09-.62,3.12-.74,6.09-.35,2.58.16,5.23.9,7.97,2.23,2.73,1.33,4.61,3.24,5.62,5.74.62,1.88.7,3.97.23,6.27-.47,2.31-1.05,4.55-1.76,6.74-.94,2.58-1.37,4.45-1.29,5.62l-7.27,14.77c-.39.08-.2.23.59.47,1.95.39,8.28.59,18.98.59,11.41-.08,23.48.12,36.21.59,12.73.47,21.68,1.68,26.84,3.63.94.47,1.5.82,1.7,1.05.19.23.16.41-.12.53-.27.12-.68.22-1.23.29-.39.08-.8.18-1.23.29-.43.12-.8.25-1.11.41ZM387.22,191.11c-.08.08-.16.06-.23-.06-.08-.12-.12-.29-.12-.53l.35.59ZM400.11,162.75c-.16.39-.29.63-.41.7-.12.08-.18-.08-.18-.47l.59-.23ZM411.13,202.6c.16,0,.25-.06.29-.18.04-.12.06-.25.06-.41l-.35.59ZM427.18,108.14c-.47,1.33-.74,1.68-.82,1.05l.82-1.05Z"/>
      <path class="cls-1" d="M643.39,157.71c0,.23-.18.61-.53,1.11-.35.51-.76,1.11-1.23,1.82-.78.94-1.49,1.93-2.11,2.99-.63,1.05-.98,1.93-1.05,2.64,0,.31-.1.61-.29.88-.2.27-.45.57-.76.88-.39.47-.76,1-1.11,1.58s-.49,1.19-.41,1.82c.08.39.1.66.06.82-.04.16-.12.22-.23.18-.12-.04-.25-.1-.41-.18-.16-.16-.37-.27-.64-.35-.27-.08-.57-.06-.88.06-.31.12-.59.41-.82.88-.39.55-.55.94-.47,1.17.08.23.43.55,1.05.94.23.16.43.27.59.35l-3.28,3.16c0,.55-.18.88-.53,1s-.72-.06-1.11-.53c-.55-.47-.82-.62-.82-.47s.08.51.23,1.05c.16.47.29.98.41,1.52.12.55.12,1,0,1.35s-.41.53-.88.53c-.39.08-.64.25-.76.53-.12.27-.18.61-.18,1,0,.23-.04.45-.12.64-.08.2-.2.29-.35.29-.16.08-.74.55-1.76,1.41-1.64,1.48-3.75,3.14-6.33,4.98-2.58,1.83-4.96,2.75-7.15,2.75-.86,0-1.49.06-1.88.18-.39.12-.7.21-.94.29-.23.16-.45.25-.64.29-.2.04-.49-.02-.88-.18l-9.96.12c-.31-.23-1.02-.31-2.11-.23-1.25.08-3.11-.12-5.57-.59s-5.53-1.88-9.2-4.22c-1.33-.94-2.21-1.83-2.64-2.7-.43-.86-.72-1.72-.88-2.58-.08-1.09-.51-2.15-1.29-3.16-.7-1.01-1.25-2.3-1.64-3.87-.47-2.11-1.52-4.22-3.16-6.33-.78.7-1.37,1.27-1.76,1.7-.39.43-.67.76-.82,1-.16.23-.23.41-.23.53s.06.2.18.23c.12.04.21.06.29.06s.14.02.18.06c.04.04,0,.08-.12.12-.12.04-.31.12-.59.23-.27.12-.64.29-1.11.53-.94.47-1.56.94-1.88,1.41-.31.47-.51.9-.59,1.29,0,.31-.06.59-.18.82s-.33.39-.64.47c-.16.08-.59.43-1.29,1.05-.78.86-1.68,1.72-2.7,2.58-1.02.86-1.92,1.37-2.7,1.52-.39,0-.68.06-.88.18-.2.12-.37.25-.53.41-.23.23-.55.49-.94.76-.39.27-1,.53-1.82.76s-1.97.43-3.46.59c-3.91.47-6.78.57-8.61.29-1.84-.27-3.22-.64-4.16-1.11-.47-.23-.96-.41-1.46-.53-.51-.12-1.08-.18-1.7-.18-.39,0-1.31-.33-2.75-1-1.45-.66-2.95-1.68-4.51-3.05-1.56-1.37-2.73-3.07-3.52-5.1-1.09-3.2-1.33-6.13-.7-8.79.63-2.66,1.49-5.12,2.58-7.38.7-1.41,1.25-2.77,1.64-4.1l7.15-17.46v-.12c.23-.55.78-2.01,1.64-4.39.86-2.38,1.91-4.84,3.16-7.38,1.25-2.54,2.46-4.35,3.63-5.45l3.16-11.02,6.8-11.02c0-.31.25-.84.76-1.58.51-.74,1.13-1.5,1.88-2.29.74-.78,1.44-1.44,2.11-1.99.66-.55,1.11-.78,1.35-.7.31.16.64.18,1,.06s.72-.29,1.11-.53c.39-.31.84-.55,1.35-.7.51-.16,1.03-.04,1.58.35.39.23.7.37.94.41.23.04.47.06.7.06.31-.08.66-.12,1.05-.12s.98.14,1.76.41c.78.27,1.8.72,3.05,1.35l3.87,1.99c-.16,3.44-.59,5.94-1.29,7.5-.7,1.56-1.33,2.66-1.88,3.28-.39.39-.63.74-.7,1.05l-6.68,14.65c0,.47-.43,1.84-1.29,4.1-.86,2.27-1.92,5.08-3.16,8.44-2.11,5.39-4.12,10.76-6.04,16.11-1.92,5.35-3.07,9.12-3.46,11.31-.31,1.8-.78,3.59-1.41,5.39-.55,1.41-.84,2.46-.88,3.16-.04.7.43.72,1.41.06.98-.66,2.79-2.29,5.45-4.86l13.59-13.12c5.31-5.55,9.41-9.94,12.3-13.18,2.89-3.24,5.25-6.35,7.09-9.32,1.83-2.97,3.89-6.76,6.15-11.37,1.48-2.73,3.4-5.43,5.74-8.09,1.95-2.11,3.16-3.75,3.63-4.92l6.09-3.63,3.75-1.52c.55.7,1.21.96,1.99.76.78-.19,1.48-.45,2.11-.76l.7-.35c.16-.08.23-.04.23.12,0,.23.29.53.88.88s1.31.68,2.17,1c1.09.47,2.19,1.04,3.28,1.7,1.09.66,1.88,1.41,2.34,2.23s.35,1.82-.35,2.99l-11.02,27.07c0,.23-.22,1-.64,2.29-.43,1.29-1,2.87-1.7,4.75-1.33,3.75-2.62,7.58-3.87,11.48-1.25,3.91-1.88,6.68-1.88,8.32,0,.16-.04.47-.12.94-.08.55-.14,1.11-.18,1.7-.04.59.1.96.41,1.11.31.16.9-.08,1.76-.7.86-.62,2.11-1.83,3.75-3.63,1.64-1.8,3.79-4.41,6.45-7.85l11.37-13.83c.08-.39,1.21-2.09,3.4-5.1,2.19-3.01,4.76-6.5,7.73-10.49,2.97-3.98,5.72-7.54,8.26-10.66,2.54-3.12,4.24-4.96,5.1-5.51l16.76-20.62,8.91-12.66c1.41-.23,2.4.04,2.99.82.59.78.9,1.74.94,2.87.04,1.13.02,2.17-.06,3.11-.08.86-.04,1.37.12,1.52.23.16.31.45.23.88-.08.43-.23.78-.47,1.05-.23.27-.51.37-.82.29l-.12-.12c-.08-.08-.12-.08-.12,0,.08,0,.16.1.23.29.08.2.14.53.18,1,.04.47-.06,1.02-.29,1.64-.39,1.25-.74,2.15-1.05,2.7-.31.55-.59.84-.82.88-.23.04-.45-.04-.64-.23-.2-.19-.33-.41-.41-.64-.08-.16-.16-.25-.23-.29-.08-.04-.12.04-.12.23v1.11l-1.52,3.87c-.47-.08-.82.29-1.05,1.11s-.47,1.82-.7,2.99c-.16,1.17-.35,2.19-.59,3.05-.23.86-.55,1.33-.94,1.41l-.7,1.05c-.23-.08-.41-.12-.53-.12s-.18.04-.18.12v.35c0,.16-.02.41-.06.76-.04.35-.22.76-.53,1.23l-2.7,4.1-4.92,6.21c-.16,1.8-1.21,3.87-3.16,6.21-1.41,1.8-2.7,3.83-3.87,6.09l-2.81,3.16c-.08.39-.29.82-.64,1.29s-.76.98-1.23,1.52c-.55.63-1.05,1.25-1.52,1.88-.47.63-.7,1.21-.7,1.76-.08,1.8-.63,3.57-1.64,5.33-1.02,1.76-2.15,3.42-3.4,4.98-.86,1.09-1.58,2.09-2.17,2.99-.59.9-.88,1.66-.88,2.29Z"/>
      <path class="cls-1" d="M660.62,152.44l1.76-2.46-1.64,5.51c.23.39.31.7.23.94-.08.23-.23.41-.47.53s-.47.22-.7.29c-.16.08-.29.16-.41.23-.12.08-.16.18-.12.29.04.12.18.25.41.41l.12,2.81c-.16-.47-.31-.9-.47-1.29-.31-.62-.49-1.31-.53-2.05-.04-.74.22-1.58.76-2.52.39-.62.61-1.11.64-1.46.04-.35.02-.6-.06-.76,0-.16.02-.27.06-.35.04-.08.18-.12.41-.12ZM662.73,169.31h.53s.02-.04-.06-.12c-.08-.08-.16-.31-.23-.7-.08-.39-.08-.94,0-1.64,0-.62-.08-1.13-.23-1.52-.16-.39-.31-.74-.47-1.05-.31-.39-.57-.9-.76-1.52-.19-.62-.19-1.54,0-2.75.2-1.21.68-2.87,1.46-4.98.62-1.64,1.01-3.28,1.17-4.92.16-1.01.33-1.93.53-2.75.19-.82.53-1.42,1-1.82l1.99-1.99-1.88,6.33c.31.16.8-.29,1.46-1.35.66-1.05,1.33-2.34,1.99-3.87.66-1.52,1.11-2.91,1.35-4.16.16-.94.31-1.64.47-2.11.16-.47.31-.8.47-1,.16-.19.31-.29.47-.29s.27.04.35.12h.23c.08,0,.14-.04.18-.12.04-.08.06-.23.06-.47l15.12-19.57,34.69-35.04c1.72-.62,4.1-2.03,7.15-4.22,2.03-1.48,4.18-2.91,6.45-4.28,2.26-1.37,4.49-2.29,6.68-2.75,2.66-.62,4.49-1.29,5.51-1.99.94-.47,1.8-.7,2.58-.7s1.95.55,3.52,1.64c2.73,1.64,5.9,2.81,9.49,3.52,2.11.55,4.06,1.17,5.86,1.88,1.8.7,3.12,1.64,3.98,2.81.31.47.82,1.02,1.52,1.64,1.25,1.17,2.36,2.5,3.34,3.98.98,1.48,1,2.89.06,4.22l-.94,2.46c-.08,0-.33.31-.76.94-.43.63-.96,1.41-1.58,2.34-1.02,1.41-2.07,2.89-3.16,4.45-1.09,1.56-2.11,2.93-3.05,4.1s-1.64,1.84-2.11,1.99l-8.32,10.43c-1.02.7-1.78,1.43-2.29,2.17-.51.74-.92,1.46-1.23,2.17-.39.94-.82,1.52-1.29,1.76-.31.08-.57.23-.76.47-.2.23-.41.59-.64,1.05-.47,1.09-1.88,2.89-4.22,5.39l-6.21,8.09c0,.23-.14.47-.41.7-.27.23-.64.47-1.11.7-.55.31-1.05.66-1.52,1.05-.47.39-.7.86-.7,1.41s-.74,1.39-2.23,2.52c-1.49,1.13-3.07,2.19-4.75,3.16-1.68.98-2.75,1.46-3.22,1.46-.39,0-.7.04-.94.12-.23.08-.35.2-.35.35s-.37.25-1.11.29c-.74.04-1.62.04-2.64,0-1.02-.04-1.93-.12-2.75-.23s-1.35-.25-1.58-.41c-.47-.39-1.45-.82-2.93-1.29-1.17-.39-2.4-.84-3.69-1.35-1.29-.51-2.4-1.11-3.34-1.82l-7.15-3.75-7.03,9.02c-.86,1.48-1.66,2.6-2.4,3.34-.74.74-1.35,1.23-1.82,1.46-.39.31-.64.57-.76.76-.12.2.02.49.41.88l-2.7,12.07c.08.63,0,1.33-.23,2.11-.23.7-.31,1.37-.23,1.99.08.63.57,1.05,1.46,1.29.9.23,2.5.18,4.8-.18,2.3-.35,5.55-1.09,9.73-2.23,4.18-1.13,9.63-2.79,16.35-4.98l41.48-12.07c.31.39,1.07.39,2.29,0,1.21-.39,2.48-.86,3.81-1.41.78-.31,1.46-.57,2.05-.76.59-.19.92-.25,1-.18.23.31-.02.9-.76,1.76-.74.86-1.7,1.8-2.87,2.81-1.17,1.02-2.25,1.9-3.22,2.64-.98.74-1.5,1.11-1.58,1.11l-14.41,8.2-5.74,2.93-9.38,6.45-5.39,3.16-4.57,2.11c-.16.55-.53.96-1.11,1.23-.59.27-1.23.47-1.93.59s-1.25.22-1.64.29h-.35c-.7.08-1.23.2-1.58.35-.35.16-.55.35-.59.59-.04.23-.02.43.06.59,0,.16-.02.29-.06.41-.04.12-.12.22-.23.29-.12.08-.37.12-.76.12-.08-.08-.41-.16-1-.23-.59-.08-1.23-.1-1.93-.06-.7.04-1.33.22-1.88.53-.55.31-.9.86-1.05,1.64-.08.39-.57.66-1.46.82-.9.16-1.82.31-2.75.47-.63.08-1.13.14-1.52.18-.39.04-.59.14-.59.29,0,.31-.02.51-.06.59-.04.08-.12.1-.23.06-.12-.04-.25-.14-.41-.29-.16-.08-.33-.16-.53-.23-.2-.08-.33-.04-.41.12-.47.55-1.02.8-1.64.76-.63-.04-1.21-.14-1.76-.29-.31-.08-.59-.14-.82-.18-.23-.04-.39.02-.47.18l-3.4.47c-.16-.16-.31-.23-.47-.23s-.27.04-.35.12c-.08.08-.16.16-.23.23,0,.08-.04.14-.12.18-.08.04-.14.06-.18.06-.04,0-.1-.08-.18-.23-.23-.39-.57-.57-1-.53-.43.04-.84.14-1.23.29-.39.08-.74.14-1.05.18-.31.04-.55-.06-.7-.29-.16-.16-.33-.27-.53-.35-.2-.08-.45-.12-.76-.12-.39,0-.98-.12-1.76-.35-.78-.23-1.88-.66-3.28-1.29-.47-.16-1.09-.43-1.88-.82-2.34-.86-4.98-2.05-7.91-3.57s-4.79-3.11-5.57-4.75c-.7-1.41-1.25-2.58-1.64-3.52s-.66-1.88-.82-2.81c-.16-.94-.12-1.64.12-2.11l.35-.82ZM726.13,106.39c0,.08-.78.98-2.34,2.7-1.33,1.56-2.87,3.34-4.63,5.33s-3.3,3.85-4.63,5.57c-1.33,1.72-1.99,2.85-1.99,3.4,0,1.48.47,2.75,1.41,3.81s1.99,1.7,3.16,1.93,2.15-.16,2.93-1.17l17.93-12.77c1.41-1.17,3.71-3.18,6.91-6.04,3.2-2.85,6.27-5.72,9.2-8.61,2.93-2.89,4.63-4.92,5.1-6.09.39-1.56-.27-2.83-1.99-3.81-1.72-.98-3.67-1.54-5.86-1.7-2.19-.16-3.83.2-4.92,1.05-.78.7-1.49,1.19-2.11,1.46-.63.27-1.13.49-1.52.64-.47.08-.84.22-1.11.41-.27.2-.53.49-.76.88l-14.77,13.01Z"/>
      <path class="cls-1" d="M981.89,22.07c-1.45,2.54-3.05,5.53-4.8,8.96-1.76,3.44-3.42,6.68-4.98,9.73-2.03,4.14-3.32,6.68-3.87,7.62-1.25,1.95-2.31,3.83-3.16,5.62-.7,1.33-1.33,2.4-1.88,3.22-.55.82-1.02,1.23-1.41,1.23-.39-.08-.63-.06-.7.06-.08.12-.1.29-.06.53.04.23.14.47.29.7.08.31.16.59.23.82.08.23,0,.39-.23.47l-14.3,31.17-3.16,8.44-9.14,24.84c.08.7-.1,1.41-.53,2.11-.43.7-.88,1.29-1.35,1.76-.63.63-.9,1.09-.82,1.41.16,1.25-.04,2.17-.59,2.75-.55.59-1.09,1.04-1.64,1.35-.31.16-.55.31-.7.47-.16.16-.23.31-.23.47l-3.16,13.71c-2.11,2.97-3.61,5.35-4.51,7.15-.9,1.8-1.45,3.15-1.64,4.04-.2.9-.25,1.39-.18,1.46v.12l-.12.7c.23,0,.35.02.35.06s-.08.14-.23.29c-.39.23-.92.8-1.58,1.7-.67.9-1.04,2.25-1.11,4.04l-3.05,12.77c-.08.16-.18.22-.29.18-.12-.04-.27-.16-.47-.35-.2-.19-.37-.41-.53-.64-.23-.31-.43-.55-.59-.7-.16-.16-.29-.19-.41-.12-.12.08-.14.39-.06.94.08.47-.12.88-.59,1.23s-1.02.66-1.64.94c-.63.27-1.41.57-2.34.88-.31-.08-.53-.04-.64.12-.12.16-.2.33-.23.53-.04.2-.06.41-.06.64.08.16.1.25.06.29-.04.04-.12-.04-.23-.23-.12-.19-.31-.51-.59-.94-.27-.43-.64-1.07-1.11-1.93l-.12-.12-2.93-4.8c-.7-.7-1.35-2.21-1.93-4.51-.59-2.3-1-4.82-1.23-7.56-.23-2.73-.2-5.08.12-7.03.86-3.91,1.48-7.15,1.88-9.73.55-3.36,1.23-6.68,2.05-9.96s2.25-7.77,4.28-13.48c1.09-2.97,1.82-5.25,2.17-6.86.35-1.6.45-2.71.29-3.34-.16-.62-.49-.94-1-.94s-1.11.12-1.82.35c-.31.08-.67.16-1.05.23-.94.23-1.64.47-2.11.7s-.78.45-.94.64c-.16.2-.23.37-.23.53s.04.31.12.47c.08.16.12.25.12.29s-.08.08-.23.12c-.16.04-.39.02-.7-.06-.78-.08-1.27.06-1.46.41-.2.35-.29.8-.29,1.35s-.12,1.04-.35,1.46c-.23.43-.78.64-1.64.64-.16,0-.29.2-.41.59-.12.39-.22.86-.29,1.41-.08.47-.16.88-.23,1.23-.08.35-.18.55-.29.59-.12.04-.33-.21-.64-.76-.23-.47-.41-.7-.53-.7s-.22.16-.29.47c-.08.31-.12.7-.12,1.17-.08.55-.18,1.07-.29,1.58-.12.51-.29.84-.53,1-.31.31-.55.82-.7,1.52-.08.55-.27,1.09-.59,1.64-.31.55-.82,1.02-1.52,1.41-.16.16-.78,1.17-1.88,3.05-.94,1.72-2.03,3.67-3.28,5.86-1.25,2.19-2.46,4.1-3.63,5.74s-2.07,2.5-2.7,2.58c-.94.16-1.45.59-1.52,1.29-.08.7-.08,1.37,0,1.99.08.31.12.57.12.76s-.04.29-.12.29l-3.75,4.45c-.55.08-.9.27-1.05.59-.16.31-.31.78-.47,1.41-.16.78-.47,1.76-.94,2.93s-1.33,2.62-2.58,4.34c-.86,1.17-1.6,2.23-2.23,3.16-1.95,2.66-3.69,4.84-5.21,6.56-1.52,1.72-3.81,3.83-6.86,6.33-.86.7-2.03,1.39-3.52,2.05-1.49.66-2.87,1.15-4.16,1.46-1.29.31-1.93.31-1.93,0-.08-.31-.29-.47-.64-.47s-.78.1-1.29.29c-.51.2-1.04.37-1.58.53-.47.23-.9.41-1.29.53-.39.12-.67.14-.82.06-.16-.08-.12-.27.12-.59.23-.39.39-.66.47-.82.08-.16.08-.21,0-.18-.08.04-.2.1-.35.18-.39.23-.84.41-1.35.53-.51.12-1,.02-1.46-.29l-3.05-2.23v-.35c0-.08,0-.1,0-.06s.04.06.12.06c.08.16.25.29.53.41.27.12.64.14,1.11.06l.12-.82c.47-.08.68-.19.64-.35-.04-.16-.23-.25-.59-.29-.35-.04-.8.06-1.35.29-.47.23-.82.35-1.05.35s-.41-.04-.53-.12c-.12-.08-.22-.16-.29-.23l-.12-.12c-.08.16-.16.31-.23.47,0,.23.02.43.06.59.04.16.06.27.06.35.08,0,.12.02.12.06s-.02.06-.06.06c-.04,0-.14-.04-.29-.12-.23-.08-.98-.19-2.23-.35-3.98-.55-6.8-1.82-8.44-3.81s-2.54-4.16-2.7-6.5c-.16-2.34.06-4.39.64-6.15s1.11-2.68,1.58-2.75c1.41-.16,1.84-2.23,1.29-6.21-.23-2.19.14-4.24,1.11-6.15.98-1.91,2.13-3.69,3.46-5.33,1.72-2.11,2.89-4.22,3.52-6.33l5.39-7.5,15.82-23.44,10.43-15.23c2.42-2.34,4.06-4.1,4.92-5.27.55-.7.98-1.17,1.29-1.41.31-.23.66-.23,1.05,0,.7.39,1.72.47,3.05.23,1.41-.23,3.24-.19,5.51.12,1.33.31,2.3.45,2.93.41.62-.04,1.05-.14,1.29-.29.23-.16.39-.31.47-.47.08-.16.16-.25.23-.29.08-.04.19-.02.35.06.16.08.43.2.82.35.47.23,1.52.43,3.16.59,1.17.08,2.4.23,3.69.47s2.32.59,3.11,1.05c2.42,1.72,4.3,2.68,5.62,2.87,1.33.2,2.29.02,2.87-.53.59-.55,1-1.17,1.23-1.88.16-.31.31-.57.47-.76.16-.19.35-.25.59-.18l21.45-23.09,13.24-17.34c0-.31.08-.55.23-.7.16-.16.39-.35.7-.59.78-.47,1.8-1.6,3.05-3.4l17.46-26.95,6.21-6.68c.7-.31,1.07-.8,1.11-1.46.04-.66.02-1.27-.06-1.82-.08-.31-.1-.53-.06-.64.04-.12.18-.02.41.29l.12.12c0,.08.02.12.06.12h.18c.08-.08.25-.19.53-.35.27-.16.7-.29,1.29-.41s1.42-.18,2.52-.18c2.81-.16,5.08,0,6.8.47,1.72.47,3.01,1.11,3.87,1.93.86.82,1.44,1.7,1.76,2.64.31.94.43,1.84.35,2.7-.08.86-.31,1.88-.7,3.05-.47,0-1.43,1.27-2.87,3.81ZM840.39,187.83c.23-.16.35-.31.35-.47l-.35.47ZM852.34,151.85c.08,0,.18-.06.29-.18s.14-.25.06-.41l-.35.59ZM889.14,111.54c.86-1.01,1.42-1.76,1.7-2.23.27-.47.35-.82.23-1.05s-.37-.43-.76-.59c-.63-.31-1.33-.9-2.11-1.76-.63-.86-1.56-1.6-2.81-2.23-1.25-.62-2.31-.9-3.16-.82-.55.08-1.52,1.02-2.93,2.81-1.41,1.8-2.81,3.71-4.22,5.74-1.17,1.64-2.19,3.01-3.05,4.1-.86,1.09-1.41,1.64-1.64,1.64l-9.49,15.82-6.91,13.36c-.16.39-.33.9-.53,1.52-.2.63-.29,1.19-.29,1.7s.08.76.23.76c.08,0,.37-.23.88-.7.51-.47,1.07-1.05,1.7-1.76l4.92-5.51c0-.08.7-.7,2.11-1.88,1.64-1.48,3.44-3.18,5.39-5.1,1.95-1.91,3.2-3.5,3.75-4.75l16.99-19.1ZM910.93,175.29c.16-.16.27-.31.35-.47l-.35.47ZM913.74,106.03c.23-.55.49-1.29.76-2.23.27-.94.39-1.82.35-2.64-.04-.82-.41-1.35-1.11-1.58-.47-.08-.82.23-1.05.94s-.39,1.54-.47,2.52c-.08.98-.06,1.86.06,2.64.12.78.29,1.25.53,1.41.23.16.55-.19.94-1.05Z"/>
      <path class="cls-1" d="M1001.05,83.53c.23.31.74.68,1.52,1.11.78.43,1.64.74,2.58.94.94.2,1.8.14,2.58-.18,1.8-.55,4.34-.12,7.62,1.29s6.66,3.26,10.14,5.57c3.48,2.31,6.42,4.55,8.85,6.74,2.42,2.19,3.59,3.63,3.52,4.34,0,.16.19.59.59,1.29.62,1.02,1.31,2.52,2.05,4.51.74,1.99,1.07,4.26,1,6.8-.08,2.54-1.02,5.18-2.81,7.91l-.12.12c-.23.55-.9,1.97-1.99,4.28-1.09,2.31-2.38,4.61-3.87,6.91-1.49,2.31-2.89,3.77-4.22,4.39-.31.16-.64.53-1,1.11s-.72,1.31-1.11,2.17c-.63,1.17-1.27,2.27-1.93,3.28-.67,1.02-1.27,1.48-1.82,1.41l-12.77,15.35c-1.17,1.09-2.03,2.05-2.58,2.87-.55.82-.98,1.54-1.29,2.17-.31.63-.63,1.15-.94,1.58-.31.43-.78.76-1.41,1-.16.16-.59.55-1.29,1.17-1.02.94-2.19,1.92-3.52,2.93-1.33,1.02-2.38,1.52-3.16,1.52-.55-.08-1.02.16-1.41.7-.39.55-.74,1.21-1.05,1.99-.31.94-.74,1.82-1.29,2.64-.55.82-1.33,1.39-2.34,1.7l-7.97,3.4c-.39-.08-1.09.12-2.11.59-1.02.55-2.13.98-3.34,1.29-1.21.31-2.4.12-3.57-.59-.31-.16-.57-.27-.76-.35-.2-.08-.35-.1-.47-.06-.12.04-.25.06-.41.06-.16.16-.39.25-.7.29-.31.04-.84-.04-1.58-.23-.74-.19-1.78-.6-3.11-1.23-2.27-1.01-4.53-1.91-6.8-2.7-2.89-.86-5.61-1.97-8.14-3.34-2.54-1.37-4.77-3.44-6.68-6.21-1.92-2.77-3.38-6.74-4.39-11.89-.63-4.06-.68-9.12-.18-15.18.51-6.05,1.42-11.76,2.75-17.11,1.33-5.35,2.89-8.96,4.69-10.84.78-.7,1.6-1.83,2.46-3.4,1.25-2.27,3.48-5.25,6.68-8.96,3.2-3.71,8.51-8.07,15.94-13.07l4.92-3.16c.16,0,.72-.06,1.7-.18.98-.12,2.11-.21,3.4-.29,1.29-.08,2.48-.04,3.57.12,1.09.16,1.83.55,2.23,1.17.47.55.86.82,1.17.82s.55-.21.7-.64c.16-.43.31-.92.47-1.46.23-.55.45-1.05.64-1.52.19-.47.45-.7.76-.7.47.08.94-.12,1.41-.59s.94-.98,1.41-1.52c.7-.78,1.39-1.41,2.05-1.88.66-.47,1.31-.43,1.93.12.23.23.43.35.59.35s.29-.08.41-.23c.12-.16.21-.31.29-.47.08-.23.18-.41.29-.53s.27-.16.47-.12c.19.04.45.25.76.64ZM1005.74,114.82c-.16-.39-.76-1.07-1.82-2.05-1.05-.98-2.21-1.93-3.46-2.87-1.25-.94-2.38-1.58-3.4-1.93-1.02-.35-1.6-.06-1.76.88-.08.78-.39,1.35-.94,1.7-.55.35-1.13.64-1.76.88-.47.16-.88.33-1.23.53-.35.2-.61.45-.76.76-.31.55-1.17,1.25-2.58,2.11-1.49.86-3.07,1.99-4.75,3.4-1.68,1.41-3.03,3.24-4.04,5.51-.23.7-.67,1.45-1.29,2.23-.63.78-1.31,1.8-2.05,3.05-.74,1.25-1.43,2.93-2.05,5.04-.08.08-.23.35-.47.82-.78,1.64-1.8,4.47-3.05,8.5-1.25,4.02-1.64,8.57-1.17,13.65.39,2.66.8,4.67,1.23,6.04.43,1.37.84,2.29,1.23,2.75.39.47.78.66,1.17.59.39-.08.78-.23,1.17-.47.23-.08.43-.16.59-.23,3.75-1.56,8.69-4.57,14.82-9.02,6.13-4.45,11.7-9.06,16.7-13.83,5-4.76,7.66-8.44,7.97-11.02l-.47-6.91-7.85-10.08Z"/>
    </g>
  </g>
</svg>