<?xml version="1.0" encoding="UTF-8"?>
<svg id="Layer_2" data-name="Layer 2" xmlns="http://www.w3.org/2000/svg" viewBox="0 0 87.09 79.3">
  <defs>
    <style>
      .cls-1 {
        fill: #282828;
        stroke-width: 0px;
      }
    </style>
  </defs>
  <g id="Layer_3" data-name="Layer 3">
    <path class="cls-1" d="M53.05,34.34L82.07,0h-13.08l-22.12,26.17L27.06,0H0l32.6,43.06L1.97,79.3h13.08l23.73-28.07,21.25,28.07h27.06l-34.04-44.96ZM70.93,71.5h-7.04c-.14,0-.26-.06-.35-.17l-19.68-26.12-6.16-8.19L15.7,7.8c-.22-.29-.01-.7.35-.7h7.04c.14,0,.27.06.35.17l18.57,24.66,6.16,8.18,23.11,30.68c.22.29.01.7-.35.7Z"/>
  </g>
</svg>