<?xml version="1.0" encoding="UTF-8"?>
<svg id="Layer_2" data-name="Layer 2" xmlns="http://www.w3.org/2000/svg" viewBox="0 0 352.27 136.95">
  <defs>
    <style>
      .cls-1 {
        fill: #282828;
      }

      .cls-1, .cls-2, .cls-3, .cls-4 {
        stroke-width: 0px;
      }

      .cls-2 {
        fill: #ff0;
      }

      .cls-3 {
        fill: #f0f;
      }

      .cls-4 {
        fill: aqua;
      }
    </style>
  </defs>
  <g id="Layer_3" data-name="Layer 3">
    <g id="White_on_black" data-name="White on black">
      <g>
        <path class="cls-2" d="M159.37,63.18c-1.75-1.89-2.62-4.56-2.62-8.01v-23.72c0-3.45.87-6.12,2.62-8.01s4.28-2.84,7.6-2.84,5.86.95,7.6,2.84,2.62,4.56,2.62,8.01v4.67h-6.56v-5.11c0-2.73-1.16-4.1-3.47-4.1s-3.47,1.37-3.47,4.1v24.67c0,2.69,1.16,4.04,3.47,4.04s3.47-1.35,3.47-4.04v-6.75h6.56v6.25c0,3.45-.87,6.12-2.62,8.01s-4.28,2.84-7.6,2.84-5.86-.95-7.6-2.84Z"/>
        <path class="cls-2" d="M182.62,21.22h10.28c3.57,0,6.18.83,7.82,2.49,1.64,1.66,2.46,4.22,2.46,7.67v2.71c0,4.59-1.51,7.49-4.54,8.71v.13c1.68.51,2.87,1.54,3.56,3.09.7,1.56,1.04,3.64,1.04,6.25v7.76c0,1.26.04,2.28.13,3.06s.3,1.55.63,2.3h-7.07c-.25-.71-.42-1.39-.5-2.02-.08-.63-.13-1.77-.13-3.41v-8.07c0-2.02-.33-3.43-.98-4.23-.65-.8-1.78-1.2-3.38-1.2h-2.4v18.93h-6.94V21.22ZM192.08,40.15c1.39,0,2.43-.36,3.12-1.07.69-.72,1.04-1.92,1.04-3.6v-3.41c0-1.6-.28-2.75-.85-3.47-.57-.71-1.46-1.07-2.68-1.07h-3.16v12.62h2.52Z"/>
        <path class="cls-2" d="M211.52,63.12c-1.81-1.93-2.71-4.67-2.71-8.2v-23.22c0-3.53.9-6.27,2.71-8.2,1.81-1.94,4.42-2.9,7.82-2.9s6.02.97,7.83,2.9c1.81,1.93,2.71,4.67,2.71,8.2v23.22c0,3.54-.9,6.27-2.71,8.2-1.81,1.94-4.42,2.9-7.83,2.9s-6.02-.97-7.82-2.9ZM222.94,55.36v-24.1c0-2.9-1.2-4.35-3.6-4.35s-3.6,1.45-3.6,4.35v24.1c0,2.9,1.2,4.35,3.6,4.35s3.6-1.45,3.6-4.35Z"/>
        <path class="cls-2" d="M235.8,21.22h9.9l4.42,31.61h.13l4.42-31.61h9.9v44.16h-6.56V31.95h-.13l-5.05,33.44h-5.8l-5.05-33.44h-.13v33.44h-6.06V21.22Z"/>
        <path class="cls-2" d="M276.38,21.22h9.4l7.19,44.16h-6.94l-1.26-8.77v.13h-7.89l-1.26,8.64h-6.44l7.19-44.16ZM283.95,50.75l-3.09-21.83h-.13l-3.03,21.83h6.25Z"/>
        <path class="cls-2" d="M300.1,27.53h-7.26v-6.31h21.45v6.31h-7.26v37.86h-6.94V27.53Z"/>
        <path class="cls-2" d="M318.9,21.22h6.94v44.16h-6.94V21.22Z"/>
        <path class="cls-2" d="M334.45,63.18c-1.75-1.89-2.62-4.56-2.62-8.01v-23.72c0-3.45.87-6.12,2.62-8.01s4.28-2.84,7.6-2.84,5.86.95,7.6,2.84c1.75,1.89,2.62,4.56,2.62,8.01v4.67h-6.56v-5.11c0-2.73-1.16-4.1-3.47-4.1s-3.47,1.37-3.47,4.1v24.67c0,2.69,1.16,4.04,3.47,4.04s3.47-1.35,3.47-4.04v-6.75h6.56v6.25c0,3.45-.87,6.12-2.62,8.01-1.75,1.89-4.28,2.84-7.6,2.84s-5.86-.95-7.6-2.84Z"/>
        <path class="cls-2" d="M175.3,115.73c-1.73-1.92-2.59-4.66-2.59-8.24v-2.52h6.56v3.03c0,2.86,1.2,4.29,3.59,4.29,1.18,0,2.07-.35,2.68-1.04.61-.7.91-1.82.91-3.38,0-1.85-.42-3.48-1.26-4.89-.84-1.41-2.4-3.1-4.67-5.08-2.86-2.52-4.86-4.81-5.99-6.85-1.13-2.04-1.7-4.34-1.7-6.91,0-3.49.88-6.19,2.65-8.11,1.77-1.91,4.33-2.87,7.7-2.87s5.84.96,7.54,2.87c1.7,1.92,2.55,4.66,2.55,8.23v1.83h-6.56v-2.27c0-1.51-.3-2.62-.89-3.31-.59-.69-1.45-1.04-2.59-1.04-2.31,0-3.47,1.41-3.47,4.23,0,1.6.43,3.09,1.29,4.48s2.43,3.07,4.7,5.05c2.9,2.52,4.9,4.82,5.99,6.88,1.09,2.06,1.64,4.48,1.64,7.26,0,3.62-.9,6.4-2.68,8.33-1.79,1.94-4.38,2.9-7.79,2.9s-5.91-.96-7.64-2.87Z"/>
        <path class="cls-2" d="M204.07,80.11h-7.26v-6.31h21.45v6.31h-7.26v37.86h-6.94v-37.86Z"/>
        <path class="cls-2" d="M225.27,115.73c-1.77-1.92-2.65-4.66-2.65-8.24v-33.69h6.94v34.2c0,1.51.3,2.61.91,3.28.61.67,1.48,1.01,2.62,1.01s2.01-.34,2.62-1.01c.61-.67.91-1.77.91-3.28v-34.2h6.69v33.69c0,3.58-.88,6.32-2.65,8.24-1.77,1.91-4.33,2.87-7.7,2.87s-5.93-.96-7.7-2.87Z"/>
        <path class="cls-2" d="M249.5,73.8h10.6c3.45,0,6.04.92,7.76,2.78s2.59,4.56,2.59,8.14v22.34c0,3.58-.86,6.29-2.59,8.14s-4.31,2.78-7.76,2.78h-10.6v-44.16ZM259.97,111.66c1.14,0,2.01-.34,2.62-1.01.61-.67.91-1.77.91-3.28v-22.96c0-1.51-.31-2.61-.91-3.28-.61-.67-1.48-1.01-2.62-1.01h-3.53v31.55h3.53Z"/>
        <path class="cls-2" d="M276.38,73.8h6.94v44.16h-6.94v-44.16Z"/>
        <path class="cls-2" d="M291.96,115.69c-1.81-1.93-2.71-4.67-2.71-8.2v-23.22c0-3.53.9-6.27,2.71-8.2,1.81-1.94,4.42-2.9,7.82-2.9s6.02.97,7.83,2.9c1.81,1.93,2.71,4.67,2.71,8.2v23.22c0,3.54-.9,6.27-2.71,8.2-1.81,1.94-4.42,2.9-7.83,2.9s-6.02-.97-7.82-2.9ZM303.38,107.93v-24.1c0-2.9-1.2-4.35-3.6-4.35s-3.6,1.45-3.6,4.35v24.1c0,2.9,1.2,4.35,3.6,4.35s3.6-1.45,3.6-4.35Z"/>
        <path class="cls-2" d="M317.63,115.73c-1.73-1.92-2.59-4.66-2.59-8.24v-2.52h6.56v3.03c0,2.86,1.2,4.29,3.59,4.29,1.18,0,2.07-.35,2.68-1.04.61-.7.91-1.82.91-3.38,0-1.85-.42-3.48-1.26-4.89-.84-1.41-2.4-3.1-4.67-5.08-2.86-2.52-4.86-4.81-5.99-6.85-1.13-2.04-1.7-4.34-1.7-6.91,0-3.49.88-6.19,2.65-8.11,1.77-1.91,4.33-2.87,7.7-2.87s5.84.96,7.54,2.87c1.7,1.92,2.55,4.66,2.55,8.23v1.83h-6.56v-2.27c0-1.51-.3-2.62-.89-3.31-.59-.69-1.45-1.04-2.59-1.04-2.31,0-3.47,1.41-3.47,4.23,0,1.6.43,3.09,1.29,4.48s2.43,3.07,4.7,5.05c2.9,2.52,4.9,4.82,5.99,6.88,1.09,2.06,1.64,4.48,1.64,7.26,0,3.62-.9,6.4-2.68,8.33-1.79,1.94-4.38,2.9-7.79,2.9s-5.91-.96-7.64-2.87Z"/>
      </g>
      <circle class="cls-2" cx="53.8" cy="87.16" r="26.73"/>
      <path class="cls-2" d="M111.25,107.69c3.88-1.47,7.56-3.35,10.96-5.61-10.11,8.86-23.31,14.21-37.77,14.21-.56,0-1.15,0-1.71-.02-5.42-.17-10.65-1.08-15.59-2.65-.74-.22-1.45-.46-2.17-.72-.05-.02-.1-.03-.14-.05-.19-.07-.36-.14-.53-.21-.32-.12-.65-.24-.97-.38-.1-.03-.22-.09-.32-.12-.56-.22-1.13-.46-1.68-.72-.05-.02-.1-.03-.14-.05-1.01-.44-1.98-.92-2.96-1.42-12.86-6.62-22.88-17.94-27.82-31.7-.24-.67-.46-1.35-.67-2.03-.12-.36-.24-.72-.34-1.08l-.26-.92c-.03-.12-.07-.26-.1-.39-.15-.55-.31-1.11-.43-1.69-.03-.1-.05-.21-.07-.31-.03-.09-.05-.17-.07-.26-.22-1.01-.43-2.03-.6-3.08-.44-2.56-.7-5.2-.79-7.87-.02-.56-.02-1.15-.02-1.71s0-1.15.02-1.71c.74-25.15,17.7-46.27,40.8-53.21-6,2.77-11.44,6.57-16.07,11.18-10.28,10.17-16.64,24.28-16.64,39.89,0,3.13.26,6.19.75,9.17,6.14,16.93,18.02,34.67,37.7,44.19,5.59,1.86,11.56,2.87,17.77,2.87,3.16,0,6.28-.26,9.3-.77,3.64-.6,7.18-1.57,10.55-2.84Z"/>
      <path class="cls-2" d="M84.44,44.01c0-9.17,7.42-16.59,16.59-16.59s16.57,7.42,16.57,16.59-7.42,16.59-16.57,16.59-16.59-7.42-16.59-16.59Z"/>
      <path class="cls-2" d="M117.59,44.01c0,9.17-7.42,16.59-16.57,16.59s-16.59-7.42-16.59-16.59,7.42-16.59,16.59-16.59,16.57,7.42,16.57,16.59Z"/>
      <path class="cls-2" d="M62.36,114.57c.6-.36,1.16-.74,1.71-1.15-3.95,13.59-16.5,23.53-31.38,23.53-.56,0-1.13-.02-1.68-.03-.03-.02-.05-.02-.07,0C14.28,136.03.92,122.67.03,106c.02-.02.02-.03,0-.07-.02-.55-.03-1.11-.03-1.68s.02-1.13.03-1.68c.02-.03.02-.05,0-.07.89-16.67,14.24-30.03,30.92-30.92.02.02.03.02.07,0h.38s-.03,0-.05.03c-1.32,1.11-2.53,2.36-3.59,3.73-3.63,4.53-5.78,10.28-5.78,16.52,0,14.67,11.88,26.57,26.57,26.57,4.04,0,7.85-.91,11.27-2.5.89-.43,1.73-.87,2.55-1.39Z"/>
      <path class="cls-2" d="M65.39,104.25c0,.56-.02,1.13-.03,1.68-.03-.56-.09-1.13-.15-1.68.07-.55.12-1.11.15-1.68.02.55.03,1.11.03,1.68Z"/>
      <path class="cls-2" d="M65.39,104.25c0,.56-.02,1.13-.03,1.68-.03-.56-.09-1.13-.15-1.68.07-.55.12-1.11.15-1.68.02.55.03,1.11.03,1.68Z"/>
      <path class="cls-2" d="M117.59,44.01c0,9.17-7.42,16.59-16.57,16.59s-16.59-7.42-16.59-16.59,7.42-16.59,16.59-16.59,16.57,7.42,16.57,16.59Z"/>
      <circle class="cls-2" cx="53.8" cy="87.16" r="26.73"/>
      <path class="cls-2" d="M111.25,107.69c3.88-1.47,7.56-3.35,10.96-5.61-10.11,8.86-23.31,14.21-37.77,14.21-.56,0-1.15,0-1.71-.02-5.42-.17-10.65-1.08-15.59-2.65-.74-.22-1.45-.46-2.17-.72-.05-.02-.1-.03-.14-.05-.19-.07-.36-.14-.53-.21-.32-.12-.65-.24-.97-.38-.1-.03-.22-.09-.32-.12-.56-.22-1.13-.46-1.68-.72-.05-.02-.1-.03-.14-.05-1.01-.44-1.98-.92-2.96-1.42-12.86-6.62-22.88-17.94-27.82-31.7-.24-.67-.46-1.35-.67-2.03-.12-.36-.24-.72-.34-1.08l-.26-.92c-.03-.12-.07-.26-.1-.39-.15-.55-.31-1.11-.43-1.69-.03-.1-.05-.21-.07-.31-.03-.09-.05-.17-.07-.26-.22-1.01-.43-2.03-.6-3.08-.44-2.56-.7-5.2-.79-7.87-.02-.56-.02-1.15-.02-1.71s0-1.15.02-1.71c.74-25.15,17.7-46.27,40.8-53.21-6,2.77-11.44,6.57-16.07,11.18-10.28,10.17-16.64,24.28-16.64,39.89,0,3.13.26,6.19.75,9.17,6.14,16.93,18.02,34.67,37.7,44.19,5.59,1.86,11.56,2.87,17.77,2.87,3.16,0,6.28-.26,9.3-.77,3.64-.6,7.18-1.57,10.55-2.84Z"/>
      <path class="cls-2" d="M84.44,44.01c0-9.17,7.42-16.59,16.59-16.59s16.57,7.42,16.57,16.59-7.42,16.59-16.57,16.59-16.59-7.42-16.59-16.59Z"/>
      <path class="cls-2" d="M117.59,44.01c0,9.17-7.42,16.59-16.57,16.59s-16.59-7.42-16.59-16.59,7.42-16.59,16.59-16.59,16.57,7.42,16.57,16.59Z"/>
      <path class="cls-2" d="M62.36,114.57c.6-.36,1.16-.74,1.71-1.15-3.95,13.59-16.5,23.53-31.38,23.53-.56,0-1.13-.02-1.68-.03-.03-.02-.05-.02-.07,0C14.28,136.03.92,122.67.03,106c.02-.02.02-.03,0-.07-.02-.55-.03-1.11-.03-1.68s.02-1.13.03-1.68c.02-.03.02-.05,0-.07.89-16.67,14.24-30.03,30.92-30.92.02.02.03.02.07,0h.38s-.03,0-.05.03c-1.32,1.11-2.53,2.36-3.59,3.73-3.63,4.53-5.78,10.28-5.78,16.52,0,14.67,11.88,26.57,26.57,26.57,4.04,0,7.85-.91,11.27-2.5.89-.43,1.73-.87,2.55-1.39Z"/>
      <path class="cls-2" d="M65.39,104.25c0,.56-.02,1.13-.03,1.68-.03-.56-.09-1.13-.15-1.68.07-.55.12-1.11.15-1.68.02.55.03,1.11.03,1.68Z"/>
      <path class="cls-2" d="M65.39,104.25c0,.56-.02,1.13-.03,1.68-.03-.56-.09-1.13-.15-1.68.07-.55.12-1.11.15-1.68.02.55.03,1.11.03,1.68Z"/>
      <path class="cls-2" d="M117.59,44.01c0,9.17-7.42,16.59-16.57,16.59s-16.59-7.42-16.59-16.59,7.42-16.59,16.59-16.59,16.57,7.42,16.57,16.59Z"/>
      <circle class="cls-2" cx="53.8" cy="87.16" r="26.73"/>
      <path class="cls-2" d="M111.25,107.69c3.88-1.47,7.56-3.35,10.96-5.61-10.11,8.86-23.31,14.21-37.77,14.21-.56,0-1.15,0-1.71-.02-5.42-.17-10.65-1.08-15.59-2.65-.74-.22-1.45-.46-2.17-.72-.05-.02-.1-.03-.14-.05-.19-.07-.36-.14-.53-.21-.32-.12-.65-.24-.97-.38-.1-.03-.22-.09-.32-.12-.56-.22-1.13-.46-1.68-.72-.05-.02-.1-.03-.14-.05-1.01-.44-1.98-.92-2.96-1.42-12.86-6.62-22.88-17.94-27.82-31.7-.24-.67-.46-1.35-.67-2.03-.12-.36-.24-.72-.34-1.08l-.26-.92c-.03-.12-.07-.26-.1-.39-.15-.55-.31-1.11-.43-1.69-.03-.1-.05-.21-.07-.31-.03-.09-.05-.17-.07-.26-.22-1.01-.43-2.03-.6-3.08-.44-2.56-.7-5.2-.79-7.87-.02-.56-.02-1.15-.02-1.71s0-1.15.02-1.71c.74-25.15,17.7-46.27,40.8-53.21-6,2.77-11.44,6.57-16.07,11.18-10.28,10.17-16.64,24.28-16.64,39.89,0,3.13.26,6.19.75,9.17,6.14,16.93,18.02,34.67,37.7,44.19,5.59,1.86,11.56,2.87,17.77,2.87,3.16,0,6.28-.26,9.3-.77,3.64-.6,7.18-1.57,10.55-2.84Z"/>
      <path class="cls-2" d="M84.44,44.01c0-9.17,7.42-16.59,16.59-16.59s16.57,7.42,16.57,16.59-7.42,16.59-16.57,16.59-16.59-7.42-16.59-16.59Z"/>
      <path class="cls-2" d="M117.59,44.01c0,9.17-7.42,16.59-16.57,16.59s-16.59-7.42-16.59-16.59,7.42-16.59,16.59-16.59,16.57,7.42,16.57,16.59Z"/>
      <path class="cls-2" d="M62.36,114.57c.6-.36,1.16-.74,1.71-1.15-3.95,13.59-16.5,23.53-31.38,23.53-.56,0-1.13-.02-1.68-.03-.03-.02-.05-.02-.07,0C14.28,136.03.92,122.67.03,106c.02-.02.02-.03,0-.07-.02-.55-.03-1.11-.03-1.68s.02-1.13.03-1.68c.02-.03.02-.05,0-.07.89-16.67,14.24-30.03,30.92-30.92.02.02.03.02.07,0h.38s-.03,0-.05.03c-1.32,1.11-2.53,2.36-3.59,3.73-3.63,4.53-5.78,10.28-5.78,16.52,0,14.67,11.88,26.57,26.57,26.57,4.04,0,7.85-.91,11.27-2.5.89-.43,1.73-.87,2.55-1.39Z"/>
      <path class="cls-2" d="M65.39,104.25c0,.56-.02,1.13-.03,1.68-.03-.56-.09-1.13-.15-1.68.07-.55.12-1.11.15-1.68.02.55.03,1.11.03,1.68Z"/>
      <path class="cls-2" d="M65.39,104.25c0,.56-.02,1.13-.03,1.68-.03-.56-.09-1.13-.15-1.68.07-.55.12-1.11.15-1.68.02.55.03,1.11.03,1.68Z"/>
      <path class="cls-2" d="M117.59,44.01c0,9.17-7.42,16.59-16.57,16.59s-16.59-7.42-16.59-16.59,7.42-16.59,16.59-16.59,16.57,7.42,16.57,16.59Z"/>
    </g>
    <g id="White_on_black-2" data-name="White on black">
      <g>
        <path class="cls-3" d="M159.37,63.18c-1.75-1.89-2.62-4.56-2.62-8.01v-23.72c0-3.45.87-6.12,2.62-8.01s4.28-2.84,7.6-2.84,5.86.95,7.6,2.84,2.62,4.56,2.62,8.01v4.67h-6.56v-5.11c0-2.73-1.16-4.1-3.47-4.1s-3.47,1.37-3.47,4.1v24.67c0,2.69,1.16,4.04,3.47,4.04s3.47-1.35,3.47-4.04v-6.75h6.56v6.25c0,3.45-.87,6.12-2.62,8.01s-4.28,2.84-7.6,2.84-5.86-.95-7.6-2.84Z"/>
        <path class="cls-3" d="M182.62,21.22h10.28c3.57,0,6.18.83,7.82,2.49,1.64,1.66,2.46,4.22,2.46,7.67v2.71c0,4.59-1.51,7.49-4.54,8.71v.13c1.68.51,2.87,1.54,3.56,3.09.7,1.56,1.04,3.64,1.04,6.25v7.76c0,1.26.04,2.28.13,3.06s.3,1.55.63,2.3h-7.07c-.25-.71-.42-1.39-.5-2.02-.08-.63-.13-1.77-.13-3.41v-8.07c0-2.02-.33-3.43-.98-4.23-.65-.8-1.78-1.2-3.38-1.2h-2.4v18.93h-6.94V21.22ZM192.08,40.15c1.39,0,2.43-.36,3.12-1.07.69-.72,1.04-1.92,1.04-3.6v-3.41c0-1.6-.28-2.75-.85-3.47-.57-.71-1.46-1.07-2.68-1.07h-3.16v12.62h2.52Z"/>
        <path class="cls-3" d="M211.52,63.12c-1.81-1.93-2.71-4.67-2.71-8.2v-23.22c0-3.53.9-6.27,2.71-8.2,1.81-1.94,4.42-2.9,7.82-2.9s6.02.97,7.83,2.9c1.81,1.93,2.71,4.67,2.71,8.2v23.22c0,3.54-.9,6.27-2.71,8.2-1.81,1.94-4.42,2.9-7.83,2.9s-6.02-.97-7.82-2.9ZM222.94,55.36v-24.1c0-2.9-1.2-4.35-3.6-4.35s-3.6,1.45-3.6,4.35v24.1c0,2.9,1.2,4.35,3.6,4.35s3.6-1.45,3.6-4.35Z"/>
        <path class="cls-3" d="M235.8,21.22h9.9l4.42,31.61h.13l4.42-31.61h9.9v44.16h-6.56V31.95h-.13l-5.05,33.44h-5.8l-5.05-33.44h-.13v33.44h-6.06V21.22Z"/>
        <path class="cls-3" d="M276.38,21.22h9.4l7.19,44.16h-6.94l-1.26-8.77v.13h-7.89l-1.26,8.64h-6.44l7.19-44.16ZM283.95,50.75l-3.09-21.83h-.13l-3.03,21.83h6.25Z"/>
        <path class="cls-3" d="M300.1,27.53h-7.26v-6.31h21.45v6.31h-7.26v37.86h-6.94V27.53Z"/>
        <path class="cls-3" d="M318.9,21.22h6.94v44.16h-6.94V21.22Z"/>
        <path class="cls-3" d="M334.45,63.18c-1.75-1.89-2.62-4.56-2.62-8.01v-23.72c0-3.45.87-6.12,2.62-8.01s4.28-2.84,7.6-2.84,5.86.95,7.6,2.84c1.75,1.89,2.62,4.56,2.62,8.01v4.67h-6.56v-5.11c0-2.73-1.16-4.1-3.47-4.1s-3.47,1.37-3.47,4.1v24.67c0,2.69,1.16,4.04,3.47,4.04s3.47-1.35,3.47-4.04v-6.75h6.56v6.25c0,3.45-.87,6.12-2.62,8.01-1.75,1.89-4.28,2.84-7.6,2.84s-5.86-.95-7.6-2.84Z"/>
        <path class="cls-3" d="M175.3,115.73c-1.73-1.92-2.59-4.66-2.59-8.24v-2.52h6.56v3.03c0,2.86,1.2,4.29,3.59,4.29,1.18,0,2.07-.35,2.68-1.04.61-.7.91-1.82.91-3.38,0-1.85-.42-3.48-1.26-4.89-.84-1.41-2.4-3.1-4.67-5.08-2.86-2.52-4.86-4.81-5.99-6.85-1.13-2.04-1.7-4.34-1.7-6.91,0-3.49.88-6.19,2.65-8.11,1.77-1.91,4.33-2.87,7.7-2.87s5.84.96,7.54,2.87c1.7,1.92,2.55,4.66,2.55,8.23v1.83h-6.56v-2.27c0-1.51-.3-2.62-.89-3.31-.59-.69-1.45-1.04-2.59-1.04-2.31,0-3.47,1.41-3.47,4.23,0,1.6.43,3.09,1.29,4.48s2.43,3.07,4.7,5.05c2.9,2.52,4.9,4.82,5.99,6.88,1.09,2.06,1.64,4.48,1.64,7.26,0,3.62-.9,6.4-2.68,8.33-1.79,1.94-4.38,2.9-7.79,2.9s-5.91-.96-7.64-2.87Z"/>
        <path class="cls-3" d="M204.07,80.11h-7.26v-6.31h21.45v6.31h-7.26v37.86h-6.94v-37.86Z"/>
        <path class="cls-3" d="M225.27,115.73c-1.77-1.92-2.65-4.66-2.65-8.24v-33.69h6.94v34.2c0,1.51.3,2.61.91,3.28.61.67,1.48,1.01,2.62,1.01s2.01-.34,2.62-1.01c.61-.67.91-1.77.91-3.28v-34.2h6.69v33.69c0,3.58-.88,6.32-2.65,8.24-1.77,1.91-4.33,2.87-7.7,2.87s-5.93-.96-7.7-2.87Z"/>
        <path class="cls-3" d="M249.5,73.8h10.6c3.45,0,6.04.92,7.76,2.78s2.59,4.56,2.59,8.14v22.34c0,3.58-.86,6.29-2.59,8.14s-4.31,2.78-7.76,2.78h-10.6v-44.16ZM259.97,111.66c1.14,0,2.01-.34,2.62-1.01.61-.67.91-1.77.91-3.28v-22.96c0-1.51-.31-2.61-.91-3.28-.61-.67-1.48-1.01-2.62-1.01h-3.53v31.55h3.53Z"/>
        <path class="cls-3" d="M276.38,73.8h6.94v44.16h-6.94v-44.16Z"/>
        <path class="cls-3" d="M291.96,115.69c-1.81-1.93-2.71-4.67-2.71-8.2v-23.22c0-3.53.9-6.27,2.71-8.2,1.81-1.94,4.42-2.9,7.82-2.9s6.02.97,7.83,2.9c1.81,1.93,2.71,4.67,2.71,8.2v23.22c0,3.54-.9,6.27-2.71,8.2-1.81,1.94-4.42,2.9-7.83,2.9s-6.02-.97-7.82-2.9ZM303.38,107.93v-24.1c0-2.9-1.2-4.35-3.6-4.35s-3.6,1.45-3.6,4.35v24.1c0,2.9,1.2,4.35,3.6,4.35s3.6-1.45,3.6-4.35Z"/>
        <path class="cls-3" d="M317.63,115.73c-1.73-1.92-2.59-4.66-2.59-8.24v-2.52h6.56v3.03c0,2.86,1.2,4.29,3.59,4.29,1.18,0,2.07-.35,2.68-1.04.61-.7.91-1.82.91-3.38,0-1.85-.42-3.48-1.26-4.89-.84-1.41-2.4-3.1-4.67-5.08-2.86-2.52-4.86-4.81-5.99-6.85-1.13-2.04-1.7-4.34-1.7-6.91,0-3.49.88-6.19,2.65-8.11,1.77-1.91,4.33-2.87,7.7-2.87s5.84.96,7.54,2.87c1.7,1.92,2.55,4.66,2.55,8.23v1.83h-6.56v-2.27c0-1.51-.3-2.62-.89-3.31-.59-.69-1.45-1.04-2.59-1.04-2.31,0-3.47,1.41-3.47,4.23,0,1.6.43,3.09,1.29,4.48s2.43,3.07,4.7,5.05c2.9,2.52,4.9,4.82,5.99,6.88,1.09,2.06,1.64,4.48,1.64,7.26,0,3.62-.9,6.4-2.68,8.33-1.79,1.94-4.38,2.9-7.79,2.9s-5.91-.96-7.64-2.87Z"/>
      </g>
      <circle class="cls-3" cx="57.8" cy="87.16" r="26.73"/>
      <path class="cls-3" d="M115.25,107.69c3.88-1.47,7.56-3.35,10.96-5.61-10.11,8.86-23.31,14.21-37.77,14.21-.56,0-1.15,0-1.71-.02-5.42-.17-10.65-1.08-15.59-2.65-.74-.22-1.45-.46-2.17-.72-.05-.02-.1-.03-.14-.05-.19-.07-.36-.14-.53-.21-.32-.12-.65-.24-.97-.38-.1-.03-.22-.09-.32-.12-.56-.22-1.13-.46-1.68-.72-.05-.02-.1-.03-.14-.05-1.01-.44-1.98-.92-2.96-1.42-12.86-6.62-22.88-17.94-27.82-31.7-.24-.67-.46-1.35-.67-2.03-.12-.36-.24-.72-.34-1.08l-.26-.92c-.03-.12-.07-.26-.1-.39-.15-.55-.31-1.11-.43-1.69-.03-.1-.05-.21-.07-.31-.03-.09-.05-.17-.07-.26-.22-1.01-.43-2.03-.6-3.08-.44-2.56-.7-5.2-.79-7.87-.02-.56-.02-1.15-.02-1.71s0-1.15.02-1.71c.74-25.15,17.7-46.27,40.8-53.21-6,2.77-11.44,6.57-16.07,11.18-10.28,10.17-16.64,24.28-16.64,39.89,0,3.13.26,6.19.75,9.17,6.14,16.93,18.02,34.67,37.7,44.19,5.59,1.86,11.56,2.87,17.77,2.87,3.16,0,6.28-.26,9.3-.77,3.64-.6,7.18-1.57,10.55-2.84Z"/>
      <path class="cls-3" d="M88.44,44.01c0-9.17,7.42-16.59,16.59-16.59s16.57,7.42,16.57,16.59-7.42,16.59-16.57,16.59-16.59-7.42-16.59-16.59Z"/>
      <path class="cls-3" d="M121.59,44.01c0,9.17-7.42,16.59-16.57,16.59s-16.59-7.42-16.59-16.59,7.42-16.59,16.59-16.59,16.57,7.42,16.57,16.59Z"/>
      <path class="cls-3" d="M66.36,114.57c.6-.36,1.16-.74,1.71-1.15-3.95,13.59-16.5,23.53-31.38,23.53-.56,0-1.13-.02-1.68-.03-.03-.02-.05-.02-.07,0-16.67-.89-30.03-14.24-30.92-30.92.02-.02.02-.03,0-.07-.02-.55-.03-1.11-.03-1.68s.02-1.13.03-1.68c.02-.03.02-.05,0-.07.89-16.67,14.24-30.03,30.92-30.92.02.02.03.02.07,0h.38s-.03,0-.05.03c-1.32,1.11-2.53,2.36-3.59,3.73-3.63,4.53-5.78,10.28-5.78,16.52,0,14.67,11.88,26.57,26.57,26.57,4.04,0,7.85-.91,11.27-2.5.89-.43,1.73-.87,2.55-1.39Z"/>
      <path class="cls-3" d="M69.39,104.25c0,.56-.02,1.13-.03,1.68-.03-.56-.09-1.13-.15-1.68.07-.55.12-1.11.15-1.68.02.55.03,1.11.03,1.68Z"/>
      <path class="cls-3" d="M69.39,104.25c0,.56-.02,1.13-.03,1.68-.03-.56-.09-1.13-.15-1.68.07-.55.12-1.11.15-1.68.02.55.03,1.11.03,1.68Z"/>
      <path class="cls-3" d="M121.59,44.01c0,9.17-7.42,16.59-16.57,16.59s-16.59-7.42-16.59-16.59,7.42-16.59,16.59-16.59,16.57,7.42,16.57,16.59Z"/>
      <circle class="cls-3" cx="57.8" cy="87.16" r="26.73"/>
      <path class="cls-3" d="M115.25,107.69c3.88-1.47,7.56-3.35,10.96-5.61-10.11,8.86-23.31,14.21-37.77,14.21-.56,0-1.15,0-1.71-.02-5.42-.17-10.65-1.08-15.59-2.65-.74-.22-1.45-.46-2.17-.72-.05-.02-.1-.03-.14-.05-.19-.07-.36-.14-.53-.21-.32-.12-.65-.24-.97-.38-.1-.03-.22-.09-.32-.12-.56-.22-1.13-.46-1.68-.72-.05-.02-.1-.03-.14-.05-1.01-.44-1.98-.92-2.96-1.42-12.86-6.62-22.88-17.94-27.82-31.7-.24-.67-.46-1.35-.67-2.03-.12-.36-.24-.72-.34-1.08l-.26-.92c-.03-.12-.07-.26-.1-.39-.15-.55-.31-1.11-.43-1.69-.03-.1-.05-.21-.07-.31-.03-.09-.05-.17-.07-.26-.22-1.01-.43-2.03-.6-3.08-.44-2.56-.7-5.2-.79-7.87-.02-.56-.02-1.15-.02-1.71s0-1.15.02-1.71c.74-25.15,17.7-46.27,40.8-53.21-6,2.77-11.44,6.57-16.07,11.18-10.28,10.17-16.64,24.28-16.64,39.89,0,3.13.26,6.19.75,9.17,6.14,16.93,18.02,34.67,37.7,44.19,5.59,1.86,11.56,2.87,17.77,2.87,3.16,0,6.28-.26,9.3-.77,3.64-.6,7.18-1.57,10.55-2.84Z"/>
      <path class="cls-3" d="M88.44,44.01c0-9.17,7.42-16.59,16.59-16.59s16.57,7.42,16.57,16.59-7.42,16.59-16.57,16.59-16.59-7.42-16.59-16.59Z"/>
      <path class="cls-3" d="M121.59,44.01c0,9.17-7.42,16.59-16.57,16.59s-16.59-7.42-16.59-16.59,7.42-16.59,16.59-16.59,16.57,7.42,16.57,16.59Z"/>
      <path class="cls-3" d="M66.36,114.57c.6-.36,1.16-.74,1.71-1.15-3.95,13.59-16.5,23.53-31.38,23.53-.56,0-1.13-.02-1.68-.03-.03-.02-.05-.02-.07,0-16.67-.89-30.03-14.24-30.92-30.92.02-.02.02-.03,0-.07-.02-.55-.03-1.11-.03-1.68s.02-1.13.03-1.68c.02-.03.02-.05,0-.07.89-16.67,14.24-30.03,30.92-30.92.02.02.03.02.07,0h.38s-.03,0-.05.03c-1.32,1.11-2.53,2.36-3.59,3.73-3.63,4.53-5.78,10.28-5.78,16.52,0,14.67,11.88,26.57,26.57,26.57,4.04,0,7.85-.91,11.27-2.5.89-.43,1.73-.87,2.55-1.39Z"/>
      <path class="cls-3" d="M69.39,104.25c0,.56-.02,1.13-.03,1.68-.03-.56-.09-1.13-.15-1.68.07-.55.12-1.11.15-1.68.02.55.03,1.11.03,1.68Z"/>
      <path class="cls-3" d="M69.39,104.25c0,.56-.02,1.13-.03,1.68-.03-.56-.09-1.13-.15-1.68.07-.55.12-1.11.15-1.68.02.55.03,1.11.03,1.68Z"/>
      <path class="cls-3" d="M121.59,44.01c0,9.17-7.42,16.59-16.57,16.59s-16.59-7.42-16.59-16.59,7.42-16.59,16.59-16.59,16.57,7.42,16.57,16.59Z"/>
      <circle class="cls-3" cx="57.8" cy="87.16" r="26.73"/>
      <path class="cls-3" d="M115.25,107.69c3.88-1.47,7.56-3.35,10.96-5.61-10.11,8.86-23.31,14.21-37.77,14.21-.56,0-1.15,0-1.71-.02-5.42-.17-10.65-1.08-15.59-2.65-.74-.22-1.45-.46-2.17-.72-.05-.02-.1-.03-.14-.05-.19-.07-.36-.14-.53-.21-.32-.12-.65-.24-.97-.38-.1-.03-.22-.09-.32-.12-.56-.22-1.13-.46-1.68-.72-.05-.02-.1-.03-.14-.05-1.01-.44-1.98-.92-2.96-1.42-12.86-6.62-22.88-17.94-27.82-31.7-.24-.67-.46-1.35-.67-2.03-.12-.36-.24-.72-.34-1.08l-.26-.92c-.03-.12-.07-.26-.1-.39-.15-.55-.31-1.11-.43-1.69-.03-.1-.05-.21-.07-.31-.03-.09-.05-.17-.07-.26-.22-1.01-.43-2.03-.6-3.08-.44-2.56-.7-5.2-.79-7.87-.02-.56-.02-1.15-.02-1.71s0-1.15.02-1.71c.74-25.15,17.7-46.27,40.8-53.21-6,2.77-11.44,6.57-16.07,11.18-10.28,10.17-16.64,24.28-16.64,39.89,0,3.13.26,6.19.75,9.17,6.14,16.93,18.02,34.67,37.7,44.19,5.59,1.86,11.56,2.87,17.77,2.87,3.16,0,6.28-.26,9.3-.77,3.64-.6,7.18-1.57,10.55-2.84Z"/>
      <path class="cls-3" d="M88.44,44.01c0-9.17,7.42-16.59,16.59-16.59s16.57,7.42,16.57,16.59-7.42,16.59-16.57,16.59-16.59-7.42-16.59-16.59Z"/>
      <path class="cls-3" d="M121.59,44.01c0,9.17-7.42,16.59-16.57,16.59s-16.59-7.42-16.59-16.59,7.42-16.59,16.59-16.59,16.57,7.42,16.57,16.59Z"/>
      <path class="cls-3" d="M66.36,114.57c.6-.36,1.16-.74,1.71-1.15-3.95,13.59-16.5,23.53-31.38,23.53-.56,0-1.13-.02-1.68-.03-.03-.02-.05-.02-.07,0-16.67-.89-30.03-14.24-30.92-30.92.02-.02.02-.03,0-.07-.02-.55-.03-1.11-.03-1.68s.02-1.13.03-1.68c.02-.03.02-.05,0-.07.89-16.67,14.24-30.03,30.92-30.92.02.02.03.02.07,0h.38s-.03,0-.05.03c-1.32,1.11-2.53,2.36-3.59,3.73-3.63,4.53-5.78,10.28-5.78,16.52,0,14.67,11.88,26.57,26.57,26.57,4.04,0,7.85-.91,11.27-2.5.89-.43,1.73-.87,2.55-1.39Z"/>
      <path class="cls-3" d="M69.39,104.25c0,.56-.02,1.13-.03,1.68-.03-.56-.09-1.13-.15-1.68.07-.55.12-1.11.15-1.68.02.55.03,1.11.03,1.68Z"/>
      <path class="cls-3" d="M69.39,104.25c0,.56-.02,1.13-.03,1.68-.03-.56-.09-1.13-.15-1.68.07-.55.12-1.11.15-1.68.02.55.03,1.11.03,1.68Z"/>
      <path class="cls-3" d="M121.59,44.01c0,9.17-7.42,16.59-16.57,16.59s-16.59-7.42-16.59-16.59,7.42-16.59,16.59-16.59,16.57,7.42,16.57,16.59Z"/>
    </g>
    <g id="White_on_black-3" data-name="White on black">
      <g>
        <path class="cls-4" d="M159.37,63.18c-1.75-1.89-2.62-4.56-2.62-8.01v-23.72c0-3.45.87-6.12,2.62-8.01s4.28-2.84,7.6-2.84,5.86.95,7.6,2.84,2.62,4.56,2.62,8.01v4.67h-6.56v-5.11c0-2.73-1.16-4.1-3.47-4.1s-3.47,1.37-3.47,4.1v24.67c0,2.69,1.16,4.04,3.47,4.04s3.47-1.35,3.47-4.04v-6.75h6.56v6.25c0,3.45-.87,6.12-2.62,8.01s-4.28,2.84-7.6,2.84-5.86-.95-7.6-2.84Z"/>
        <path class="cls-4" d="M182.62,21.22h10.28c3.57,0,6.18.83,7.82,2.49,1.64,1.66,2.46,4.22,2.46,7.67v2.71c0,4.59-1.51,7.49-4.54,8.71v.13c1.68.51,2.87,1.54,3.56,3.09.7,1.56,1.04,3.64,1.04,6.25v7.76c0,1.26.04,2.28.13,3.06s.3,1.55.63,2.3h-7.07c-.25-.71-.42-1.39-.5-2.02-.08-.63-.13-1.77-.13-3.41v-8.07c0-2.02-.33-3.43-.98-4.23-.65-.8-1.78-1.2-3.38-1.2h-2.4v18.93h-6.94V21.22ZM192.08,40.15c1.39,0,2.43-.36,3.12-1.07.69-.72,1.04-1.92,1.04-3.6v-3.41c0-1.6-.28-2.75-.85-3.47-.57-.71-1.46-1.07-2.68-1.07h-3.16v12.62h2.52Z"/>
        <path class="cls-4" d="M211.52,63.12c-1.81-1.93-2.71-4.67-2.71-8.2v-23.22c0-3.53.9-6.27,2.71-8.2,1.81-1.94,4.42-2.9,7.82-2.9s6.02.97,7.83,2.9c1.81,1.93,2.71,4.67,2.71,8.2v23.22c0,3.54-.9,6.27-2.71,8.2-1.81,1.94-4.42,2.9-7.83,2.9s-6.02-.97-7.82-2.9ZM222.94,55.36v-24.1c0-2.9-1.2-4.35-3.6-4.35s-3.6,1.45-3.6,4.35v24.1c0,2.9,1.2,4.35,3.6,4.35s3.6-1.45,3.6-4.35Z"/>
        <path class="cls-4" d="M235.8,21.22h9.9l4.42,31.61h.13l4.42-31.61h9.9v44.16h-6.56V31.95h-.13l-5.05,33.44h-5.8l-5.05-33.44h-.13v33.44h-6.06V21.22Z"/>
        <path class="cls-4" d="M276.38,21.22h9.4l7.19,44.16h-6.94l-1.26-8.77v.13h-7.89l-1.26,8.64h-6.44l7.19-44.16ZM283.95,50.75l-3.09-21.83h-.13l-3.03,21.83h6.25Z"/>
        <path class="cls-4" d="M300.1,27.53h-7.26v-6.31h21.45v6.31h-7.26v37.86h-6.94V27.53Z"/>
        <path class="cls-4" d="M318.9,21.22h6.94v44.16h-6.94V21.22Z"/>
        <path class="cls-4" d="M334.45,63.18c-1.75-1.89-2.62-4.56-2.62-8.01v-23.72c0-3.45.87-6.12,2.62-8.01s4.28-2.84,7.6-2.84,5.86.95,7.6,2.84c1.75,1.89,2.62,4.56,2.62,8.01v4.67h-6.56v-5.11c0-2.73-1.16-4.1-3.47-4.1s-3.47,1.37-3.47,4.1v24.67c0,2.69,1.16,4.04,3.47,4.04s3.47-1.35,3.47-4.04v-6.75h6.56v6.25c0,3.45-.87,6.12-2.62,8.01-1.75,1.89-4.28,2.84-7.6,2.84s-5.86-.95-7.6-2.84Z"/>
        <path class="cls-4" d="M175.3,115.73c-1.73-1.92-2.59-4.66-2.59-8.24v-2.52h6.56v3.03c0,2.86,1.2,4.29,3.59,4.29,1.18,0,2.07-.35,2.68-1.04.61-.7.91-1.82.91-3.38,0-1.85-.42-3.48-1.26-4.89-.84-1.41-2.4-3.1-4.67-5.08-2.86-2.52-4.86-4.81-5.99-6.85-1.13-2.04-1.7-4.34-1.7-6.91,0-3.49.88-6.19,2.65-8.11,1.77-1.91,4.33-2.87,7.7-2.87s5.84.96,7.54,2.87c1.7,1.92,2.55,4.66,2.55,8.23v1.83h-6.56v-2.27c0-1.51-.3-2.62-.89-3.31-.59-.69-1.45-1.04-2.59-1.04-2.31,0-3.47,1.41-3.47,4.23,0,1.6.43,3.09,1.29,4.48s2.43,3.07,4.7,5.05c2.9,2.52,4.9,4.82,5.99,6.88,1.09,2.06,1.64,4.48,1.64,7.26,0,3.62-.9,6.4-2.68,8.33-1.79,1.94-4.38,2.9-7.79,2.9s-5.91-.96-7.64-2.87Z"/>
        <path class="cls-4" d="M204.07,80.11h-7.26v-6.31h21.45v6.31h-7.26v37.86h-6.94v-37.86Z"/>
        <path class="cls-4" d="M225.27,115.73c-1.77-1.92-2.65-4.66-2.65-8.24v-33.69h6.94v34.2c0,1.51.3,2.61.91,3.28.61.67,1.48,1.01,2.62,1.01s2.01-.34,2.62-1.01c.61-.67.91-1.77.91-3.28v-34.2h6.69v33.69c0,3.58-.88,6.32-2.65,8.24-1.77,1.91-4.33,2.87-7.7,2.87s-5.93-.96-7.7-2.87Z"/>
        <path class="cls-4" d="M249.5,73.8h10.6c3.45,0,6.04.92,7.76,2.78s2.59,4.56,2.59,8.14v22.34c0,3.58-.86,6.29-2.59,8.14s-4.31,2.78-7.76,2.78h-10.6v-44.16ZM259.97,111.66c1.14,0,2.01-.34,2.62-1.01.61-.67.91-1.77.91-3.28v-22.96c0-1.51-.31-2.61-.91-3.28-.61-.67-1.48-1.01-2.62-1.01h-3.53v31.55h3.53Z"/>
        <path class="cls-4" d="M276.38,73.8h6.94v44.16h-6.94v-44.16Z"/>
        <path class="cls-4" d="M291.96,115.69c-1.81-1.93-2.71-4.67-2.71-8.2v-23.22c0-3.53.9-6.27,2.71-8.2,1.81-1.94,4.42-2.9,7.82-2.9s6.02.97,7.83,2.9c1.81,1.93,2.71,4.67,2.71,8.2v23.22c0,3.54-.9,6.27-2.71,8.2-1.81,1.94-4.42,2.9-7.83,2.9s-6.02-.97-7.82-2.9ZM303.38,107.93v-24.1c0-2.9-1.2-4.35-3.6-4.35s-3.6,1.45-3.6,4.35v24.1c0,2.9,1.2,4.35,3.6,4.35s3.6-1.45,3.6-4.35Z"/>
        <path class="cls-4" d="M317.63,115.73c-1.73-1.92-2.59-4.66-2.59-8.24v-2.52h6.56v3.03c0,2.86,1.2,4.29,3.59,4.29,1.18,0,2.07-.35,2.68-1.04.61-.7.91-1.82.91-3.38,0-1.85-.42-3.48-1.26-4.89-.84-1.41-2.4-3.1-4.67-5.08-2.86-2.52-4.86-4.81-5.99-6.85-1.13-2.04-1.7-4.34-1.7-6.91,0-3.49.88-6.19,2.65-8.11,1.77-1.91,4.33-2.87,7.7-2.87s5.84.96,7.54,2.87c1.7,1.92,2.55,4.66,2.55,8.23v1.83h-6.56v-2.27c0-1.51-.3-2.62-.89-3.31-.59-.69-1.45-1.04-2.59-1.04-2.31,0-3.47,1.41-3.47,4.23,0,1.6.43,3.09,1.29,4.48s2.43,3.07,4.7,5.05c2.9,2.52,4.9,4.82,5.99,6.88,1.09,2.06,1.64,4.48,1.64,7.26,0,3.62-.9,6.4-2.68,8.33-1.79,1.94-4.38,2.9-7.79,2.9s-5.91-.96-7.64-2.87Z"/>
      </g>
      <circle class="cls-4" cx="53.8" cy="83.16" r="26.73"/>
      <path class="cls-4" d="M111.25,103.69c3.88-1.47,7.56-3.35,10.96-5.61-10.11,8.86-23.31,14.21-37.77,14.21-.56,0-1.15,0-1.71-.02-5.42-.17-10.65-1.08-15.59-2.65-.74-.22-1.45-.46-2.17-.72-.05-.02-.1-.03-.14-.05-.19-.07-.36-.14-.53-.21-.32-.12-.65-.24-.97-.38-.1-.03-.22-.09-.32-.12-.56-.22-1.13-.46-1.68-.72-.05-.02-.1-.03-.14-.05-1.01-.44-1.98-.92-2.96-1.42-12.86-6.62-22.88-17.94-27.82-31.7-.24-.67-.46-1.35-.67-2.03-.12-.36-.24-.72-.34-1.08l-.26-.92c-.03-.12-.07-.26-.1-.39-.15-.55-.31-1.11-.43-1.69-.03-.1-.05-.21-.07-.31-.03-.09-.05-.17-.07-.26-.22-1.01-.43-2.03-.6-3.08-.44-2.56-.7-5.2-.79-7.87-.02-.56-.02-1.15-.02-1.71s0-1.15.02-1.71C27.82,28.06,44.78,6.94,67.89,0c-6,2.77-11.44,6.57-16.07,11.18-10.28,10.17-16.64,24.28-16.64,39.89,0,3.13.26,6.19.75,9.17,6.14,16.93,18.02,34.67,37.7,44.19,5.59,1.86,11.56,2.87,17.77,2.87,3.16,0,6.28-.26,9.3-.77,3.64-.6,7.18-1.57,10.55-2.84Z"/>
      <path class="cls-4" d="M84.44,40.01c0-9.17,7.42-16.59,16.59-16.59s16.57,7.42,16.57,16.59-7.42,16.59-16.57,16.59-16.59-7.42-16.59-16.59Z"/>
      <path class="cls-4" d="M117.59,40.01c0,9.17-7.42,16.59-16.57,16.59s-16.59-7.42-16.59-16.59,7.42-16.59,16.59-16.59,16.57,7.42,16.57,16.59Z"/>
      <path class="cls-4" d="M62.36,110.57c.6-.36,1.16-.74,1.71-1.15-3.95,13.59-16.5,23.53-31.38,23.53-.56,0-1.13-.02-1.68-.03-.03-.02-.05-.02-.07,0C14.28,132.03.92,118.67.03,102c.02-.02.02-.03,0-.07-.02-.55-.03-1.11-.03-1.68s.02-1.13.03-1.68c.02-.03.02-.05,0-.07.89-16.67,14.24-30.03,30.92-30.92.02.02.03.02.07,0h.38s-.03,0-.05.03c-1.32,1.11-2.53,2.36-3.59,3.73-3.63,4.53-5.78,10.28-5.78,16.52,0,14.67,11.88,26.57,26.57,26.57,4.04,0,7.85-.91,11.27-2.5.89-.43,1.73-.87,2.55-1.39Z"/>
      <path class="cls-4" d="M65.39,100.25c0,.56-.02,1.13-.03,1.68-.03-.56-.09-1.13-.15-1.68.07-.55.12-1.11.15-1.68.02.55.03,1.11.03,1.68Z"/>
      <path class="cls-4" d="M65.39,100.25c0,.56-.02,1.13-.03,1.68-.03-.56-.09-1.13-.15-1.68.07-.55.12-1.11.15-1.68.02.55.03,1.11.03,1.68Z"/>
      <path class="cls-4" d="M117.59,40.01c0,9.17-7.42,16.59-16.57,16.59s-16.59-7.42-16.59-16.59,7.42-16.59,16.59-16.59,16.57,7.42,16.57,16.59Z"/>
      <circle class="cls-4" cx="53.8" cy="83.16" r="26.73"/>
      <path class="cls-4" d="M111.25,103.69c3.88-1.47,7.56-3.35,10.96-5.61-10.11,8.86-23.31,14.21-37.77,14.21-.56,0-1.15,0-1.71-.02-5.42-.17-10.65-1.08-15.59-2.65-.74-.22-1.45-.46-2.17-.72-.05-.02-.1-.03-.14-.05-.19-.07-.36-.14-.53-.21-.32-.12-.65-.24-.97-.38-.1-.03-.22-.09-.32-.12-.56-.22-1.13-.46-1.68-.72-.05-.02-.1-.03-.14-.05-1.01-.44-1.98-.92-2.96-1.42-12.86-6.62-22.88-17.94-27.82-31.7-.24-.67-.46-1.35-.67-2.03-.12-.36-.24-.72-.34-1.08l-.26-.92c-.03-.12-.07-.26-.1-.39-.15-.55-.31-1.11-.43-1.69-.03-.1-.05-.21-.07-.31-.03-.09-.05-.17-.07-.26-.22-1.01-.43-2.03-.6-3.08-.44-2.56-.7-5.2-.79-7.87-.02-.56-.02-1.15-.02-1.71s0-1.15.02-1.71C27.82,28.06,44.78,6.94,67.89,0c-6,2.77-11.44,6.57-16.07,11.18-10.28,10.17-16.64,24.28-16.64,39.89,0,3.13.26,6.19.75,9.17,6.14,16.93,18.02,34.67,37.7,44.19,5.59,1.86,11.56,2.87,17.77,2.87,3.16,0,6.28-.26,9.3-.77,3.64-.6,7.18-1.57,10.55-2.84Z"/>
      <path class="cls-4" d="M84.44,40.01c0-9.17,7.42-16.59,16.59-16.59s16.57,7.42,16.57,16.59-7.42,16.59-16.57,16.59-16.59-7.42-16.59-16.59Z"/>
      <path class="cls-4" d="M117.59,40.01c0,9.17-7.42,16.59-16.57,16.59s-16.59-7.42-16.59-16.59,7.42-16.59,16.59-16.59,16.57,7.42,16.57,16.59Z"/>
      <path class="cls-4" d="M62.36,110.57c.6-.36,1.16-.74,1.71-1.15-3.95,13.59-16.5,23.53-31.38,23.53-.56,0-1.13-.02-1.68-.03-.03-.02-.05-.02-.07,0C14.28,132.03.92,118.67.03,102c.02-.02.02-.03,0-.07-.02-.55-.03-1.11-.03-1.68s.02-1.13.03-1.68c.02-.03.02-.05,0-.07.89-16.67,14.24-30.03,30.92-30.92.02.02.03.02.07,0h.38s-.03,0-.05.03c-1.32,1.11-2.53,2.36-3.59,3.73-3.63,4.53-5.78,10.28-5.78,16.52,0,14.67,11.88,26.57,26.57,26.57,4.04,0,7.85-.91,11.27-2.5.89-.43,1.73-.87,2.55-1.39Z"/>
      <path class="cls-4" d="M65.39,100.25c0,.56-.02,1.13-.03,1.68-.03-.56-.09-1.13-.15-1.68.07-.55.12-1.11.15-1.68.02.55.03,1.11.03,1.68Z"/>
      <path class="cls-4" d="M65.39,100.25c0,.56-.02,1.13-.03,1.68-.03-.56-.09-1.13-.15-1.68.07-.55.12-1.11.15-1.68.02.55.03,1.11.03,1.68Z"/>
      <path class="cls-4" d="M117.59,40.01c0,9.17-7.42,16.59-16.57,16.59s-16.59-7.42-16.59-16.59,7.42-16.59,16.59-16.59,16.57,7.42,16.57,16.59Z"/>
      <circle class="cls-4" cx="53.8" cy="83.16" r="26.73"/>
      <path class="cls-4" d="M111.25,103.69c3.88-1.47,7.56-3.35,10.96-5.61-10.11,8.86-23.31,14.21-37.77,14.21-.56,0-1.15,0-1.71-.02-5.42-.17-10.65-1.08-15.59-2.65-.74-.22-1.45-.46-2.17-.72-.05-.02-.1-.03-.14-.05-.19-.07-.36-.14-.53-.21-.32-.12-.65-.24-.97-.38-.1-.03-.22-.09-.32-.12-.56-.22-1.13-.46-1.68-.72-.05-.02-.1-.03-.14-.05-1.01-.44-1.98-.92-2.96-1.42-12.86-6.62-22.88-17.94-27.82-31.7-.24-.67-.46-1.35-.67-2.03-.12-.36-.24-.72-.34-1.08l-.26-.92c-.03-.12-.07-.26-.1-.39-.15-.55-.31-1.11-.43-1.69-.03-.1-.05-.21-.07-.31-.03-.09-.05-.17-.07-.26-.22-1.01-.43-2.03-.6-3.08-.44-2.56-.7-5.2-.79-7.87-.02-.56-.02-1.15-.02-1.71s0-1.15.02-1.71C27.82,28.06,44.78,6.94,67.89,0c-6,2.77-11.44,6.57-16.07,11.18-10.28,10.17-16.64,24.28-16.64,39.89,0,3.13.26,6.19.75,9.17,6.14,16.93,18.02,34.67,37.7,44.19,5.59,1.86,11.56,2.87,17.77,2.87,3.16,0,6.28-.26,9.3-.77,3.64-.6,7.18-1.57,10.55-2.84Z"/>
      <path class="cls-4" d="M84.44,40.01c0-9.17,7.42-16.59,16.59-16.59s16.57,7.42,16.57,16.59-7.42,16.59-16.57,16.59-16.59-7.42-16.59-16.59Z"/>
      <path class="cls-4" d="M117.59,40.01c0,9.17-7.42,16.59-16.57,16.59s-16.59-7.42-16.59-16.59,7.42-16.59,16.59-16.59,16.57,7.42,16.57,16.59Z"/>
      <path class="cls-4" d="M62.36,110.57c.6-.36,1.16-.74,1.71-1.15-3.95,13.59-16.5,23.53-31.38,23.53-.56,0-1.13-.02-1.68-.03-.03-.02-.05-.02-.07,0C14.28,132.03.92,118.67.03,102c.02-.02.02-.03,0-.07-.02-.55-.03-1.11-.03-1.68s.02-1.13.03-1.68c.02-.03.02-.05,0-.07.89-16.67,14.24-30.03,30.92-30.92.02.02.03.02.07,0h.38s-.03,0-.05.03c-1.32,1.11-2.53,2.36-3.59,3.73-3.63,4.53-5.78,10.28-5.78,16.52,0,14.67,11.88,26.57,26.57,26.57,4.04,0,7.85-.91,11.27-2.5.89-.43,1.73-.87,2.55-1.39Z"/>
      <path class="cls-4" d="M65.39,100.25c0,.56-.02,1.13-.03,1.68-.03-.56-.09-1.13-.15-1.68.07-.55.12-1.11.15-1.68.02.55.03,1.11.03,1.68Z"/>
      <path class="cls-4" d="M65.39,100.25c0,.56-.02,1.13-.03,1.68-.03-.56-.09-1.13-.15-1.68.07-.55.12-1.11.15-1.68.02.55.03,1.11.03,1.68Z"/>
      <path class="cls-4" d="M117.59,40.01c0,9.17-7.42,16.59-16.57,16.59s-16.59-7.42-16.59-16.59,7.42-16.59,16.59-16.59,16.57,7.42,16.57,16.59Z"/>
    </g>
    <g>
      <path class="cls-1" d="M185.77,93.23c-2.27-1.98-3.84-3.66-4.7-5.05-.86-1.39-1.29-2.88-1.29-4.48,0-2.82,1.16-4.23,3.47-4.23,1.13,0,2,.35,2.59,1.04.59.69.89,1.8.89,3.31v2.27h6.56v-1.83c0-3.57-.85-6.32-2.55-8.23-1.7-1.91-4.22-2.87-7.54-2.87s-5.93.96-7.7,2.87c-1.77,1.92-2.65,4.62-2.65,8.11,0,2.57.57,4.87,1.7,6.91,1.14,2.04,3.13,4.32,5.99,6.85,2.27,1.98,3.83,3.67,4.67,5.08.84,1.41,1.26,3.04,1.26,4.89,0,1.56-.31,2.68-.91,3.38-.61.69-1.5,1.04-2.68,1.04-2.4,0-3.59-1.43-3.59-4.29v-3.03h-6.56v2.52c0,3.58.86,6.32,2.59,8.24,1.73,1.91,4.27,2.87,7.64,2.87s6-.97,7.79-2.9c1.79-1.93,2.68-4.71,2.68-8.33,0-2.78-.55-5.19-1.64-7.26-1.1-2.06-3.09-4.35-5.99-6.88Z"/>
      <path class="cls-1" d="M11.66,125.29c5.27,4.43,11.96,7.24,19.29,7.63.02-.02.03-.02.07,0,.55.02,1.11.03,1.68.03,11.86,0,22.24-6.32,27.97-15.78-2.56.82-5.28,1.27-8.11,1.27-.68,0-1.34-.03-2.01-.08-.66.05-1.32.08-1.99.08-14.69,0-26.57-11.9-26.57-26.57,0-.66.04-1.32.08-1.97-.05-.67-.08-1.35-.08-2.03,0-5.42,1.63-10.46,4.43-14.66-12.49,4.15-21.63,15.6-22.37,29.3.02.02.02.03,0,.07-.02.55-.03,1.11-.03,1.68s.02,1.13.03,1.68c.02.03.02.05,0,.07.39,7.33,3.19,14.02,7.63,19.29Z"/>
      <rect class="cls-1" x="318.9" y="21.22" width="6.94" height="44.16"/>
      <path class="cls-1" d="M204.01,65.39c-.34-.76-.55-1.52-.63-2.3-.08-.78-.13-1.8-.13-3.06v-7.76c0-2.61-.35-4.69-1.04-6.25-.69-1.56-1.88-2.59-3.56-3.09v-.13c3.03-1.22,4.54-4.12,4.54-8.71v-2.71c0-3.45-.82-6-2.46-7.67s-4.25-2.49-7.82-2.49h-10.28v44.16h6.94v-18.93h2.4c1.6,0,2.72.4,3.38,1.2.65.8.98,2.21.98,4.23v8.07c0,1.64.04,2.78.13,3.41.08.63.25,1.3.5,2.02h7.07ZM196.25,35.48c0,1.68-.35,2.88-1.04,3.6-.7.72-1.74,1.07-3.12,1.07h-2.52v-12.62h3.16c1.22,0,2.11.36,2.68,1.07.57.72.85,1.87.85,3.47v3.41Z"/>
      <path class="cls-1" d="M84.44,112.29c3.66,0,7.23-.34,10.7-1-.58,0-1.16-.01-1.74-.04-.66.02-1.33.04-2,.04-6.21,0-12.17-1.01-17.77-2.87-.76-.37-1.49-.77-2.23-1.16.95-.84,1.85-1.74,2.67-2.7-.15-.05-.3-.09-.44-.14-.76-.37-1.49-.77-2.23-1.16,5.12-4.49,8.51-10.89,9.04-18.1-.98-13.16-11.48-23.67-24.64-24.64-5.67.42-10.85,2.6-14.99,6.01-.29-.75-.59-1.49-.86-2.23-1.1.67-2.15,1.42-3.14,2.23-.3-.76-.6-1.53-.88-2.29-.5-2.98-.75-6.04-.75-9.17,0-.6.03-1.19.05-1.79-.03-.73-.05-1.47-.05-2.21,0-8.26,1.8-16.09,4.99-23.15-5.47,8.49-8.77,18.52-9.08,29.29-.02.56-.02,1.15-.02,1.71s0,1.15.02,1.71c.09,2.67.34,5.3.79,7.87.17,1.04.38,2.07.6,3.08.02.08.03.16.07.24-1.08.14-2.15.33-3.2.57-.29.65-.55,1.31-.78,1.99.16-.18.32-.36.49-.53.03.13.07.26.1.38l.26.92c.06.22.14.44.21.65-1.14,2.42-1.92,5.03-2.29,7.78.99-3.02,2.5-5.8,4.44-8.23.41-.52.84-1.02,1.29-1.51.03.13.07.26.1.38l.26.92c.06.22.14.44.21.65-1.62,3.45-2.53,7.3-2.53,11.36,0,6.36,2.23,12.2,5.94,16.79,4.59,3.71,10.43,5.94,16.79,5.94,3.29,0,6.43-.6,9.34-1.68.06.02.12.05.18.07.32.14.65.26.97.38.17.07.34.14.53.21.03.02.09.03.14.05.72.26,1.44.5,2.17.72,4.94,1.57,10.17,2.48,15.59,2.65.56.02,1.15.02,1.71.02Z"/>
      <polygon class="cls-1" points="196.82 80.11 204.07 80.11 204.07 117.97 211.01 117.97 211.01 80.11 218.27 80.11 218.27 73.8 196.82 73.8 196.82 80.11"/>
      <path class="cls-1" d="M55.8,113.81c2.56-.19,5.01-.73,7.32-1.59.36-.91.68-1.85.96-2.8-.55.41-1.11.79-1.71,1.15-.82.51-1.66.96-2.55,1.39-1.61.75-3.31,1.34-5.07,1.76.35.04.7.07,1.05.1Z"/>
      <path class="cls-1" d="M88.44,44.01c0,3.56,1.13,6.85,3.04,9.55,2.7,1.91,5.99,3.04,9.55,3.04,8.47,0,15.45-6.37,16.44-14.59-.91-7.56-6.89-13.54-14.44-14.45-8.22.99-14.58,7.97-14.58,16.45Z"/>
      <path class="cls-1" d="M177.19,55.17v-6.25h-6.56v6.75c0,2.69-1.16,4.04-3.47,4.04s-3.47-1.35-3.47-4.04v-24.67c0-2.73,1.16-4.1,3.47-4.1s3.47,1.37,3.47,4.1v5.11h6.56v-4.67c0-3.45-.87-6.12-2.62-8.01-1.75-1.89-4.28-2.84-7.6-2.84s-5.86.95-7.6,2.84c-1.75,1.89-2.62,4.56-2.62,8.01v23.72c0,3.45.87,6.12,2.62,8.01,1.75,1.89,4.28,2.84,7.6,2.84s5.86-.95,7.6-2.84,2.62-4.56,2.62-8.01Z"/>
      <path class="cls-1" d="M328.11,93.23c-2.27-1.98-3.84-3.66-4.7-5.05-.86-1.39-1.29-2.88-1.29-4.48,0-2.82,1.16-4.23,3.47-4.23,1.13,0,2,.35,2.59,1.04.59.69.89,1.8.89,3.31v2.27h6.56v-1.83c0-3.57-.85-6.32-2.55-8.23-1.7-1.91-4.22-2.87-7.54-2.87s-5.93.96-7.7,2.87c-1.77,1.92-2.65,4.62-2.65,8.11,0,2.57.57,4.87,1.7,6.91,1.14,2.04,3.13,4.32,5.99,6.85,2.27,1.98,3.83,3.67,4.67,5.08.84,1.41,1.26,3.04,1.26,4.89,0,1.56-.31,2.68-.91,3.38-.61.69-1.5,1.04-2.68,1.04-2.4,0-3.59-1.43-3.59-4.29v-3.03h-6.56v2.52c0,3.58.86,6.32,2.59,8.24,1.73,1.91,4.27,2.87,7.64,2.87s6-.97,7.79-2.9c1.79-1.93,2.68-4.71,2.68-8.33,0-2.78-.55-5.19-1.64-7.26-1.1-2.06-3.09-4.35-5.99-6.88Z"/>
      <path class="cls-1" d="M285.77,21.22h-9.4l-7.19,44.16h6.44l1.26-8.64h7.89v-.13l1.26,8.77h6.94l-7.19-44.16ZM277.7,50.75l3.03-21.83h.13l3.09,21.83h-6.25Z"/>
      <polygon class="cls-1" points="292.84 27.53 300.1 27.53 300.1 65.39 307.04 65.39 307.04 27.53 314.29 27.53 314.29 21.22 292.84 21.22 292.84 27.53"/>
      <path class="cls-1" d="M299.78,73.17c-3.41,0-6.02.97-7.82,2.9-1.81,1.93-2.71,4.67-2.71,8.2v23.22c0,3.54.9,6.27,2.71,8.2,1.81,1.94,4.42,2.9,7.82,2.9s6.02-.97,7.83-2.9c1.81-1.93,2.71-4.67,2.71-8.2v-23.22c0-3.53-.9-6.27-2.71-8.2-1.81-1.94-4.42-2.9-7.83-2.9ZM303.38,107.93c0,2.9-1.2,4.35-3.6,4.35s-3.6-1.45-3.6-4.35v-24.1c0-2.9,1.2-4.35,3.6-4.35s3.6,1.45,3.6,4.35v24.1Z"/>
      <path class="cls-1" d="M229.87,54.91v-23.22c0-3.53-.9-6.27-2.71-8.2-1.81-1.94-4.42-2.9-7.82-2.9s-6.02.97-7.82,2.9c-1.81,1.93-2.71,4.67-2.71,8.2v23.22c0,3.54.9,6.27,2.71,8.2,1.81,1.94,4.42,2.9,7.82,2.9s6.02-.97,7.82-2.9c1.81-1.93,2.71-4.67,2.71-8.2ZM222.94,55.36c0,2.9-1.2,4.35-3.6,4.35s-3.6-1.45-3.6-4.35v-24.1c0-2.9,1.2-4.35,3.6-4.35s3.6,1.45,3.6,4.35v24.1Z"/>
      <path class="cls-1" d="M352.27,36.11v-4.67c0-3.45-.87-6.12-2.62-8.01-1.75-1.89-4.28-2.84-7.6-2.84s-5.86.95-7.6,2.84c-1.75,1.89-2.62,4.56-2.62,8.01v23.72c0,3.45.87,6.12,2.62,8.01s4.28,2.84,7.6,2.84,5.86-.95,7.6-2.84c1.75-1.89,2.62-4.56,2.62-8.01v-6.25h-6.56v6.75c0,2.69-1.16,4.04-3.47,4.04s-3.47-1.35-3.47-4.04v-24.67c0-2.73,1.16-4.1,3.47-4.1s3.47,1.37,3.47,4.1v5.11h6.56Z"/>
      <rect class="cls-1" x="276.38" y="73.8" width="6.94" height="44.16"/>
      <path class="cls-1" d="M236.63,108c0,1.51-.31,2.61-.91,3.28-.61.67-1.48,1.01-2.62,1.01s-2.01-.34-2.62-1.01c-.61-.67-.91-1.77-.91-3.28v-34.2h-6.94v33.69c0,3.58.88,6.32,2.65,8.24,1.77,1.91,4.33,2.87,7.7,2.87s5.93-.96,7.7-2.87c1.77-1.92,2.65-4.66,2.65-8.24v-33.69h-6.69v34.2Z"/>
      <polygon class="cls-1" points="257.89 31.95 258.01 31.95 258.01 65.39 264.57 65.39 264.57 21.22 254.67 21.22 250.25 52.83 250.12 52.83 245.71 21.22 235.8 21.22 235.8 65.39 241.86 65.39 241.86 31.95 241.99 31.95 247.03 65.39 252.84 65.39 257.89 31.95"/>
      <path class="cls-1" d="M260.1,73.8h-10.6v44.16h10.6c3.45,0,6.04-.92,7.76-2.78,1.73-1.85,2.59-4.56,2.59-8.14v-22.34c0-3.57-.86-6.29-2.59-8.14-1.73-1.85-4.31-2.78-7.76-2.78ZM263.5,107.37c0,1.51-.31,2.61-.91,3.28-.61.67-1.48,1.01-2.62,1.01h-3.53v-31.55h3.53c1.14,0,2.01.34,2.62,1.01.61.67.91,1.77.91,3.28v22.96Z"/>
    </g>
  </g>
</svg>