<?xml version="1.0" encoding="UTF-8"?>
<svg id="Layer_2" data-name="Layer 2" xmlns="http://www.w3.org/2000/svg" viewBox="0 0 522.58 522.58">
  <defs>
    <style>
      .cls-1 {
        fill: #282828;
      }

      .cls-1, .cls-2 {
        stroke-width: 0px;
      }

      .cls-2 {
        fill: #f4f4f4;
      }
    </style>
  </defs>
  <g id="Package_one-sheet" data-name="Package one-sheet">
    <circle class="cls-2" cx="261.29" cy="261.29" r="261.29"/>
    <g id="White_on_black" data-name="White on black">
      <circle class="cls-1" cx="243.56" cy="301.77" r="64.83"/>
      <path class="cls-1" d="M382.92,351.57c9.42-3.57,18.33-8.13,26.59-13.61-24.51,21.49-56.54,34.47-91.63,34.47-1.37,0-2.78,0-4.15-.04-13.15-.41-25.84-2.61-37.83-6.43-1.78-.54-3.53-1.12-5.27-1.74-.12-.04-.25-.08-.33-.12-.46-.17-.87-.33-1.29-.5-.79-.29-1.58-.58-2.36-.91-.25-.08-.54-.21-.79-.29-1.37-.54-2.74-1.12-4.06-1.74-.12-.04-.25-.08-.33-.12-2.45-1.08-4.81-2.24-7.18-3.44-31.19-16.05-55.5-43.51-67.49-76.9-.58-1.62-1.12-3.28-1.62-4.94-.29-.87-.58-1.74-.83-2.61l-.62-2.24c-.08-.29-.17-.62-.25-.95-.37-1.33-.75-2.7-1.04-4.11-.08-.25-.12-.5-.17-.75-.08-.21-.12-.41-.17-.62-.54-2.45-1.04-4.94-1.45-7.47-1.08-6.22-1.7-12.61-1.91-19.08-.04-1.37-.04-2.78-.04-4.15s0-2.78.04-4.15c1.78-61.02,42.93-112.24,98.97-129.08-14.56,6.72-27.75,15.93-38.99,27.13-24.93,24.68-40.36,58.9-40.36,96.77,0,7.59.62,15.02,1.83,22.23,14.9,41.07,43.72,84.1,91.46,107.18,13.56,4.52,28.04,6.97,43.1,6.97,7.67,0,15.22-.62,22.56-1.87,8.83-1.45,17.42-3.82,25.59-6.89Z"/>
      <path class="cls-1" d="M317.89,197.1c0-22.23,18-40.23,40.23-40.23s40.19,18,40.19,40.23-18,40.23-40.19,40.23-40.23-18-40.23-40.23Z"/>
      <path class="cls-1" d="M398.31,197.1c0,22.23-18,40.23-40.19,40.23s-40.23-18-40.23-40.23,18-40.23,40.23-40.23,40.19,18,40.19,40.23Z"/>
      <path class="cls-1" d="M264.34,368.24c1.45-.87,2.82-1.78,4.15-2.78-9.58,32.98-40.03,57.07-76.11,57.07-1.37,0-2.74-.04-4.06-.08-.08-.04-.12-.04-.17,0-40.44-2.16-72.84-34.55-74.99-74.99.04-.04.04-.08,0-.17-.04-1.33-.08-2.7-.08-4.06s.04-2.74.08-4.07c.04-.08.04-.12,0-.17,2.16-40.44,34.55-72.84,74.99-74.99.04.04.08.04.17,0h.91s-.08,0-.12.08c-3.19,2.7-6.14,5.72-8.71,9.04-8.79,10.99-14.02,24.93-14.02,40.07,0,35.59,28.83,64.46,64.46,64.46,9.79,0,19.04-2.2,27.33-6.06,2.16-1.04,4.19-2.12,6.18-3.36Z"/>
      <path class="cls-1" d="M271.68,343.23c0,1.37-.04,2.74-.08,4.06-.08-1.37-.21-2.74-.37-4.06.17-1.33.29-2.7.37-4.07.04,1.33.08,2.7.08,4.07Z"/>
      <path class="cls-1" d="M271.68,343.23c0,1.37-.04,2.74-.08,4.06-.08-1.37-.21-2.74-.37-4.06.17-1.33.29-2.7.37-4.07.04,1.33.08,2.7.08,4.07Z"/>
      <path class="cls-1" d="M398.31,197.1c0,22.23-18,40.23-40.19,40.23s-40.23-18-40.23-40.23,18-40.23,40.23-40.23,40.19,18,40.19,40.23Z"/>
    </g>
  </g>
</svg>